<?xml version="1.0" encoding="utf-8"?>
<svg xmlns="http://www.w3.org/2000/svg" xmlns:xlink="http://www.w3.org/1999/xlink" width="600" height="400" viewBox="0 0 2400 1600">
<defs>
  <clipPath id="clip420">
    <rect x="0" y="0" width="2400" height="1600"/>
  </clipPath>
</defs>
<path clip-path="url(#clip420)" d="M0 1600 L2400 1600 L2400 0 L0 0  Z" fill="#ffffff" fill-rule="evenodd" fill-opacity="1"/>
<defs>
  <clipPath id="clip421">
    <rect x="203" y="123" width="2150" height="1288"/>
  </clipPath>
</defs>
<path clip-path="url(#clip420)" d="M251.071 1410.9 L2352.76 1410.9 L2352.76 123.472 L251.071 123.472  Z" fill="#ffffff" fill-rule="evenodd" fill-opacity="1"/>
<defs>
  <clipPath id="clip422">
    <rect x="251" y="123" width="2103" height="1288"/>
  </clipPath>
</defs>
<polyline clip-path="url(#clip422)" style="stroke:#000000; stroke-linecap:round; stroke-linejoin:round; stroke-width:2; stroke-opacity:0.1; fill:none" points="1103.64,1410.9 1103.64,123.472 "/>
<polyline clip-path="url(#clip422)" style="stroke:#000000; stroke-linecap:round; stroke-linejoin:round; stroke-width:2; stroke-opacity:0.1; fill:none" points="2293.27,1410.9 2293.27,123.472 "/>
<polyline clip-path="url(#clip422)" style="stroke:#000000; stroke-linecap:round; stroke-linejoin:round; stroke-width:2; stroke-opacity:0.1; fill:none" points="251.071,1020.89 2352.76,1020.89 "/>
<polyline clip-path="url(#clip422)" style="stroke:#000000; stroke-linecap:round; stroke-linejoin:round; stroke-width:2; stroke-opacity:0.1; fill:none" points="251.071,240.876 2352.76,240.876 "/>
<polyline clip-path="url(#clip420)" style="stroke:#000000; stroke-linecap:round; stroke-linejoin:round; stroke-width:4; stroke-opacity:1; fill:none" points="251.071,1410.9 2352.76,1410.9 "/>
<polyline clip-path="url(#clip420)" style="stroke:#000000; stroke-linecap:round; stroke-linejoin:round; stroke-width:4; stroke-opacity:1; fill:none" points="1103.64,1410.9 1103.64,1392 "/>
<polyline clip-path="url(#clip420)" style="stroke:#000000; stroke-linecap:round; stroke-linejoin:round; stroke-width:4; stroke-opacity:1; fill:none" points="2293.27,1410.9 2293.27,1392 "/>
<path clip-path="url(#clip420)" d="M1068.62 1485.02 L1076.26 1485.02 L1076.26 1458.66 L1067.95 1460.32 L1067.95 1456.06 L1076.22 1454.4 L1080.89 1454.4 L1080.89 1485.02 L1088.53 1485.02 L1088.53 1488.96 L1068.62 1488.96 L1068.62 1485.02 Z" fill="#000000" fill-rule="nonzero" fill-opacity="1" /><path clip-path="url(#clip420)" d="M1107.98 1457.48 Q1104.36 1457.48 1102.54 1461.04 Q1100.73 1464.58 1100.73 1471.71 Q1100.73 1478.82 1102.54 1482.38 Q1104.36 1485.92 1107.98 1485.92 Q1111.61 1485.92 1113.42 1482.38 Q1115.24 1478.82 1115.24 1471.71 Q1115.24 1464.58 1113.42 1461.04 Q1111.61 1457.48 1107.98 1457.48 M1107.98 1453.77 Q1113.79 1453.77 1116.84 1458.38 Q1119.92 1462.96 1119.92 1471.71 Q1119.92 1480.44 1116.84 1485.04 Q1113.79 1489.63 1107.98 1489.63 Q1102.17 1489.63 1099.09 1485.04 Q1096.03 1480.44 1096.03 1471.71 Q1096.03 1462.96 1099.09 1458.38 Q1102.17 1453.77 1107.98 1453.77 Z" fill="#000000" fill-rule="nonzero" fill-opacity="1" /><path clip-path="url(#clip420)" d="M1129.63 1435.97 Q1126.69 1435.97 1125.21 1438.86 Q1123.74 1441.74 1123.74 1447.53 Q1123.74 1453.31 1125.21 1456.2 Q1126.69 1459.08 1129.63 1459.08 Q1132.58 1459.08 1134.04 1456.2 Q1135.53 1453.31 1135.53 1447.53 Q1135.53 1441.74 1134.04 1438.86 Q1132.58 1435.97 1129.63 1435.97 M1129.63 1432.96 Q1134.35 1432.96 1136.83 1436.7 Q1139.33 1440.43 1139.33 1447.53 Q1139.33 1454.62 1136.83 1458.37 Q1134.35 1462.09 1129.63 1462.09 Q1124.9 1462.09 1122.4 1458.37 Q1119.92 1454.62 1119.92 1447.53 Q1119.92 1440.43 1122.4 1436.7 Q1124.9 1432.96 1129.63 1432.96 Z" fill="#000000" fill-rule="nonzero" fill-opacity="1" /><path clip-path="url(#clip420)" d="M2258.72 1485.02 L2266.36 1485.02 L2266.36 1458.66 L2258.05 1460.32 L2258.05 1456.06 L2266.31 1454.4 L2270.99 1454.4 L2270.99 1485.02 L2278.63 1485.02 L2278.63 1488.96 L2258.72 1488.96 L2258.72 1485.02 Z" fill="#000000" fill-rule="nonzero" fill-opacity="1" /><path clip-path="url(#clip420)" d="M2298.07 1457.48 Q2294.46 1457.48 2292.63 1461.04 Q2290.82 1464.58 2290.82 1471.71 Q2290.82 1478.82 2292.63 1482.38 Q2294.46 1485.92 2298.07 1485.92 Q2301.7 1485.92 2303.51 1482.38 Q2305.34 1478.82 2305.34 1471.71 Q2305.34 1464.58 2303.51 1461.04 Q2301.7 1457.48 2298.07 1457.48 M2298.07 1453.77 Q2303.88 1453.77 2306.94 1458.38 Q2310.01 1462.96 2310.01 1471.71 Q2310.01 1480.44 2306.94 1485.04 Q2303.88 1489.63 2298.07 1489.63 Q2292.26 1489.63 2289.18 1485.04 Q2286.13 1480.44 2286.13 1471.71 Q2286.13 1462.96 2289.18 1458.38 Q2292.26 1453.77 2298.07 1453.77 Z" fill="#000000" fill-rule="nonzero" fill-opacity="1" /><path clip-path="url(#clip420)" d="M2322.71 1446.41 Q2325.44 1446.99 2326.96 1448.83 Q2328.5 1450.68 2328.5 1453.38 Q2328.5 1457.54 2325.64 1459.82 Q2322.78 1462.09 2317.52 1462.09 Q2315.75 1462.09 2313.87 1461.73 Q2312.01 1461.4 2310.01 1460.7 L2310.01 1457.03 Q2311.59 1457.95 2313.47 1458.42 Q2315.36 1458.89 2317.41 1458.89 Q2320.98 1458.89 2322.84 1457.48 Q2324.72 1456.07 2324.72 1453.38 Q2324.72 1450.9 2322.97 1449.51 Q2321.24 1448.1 2318.14 1448.1 L2314.87 1448.1 L2314.87 1444.98 L2318.29 1444.98 Q2321.09 1444.98 2322.58 1443.87 Q2324.06 1442.74 2324.06 1440.63 Q2324.06 1438.47 2322.52 1437.32 Q2321 1436.16 2318.14 1436.16 Q2316.58 1436.16 2314.79 1436.49 Q2313 1436.83 2310.86 1437.55 L2310.86 1434.16 Q2313.02 1433.56 2314.9 1433.26 Q2316.8 1432.96 2318.48 1432.96 Q2322.8 1432.96 2325.32 1434.93 Q2327.84 1436.89 2327.84 1440.24 Q2327.84 1442.57 2326.51 1444.19 Q2325.17 1445.79 2322.71 1446.41 Z" fill="#000000" fill-rule="nonzero" fill-opacity="1" /><path clip-path="url(#clip420)" d="M1223.62 1526.67 L1230.04 1526.67 L1230.04 1546.75 L1251.37 1526.67 L1259.65 1526.67 L1236.06 1548.82 L1261.33 1574.19 L1252.87 1574.19 L1230.04 1551.3 L1230.04 1574.19 L1223.62 1574.19 L1223.62 1526.67 Z" fill="#000000" fill-rule="nonzero" fill-opacity="1" /><path clip-path="url(#clip420)" d="M1295.74 1552.67 L1295.74 1574.19 L1289.88 1574.19 L1289.88 1552.86 Q1289.88 1547.8 1287.91 1545.29 Q1285.94 1542.77 1281.99 1542.77 Q1277.25 1542.77 1274.51 1545.79 Q1271.77 1548.82 1271.77 1554.04 L1271.77 1574.19 L1265.88 1574.19 L1265.88 1538.54 L1271.77 1538.54 L1271.77 1544.08 Q1273.87 1540.86 1276.71 1539.27 Q1279.57 1537.68 1283.29 1537.68 Q1289.44 1537.68 1292.59 1541.5 Q1295.74 1545.29 1295.74 1552.67 Z" fill="#000000" fill-rule="nonzero" fill-opacity="1" /><path clip-path="url(#clip420)" d="M1334.51 1585.01 L1334.51 1589.56 L1300.64 1589.56 L1300.64 1585.01 L1334.51 1585.01 Z" fill="#000000" fill-rule="nonzero" fill-opacity="1" /><path clip-path="url(#clip420)" d="M1346.7 1531.95 L1346.7 1568.9 L1354.46 1568.9 Q1364.3 1568.9 1368.85 1564.45 Q1373.43 1559.99 1373.43 1550.38 Q1373.43 1540.83 1368.85 1536.4 Q1364.3 1531.95 1354.46 1531.95 L1346.7 1531.95 M1340.27 1526.67 L1353.48 1526.67 Q1367.29 1526.67 1373.75 1532.43 Q1380.21 1538.16 1380.21 1550.38 Q1380.21 1562.66 1373.72 1568.42 Q1367.23 1574.19 1353.48 1574.19 L1340.27 1574.19 L1340.27 1526.67 Z" fill="#000000" fill-rule="nonzero" fill-opacity="1" /><polyline clip-path="url(#clip420)" style="stroke:#000000; stroke-linecap:round; stroke-linejoin:round; stroke-width:4; stroke-opacity:1; fill:none" points="251.071,1410.9 251.071,123.472 "/>
<polyline clip-path="url(#clip420)" style="stroke:#000000; stroke-linecap:round; stroke-linejoin:round; stroke-width:4; stroke-opacity:1; fill:none" points="251.071,1020.89 269.969,1020.89 "/>
<polyline clip-path="url(#clip420)" style="stroke:#000000; stroke-linecap:round; stroke-linejoin:round; stroke-width:4; stroke-opacity:1; fill:none" points="251.071,240.876 269.969,240.876 "/>
<path clip-path="url(#clip420)" d="M114.931 1040.68 L122.57 1040.68 L122.57 1014.32 L114.26 1015.98 L114.26 1011.72 L122.524 1010.06 L127.2 1010.06 L127.2 1040.68 L134.839 1040.68 L134.839 1044.62 L114.931 1044.62 L114.931 1040.68 Z" fill="#000000" fill-rule="nonzero" fill-opacity="1" /><path clip-path="url(#clip420)" d="M154.283 1013.14 Q150.672 1013.14 148.843 1016.7 Q147.038 1020.24 147.038 1027.37 Q147.038 1034.48 148.843 1038.04 Q150.672 1041.58 154.283 1041.58 Q157.917 1041.58 159.723 1038.04 Q161.552 1034.48 161.552 1027.37 Q161.552 1020.24 159.723 1016.7 Q157.917 1013.14 154.283 1013.14 M154.283 1009.43 Q160.093 1009.43 163.149 1014.04 Q166.227 1018.62 166.227 1027.37 Q166.227 1036.1 163.149 1040.71 Q160.093 1045.29 154.283 1045.29 Q148.473 1045.29 145.394 1040.71 Q142.339 1036.1 142.339 1027.37 Q142.339 1018.62 145.394 1014.04 Q148.473 1009.43 154.283 1009.43 Z" fill="#000000" fill-rule="nonzero" fill-opacity="1" /><path clip-path="url(#clip420)" d="M166.227 1003.53 L190.339 1003.53 L190.339 1006.73 L166.227 1006.73 L166.227 1003.53 Z" fill="#000000" fill-rule="nonzero" fill-opacity="1" /><path clip-path="url(#clip420)" d="M201.812 1014.01 L215.071 1014.01 L215.071 1017.21 L197.241 1017.21 L197.241 1014.01 Q199.404 1011.77 203.128 1008.01 Q206.871 1004.23 207.83 1003.14 Q209.655 1001.09 210.369 999.678 Q211.103 998.249 211.103 996.876 Q211.103 994.638 209.523 993.227 Q207.962 991.816 205.442 991.816 Q203.655 991.816 201.661 992.437 Q199.686 993.058 197.43 994.318 L197.43 990.481 Q199.724 989.56 201.718 989.089 Q203.711 988.619 205.366 988.619 Q209.73 988.619 212.325 990.801 Q214.921 992.983 214.921 996.631 Q214.921 998.362 214.263 999.923 Q213.623 1001.46 211.912 1003.57 Q211.441 1004.12 208.921 1006.73 Q206.401 1009.33 201.812 1014.01 Z" fill="#000000" fill-rule="nonzero" fill-opacity="1" /><path clip-path="url(#clip420)" d="M144.366 260.668 L152.004 260.668 L152.004 234.303 L143.694 235.969 L143.694 231.71 L151.958 230.044 L156.634 230.044 L156.634 260.668 L164.273 260.668 L164.273 264.604 L144.366 264.604 L144.366 260.668 Z" fill="#000000" fill-rule="nonzero" fill-opacity="1" /><path clip-path="url(#clip420)" d="M183.717 233.122 Q180.106 233.122 178.277 236.687 Q176.472 240.229 176.472 247.358 Q176.472 254.465 178.277 258.029 Q180.106 261.571 183.717 261.571 Q187.351 261.571 189.157 258.029 Q190.986 254.465 190.986 247.358 Q190.986 240.229 189.157 236.687 Q187.351 233.122 183.717 233.122 M183.717 229.419 Q189.527 229.419 192.583 234.025 Q195.662 238.608 195.662 247.358 Q195.662 256.085 192.583 260.691 Q189.527 265.275 183.717 265.275 Q177.907 265.275 174.828 260.691 Q171.773 256.085 171.773 247.358 Q171.773 238.608 174.828 234.025 Q177.907 229.419 183.717 229.419 Z" fill="#000000" fill-rule="nonzero" fill-opacity="1" /><path clip-path="url(#clip420)" d="M205.366 211.615 Q202.432 211.615 200.947 214.511 Q199.48 217.389 199.48 223.181 Q199.48 228.955 200.947 231.852 Q202.432 234.729 205.366 234.729 Q208.319 234.729 209.786 231.852 Q211.272 228.955 211.272 223.181 Q211.272 217.389 209.786 214.511 Q208.319 211.615 205.366 211.615 M205.366 208.605 Q210.087 208.605 212.57 212.348 Q215.071 216.072 215.071 223.181 Q215.071 230.272 212.57 234.015 Q210.087 237.739 205.366 237.739 Q200.646 237.739 198.144 234.015 Q195.662 230.272 195.662 223.181 Q195.662 216.072 198.144 212.348 Q200.646 208.605 205.366 208.605 Z" fill="#000000" fill-rule="nonzero" fill-opacity="1" /><path clip-path="url(#clip420)" d="M61.808 1370.67 L77.5631 1370.67 L77.5631 1376.56 L28.579 1376.56 Q14.0652 1376.56 14.0652 1363 Q14.0652 1349.19 26.3192 1349.19 Q35.0402 1349.19 38.223 1354.66 Q41.0876 1345.75 49.5858 1345.75 Q64.6726 1345.75 64.6726 1361.09 Q64.6726 1367.84 61.808 1370.67 M54.1691 1370.67 Q59.6755 1367.14 59.6755 1360.87 Q59.6755 1351.7 49.6813 1351.7 Q40.7057 1351.7 41.4059 1366.47 L35.995 1366.47 Q35.995 1354.91 25.8099 1354.91 Q18.8395 1354.91 18.8395 1362.36 Q18.8395 1370.67 28.77 1370.67 L54.1691 1370.67 Z" fill="#000000" fill-rule="nonzero" fill-opacity="1" /><path clip-path="url(#clip420)" d="M60.3757 1332.54 L60.3757 1319.04 L64.0042 1319.04 L64.0042 1338.08 L60.503 1338.08 Q59.5163 1336.99 57.7339 1334.99 Q48.0262 1324.04 45.0344 1324.04 Q42.9337 1324.04 41.6605 1325.7 Q40.3556 1327.35 40.3556 1330.06 Q40.3556 1331.71 40.9285 1333.65 Q41.4696 1335.59 42.5836 1337.89 L38.6686 1337.89 Q37.7774 1335.44 37.3318 1333.33 Q36.8862 1331.2 36.8862 1329.39 Q36.8862 1324.77 38.9869 1322 Q41.0876 1319.23 44.5251 1319.23 Q48.9493 1319.23 57.9886 1329.77 Q59.5163 1331.55 60.3757 1332.54 Z" fill="#000000" fill-rule="nonzero" fill-opacity="1" /><path clip-path="url(#clip420)" d="M34.4036 1287.31 L34.4036 1246.51 L39.7508 1246.51 L39.7508 1287.31 L34.4036 1287.31 M47.3897 1287.31 L47.3897 1246.51 L52.8005 1246.51 L52.8005 1287.31 L47.3897 1287.31 Z" fill="#000000" fill-rule="nonzero" fill-opacity="1" /><path clip-path="url(#clip420)" d="M14.5426 1198.67 Q21.8632 1202.93 29.0246 1205 Q36.186 1207.07 43.5384 1207.07 Q50.8908 1207.07 58.1159 1205 Q65.3091 1202.9 72.5979 1198.67 L72.5979 1203.76 Q65.1182 1208.53 57.8931 1210.92 Q50.668 1213.28 43.5384 1213.28 Q36.4406 1213.28 29.2474 1210.92 Q22.0542 1208.57 14.5426 1203.76 L14.5426 1198.67 Z" fill="#000000" fill-rule="nonzero" fill-opacity="1" /><path clip-path="url(#clip420)" d="M16.4842 1187.05 L16.4842 1180.62 L36.568 1180.62 L16.4842 1159.3 L16.4842 1151.02 L38.6368 1174.61 L64.0042 1149.33 L64.0042 1157.8 L41.1194 1180.62 L64.0042 1180.62 L64.0042 1187.05 L16.4842 1187.05 Z" fill="#000000" fill-rule="nonzero" fill-opacity="1" /><path clip-path="url(#clip420)" d="M42.4881 1114.93 L64.0042 1114.93 L64.0042 1120.78 L42.679 1120.78 Q37.6183 1120.78 35.1038 1122.76 Q32.5894 1124.73 32.5894 1128.68 Q32.5894 1133.42 35.6131 1136.16 Q38.6368 1138.89 43.8567 1138.89 L64.0042 1138.89 L64.0042 1144.78 L28.3562 1144.78 L28.3562 1138.89 L33.8944 1138.89 Q30.6797 1136.79 29.0883 1133.96 Q27.4968 1131.1 27.4968 1127.37 Q27.4968 1121.23 31.3163 1118.08 Q35.1038 1114.93 42.4881 1114.93 Z" fill="#000000" fill-rule="nonzero" fill-opacity="1" /><path clip-path="url(#clip420)" d="M74.8259 1076.16 L79.3773 1076.16 L79.3773 1110.03 L74.8259 1110.03 L74.8259 1076.16 Z" fill="#000000" fill-rule="nonzero" fill-opacity="1" /><path clip-path="url(#clip420)" d="M21.7677 1063.97 L58.7206 1063.97 L58.7206 1056.2 Q58.7206 1046.37 54.2646 1041.82 Q49.8086 1037.23 40.1964 1037.23 Q30.6479 1037.23 26.2237 1041.82 Q21.7677 1046.37 21.7677 1056.2 L21.7677 1063.97 M16.4842 1070.4 L16.4842 1057.19 Q16.4842 1043.38 22.2451 1036.92 Q27.9743 1030.45 40.1964 1030.45 Q52.4822 1030.45 58.2432 1036.95 Q64.0042 1043.44 64.0042 1057.19 L64.0042 1070.4 L16.4842 1070.4 Z" fill="#000000" fill-rule="nonzero" fill-opacity="1" /><path clip-path="url(#clip420)" d="M23.1363 996.62 L40.8648 996.62 L40.8648 978.892 L46.2757 978.892 L46.2757 996.62 L64.0042 996.62 L64.0042 1001.97 L46.2757 1001.97 L46.2757 1019.7 L40.8648 1019.7 L40.8648 1001.97 L23.1363 1001.97 L23.1363 996.62 Z" fill="#000000" fill-rule="nonzero" fill-opacity="1" /><path clip-path="url(#clip420)" d="M58.5933 963.901 L58.5933 953.397 L22.3406 953.397 L24.6323 964.824 L18.7758 964.824 L16.4842 953.461 L16.4842 947.032 L58.5933 947.032 L58.5933 936.528 L64.0042 936.528 L64.0042 963.901 L58.5933 963.901 Z" fill="#000000" fill-rule="nonzero" fill-opacity="1" /><path clip-path="url(#clip420)" d="M14.5426 925.293 L14.5426 920.2 Q22.0542 915.426 29.2474 913.07 Q36.4406 910.683 43.5384 910.683 Q50.668 910.683 57.8931 913.07 Q65.1182 915.426 72.5979 920.2 L72.5979 925.293 Q65.3091 921.059 58.1159 918.991 Q50.8908 916.89 43.5384 916.89 Q36.186 916.89 29.0246 918.991 Q21.8632 921.059 14.5426 925.293 Z" fill="#000000" fill-rule="nonzero" fill-opacity="1" /><path clip-path="url(#clip420)" d="M16.4842 888.531 L16.4842 883.12 L70.0516 899.671 L70.0516 905.082 L16.4842 888.531 Z" fill="#000000" fill-rule="nonzero" fill-opacity="1" /><path clip-path="url(#clip420)" d="M14.479 877.518 L14.479 864.023 L19.0304 864.023 L19.0304 871.662 L68.0464 871.662 L68.0464 864.023 L72.5979 864.023 L72.5979 877.518 L14.479 877.518 Z" fill="#000000" fill-rule="nonzero" fill-opacity="1" /><path clip-path="url(#clip420)" d="M58.5933 849.604 L58.5933 839.101 L22.3406 839.101 L24.6323 850.527 L18.7758 850.527 L16.4842 839.165 L16.4842 832.735 L58.5933 832.735 L58.5933 822.232 L64.0042 822.232 L64.0042 849.604 L58.5933 849.604 Z" fill="#000000" fill-rule="nonzero" fill-opacity="1" /><path clip-path="url(#clip420)" d="M23.1363 786.234 L40.8648 786.234 L40.8648 768.505 L46.2757 768.505 L46.2757 786.234 L64.0042 786.234 L64.0042 791.581 L46.2757 791.581 L46.2757 809.309 L40.8648 809.309 L40.8648 791.581 L23.1363 791.581 L23.1363 786.234 Z" fill="#000000" fill-rule="nonzero" fill-opacity="1" /><path clip-path="url(#clip420)" d="M58.5933 749.09 L58.5933 726.651 L64.0042 726.651 L64.0042 756.824 L58.5933 756.824 Q54.8057 753.164 48.44 746.862 Q42.0425 740.528 40.1964 738.905 Q36.7271 735.817 34.34 734.608 Q31.921 733.367 29.5975 733.367 Q25.8099 733.367 23.4228 736.04 Q21.0356 738.682 21.0356 742.947 Q21.0356 745.971 22.086 749.344 Q23.1363 752.686 25.2688 756.506 L18.7758 756.506 Q17.2162 752.623 16.4205 749.249 Q15.6248 745.875 15.6248 743.074 Q15.6248 735.69 19.3169 731.298 Q23.009 726.905 29.1837 726.905 Q32.112 726.905 34.7537 728.019 Q37.3637 729.102 40.9285 731.998 Q41.8515 732.794 46.2757 737.059 Q50.668 741.324 58.5933 749.09 Z" fill="#000000" fill-rule="nonzero" fill-opacity="1" /><path clip-path="url(#clip420)" d="M16.4842 713.728 L16.4842 707.299 L36.568 707.299 L16.4842 685.974 L16.4842 677.698 L38.6368 701.283 L64.0042 676.012 L64.0042 684.478 L41.1194 707.299 L64.0042 707.299 L64.0042 713.728 L16.4842 713.728 Z" fill="#000000" fill-rule="nonzero" fill-opacity="1" /><path clip-path="url(#clip420)" d="M42.4881 641.605 L64.0042 641.605 L64.0042 647.461 L42.679 647.461 Q37.6183 647.461 35.1038 649.435 Q32.5894 651.408 32.5894 655.355 Q32.5894 660.097 35.6131 662.835 Q38.6368 665.572 43.8567 665.572 L64.0042 665.572 L64.0042 671.46 L28.3562 671.46 L28.3562 665.572 L33.8944 665.572 Q30.6797 663.471 29.0883 660.638 Q27.4968 657.774 27.4968 654.05 Q27.4968 647.907 31.3163 644.756 Q35.1038 641.605 42.4881 641.605 Z" fill="#000000" fill-rule="nonzero" fill-opacity="1" /><path clip-path="url(#clip420)" d="M74.8259 602.838 L79.3773 602.838 L79.3773 636.703 L74.8259 636.703 L74.8259 602.838 Z" fill="#000000" fill-rule="nonzero" fill-opacity="1" /><path clip-path="url(#clip420)" d="M21.7677 590.647 L58.7206 590.647 L58.7206 582.881 Q58.7206 573.046 54.2646 568.495 Q49.8086 563.911 40.1964 563.911 Q30.6479 563.911 26.2237 568.495 Q21.7677 573.046 21.7677 582.881 L21.7677 590.647 M16.4842 597.077 L16.4842 583.868 Q16.4842 570.054 22.2451 563.593 Q27.9743 557.132 40.1964 557.132 Q52.4822 557.132 58.2432 563.625 Q64.0042 570.118 64.0042 583.868 L64.0042 597.077 L16.4842 597.077 Z" fill="#000000" fill-rule="nonzero" fill-opacity="1" /><path clip-path="url(#clip420)" d="M14.5426 533.07 Q21.8632 537.335 29.0246 539.403 Q36.186 541.472 43.5384 541.472 Q50.8908 541.472 58.1159 539.403 Q65.3091 537.303 72.5979 533.07 L72.5979 538.162 Q65.1182 542.936 57.8931 545.324 Q50.668 547.679 43.5384 547.679 Q36.4406 547.679 29.2474 545.324 Q22.0542 542.968 14.5426 538.162 L14.5426 533.07 Z" fill="#000000" fill-rule="nonzero" fill-opacity="1" /><path clip-path="url(#clip420)" d="M16.4842 521.452 L16.4842 515.023 L36.568 515.023 L16.4842 493.698 L16.4842 485.422 L38.6368 509.007 L64.0042 483.735 L64.0042 492.202 L41.1194 515.023 L64.0042 515.023 L64.0042 521.452 L16.4842 521.452 Z" fill="#000000" fill-rule="nonzero" fill-opacity="1" /><path clip-path="url(#clip420)" d="M42.4881 449.329 L64.0042 449.329 L64.0042 455.185 L42.679 455.185 Q37.6183 455.185 35.1038 457.159 Q32.5894 459.132 32.5894 463.079 Q32.5894 467.821 35.6131 470.558 Q38.6368 473.296 43.8567 473.296 L64.0042 473.296 L64.0042 479.184 L28.3562 479.184 L28.3562 473.296 L33.8944 473.296 Q30.6797 471.195 29.0883 468.362 Q27.4968 465.498 27.4968 461.774 Q27.4968 455.631 31.3163 452.48 Q35.1038 449.329 42.4881 449.329 Z" fill="#000000" fill-rule="nonzero" fill-opacity="1" /><path clip-path="url(#clip420)" d="M74.8259 410.562 L79.3773 410.562 L79.3773 444.427 L74.8259 444.427 L74.8259 410.562 Z" fill="#000000" fill-rule="nonzero" fill-opacity="1" /><path clip-path="url(#clip420)" d="M21.7677 398.371 L58.7206 398.371 L58.7206 390.605 Q58.7206 380.77 54.2646 376.219 Q49.8086 371.635 40.1964 371.635 Q30.6479 371.635 26.2237 376.219 Q21.7677 380.77 21.7677 390.605 L21.7677 398.371 M16.4842 404.801 L16.4842 391.592 Q16.4842 377.778 22.2451 371.317 Q27.9743 364.856 40.1964 364.856 Q52.4822 364.856 58.2432 371.349 Q64.0042 377.842 64.0042 391.592 L64.0042 404.801 L16.4842 404.801 Z" fill="#000000" fill-rule="nonzero" fill-opacity="1" /><path clip-path="url(#clip420)" d="M23.1363 331.022 L40.8648 331.022 L40.8648 313.294 L46.2757 313.294 L46.2757 331.022 L64.0042 331.022 L64.0042 336.369 L46.2757 336.369 L46.2757 354.098 L40.8648 354.098 L40.8648 336.369 L23.1363 336.369 L23.1363 331.022 Z" fill="#000000" fill-rule="nonzero" fill-opacity="1" /><path clip-path="url(#clip420)" d="M58.5933 298.302 L58.5933 287.799 L22.3406 287.799 L24.6323 299.225 L18.7758 299.225 L16.4842 287.863 L16.4842 281.433 L58.5933 281.433 L58.5933 270.93 L64.0042 270.93 L64.0042 298.302 L58.5933 298.302 Z" fill="#000000" fill-rule="nonzero" fill-opacity="1" /><path clip-path="url(#clip420)" d="M14.5426 259.694 L14.5426 254.602 Q22.0542 249.827 29.2474 247.472 Q36.4406 245.085 43.5384 245.085 Q50.668 245.085 57.8931 247.472 Q65.1182 249.827 72.5979 254.602 L72.5979 259.694 Q65.3091 255.461 58.1159 253.392 Q50.8908 251.292 43.5384 251.292 Q36.186 251.292 29.0246 253.392 Q21.8632 255.461 14.5426 259.694 Z" fill="#000000" fill-rule="nonzero" fill-opacity="1" /><path clip-path="url(#clip420)" d="M16.4842 222.932 L16.4842 217.522 L70.0516 234.072 L70.0516 239.483 L16.4842 222.932 Z" fill="#000000" fill-rule="nonzero" fill-opacity="1" /><path clip-path="url(#clip420)" d="M22.7225 185.566 Q20.4946 188.812 20.4946 196.419 Q20.4946 204.472 24.2185 204.472 Q27.1467 204.472 28.6745 196.069 Q29.8521 189.449 33.4169 185.725 Q37.7138 181.205 46.5303 181.205 Q54.9649 181.205 59.9301 185.566 Q64.9272 189.926 64.9272 197.565 Q64.9272 205.172 59.9301 209.564 Q54.9649 213.925 46.212 213.925 Q39.719 213.925 34.4673 209.564 Q32.4303 207.877 31.2844 205.49 Q28.77 210.456 24.2821 210.456 Q15.6248 210.456 15.6248 196.419 Q15.6248 189.385 17.8528 185.566 L22.7225 185.566 M32.8759 201.098 Q33.7989 203.262 36.1224 205.013 Q39.719 207.75 46.212 207.75 Q52.6732 207.75 56.3017 205.045 Q59.9619 202.307 59.9619 197.565 Q59.9619 192.886 56.2698 190.149 Q52.5777 187.412 46.5303 187.412 Q40.1964 187.412 37.1409 190.308 Q33.8625 193.396 33.5124 197.406 Q33.3215 199.443 32.8759 201.098 Z" fill="#000000" fill-rule="nonzero" fill-opacity="1" /><path clip-path="url(#clip420)" d="M14.479 157.811 L72.5979 157.811 L72.5979 171.307 L68.0464 171.307 L68.0464 163.699 L19.0304 163.699 L19.0304 171.307 L14.479 171.307 L14.479 157.811 Z" fill="#000000" fill-rule="nonzero" fill-opacity="1" /><path clip-path="url(#clip420)" d="M565.155 12.096 L576.174 12.096 L602.991 62.6918 L602.991 12.096 L610.931 12.096 L610.931 72.576 L599.912 72.576 L573.095 21.9802 L573.095 72.576 L565.155 72.576 L565.155 12.096 Z" fill="#000000" fill-rule="nonzero" fill-opacity="1" /><path clip-path="url(#clip420)" d="M644.472 32.4315 Q638.477 32.4315 634.993 37.1306 Q631.509 41.7891 631.509 49.9314 Q631.509 58.0738 634.952 62.7728 Q638.436 67.4314 644.472 67.4314 Q650.427 67.4314 653.911 62.7323 Q657.394 58.0333 657.394 49.9314 Q657.394 41.8701 653.911 37.1711 Q650.427 32.4315 644.472 32.4315 M644.472 26.1121 Q654.194 26.1121 659.744 32.4315 Q665.294 38.7509 665.294 49.9314 Q665.294 61.0714 659.744 67.4314 Q654.194 73.7508 644.472 73.7508 Q634.709 73.7508 629.16 67.4314 Q623.65 61.0714 623.65 49.9314 Q623.65 38.7509 629.16 32.4315 Q634.709 26.1121 644.472 26.1121 Z" fill="#000000" fill-rule="nonzero" fill-opacity="1" /><path clip-path="url(#clip420)" d="M715.363 45.1919 L715.363 72.576 L707.909 72.576 L707.909 45.4349 Q707.909 38.994 705.398 35.7938 Q702.886 32.5936 697.863 32.5936 Q691.827 32.5936 688.343 36.4419 Q684.86 40.2903 684.86 46.9338 L684.86 72.576 L677.365 72.576 L677.365 27.2059 L684.86 27.2059 L684.86 34.2544 Q687.533 30.163 691.138 28.1376 Q694.784 26.1121 699.524 26.1121 Q707.342 26.1121 711.353 30.9732 Q715.363 35.7938 715.363 45.1919 Z" fill="#000000" fill-rule="nonzero" fill-opacity="1" /><path clip-path="url(#clip420)" d="M726.462 46.5287 L748.297 46.5287 L748.297 53.1722 L726.462 53.1722 L726.462 46.5287 Z" fill="#000000" fill-rule="nonzero" fill-opacity="1" /><path clip-path="url(#clip420)" d="M792.816 28.9478 L792.816 35.9153 Q789.656 34.1734 786.456 33.3227 Q783.297 32.4315 780.056 32.4315 Q772.805 32.4315 768.794 37.0496 Q764.784 41.6271 764.784 49.9314 Q764.784 58.2358 768.794 62.8538 Q772.805 67.4314 780.056 67.4314 Q783.297 67.4314 786.456 66.5807 Q789.656 65.6895 792.816 63.9476 L792.816 70.8341 Q789.697 72.2924 786.335 73.0216 Q783.013 73.7508 779.246 73.7508 Q768.997 73.7508 762.961 67.3098 Q756.925 60.8689 756.925 49.9314 Q756.925 38.832 763.002 32.472 Q769.118 26.1121 779.732 26.1121 Q783.175 26.1121 786.456 26.8413 Q789.738 27.5299 792.816 28.9478 Z" fill="#000000" fill-rule="nonzero" fill-opacity="1" /><path clip-path="url(#clip420)" d="M823.36 32.4315 Q817.365 32.4315 813.881 37.1306 Q810.397 41.7891 810.397 49.9314 Q810.397 58.0738 813.84 62.7728 Q817.324 67.4314 823.36 67.4314 Q829.315 67.4314 832.799 62.7323 Q836.282 58.0333 836.282 49.9314 Q836.282 41.8701 832.799 37.1711 Q829.315 32.4315 823.36 32.4315 M823.36 26.1121 Q833.082 26.1121 838.632 32.4315 Q844.182 38.7509 844.182 49.9314 Q844.182 61.0714 838.632 67.4314 Q833.082 73.7508 823.36 73.7508 Q813.597 73.7508 808.048 67.4314 Q802.538 61.0714 802.538 49.9314 Q802.538 38.7509 808.048 32.4315 Q813.597 26.1121 823.36 26.1121 Z" fill="#000000" fill-rule="nonzero" fill-opacity="1" /><path clip-path="url(#clip420)" d="M894.251 45.1919 L894.251 72.576 L886.797 72.576 L886.797 45.4349 Q886.797 38.994 884.286 35.7938 Q881.774 32.5936 876.751 32.5936 Q870.715 32.5936 867.231 36.4419 Q863.748 40.2903 863.748 46.9338 L863.748 72.576 L856.253 72.576 L856.253 27.2059 L863.748 27.2059 L863.748 34.2544 Q866.421 30.163 870.026 28.1376 Q873.672 26.1121 878.412 26.1121 Q886.23 26.1121 890.24 30.9732 Q894.251 35.7938 894.251 45.1919 Z" fill="#000000" fill-rule="nonzero" fill-opacity="1" /><path clip-path="url(#clip420)" d="M916.49 14.324 L916.49 27.2059 L931.843 27.2059 L931.843 32.9987 L916.49 32.9987 L916.49 57.6282 Q916.49 63.1779 917.989 64.7578 Q919.528 66.3376 924.187 66.3376 L931.843 66.3376 L931.843 72.576 L924.187 72.576 Q915.559 72.576 912.277 69.3758 Q908.996 66.1351 908.996 57.6282 L908.996 32.9987 L903.527 32.9987 L903.527 27.2059 L908.996 27.2059 L908.996 14.324 L916.49 14.324 Z" fill="#000000" fill-rule="nonzero" fill-opacity="1" /><path clip-path="url(#clip420)" d="M941.646 27.2059 L949.1 27.2059 L949.1 72.576 L941.646 72.576 L941.646 27.2059 M941.646 9.54393 L949.1 9.54393 L949.1 18.9825 L941.646 18.9825 L941.646 9.54393 Z" fill="#000000" fill-rule="nonzero" fill-opacity="1" /><path clip-path="url(#clip420)" d="M1002.41 45.1919 L1002.41 72.576 L994.956 72.576 L994.956 45.4349 Q994.956 38.994 992.445 35.7938 Q989.933 32.5936 984.91 32.5936 Q978.874 32.5936 975.39 36.4419 Q971.907 40.2903 971.907 46.9338 L971.907 72.576 L964.412 72.576 L964.412 27.2059 L971.907 27.2059 L971.907 34.2544 Q974.58 30.163 978.186 28.1376 Q981.831 26.1121 986.571 26.1121 Q994.389 26.1121 998.4 30.9732 Q1002.41 35.7938 1002.41 45.1919 Z" fill="#000000" fill-rule="nonzero" fill-opacity="1" /><path clip-path="url(#clip420)" d="M1016.51 54.671 L1016.51 27.2059 L1023.96 27.2059 L1023.96 54.3874 Q1023.96 60.8284 1026.47 64.0691 Q1028.98 67.2693 1034.01 67.2693 Q1040.04 67.2693 1043.53 63.421 Q1047.05 59.5726 1047.05 52.9291 L1047.05 27.2059 L1054.5 27.2059 L1054.5 72.576 L1047.05 72.576 L1047.05 65.6084 Q1044.34 69.7404 1040.73 71.7658 Q1037.17 73.7508 1032.43 73.7508 Q1024.61 73.7508 1020.56 68.8897 Q1016.51 64.0286 1016.51 54.671 M1035.26 26.1121 L1035.26 26.1121 Z" fill="#000000" fill-rule="nonzero" fill-opacity="1" /><path clip-path="url(#clip420)" d="M1069.09 54.671 L1069.09 27.2059 L1076.54 27.2059 L1076.54 54.3874 Q1076.54 60.8284 1079.05 64.0691 Q1081.56 67.2693 1086.59 67.2693 Q1092.62 67.2693 1096.11 63.421 Q1099.63 59.5726 1099.63 52.9291 L1099.63 27.2059 L1107.09 27.2059 L1107.09 72.576 L1099.63 72.576 L1099.63 65.6084 Q1096.92 69.7404 1093.31 71.7658 Q1089.75 73.7508 1085.01 73.7508 Q1077.19 73.7508 1073.14 68.8897 Q1069.09 64.0286 1069.09 54.671 M1087.84 26.1121 L1087.84 26.1121 Z" fill="#000000" fill-rule="nonzero" fill-opacity="1" /><path clip-path="url(#clip420)" d="M1157.76 35.9153 Q1160.56 30.8922 1164.45 28.5022 Q1168.34 26.1121 1173.6 26.1121 Q1180.69 26.1121 1184.54 31.0947 Q1188.39 36.0368 1188.39 45.1919 L1188.39 72.576 L1180.89 72.576 L1180.89 45.4349 Q1180.89 38.913 1178.58 35.7533 Q1176.27 32.5936 1171.54 32.5936 Q1165.74 32.5936 1162.38 36.4419 Q1159.02 40.2903 1159.02 46.9338 L1159.02 72.576 L1151.52 72.576 L1151.52 45.4349 Q1151.52 38.8725 1149.21 35.7533 Q1146.91 32.5936 1142.09 32.5936 Q1136.37 32.5936 1133.01 36.4824 Q1129.65 40.3308 1129.65 46.9338 L1129.65 72.576 L1122.15 72.576 L1122.15 27.2059 L1129.65 27.2059 L1129.65 34.2544 Q1132.2 30.082 1135.77 28.0971 Q1139.33 26.1121 1144.23 26.1121 Q1149.17 26.1121 1152.62 28.6237 Q1156.1 31.1352 1157.76 35.9153 Z" fill="#000000" fill-rule="nonzero" fill-opacity="1" /><path clip-path="url(#clip420)" d="M1275.24 16.7545 L1275.24 25.383 Q1271.11 21.5346 1266.41 19.6307 Q1261.75 17.7268 1256.48 17.7268 Q1246.11 17.7268 1240.6 24.0867 Q1235.09 30.4061 1235.09 42.3968 Q1235.09 54.3469 1240.6 60.7069 Q1246.11 67.0263 1256.48 67.0263 Q1261.75 67.0263 1266.41 65.1223 Q1271.11 63.2184 1275.24 59.3701 L1275.24 67.9175 Q1270.94 70.8341 1266.12 72.2924 Q1261.34 73.7508 1256 73.7508 Q1242.26 73.7508 1234.36 65.3654 Q1226.47 56.9395 1226.47 42.3968 Q1226.47 27.8135 1234.36 19.4281 Q1242.26 11.0023 1256 11.0023 Q1261.42 11.0023 1266.2 12.4606 Q1271.03 13.8784 1275.24 16.7545 Z" fill="#000000" fill-rule="nonzero" fill-opacity="1" /><path clip-path="url(#clip420)" d="M1305.13 32.4315 Q1299.14 32.4315 1295.65 37.1306 Q1292.17 41.7891 1292.17 49.9314 Q1292.17 58.0738 1295.61 62.7728 Q1299.1 67.4314 1305.13 67.4314 Q1311.09 67.4314 1314.57 62.7323 Q1318.06 58.0333 1318.06 49.9314 Q1318.06 41.8701 1314.57 37.1711 Q1311.09 32.4315 1305.13 32.4315 M1305.13 26.1121 Q1314.86 26.1121 1320.41 32.4315 Q1325.96 38.7509 1325.96 49.9314 Q1325.96 61.0714 1320.41 67.4314 Q1314.86 73.7508 1305.13 73.7508 Q1295.37 73.7508 1289.82 67.4314 Q1284.31 61.0714 1284.31 49.9314 Q1284.31 38.7509 1289.82 32.4315 Q1295.37 26.1121 1305.13 26.1121 Z" fill="#000000" fill-rule="nonzero" fill-opacity="1" /><path clip-path="url(#clip420)" d="M1364.6 34.1734 Q1363.35 33.4443 1361.85 33.1202 Q1360.39 32.7556 1358.61 32.7556 Q1352.29 32.7556 1348.88 36.8875 Q1345.52 40.9789 1345.52 48.6757 L1345.52 72.576 L1338.03 72.576 L1338.03 27.2059 L1345.52 27.2059 L1345.52 34.2544 Q1347.87 30.1225 1351.64 28.1376 Q1355.41 26.1121 1360.79 26.1121 Q1361.56 26.1121 1362.49 26.2337 Q1363.43 26.3147 1364.56 26.5172 L1364.6 34.1734 Z" fill="#000000" fill-rule="nonzero" fill-opacity="1" /><path clip-path="url(#clip420)" d="M1397.25 34.1734 Q1396 33.4443 1394.5 33.1202 Q1393.04 32.7556 1391.26 32.7556 Q1384.94 32.7556 1381.53 36.8875 Q1378.17 40.9789 1378.17 48.6757 L1378.17 72.576 L1370.68 72.576 L1370.68 27.2059 L1378.17 27.2059 L1378.17 34.2544 Q1380.52 30.1225 1384.29 28.1376 Q1388.06 26.1121 1393.44 26.1121 Q1394.21 26.1121 1395.15 26.2337 Q1396.08 26.3147 1397.21 26.5172 L1397.25 34.1734 Z" fill="#000000" fill-rule="nonzero" fill-opacity="1" /><path clip-path="url(#clip420)" d="M1442.05 48.0275 L1442.05 51.6733 L1407.78 51.6733 Q1408.27 59.3701 1412.4 63.421 Q1416.57 67.4314 1423.99 67.4314 Q1428.28 67.4314 1432.29 66.3781 Q1436.34 65.3249 1440.31 63.2184 L1440.31 70.267 Q1436.3 71.9684 1432.09 72.8596 Q1427.88 73.7508 1423.54 73.7508 Q1412.69 73.7508 1406.33 67.4314 Q1400.01 61.1119 1400.01 50.3365 Q1400.01 39.1965 1406 32.6746 Q1412.04 26.1121 1422.25 26.1121 Q1431.4 26.1121 1436.71 32.0264 Q1442.05 37.9003 1442.05 48.0275 M1434.6 45.84 Q1434.52 39.7232 1431.16 36.0774 Q1427.84 32.4315 1422.33 32.4315 Q1416.09 32.4315 1412.32 35.9558 Q1408.59 39.4801 1408.03 45.8805 L1434.6 45.84 Z" fill="#000000" fill-rule="nonzero" fill-opacity="1" /><path clip-path="url(#clip420)" d="M1486.94 28.9478 L1486.94 35.9153 Q1483.78 34.1734 1480.58 33.3227 Q1477.42 32.4315 1474.18 32.4315 Q1466.93 32.4315 1462.92 37.0496 Q1458.91 41.6271 1458.91 49.9314 Q1458.91 58.2358 1462.92 62.8538 Q1466.93 67.4314 1474.18 67.4314 Q1477.42 67.4314 1480.58 66.5807 Q1483.78 65.6895 1486.94 63.9476 L1486.94 70.8341 Q1483.82 72.2924 1480.46 73.0216 Q1477.14 73.7508 1473.37 73.7508 Q1463.12 73.7508 1457.08 67.3098 Q1451.05 60.8689 1451.05 49.9314 Q1451.05 38.832 1457.12 32.472 Q1463.24 26.1121 1473.85 26.1121 Q1477.3 26.1121 1480.58 26.8413 Q1483.86 27.5299 1486.94 28.9478 Z" fill="#000000" fill-rule="nonzero" fill-opacity="1" /><path clip-path="url(#clip420)" d="M1507.27 14.324 L1507.27 27.2059 L1522.63 27.2059 L1522.63 32.9987 L1507.27 32.9987 L1507.27 57.6282 Q1507.27 63.1779 1508.77 64.7578 Q1510.31 66.3376 1514.97 66.3376 L1522.63 66.3376 L1522.63 72.576 L1514.97 72.576 Q1506.34 72.576 1503.06 69.3758 Q1499.78 66.1351 1499.78 57.6282 L1499.78 32.9987 L1494.31 32.9987 L1494.31 27.2059 L1499.78 27.2059 L1499.78 14.324 L1507.27 14.324 Z" fill="#000000" fill-rule="nonzero" fill-opacity="1" /><path clip-path="url(#clip420)" d="M1532.43 27.2059 L1539.88 27.2059 L1539.88 72.576 L1532.43 72.576 L1532.43 27.2059 M1532.43 9.54393 L1539.88 9.54393 L1539.88 18.9825 L1532.43 18.9825 L1532.43 9.54393 Z" fill="#000000" fill-rule="nonzero" fill-opacity="1" /><path clip-path="url(#clip420)" d="M1573.06 32.4315 Q1567.07 32.4315 1563.58 37.1306 Q1560.1 41.7891 1560.1 49.9314 Q1560.1 58.0738 1563.54 62.7728 Q1567.03 67.4314 1573.06 67.4314 Q1579.02 67.4314 1582.5 62.7323 Q1585.98 58.0333 1585.98 49.9314 Q1585.98 41.8701 1582.5 37.1711 Q1579.02 32.4315 1573.06 32.4315 M1573.06 26.1121 Q1582.78 26.1121 1588.33 32.4315 Q1593.88 38.7509 1593.88 49.9314 Q1593.88 61.0714 1588.33 67.4314 Q1582.78 73.7508 1573.06 73.7508 Q1563.3 73.7508 1557.75 67.4314 Q1552.24 61.0714 1552.24 49.9314 Q1552.24 38.7509 1557.75 32.4315 Q1563.3 26.1121 1573.06 26.1121 Z" fill="#000000" fill-rule="nonzero" fill-opacity="1" /><path clip-path="url(#clip420)" d="M1643.95 45.1919 L1643.95 72.576 L1636.5 72.576 L1636.5 45.4349 Q1636.5 38.994 1633.99 35.7938 Q1631.47 32.5936 1626.45 32.5936 Q1620.42 32.5936 1616.93 36.4419 Q1613.45 40.2903 1613.45 46.9338 L1613.45 72.576 L1605.95 72.576 L1605.95 27.2059 L1613.45 27.2059 L1613.45 34.2544 Q1616.12 30.163 1619.73 28.1376 Q1623.37 26.1121 1628.11 26.1121 Q1635.93 26.1121 1639.94 30.9732 Q1643.95 35.7938 1643.95 45.1919 Z" fill="#000000" fill-rule="nonzero" fill-opacity="1" /><path clip-path="url(#clip420)" d="M1685.51 12.096 L1720.27 12.096 L1720.27 18.9825 L1693.7 18.9825 L1693.7 36.8065 L1717.68 36.8065 L1717.68 43.6931 L1693.7 43.6931 L1693.7 72.576 L1685.51 72.576 L1685.51 12.096 Z" fill="#000000" fill-rule="nonzero" fill-opacity="1" /><path clip-path="url(#clip420)" d="M1745.91 49.7694 Q1736.88 49.7694 1733.4 51.8354 Q1729.91 53.9013 1729.91 58.8839 Q1729.91 62.8538 1732.5 65.2034 Q1735.14 67.5124 1739.63 67.5124 Q1745.83 67.5124 1749.56 63.1374 Q1753.33 58.7219 1753.33 51.4303 L1753.33 49.7694 L1745.91 49.7694 M1760.78 46.6907 L1760.78 72.576 L1753.33 72.576 L1753.33 65.6895 Q1750.77 69.8214 1746.97 71.8063 Q1743.16 73.7508 1737.65 73.7508 Q1730.68 73.7508 1726.55 69.8619 Q1722.46 65.9325 1722.46 59.3701 Q1722.46 51.7138 1727.56 47.825 Q1732.71 43.9361 1742.87 43.9361 L1753.33 43.9361 L1753.33 43.2069 Q1753.33 38.0623 1749.92 35.2672 Q1746.56 32.4315 1740.44 32.4315 Q1736.56 32.4315 1732.87 33.3632 Q1729.18 34.295 1725.78 36.1584 L1725.78 29.2718 Q1729.87 27.692 1733.72 26.9223 Q1737.57 26.1121 1741.21 26.1121 Q1751.06 26.1121 1755.92 31.2163 Q1760.78 36.3204 1760.78 46.6907 Z" fill="#000000" fill-rule="nonzero" fill-opacity="1" /><path clip-path="url(#clip420)" d="M1808.78 28.9478 L1808.78 35.9153 Q1805.62 34.1734 1802.42 33.3227 Q1799.26 32.4315 1796.02 32.4315 Q1788.77 32.4315 1784.76 37.0496 Q1780.75 41.6271 1780.75 49.9314 Q1780.75 58.2358 1784.76 62.8538 Q1788.77 67.4314 1796.02 67.4314 Q1799.26 67.4314 1802.42 66.5807 Q1805.62 65.6895 1808.78 63.9476 L1808.78 70.8341 Q1805.66 72.2924 1802.3 73.0216 Q1798.98 73.7508 1795.21 73.7508 Q1784.96 73.7508 1778.93 67.3098 Q1772.89 60.8689 1772.89 49.9314 Q1772.89 38.832 1778.97 32.472 Q1785.09 26.1121 1795.7 26.1121 Q1799.14 26.1121 1802.42 26.8413 Q1805.7 27.5299 1808.78 28.9478 Z" fill="#000000" fill-rule="nonzero" fill-opacity="1" /><path clip-path="url(#clip420)" d="M1829.12 14.324 L1829.12 27.2059 L1844.47 27.2059 L1844.47 32.9987 L1829.12 32.9987 L1829.12 57.6282 Q1829.12 63.1779 1830.62 64.7578 Q1832.16 66.3376 1836.82 66.3376 L1844.47 66.3376 L1844.47 72.576 L1836.82 72.576 Q1828.19 72.576 1824.91 69.3758 Q1821.62 66.1351 1821.62 57.6282 L1821.62 32.9987 L1816.16 32.9987 L1816.16 27.2059 L1821.62 27.2059 L1821.62 14.324 L1829.12 14.324 Z" fill="#000000" fill-rule="nonzero" fill-opacity="1" /><path clip-path="url(#clip420)" d="M1871.86 32.4315 Q1865.86 32.4315 1862.38 37.1306 Q1858.89 41.7891 1858.89 49.9314 Q1858.89 58.0738 1862.34 62.7728 Q1865.82 67.4314 1871.86 67.4314 Q1877.81 67.4314 1881.29 62.7323 Q1884.78 58.0333 1884.78 49.9314 Q1884.78 41.8701 1881.29 37.1711 Q1877.81 32.4315 1871.86 32.4315 M1871.86 26.1121 Q1881.58 26.1121 1887.13 32.4315 Q1892.68 38.7509 1892.68 49.9314 Q1892.68 61.0714 1887.13 67.4314 Q1881.58 73.7508 1871.86 73.7508 Q1862.09 73.7508 1856.54 67.4314 Q1851.03 61.0714 1851.03 49.9314 Q1851.03 38.7509 1856.54 32.4315 Q1862.09 26.1121 1871.86 26.1121 Z" fill="#000000" fill-rule="nonzero" fill-opacity="1" /><path clip-path="url(#clip420)" d="M1931.32 34.1734 Q1930.07 33.4443 1928.57 33.1202 Q1927.11 32.7556 1925.33 32.7556 Q1919.01 32.7556 1915.61 36.8875 Q1912.24 40.9789 1912.24 48.6757 L1912.24 72.576 L1904.75 72.576 L1904.75 27.2059 L1912.24 27.2059 L1912.24 34.2544 Q1914.59 30.1225 1918.36 28.1376 Q1922.13 26.1121 1927.51 26.1121 Q1928.28 26.1121 1929.22 26.2337 Q1930.15 26.3147 1931.28 26.5172 L1931.32 34.1734 Z" fill="#000000" fill-rule="nonzero" fill-opacity="1" /><path clip-path="url(#clip420)" d="M1972.97 69.7809 L1972.97 89.8329 L1965.47 89.8329 L1965.47 27.4894 Q1965.47 9.01731 1982.73 9.01731 Q2000.31 9.01731 2000.31 24.6133 Q2000.31 35.7128 1993.34 39.7637 Q2004.68 43.4095 2004.68 54.2254 Q2004.68 73.4267 1985.16 73.4267 Q1976.57 73.4267 1972.97 69.7809 M1972.97 60.0587 Q1977.46 67.0668 1985.44 67.0668 Q1997.11 67.0668 1997.11 54.3469 Q1997.11 42.9234 1978.31 43.8146 L1978.31 36.928 Q1993.02 36.928 1993.02 23.9651 Q1993.02 15.0937 1983.54 15.0937 Q1972.97 15.0937 1972.97 27.7325 L1972.97 60.0587 Z" fill="#000000" fill-rule="nonzero" fill-opacity="1" /><path clip-path="url(#clip420)" d="M2021.5 67.958 L2038.67 67.958 L2038.67 72.576 L2014.45 72.576 L2014.45 68.12 Q2015.82 66.8642 2018.38 64.5957 Q2032.31 52.2405 2032.31 48.4326 Q2032.31 45.759 2030.21 44.1387 Q2028.1 42.4778 2024.66 42.4778 Q2022.55 42.4778 2020.08 43.2069 Q2017.61 43.8956 2014.69 45.3134 L2014.69 40.3308 Q2017.81 39.1965 2020.48 38.6294 Q2023.2 38.0623 2025.51 38.0623 Q2031.38 38.0623 2034.9 40.7359 Q2038.43 43.4095 2038.43 47.7845 Q2038.43 53.4152 2025.02 64.9198 Q2022.75 66.8642 2021.5 67.958 Z" fill="#000000" fill-rule="nonzero" fill-opacity="1" /><polyline clip-path="url(#clip422)" style="stroke:#009af9; stroke-linecap:round; stroke-linejoin:round; stroke-width:8; stroke-opacity:1; fill:none" points="310.553,242.578 330.58,242.789 350.608,243.026 370.635,243.293 390.663,243.593 410.69,243.931 430.718,244.311 450.745,244.739 470.773,245.22 490.8,245.762 510.828,246.373 530.855,247.06 550.883,247.834 570.91,248.706 590.938,249.689 610.965,250.797 630.993,252.045 651.02,253.451 671.048,255.037 691.075,256.823 711.103,258.835 731.13,261.101 751.158,263.652 771.185,266.52 791.213,269.743 811.24,273.359 831.268,277.411 851.295,281.941 871.323,286.996 891.35,292.621 911.378,298.86 931.405,305.757 951.433,313.351 971.46,321.677 991.488,330.762 1011.51,340.626 1031.54,351.279 1051.57,362.723 1071.6,374.947 1091.62,387.932 1111.65,401.647 1131.68,416.056 1151.71,431.114 1171.73,446.774 1191.76,462.981 1211.79,479.684 1231.82,496.829 1251.84,514.364 1271.87,532.241 1291.9,550.414 1311.93,568.841 1331.95,587.485 1351.98,606.313 1372.01,625.296 1392.04,644.407 1412.06,663.626 1432.09,682.934 1452.12,702.315 1472.15,721.756 1492.17,741.247 1512.2,760.777 1532.23,780.34 1552.26,799.93 1572.28,819.541 1592.31,839.168 1612.34,858.81 1632.37,878.463 1652.39,898.125 1672.42,917.794 1692.45,937.469 1712.48,957.148 1732.5,976.831 1752.53,996.517 1772.56,1016.21 1792.59,1035.9 1812.61,1055.59 1832.64,1075.28 1852.67,1094.97 1872.7,1114.67 1892.72,1134.36 1912.75,1154.06 1932.78,1173.75 1952.81,1193.45 1972.83,1213.15 1992.86,1232.84 2012.89,1252.54 2032.92,1272.24 2052.94,1291.93 2072.97,1311.63 2093,1331.33 2113.03,1351.03 2133.05,1370.72 2153.08,1390.42 2173.11,1410.12 2193.14,1429.81 2213.16,1449.51 2233.19,1469.21 2253.22,1488.91 2273.25,1508.6 2293.27,1528.3 "/>
<polyline clip-path="url(#clip422)" style="stroke:#e26f46; stroke-linecap:round; stroke-linejoin:round; stroke-width:8; stroke-opacity:1; fill:none" points="310.553,270.354 330.58,273.66 350.608,277.299 370.635,281.296 390.663,285.677 410.69,290.468 430.718,295.693 450.745,301.379 470.773,307.547 490.8,314.221 510.828,321.419 530.855,329.158 550.883,337.453 570.91,346.315 590.938,355.75 610.965,365.763 630.993,376.353 651.02,387.517 671.048,399.246 691.075,411.529 711.103,424.351 731.13,437.697 751.158,451.546 771.185,465.876 791.213,480.664 811.24,495.887 831.268,511.518 851.295,527.534 871.323,543.908 891.35,560.616 911.378,577.634 931.405,594.937 951.433,612.502 971.46,630.309 991.488,648.335 1011.51,666.561 1031.54,684.967 1051.57,703.538 1071.6,722.255 1091.62,741.103 1111.65,760.068 1131.68,779.137 1151.71,798.297 1171.73,817.537 1191.76,836.847 1211.79,856.218 1231.82,875.64 1251.84,895.108 1271.87,914.614 1291.9,934.152 1311.93,953.718 1331.95,973.307 1351.98,992.916 1372.01,1012.54 1392.04,1032.18 1412.06,1051.83 1432.09,1071.49 1452.12,1091.15 1472.15,1110.82 1492.17,1130.5 1512.2,1150.18 1532.23,1169.86 1552.26,1189.55 1572.28,1209.24 1592.31,1228.93 1612.34,1248.62 1632.37,1268.31 1652.39,1288.01 1672.42,1307.7 1692.45,1327.4 1712.48,1347.09 1732.5,1366.79 1752.53,1386.48 1772.56,1406.18 1792.59,1425.88 1812.61,1445.57 1832.64,1465.27 1852.67,1484.97 1872.7,1504.66 1892.72,1524.36 1912.75,1544.06 1932.78,1563.76 1952.81,1583.45 1972.83,1603.15 1992.86,1622.85 2012.89,1642.55 2032.92,1662.24 2052.94,1681.94 2072.97,1701.64 2093,1721.33 2113.03,1741.03 2133.05,1760.73 2153.08,1780.43 2173.11,1800.12 2193.14,1819.82 2213.16,1839.52 2233.19,1859.22 2253.22,1878.91 2273.25,1898.61 2293.27,1918.31 "/>
<polyline clip-path="url(#clip422)" style="stroke:#3da44d; stroke-linecap:round; stroke-linejoin:round; stroke-width:8; stroke-opacity:1; fill:none" points="310.553,426.397 330.58,439.759 350.608,453.61 370.635,467.928 390.663,482.688 410.69,497.867 430.718,513.437 450.745,529.375 470.773,545.654 490.8,562.25 510.828,579.138 530.855,596.295 550.883,613.699 570.91,631.329 590.938,649.165 610.965,667.19 630.993,685.384 651.02,703.734 671.048,722.224 691.075,740.84 711.103,759.57 731.13,778.404 751.158,797.331 771.185,816.341 791.213,835.426 811.24,854.578 831.268,873.792 851.295,893.059 871.323,912.376 891.35,931.737 911.378,951.136 931.405,970.571 951.433,990.038 971.46,1009.53 991.488,1029.05 1011.51,1048.6 1031.54,1068.16 1051.57,1087.74 1071.6,1107.33 1091.62,1126.94 1111.65,1146.57 1131.68,1166.2 1151.71,1185.84 1171.73,1205.49 1191.76,1225.15 1211.79,1244.82 1231.82,1264.49 1251.84,1284.16 1271.87,1303.84 1291.9,1323.52 1311.93,1343.2 1331.95,1362.89 1351.98,1382.58 1372.01,1402.27 1392.04,1421.96 1412.06,1441.65 1432.09,1461.35 1452.12,1481.04 1472.15,1500.73 1492.17,1520.43 1512.2,1540.13 1532.23,1559.82 1552.26,1579.52 1572.28,1599.21 1592.31,1618.91 1612.34,1638.61 1632.37,1658.3 1652.39,1678 1672.42,1697.7 1692.45,1717.4 1712.48,1737.09 1732.5,1756.79 1752.53,1776.49 1772.56,1796.18 1792.59,1815.88 1812.61,1835.58 1832.64,1855.28 1852.67,1874.97 1872.7,1894.67 1892.72,1914.37 1912.75,1934.07 1932.78,1953.76 1952.81,1973.46 1972.83,1993.16 1992.86,2012.85 2012.89,2032.55 2032.92,2052.25 2052.94,2071.95 2072.97,2091.64 2093,2111.34 2113.03,2131.04 2133.05,2150.74 2153.08,2170.43 2173.11,2190.13 2193.14,2209.83 2213.16,2229.52 2233.19,2249.22 2253.22,2268.92 2273.25,2288.62 2293.27,2308.31 "/>
<polyline clip-path="url(#clip422)" style="stroke:#808080; stroke-linecap:round; stroke-linejoin:round; stroke-width:4; stroke-opacity:1; fill:none" stroke-dasharray="16, 10" points="-1850.61,240.876 4454.44,240.876 "/>
<path clip-path="url(#clip420)" d="M1875.1 373.746 L2282.7 373.746 L2282.7 166.386 L1875.1 166.386  Z" fill="#ffffff" fill-rule="evenodd" fill-opacity="1"/>
<polyline clip-path="url(#clip420)" style="stroke:#000000; stroke-linecap:round; stroke-linejoin:round; stroke-width:4; stroke-opacity:1; fill:none" points="1875.1,373.746 2282.7,373.746 2282.7,166.386 1875.1,166.386 1875.1,373.746 "/>
<polyline clip-path="url(#clip420)" style="stroke:#009af9; stroke-linecap:round; stroke-linejoin:round; stroke-width:8; stroke-opacity:1; fill:none" points="1898.45,218.226 2038.57,218.226 "/>
<path clip-path="url(#clip420)" d="M2082.54 205.483 Q2080.18 203.863 2074.65 203.863 Q2068.79 203.863 2068.79 206.571 Q2068.79 208.701 2074.9 209.812 Q2079.72 210.668 2082.43 213.261 Q2085.71 216.386 2085.71 222.798 Q2085.71 228.932 2082.54 232.543 Q2079.37 236.178 2073.82 236.178 Q2068.28 236.178 2065.09 232.543 Q2061.92 228.932 2061.92 222.567 Q2061.92 217.844 2065.09 214.025 Q2066.32 212.543 2068.05 211.71 Q2064.44 209.881 2064.44 206.618 Q2064.44 200.321 2074.65 200.321 Q2079.77 200.321 2082.54 201.942 L2082.54 205.483 M2071.25 212.868 Q2069.67 213.539 2068.4 215.229 Q2066.41 217.844 2066.41 222.567 Q2066.41 227.266 2068.38 229.904 Q2070.37 232.566 2073.82 232.566 Q2077.22 232.566 2079.21 229.881 Q2081.2 227.196 2081.2 222.798 Q2081.2 218.192 2079.09 215.969 Q2076.85 213.585 2073.93 213.33 Q2072.45 213.192 2071.25 212.868 Z" fill="#000000" fill-rule="nonzero" fill-opacity="1" /><path clip-path="url(#clip420)" d="M2108.4 213.979 L2138.08 213.979 L2138.08 217.867 L2108.4 217.867 L2108.4 213.979 M2108.4 223.423 L2138.08 223.423 L2138.08 227.358 L2108.4 227.358 L2108.4 223.423 Z" fill="#000000" fill-rule="nonzero" fill-opacity="1" /><path clip-path="url(#clip420)" d="M2164.05 231.571 L2171.69 231.571 L2171.69 205.206 L2163.38 206.872 L2163.38 202.613 L2171.64 200.946 L2176.32 200.946 L2176.32 231.571 L2183.95 231.571 L2183.95 235.506 L2164.05 235.506 L2164.05 231.571 Z" fill="#000000" fill-rule="nonzero" fill-opacity="1" /><path clip-path="url(#clip420)" d="M2193.4 229.627 L2198.28 229.627 L2198.28 235.506 L2193.4 235.506 L2193.4 229.627 Z" fill="#000000" fill-rule="nonzero" fill-opacity="1" /><path clip-path="url(#clip420)" d="M2218.47 204.025 Q2214.86 204.025 2213.03 207.59 Q2211.22 211.131 2211.22 218.261 Q2211.22 225.367 2213.03 228.932 Q2214.86 232.474 2218.47 232.474 Q2222.1 232.474 2223.91 228.932 Q2225.74 225.367 2225.74 218.261 Q2225.74 211.131 2223.91 207.59 Q2222.1 204.025 2218.47 204.025 M2218.47 200.321 Q2224.28 200.321 2227.33 204.928 Q2230.41 209.511 2230.41 218.261 Q2230.41 226.988 2227.33 231.594 Q2224.28 236.178 2218.47 236.178 Q2212.66 236.178 2209.58 231.594 Q2206.52 226.988 2206.52 218.261 Q2206.52 209.511 2209.58 204.928 Q2212.66 200.321 2218.47 200.321 Z" fill="#000000" fill-rule="nonzero" fill-opacity="1" /><polyline clip-path="url(#clip420)" style="stroke:#e26f46; stroke-linecap:round; stroke-linejoin:round; stroke-width:8; stroke-opacity:1; fill:none" points="1898.45,270.066 2038.57,270.066 "/>
<path clip-path="url(#clip420)" d="M2082.54 257.323 Q2080.18 255.703 2074.65 255.703 Q2068.79 255.703 2068.79 258.411 Q2068.79 260.541 2074.9 261.652 Q2079.72 262.508 2082.43 265.101 Q2085.71 268.226 2085.71 274.638 Q2085.71 280.772 2082.54 284.383 Q2079.37 288.018 2073.82 288.018 Q2068.28 288.018 2065.09 284.383 Q2061.92 280.772 2061.92 274.407 Q2061.92 269.684 2065.09 265.865 Q2066.32 264.383 2068.05 263.55 Q2064.44 261.721 2064.44 258.458 Q2064.44 252.161 2074.65 252.161 Q2079.77 252.161 2082.54 253.782 L2082.54 257.323 M2071.25 264.708 Q2069.67 265.379 2068.4 267.069 Q2066.41 269.684 2066.41 274.407 Q2066.41 279.106 2068.38 281.744 Q2070.37 284.406 2073.82 284.406 Q2077.22 284.406 2079.21 281.721 Q2081.2 279.036 2081.2 274.638 Q2081.2 270.032 2079.09 267.809 Q2076.85 265.425 2073.93 265.17 Q2072.45 265.032 2071.25 264.708 Z" fill="#000000" fill-rule="nonzero" fill-opacity="1" /><path clip-path="url(#clip420)" d="M2108.4 265.819 L2138.08 265.819 L2138.08 269.707 L2108.4 269.707 L2108.4 265.819 M2108.4 275.263 L2138.08 275.263 L2138.08 279.198 L2108.4 279.198 L2108.4 275.263 Z" fill="#000000" fill-rule="nonzero" fill-opacity="1" /><path clip-path="url(#clip420)" d="M2173.24 255.865 Q2169.63 255.865 2167.8 259.43 Q2165.99 262.971 2165.99 270.101 Q2165.99 277.207 2167.8 280.772 Q2169.63 284.314 2173.24 284.314 Q2176.87 284.314 2178.68 280.772 Q2180.51 277.207 2180.51 270.101 Q2180.51 262.971 2178.68 259.43 Q2176.87 255.865 2173.24 255.865 M2173.24 252.161 Q2179.05 252.161 2182.1 256.768 Q2185.18 261.351 2185.18 270.101 Q2185.18 278.828 2182.1 283.434 Q2179.05 288.018 2173.24 288.018 Q2167.43 288.018 2164.35 283.434 Q2161.29 278.828 2161.29 270.101 Q2161.29 261.351 2164.35 256.768 Q2167.43 252.161 2173.24 252.161 Z" fill="#000000" fill-rule="nonzero" fill-opacity="1" /><path clip-path="url(#clip420)" d="M2193.4 281.467 L2198.28 281.467 L2198.28 287.346 L2193.4 287.346 L2193.4 281.467 Z" fill="#000000" fill-rule="nonzero" fill-opacity="1" /><path clip-path="url(#clip420)" d="M2209.28 283.411 L2216.92 283.411 L2216.92 257.046 L2208.61 258.712 L2208.61 254.453 L2216.87 252.786 L2221.55 252.786 L2221.55 283.411 L2229.19 283.411 L2229.19 287.346 L2209.28 287.346 L2209.28 283.411 Z" fill="#000000" fill-rule="nonzero" fill-opacity="1" /><polyline clip-path="url(#clip420)" style="stroke:#3da44d; stroke-linecap:round; stroke-linejoin:round; stroke-width:8; stroke-opacity:1; fill:none" points="1898.45,321.906 2038.57,321.906 "/>
<path clip-path="url(#clip420)" d="M2082.54 309.163 Q2080.18 307.543 2074.65 307.543 Q2068.79 307.543 2068.79 310.251 Q2068.79 312.381 2074.9 313.492 Q2079.72 314.348 2082.43 316.941 Q2085.71 320.066 2085.71 326.478 Q2085.71 332.612 2082.54 336.223 Q2079.37 339.858 2073.82 339.858 Q2068.28 339.858 2065.09 336.223 Q2061.92 332.612 2061.92 326.247 Q2061.92 321.524 2065.09 317.705 Q2066.32 316.223 2068.05 315.39 Q2064.44 313.561 2064.44 310.298 Q2064.44 304.001 2074.65 304.001 Q2079.77 304.001 2082.54 305.622 L2082.54 309.163 M2071.25 316.548 Q2069.67 317.219 2068.4 318.909 Q2066.41 321.524 2066.41 326.247 Q2066.41 330.946 2068.38 333.584 Q2070.37 336.246 2073.82 336.246 Q2077.22 336.246 2079.21 333.561 Q2081.2 330.876 2081.2 326.478 Q2081.2 321.872 2079.09 319.649 Q2076.85 317.265 2073.93 317.01 Q2072.45 316.872 2071.25 316.548 Z" fill="#000000" fill-rule="nonzero" fill-opacity="1" /><path clip-path="url(#clip420)" d="M2108.4 317.659 L2138.08 317.659 L2138.08 321.547 L2108.4 321.547 L2108.4 317.659 M2108.4 327.103 L2138.08 327.103 L2138.08 331.038 L2108.4 331.038 L2108.4 327.103 Z" fill="#000000" fill-rule="nonzero" fill-opacity="1" /><path clip-path="url(#clip420)" d="M2173.24 307.705 Q2169.63 307.705 2167.8 311.27 Q2165.99 314.811 2165.99 321.941 Q2165.99 329.047 2167.8 332.612 Q2169.63 336.154 2173.24 336.154 Q2176.87 336.154 2178.68 332.612 Q2180.51 329.047 2180.51 321.941 Q2180.51 314.811 2178.68 311.27 Q2176.87 307.705 2173.24 307.705 M2173.24 304.001 Q2179.05 304.001 2182.1 308.608 Q2185.18 313.191 2185.18 321.941 Q2185.18 330.668 2182.1 335.274 Q2179.05 339.858 2173.24 339.858 Q2167.43 339.858 2164.35 335.274 Q2161.29 330.668 2161.29 321.941 Q2161.29 313.191 2164.35 308.608 Q2167.43 304.001 2173.24 304.001 Z" fill="#000000" fill-rule="nonzero" fill-opacity="1" /><path clip-path="url(#clip420)" d="M2193.4 333.307 L2198.28 333.307 L2198.28 339.186 L2193.4 339.186 L2193.4 333.307 Z" fill="#000000" fill-rule="nonzero" fill-opacity="1" /><path clip-path="url(#clip420)" d="M2218.47 307.705 Q2214.86 307.705 2213.03 311.27 Q2211.22 314.811 2211.22 321.941 Q2211.22 329.047 2213.03 332.612 Q2214.86 336.154 2218.47 336.154 Q2222.1 336.154 2223.91 332.612 Q2225.74 329.047 2225.74 321.941 Q2225.74 314.811 2223.91 311.27 Q2222.1 307.705 2218.47 307.705 M2218.47 304.001 Q2224.28 304.001 2227.33 308.608 Q2230.41 313.191 2230.41 321.941 Q2230.41 330.668 2227.33 335.274 Q2224.28 339.858 2218.47 339.858 Q2212.66 339.858 2209.58 335.274 Q2206.52 330.668 2206.52 321.941 Q2206.52 313.191 2209.58 308.608 Q2212.66 304.001 2218.47 304.001 Z" fill="#000000" fill-rule="nonzero" fill-opacity="1" /><path clip-path="url(#clip420)" d="M2239.44 335.251 L2247.08 335.251 L2247.08 308.886 L2238.77 310.552 L2238.77 306.293 L2247.03 304.626 L2251.71 304.626 L2251.71 335.251 L2259.35 335.251 L2259.35 339.186 L2239.44 339.186 L2239.44 335.251 Z" fill="#000000" fill-rule="nonzero" fill-opacity="1" /></svg>
