<?xml version="1.0" encoding="utf-8"?>
<svg xmlns="http://www.w3.org/2000/svg" xmlns:xlink="http://www.w3.org/1999/xlink" width="600" height="400" viewBox="0 0 2400 1600">
<defs>
  <clipPath id="clip360">
    <rect x="0" y="0" width="2400" height="1600"/>
  </clipPath>
</defs>
<path clip-path="url(#clip360)" d="M0 1600 L2400 1600 L2400 0 L0 0  Z" fill="#ffffff" fill-rule="evenodd" fill-opacity="1"/>
<defs>
  <clipPath id="clip361">
    <rect x="249" y="123" width="2104" height="1288"/>
  </clipPath>
</defs>
<path clip-path="url(#clip360)" d="M252.764 1410.9 L2352.76 1410.9 L2352.76 123.472 L252.764 123.472  Z" fill="#ffffff" fill-rule="evenodd" fill-opacity="1"/>
<defs>
  <clipPath id="clip362">
    <rect x="252" y="123" width="2101" height="1288"/>
  </clipPath>
</defs>
<polyline clip-path="url(#clip362)" style="stroke:#000000; stroke-linecap:round; stroke-linejoin:round; stroke-width:2; stroke-opacity:0.1; fill:none" points="252.764,1410.9 252.764,123.472 "/>
<polyline clip-path="url(#clip362)" style="stroke:#000000; stroke-linecap:round; stroke-linejoin:round; stroke-width:2; stroke-opacity:0.1; fill:none" points="672.762,1410.9 672.762,123.472 "/>
<polyline clip-path="url(#clip362)" style="stroke:#000000; stroke-linecap:round; stroke-linejoin:round; stroke-width:2; stroke-opacity:0.1; fill:none" points="1092.76,1410.9 1092.76,123.472 "/>
<polyline clip-path="url(#clip362)" style="stroke:#000000; stroke-linecap:round; stroke-linejoin:round; stroke-width:2; stroke-opacity:0.1; fill:none" points="1512.76,1410.9 1512.76,123.472 "/>
<polyline clip-path="url(#clip362)" style="stroke:#000000; stroke-linecap:round; stroke-linejoin:round; stroke-width:2; stroke-opacity:0.1; fill:none" points="1932.76,1410.9 1932.76,123.472 "/>
<polyline clip-path="url(#clip362)" style="stroke:#000000; stroke-linecap:round; stroke-linejoin:round; stroke-width:2; stroke-opacity:0.1; fill:none" points="2352.76,1410.9 2352.76,123.472 "/>
<polyline clip-path="url(#clip362)" style="stroke:#000000; stroke-linecap:round; stroke-linejoin:round; stroke-width:2; stroke-opacity:0.1; fill:none" points="252.764,1410.9 2352.76,1410.9 "/>
<polyline clip-path="url(#clip362)" style="stroke:#000000; stroke-linecap:round; stroke-linejoin:round; stroke-width:2; stroke-opacity:0.1; fill:none" points="252.764,1196.33 2352.76,1196.33 "/>
<polyline clip-path="url(#clip362)" style="stroke:#000000; stroke-linecap:round; stroke-linejoin:round; stroke-width:2; stroke-opacity:0.1; fill:none" points="252.764,981.755 2352.76,981.755 "/>
<polyline clip-path="url(#clip362)" style="stroke:#000000; stroke-linecap:round; stroke-linejoin:round; stroke-width:2; stroke-opacity:0.1; fill:none" points="252.764,767.184 2352.76,767.184 "/>
<polyline clip-path="url(#clip362)" style="stroke:#000000; stroke-linecap:round; stroke-linejoin:round; stroke-width:2; stroke-opacity:0.1; fill:none" points="252.764,552.614 2352.76,552.614 "/>
<polyline clip-path="url(#clip362)" style="stroke:#000000; stroke-linecap:round; stroke-linejoin:round; stroke-width:2; stroke-opacity:0.1; fill:none" points="252.764,338.043 2352.76,338.043 "/>
<polyline clip-path="url(#clip362)" style="stroke:#000000; stroke-linecap:round; stroke-linejoin:round; stroke-width:2; stroke-opacity:0.1; fill:none" points="252.764,123.472 2352.76,123.472 "/>
<polyline clip-path="url(#clip360)" style="stroke:#000000; stroke-linecap:round; stroke-linejoin:round; stroke-width:4; stroke-opacity:1; fill:none" points="252.764,1410.9 2352.76,1410.9 "/>
<polyline clip-path="url(#clip360)" style="stroke:#000000; stroke-linecap:round; stroke-linejoin:round; stroke-width:4; stroke-opacity:1; fill:none" points="252.764,1410.9 252.764,1392 "/>
<polyline clip-path="url(#clip360)" style="stroke:#000000; stroke-linecap:round; stroke-linejoin:round; stroke-width:4; stroke-opacity:1; fill:none" points="672.762,1410.9 672.762,1392 "/>
<polyline clip-path="url(#clip360)" style="stroke:#000000; stroke-linecap:round; stroke-linejoin:round; stroke-width:4; stroke-opacity:1; fill:none" points="1092.76,1410.9 1092.76,1392 "/>
<polyline clip-path="url(#clip360)" style="stroke:#000000; stroke-linecap:round; stroke-linejoin:round; stroke-width:4; stroke-opacity:1; fill:none" points="1512.76,1410.9 1512.76,1392 "/>
<polyline clip-path="url(#clip360)" style="stroke:#000000; stroke-linecap:round; stroke-linejoin:round; stroke-width:4; stroke-opacity:1; fill:none" points="1932.76,1410.9 1932.76,1392 "/>
<polyline clip-path="url(#clip360)" style="stroke:#000000; stroke-linecap:round; stroke-linejoin:round; stroke-width:4; stroke-opacity:1; fill:none" points="2352.76,1410.9 2352.76,1392 "/>
<path clip-path="url(#clip360)" d="M202.748 1485.02 L210.386 1485.02 L210.386 1458.66 L202.076 1460.32 L202.076 1456.06 L210.34 1454.4 L215.016 1454.4 L215.016 1485.02 L222.655 1485.02 L222.655 1488.96 L202.748 1488.96 L202.748 1485.02 Z" fill="#000000" fill-rule="nonzero" fill-opacity="1" /><path clip-path="url(#clip360)" d="M242.099 1457.48 Q238.488 1457.48 236.659 1461.04 Q234.854 1464.58 234.854 1471.71 Q234.854 1478.82 236.659 1482.38 Q238.488 1485.92 242.099 1485.92 Q245.733 1485.92 247.539 1482.38 Q249.368 1478.82 249.368 1471.71 Q249.368 1464.58 247.539 1461.04 Q245.733 1457.48 242.099 1457.48 M242.099 1453.77 Q247.909 1453.77 250.965 1458.38 Q254.044 1462.96 254.044 1471.71 Q254.044 1480.44 250.965 1485.04 Q247.909 1489.63 242.099 1489.63 Q236.289 1489.63 233.21 1485.04 Q230.155 1480.44 230.155 1471.71 Q230.155 1462.96 233.21 1458.38 Q236.289 1453.77 242.099 1453.77 Z" fill="#000000" fill-rule="nonzero" fill-opacity="1" /><path clip-path="url(#clip360)" d="M254.044 1447.87 L278.155 1447.87 L278.155 1451.07 L254.044 1451.07 L254.044 1447.87 Z" fill="#000000" fill-rule="nonzero" fill-opacity="1" /><path clip-path="url(#clip360)" d="M285.396 1433.47 L303.452 1433.47 L303.452 1435.08 L293.258 1461.55 L289.289 1461.55 L298.881 1436.66 L285.396 1436.66 L285.396 1433.47 Z" fill="#000000" fill-rule="nonzero" fill-opacity="1" /><path clip-path="url(#clip360)" d="M622.313 1485.02 L629.952 1485.02 L629.952 1458.66 L621.642 1460.32 L621.642 1456.06 L629.906 1454.4 L634.582 1454.4 L634.582 1485.02 L642.221 1485.02 L642.221 1488.96 L622.313 1488.96 L622.313 1485.02 Z" fill="#000000" fill-rule="nonzero" fill-opacity="1" /><path clip-path="url(#clip360)" d="M661.665 1457.48 Q658.054 1457.48 656.225 1461.04 Q654.42 1464.58 654.42 1471.71 Q654.42 1478.82 656.225 1482.38 Q658.054 1485.92 661.665 1485.92 Q665.299 1485.92 667.105 1482.38 Q668.934 1478.82 668.934 1471.71 Q668.934 1464.58 667.105 1461.04 Q665.299 1457.48 661.665 1457.48 M661.665 1453.77 Q667.475 1453.77 670.531 1458.38 Q673.609 1462.96 673.609 1471.71 Q673.609 1480.44 670.531 1485.04 Q667.475 1489.63 661.665 1489.63 Q655.855 1489.63 652.776 1485.04 Q649.721 1480.44 649.721 1471.71 Q649.721 1462.96 652.776 1458.38 Q655.855 1453.77 661.665 1453.77 Z" fill="#000000" fill-rule="nonzero" fill-opacity="1" /><path clip-path="url(#clip360)" d="M673.609 1447.87 L697.721 1447.87 L697.721 1451.07 L673.609 1451.07 L673.609 1447.87 Z" fill="#000000" fill-rule="nonzero" fill-opacity="1" /><path clip-path="url(#clip360)" d="M714.516 1445.99 Q711.958 1445.99 710.454 1447.74 Q708.968 1449.49 708.968 1452.54 Q708.968 1455.57 710.454 1457.33 Q711.958 1459.08 714.516 1459.08 Q717.074 1459.08 718.56 1457.33 Q720.065 1455.57 720.065 1452.54 Q720.065 1449.49 718.56 1447.74 Q717.074 1445.99 714.516 1445.99 M722.058 1434.09 L722.058 1437.55 Q720.629 1436.87 719.162 1436.51 Q717.714 1436.16 716.284 1436.16 Q712.523 1436.16 710.529 1438.69 Q708.554 1441.23 708.272 1446.37 Q709.382 1444.73 711.056 1443.87 Q712.73 1442.98 714.742 1442.98 Q718.974 1442.98 721.419 1445.56 Q723.883 1448.12 723.883 1452.54 Q723.883 1456.86 721.325 1459.48 Q718.767 1462.09 714.516 1462.09 Q709.645 1462.09 707.068 1458.37 Q704.492 1454.62 704.492 1447.53 Q704.492 1440.88 707.651 1436.93 Q710.811 1432.96 716.134 1432.96 Q717.563 1432.96 719.011 1433.24 Q720.478 1433.52 722.058 1434.09 Z" fill="#000000" fill-rule="nonzero" fill-opacity="1" /><path clip-path="url(#clip360)" d="M1042.78 1485.02 L1050.42 1485.02 L1050.42 1458.66 L1042.11 1460.32 L1042.11 1456.06 L1050.37 1454.4 L1055.05 1454.4 L1055.05 1485.02 L1062.69 1485.02 L1062.69 1488.96 L1042.78 1488.96 L1042.78 1485.02 Z" fill="#000000" fill-rule="nonzero" fill-opacity="1" /><path clip-path="url(#clip360)" d="M1082.13 1457.48 Q1078.52 1457.48 1076.69 1461.04 Q1074.89 1464.58 1074.89 1471.71 Q1074.89 1478.82 1076.69 1482.38 Q1078.52 1485.92 1082.13 1485.92 Q1085.77 1485.92 1087.57 1482.38 Q1089.4 1478.82 1089.4 1471.71 Q1089.4 1464.58 1087.57 1461.04 Q1085.77 1457.48 1082.13 1457.48 M1082.13 1453.77 Q1087.94 1453.77 1091 1458.38 Q1094.08 1462.96 1094.08 1471.71 Q1094.08 1480.44 1091 1485.04 Q1087.94 1489.63 1082.13 1489.63 Q1076.32 1489.63 1073.24 1485.04 Q1070.19 1480.44 1070.19 1471.71 Q1070.19 1462.96 1073.24 1458.38 Q1076.32 1453.77 1082.13 1453.77 Z" fill="#000000" fill-rule="nonzero" fill-opacity="1" /><path clip-path="url(#clip360)" d="M1094.08 1447.87 L1118.19 1447.87 L1118.19 1451.07 L1094.08 1451.07 L1094.08 1447.87 Z" fill="#000000" fill-rule="nonzero" fill-opacity="1" /><path clip-path="url(#clip360)" d="M1126.43 1433.47 L1141.34 1433.47 L1141.34 1436.66 L1129.91 1436.66 L1129.91 1443.55 Q1130.73 1443.27 1131.56 1443.13 Q1132.39 1442.98 1133.22 1442.98 Q1137.92 1442.98 1140.66 1445.56 Q1143.41 1448.14 1143.41 1452.54 Q1143.41 1457.07 1140.59 1459.59 Q1137.77 1462.09 1132.63 1462.09 Q1130.87 1462.09 1129.02 1461.79 Q1127.2 1461.49 1125.24 1460.89 L1125.24 1457.07 Q1126.94 1457.99 1128.74 1458.44 Q1130.55 1458.89 1132.56 1458.89 Q1135.81 1458.89 1137.71 1457.18 Q1139.61 1455.47 1139.61 1452.54 Q1139.61 1449.6 1137.71 1447.89 Q1135.81 1446.18 1132.56 1446.18 Q1131.04 1446.18 1129.51 1446.52 Q1128.01 1446.86 1126.43 1447.57 L1126.43 1433.47 Z" fill="#000000" fill-rule="nonzero" fill-opacity="1" /><path clip-path="url(#clip360)" d="M1462.18 1485.02 L1469.82 1485.02 L1469.82 1458.66 L1461.51 1460.32 L1461.51 1456.06 L1469.77 1454.4 L1474.45 1454.4 L1474.45 1485.02 L1482.09 1485.02 L1482.09 1488.96 L1462.18 1488.96 L1462.18 1485.02 Z" fill="#000000" fill-rule="nonzero" fill-opacity="1" /><path clip-path="url(#clip360)" d="M1501.53 1457.48 Q1497.92 1457.48 1496.09 1461.04 Q1494.28 1464.58 1494.28 1471.71 Q1494.28 1478.82 1496.09 1482.38 Q1497.92 1485.92 1501.53 1485.92 Q1505.16 1485.92 1506.97 1482.38 Q1508.8 1478.82 1508.8 1471.71 Q1508.8 1464.58 1506.97 1461.04 Q1505.16 1457.48 1501.53 1457.48 M1501.53 1453.77 Q1507.34 1453.77 1510.4 1458.38 Q1513.47 1462.96 1513.47 1471.71 Q1513.47 1480.44 1510.4 1485.04 Q1507.34 1489.63 1501.53 1489.63 Q1495.72 1489.63 1492.64 1485.04 Q1489.59 1480.44 1489.59 1471.71 Q1489.59 1462.96 1492.64 1458.38 Q1495.72 1453.77 1501.53 1453.77 Z" fill="#000000" fill-rule="nonzero" fill-opacity="1" /><path clip-path="url(#clip360)" d="M1513.47 1447.87 L1537.59 1447.87 L1537.59 1451.07 L1513.47 1451.07 L1513.47 1447.87 Z" fill="#000000" fill-rule="nonzero" fill-opacity="1" /><path clip-path="url(#clip360)" d="M1556.22 1436.78 L1546.63 1451.77 L1556.22 1451.77 L1556.22 1436.78 M1555.23 1433.47 L1560 1433.47 L1560 1451.77 L1564.01 1451.77 L1564.01 1454.93 L1560 1454.93 L1560 1461.55 L1556.22 1461.55 L1556.22 1454.93 L1543.55 1454.93 L1543.55 1451.26 L1555.23 1433.47 Z" fill="#000000" fill-rule="nonzero" fill-opacity="1" /><path clip-path="url(#clip360)" d="M1882.64 1485.02 L1890.28 1485.02 L1890.28 1458.66 L1881.97 1460.32 L1881.97 1456.06 L1890.23 1454.4 L1894.91 1454.4 L1894.91 1485.02 L1902.55 1485.02 L1902.55 1488.96 L1882.64 1488.96 L1882.64 1485.02 Z" fill="#000000" fill-rule="nonzero" fill-opacity="1" /><path clip-path="url(#clip360)" d="M1921.99 1457.48 Q1918.38 1457.48 1916.55 1461.04 Q1914.74 1464.58 1914.74 1471.71 Q1914.74 1478.82 1916.55 1482.38 Q1918.38 1485.92 1921.99 1485.92 Q1925.62 1485.92 1927.43 1482.38 Q1929.26 1478.82 1929.26 1471.71 Q1929.26 1464.58 1927.43 1461.04 Q1925.62 1457.48 1921.99 1457.48 M1921.99 1453.77 Q1927.8 1453.77 1930.86 1458.38 Q1933.93 1462.96 1933.93 1471.71 Q1933.93 1480.44 1930.86 1485.04 Q1927.8 1489.63 1921.99 1489.63 Q1916.18 1489.63 1913.1 1485.04 Q1910.04 1480.44 1910.04 1471.71 Q1910.04 1462.96 1913.1 1458.38 Q1916.18 1453.77 1921.99 1453.77 Z" fill="#000000" fill-rule="nonzero" fill-opacity="1" /><path clip-path="url(#clip360)" d="M1933.93 1447.87 L1958.05 1447.87 L1958.05 1451.07 L1933.93 1451.07 L1933.93 1447.87 Z" fill="#000000" fill-rule="nonzero" fill-opacity="1" /><path clip-path="url(#clip360)" d="M1977.76 1446.41 Q1980.48 1446.99 1982.01 1448.83 Q1983.55 1450.68 1983.55 1453.38 Q1983.55 1457.54 1980.69 1459.82 Q1977.83 1462.09 1972.56 1462.09 Q1970.8 1462.09 1968.92 1461.73 Q1967.05 1461.4 1965.06 1460.7 L1965.06 1457.03 Q1966.64 1457.95 1968.52 1458.42 Q1970.4 1458.89 1972.45 1458.89 Q1976.03 1458.89 1977.89 1457.48 Q1979.77 1456.07 1979.77 1453.38 Q1979.77 1450.9 1978.02 1449.51 Q1976.29 1448.1 1973.19 1448.1 L1969.91 1448.1 L1969.91 1444.98 L1973.34 1444.98 Q1976.14 1444.98 1977.62 1443.87 Q1979.11 1442.74 1979.11 1440.63 Q1979.11 1438.47 1977.57 1437.32 Q1976.04 1436.16 1973.19 1436.16 Q1971.62 1436.16 1969.84 1436.49 Q1968.05 1436.83 1965.91 1437.55 L1965.91 1434.16 Q1968.07 1433.56 1969.95 1433.26 Q1971.85 1432.96 1973.52 1432.96 Q1977.85 1432.96 1980.37 1434.93 Q1982.89 1436.89 1982.89 1440.24 Q1982.89 1442.57 1981.55 1444.19 Q1980.22 1445.79 1977.76 1446.41 Z" fill="#000000" fill-rule="nonzero" fill-opacity="1" /><path clip-path="url(#clip360)" d="M2303.02 1485.02 L2310.66 1485.02 L2310.66 1458.66 L2302.35 1460.32 L2302.35 1456.06 L2310.61 1454.4 L2315.29 1454.4 L2315.29 1485.02 L2322.93 1485.02 L2322.93 1488.96 L2303.02 1488.96 L2303.02 1485.02 Z" fill="#000000" fill-rule="nonzero" fill-opacity="1" /><path clip-path="url(#clip360)" d="M2342.37 1457.48 Q2338.76 1457.48 2336.93 1461.04 Q2335.13 1464.58 2335.13 1471.71 Q2335.13 1478.82 2336.93 1482.38 Q2338.76 1485.92 2342.37 1485.92 Q2346.01 1485.92 2347.81 1482.38 Q2349.64 1478.82 2349.64 1471.71 Q2349.64 1464.58 2347.81 1461.04 Q2346.01 1457.48 2342.37 1457.48 M2342.37 1453.77 Q2348.18 1453.77 2351.24 1458.38 Q2354.32 1462.96 2354.32 1471.71 Q2354.32 1480.44 2351.24 1485.04 Q2348.18 1489.63 2342.37 1489.63 Q2336.56 1489.63 2333.48 1485.04 Q2330.43 1480.44 2330.43 1471.71 Q2330.43 1462.96 2333.48 1458.38 Q2336.56 1453.77 2342.37 1453.77 Z" fill="#000000" fill-rule="nonzero" fill-opacity="1" /><path clip-path="url(#clip360)" d="M2354.32 1447.87 L2378.43 1447.87 L2378.43 1451.07 L2354.32 1451.07 L2354.32 1447.87 Z" fill="#000000" fill-rule="nonzero" fill-opacity="1" /><path clip-path="url(#clip360)" d="M2389.9 1458.35 L2403.16 1458.35 L2403.16 1461.55 L2385.33 1461.55 L2385.33 1458.35 Q2387.49 1456.11 2391.22 1452.35 Q2394.96 1448.57 2395.92 1447.48 Q2397.74 1445.43 2398.46 1444.02 Q2399.19 1442.59 2399.19 1441.22 Q2399.19 1438.98 2397.61 1437.57 Q2396.05 1436.16 2393.53 1436.16 Q2391.75 1436.16 2389.75 1436.78 Q2387.78 1437.4 2385.52 1438.66 L2385.52 1434.82 Q2387.81 1433.9 2389.81 1433.43 Q2391.8 1432.96 2393.46 1432.96 Q2397.82 1432.96 2400.42 1435.14 Q2403.01 1437.32 2403.01 1440.97 Q2403.01 1442.7 2402.35 1444.26 Q2401.71 1445.8 2400 1447.91 Q2399.53 1448.46 2397.01 1451.07 Q2394.49 1453.67 2389.9 1458.35 Z" fill="#000000" fill-rule="nonzero" fill-opacity="1" /><path clip-path="url(#clip360)" d="M1235.55 1556.27 Q1228.46 1556.27 1225.72 1557.89 Q1222.98 1559.51 1222.98 1563.43 Q1222.98 1566.55 1225.02 1568.39 Q1227.09 1570.21 1230.62 1570.21 Q1235.49 1570.21 1238.42 1566.77 Q1241.38 1563.3 1241.38 1557.57 L1241.38 1556.27 L1235.55 1556.27 M1247.24 1553.85 L1247.24 1574.19 L1241.38 1574.19 L1241.38 1568.77 Q1239.37 1572.02 1236.38 1573.58 Q1233.39 1575.11 1229.06 1575.11 Q1223.59 1575.11 1220.34 1572.05 Q1217.13 1568.97 1217.13 1563.81 Q1217.13 1557.79 1221.14 1554.74 Q1225.18 1551.68 1233.17 1551.68 L1241.38 1551.68 L1241.38 1551.11 Q1241.38 1547.07 1238.71 1544.87 Q1236.06 1542.64 1231.26 1542.64 Q1228.2 1542.64 1225.31 1543.38 Q1222.41 1544.11 1219.74 1545.57 L1219.74 1540.16 Q1222.95 1538.92 1225.97 1538.31 Q1229 1537.68 1231.86 1537.68 Q1239.6 1537.68 1243.42 1541.69 Q1247.24 1545.7 1247.24 1553.85 Z" fill="#000000" fill-rule="nonzero" fill-opacity="1" /><path clip-path="url(#clip360)" d="M1260.79 1566.1 L1267.51 1566.1 L1267.51 1571.58 L1262.29 1581.76 L1258.18 1581.76 L1260.79 1571.58 L1260.79 1566.1 Z" fill="#000000" fill-rule="nonzero" fill-opacity="1" /><path clip-path="url(#clip360)" d="M1326.39 1539.91 L1326.39 1545.38 Q1323.91 1544.01 1321.4 1543.34 Q1318.91 1542.64 1316.37 1542.64 Q1310.67 1542.64 1307.52 1546.27 Q1304.37 1549.87 1304.37 1556.39 Q1304.37 1562.92 1307.52 1566.55 Q1310.67 1570.14 1316.37 1570.14 Q1318.91 1570.14 1321.4 1569.47 Q1323.91 1568.77 1326.39 1567.41 L1326.39 1572.82 Q1323.94 1573.96 1321.3 1574.54 Q1318.69 1575.11 1315.73 1575.11 Q1307.68 1575.11 1302.93 1570.05 Q1298.19 1564.99 1298.19 1556.39 Q1298.19 1547.67 1302.97 1542.68 Q1307.77 1537.68 1316.11 1537.68 Q1318.82 1537.68 1321.4 1538.25 Q1323.97 1538.79 1326.39 1539.91 Z" fill="#000000" fill-rule="nonzero" fill-opacity="1" /><path clip-path="url(#clip360)" d="M1364.33 1545.38 Q1366.53 1541.43 1369.58 1539.56 Q1372.64 1537.68 1376.78 1537.68 Q1382.35 1537.68 1385.37 1541.59 Q1388.39 1545.48 1388.39 1552.67 L1388.39 1574.19 L1382.51 1574.19 L1382.51 1552.86 Q1382.51 1547.74 1380.69 1545.25 Q1378.88 1542.77 1375.15 1542.77 Q1370.6 1542.77 1367.96 1545.79 Q1365.32 1548.82 1365.32 1554.04 L1365.32 1574.19 L1359.43 1574.19 L1359.43 1552.86 Q1359.43 1547.7 1357.62 1545.25 Q1355.8 1542.77 1352.01 1542.77 Q1347.53 1542.77 1344.88 1545.83 Q1342.24 1548.85 1342.24 1554.04 L1342.24 1574.19 L1336.35 1574.19 L1336.35 1538.54 L1342.24 1538.54 L1342.24 1544.08 Q1344.25 1540.8 1347.05 1539.24 Q1349.85 1537.68 1353.7 1537.68 Q1357.58 1537.68 1360.29 1539.65 Q1363.03 1541.62 1364.33 1545.38 Z" fill="#000000" fill-rule="nonzero" fill-opacity="1" /><polyline clip-path="url(#clip360)" style="stroke:#000000; stroke-linecap:round; stroke-linejoin:round; stroke-width:4; stroke-opacity:1; fill:none" points="252.764,1410.9 252.764,123.472 "/>
<polyline clip-path="url(#clip360)" style="stroke:#000000; stroke-linecap:round; stroke-linejoin:round; stroke-width:4; stroke-opacity:1; fill:none" points="252.764,1410.9 271.662,1410.9 "/>
<polyline clip-path="url(#clip360)" style="stroke:#000000; stroke-linecap:round; stroke-linejoin:round; stroke-width:4; stroke-opacity:1; fill:none" points="252.764,1196.33 271.662,1196.33 "/>
<polyline clip-path="url(#clip360)" style="stroke:#000000; stroke-linecap:round; stroke-linejoin:round; stroke-width:4; stroke-opacity:1; fill:none" points="252.764,981.755 271.662,981.755 "/>
<polyline clip-path="url(#clip360)" style="stroke:#000000; stroke-linecap:round; stroke-linejoin:round; stroke-width:4; stroke-opacity:1; fill:none" points="252.764,767.184 271.662,767.184 "/>
<polyline clip-path="url(#clip360)" style="stroke:#000000; stroke-linecap:round; stroke-linejoin:round; stroke-width:4; stroke-opacity:1; fill:none" points="252.764,552.614 271.662,552.614 "/>
<polyline clip-path="url(#clip360)" style="stroke:#000000; stroke-linecap:round; stroke-linejoin:round; stroke-width:4; stroke-opacity:1; fill:none" points="252.764,338.043 271.662,338.043 "/>
<polyline clip-path="url(#clip360)" style="stroke:#000000; stroke-linecap:round; stroke-linejoin:round; stroke-width:4; stroke-opacity:1; fill:none" points="252.764,123.472 271.662,123.472 "/>
<path clip-path="url(#clip360)" d="M114.931 1430.69 L122.57 1430.69 L122.57 1404.32 L114.26 1405.99 L114.26 1401.73 L122.524 1400.06 L127.2 1400.06 L127.2 1430.69 L134.839 1430.69 L134.839 1434.62 L114.931 1434.62 L114.931 1430.69 Z" fill="#000000" fill-rule="nonzero" fill-opacity="1" /><path clip-path="url(#clip360)" d="M154.283 1403.14 Q150.672 1403.14 148.843 1406.71 Q147.038 1410.25 147.038 1417.38 Q147.038 1424.49 148.843 1428.05 Q150.672 1431.59 154.283 1431.59 Q157.917 1431.59 159.723 1428.05 Q161.552 1424.49 161.552 1417.38 Q161.552 1410.25 159.723 1406.71 Q157.917 1403.14 154.283 1403.14 M154.283 1399.44 Q160.093 1399.44 163.149 1404.05 Q166.227 1408.63 166.227 1417.38 Q166.227 1426.11 163.149 1430.71 Q160.093 1435.3 154.283 1435.3 Q148.473 1435.3 145.394 1430.71 Q142.339 1426.11 142.339 1417.38 Q142.339 1408.63 145.394 1404.05 Q148.473 1399.44 154.283 1399.44 Z" fill="#000000" fill-rule="nonzero" fill-opacity="1" /><path clip-path="url(#clip360)" d="M166.227 1393.54 L190.339 1393.54 L190.339 1396.74 L166.227 1396.74 L166.227 1393.54 Z" fill="#000000" fill-rule="nonzero" fill-opacity="1" /><path clip-path="url(#clip360)" d="M208.978 1382.44 L199.386 1397.43 L208.978 1397.43 L208.978 1382.44 M207.981 1379.13 L212.758 1379.13 L212.758 1397.43 L216.764 1397.43 L216.764 1400.59 L212.758 1400.59 L212.758 1407.21 L208.978 1407.21 L208.978 1400.59 L196.301 1400.59 L196.301 1396.93 L207.981 1379.13 Z" fill="#000000" fill-rule="nonzero" fill-opacity="1" /><path clip-path="url(#clip360)" d="M115.853 1216.12 L123.492 1216.12 L123.492 1189.75 L115.182 1191.42 L115.182 1187.16 L123.446 1185.49 L128.121 1185.49 L128.121 1216.12 L135.76 1216.12 L135.76 1220.05 L115.853 1220.05 L115.853 1216.12 Z" fill="#000000" fill-rule="nonzero" fill-opacity="1" /><path clip-path="url(#clip360)" d="M155.205 1188.57 Q151.594 1188.57 149.765 1192.14 Q147.959 1195.68 147.959 1202.81 Q147.959 1209.91 149.765 1213.48 Q151.594 1217.02 155.205 1217.02 Q158.839 1217.02 160.644 1213.48 Q162.473 1209.91 162.473 1202.81 Q162.473 1195.68 160.644 1192.14 Q158.839 1188.57 155.205 1188.57 M155.205 1184.87 Q161.015 1184.87 164.07 1189.47 Q167.149 1194.06 167.149 1202.81 Q167.149 1211.54 164.07 1216.14 Q161.015 1220.72 155.205 1220.72 Q149.395 1220.72 146.316 1216.14 Q143.26 1211.54 143.26 1202.81 Q143.26 1194.06 146.316 1189.47 Q149.395 1184.87 155.205 1184.87 Z" fill="#000000" fill-rule="nonzero" fill-opacity="1" /><path clip-path="url(#clip360)" d="M167.149 1178.97 L191.261 1178.97 L191.261 1182.17 L167.149 1182.17 L167.149 1178.97 Z" fill="#000000" fill-rule="nonzero" fill-opacity="1" /><path clip-path="url(#clip360)" d="M210.971 1177.5 Q213.698 1178.09 215.222 1179.93 Q216.764 1181.77 216.764 1184.48 Q216.764 1188.64 213.905 1190.91 Q211.046 1193.19 205.78 1193.19 Q204.012 1193.19 202.132 1192.83 Q200.27 1192.49 198.276 1191.8 L198.276 1188.13 Q199.856 1189.05 201.737 1189.52 Q203.617 1189.99 205.667 1189.99 Q209.241 1189.99 211.103 1188.58 Q212.984 1187.17 212.984 1184.48 Q212.984 1182 211.234 1180.61 Q209.504 1179.2 206.401 1179.2 L203.128 1179.2 L203.128 1176.07 L206.551 1176.07 Q209.354 1176.07 210.84 1174.96 Q212.325 1173.84 212.325 1171.73 Q212.325 1169.57 210.783 1168.42 Q209.26 1167.25 206.401 1167.25 Q204.84 1167.25 203.053 1167.59 Q201.266 1167.93 199.122 1168.64 L199.122 1165.26 Q201.285 1164.66 203.166 1164.36 Q205.066 1164.06 206.739 1164.06 Q211.065 1164.06 213.585 1166.03 Q216.106 1167.99 216.106 1171.33 Q216.106 1173.67 214.77 1175.28 Q213.435 1176.88 210.971 1177.5 Z" fill="#000000" fill-rule="nonzero" fill-opacity="1" /><path clip-path="url(#clip360)" d="M116.624 1001.55 L124.263 1001.55 L124.263 975.182 L115.953 976.849 L115.953 972.589 L124.217 970.923 L128.893 970.923 L128.893 1001.55 L136.531 1001.55 L136.531 1005.48 L116.624 1005.48 L116.624 1001.55 Z" fill="#000000" fill-rule="nonzero" fill-opacity="1" /><path clip-path="url(#clip360)" d="M155.976 974.001 Q152.365 974.001 150.536 977.566 Q148.73 981.108 148.73 988.237 Q148.73 995.344 150.536 998.909 Q152.365 1002.45 155.976 1002.45 Q159.61 1002.45 161.416 998.909 Q163.244 995.344 163.244 988.237 Q163.244 981.108 161.416 977.566 Q159.61 974.001 155.976 974.001 M155.976 970.298 Q161.786 970.298 164.841 974.904 Q167.92 979.488 167.92 988.237 Q167.92 996.964 164.841 1001.57 Q161.786 1006.15 155.976 1006.15 Q150.166 1006.15 147.087 1001.57 Q144.031 996.964 144.031 988.237 Q144.031 979.488 147.087 974.904 Q150.166 970.298 155.976 970.298 Z" fill="#000000" fill-rule="nonzero" fill-opacity="1" /><path clip-path="url(#clip360)" d="M167.92 964.399 L192.032 964.399 L192.032 967.596 L167.92 967.596 L167.92 964.399 Z" fill="#000000" fill-rule="nonzero" fill-opacity="1" /><path clip-path="url(#clip360)" d="M203.504 974.875 L216.764 974.875 L216.764 978.072 L198.934 978.072 L198.934 974.875 Q201.097 972.637 204.821 968.875 Q208.564 965.095 209.523 964.004 Q211.347 961.954 212.062 960.543 Q212.796 959.114 212.796 957.741 Q212.796 955.503 211.216 954.092 Q209.655 952.682 207.134 952.682 Q205.348 952.682 203.354 953.303 Q201.379 953.923 199.122 955.183 L199.122 951.346 Q201.417 950.425 203.41 949.955 Q205.404 949.485 207.059 949.485 Q211.423 949.485 214.018 951.666 Q216.613 953.848 216.613 957.497 Q216.613 959.227 215.955 960.788 Q215.316 962.33 213.604 964.437 Q213.134 964.982 210.614 967.596 Q208.094 970.192 203.504 974.875 Z" fill="#000000" fill-rule="nonzero" fill-opacity="1" /><path clip-path="url(#clip360)" d="M116.323 786.977 L123.962 786.977 L123.962 760.611 L115.652 762.278 L115.652 758.019 L123.916 756.352 L128.592 756.352 L128.592 786.977 L136.231 786.977 L136.231 790.912 L116.323 790.912 L116.323 786.977 Z" fill="#000000" fill-rule="nonzero" fill-opacity="1" /><path clip-path="url(#clip360)" d="M155.675 759.431 Q152.064 759.431 150.235 762.995 Q148.43 766.537 148.43 773.667 Q148.43 780.773 150.235 784.338 Q152.064 787.88 155.675 787.88 Q159.309 787.88 161.115 784.338 Q162.943 780.773 162.943 773.667 Q162.943 766.537 161.115 762.995 Q159.309 759.431 155.675 759.431 M155.675 755.727 Q161.485 755.727 164.541 760.333 Q167.619 764.917 167.619 773.667 Q167.619 782.394 164.541 787 Q161.485 791.583 155.675 791.583 Q149.865 791.583 146.786 787 Q143.73 782.394 143.73 773.667 Q143.73 764.917 146.786 760.333 Q149.865 755.727 155.675 755.727 Z" fill="#000000" fill-rule="nonzero" fill-opacity="1" /><path clip-path="url(#clip360)" d="M167.619 749.828 L191.731 749.828 L191.731 753.026 L167.619 753.026 L167.619 749.828 Z" fill="#000000" fill-rule="nonzero" fill-opacity="1" /><path clip-path="url(#clip360)" d="M200.589 760.304 L206.796 760.304 L206.796 738.882 L200.044 740.236 L200.044 736.776 L206.758 735.422 L210.557 735.422 L210.557 760.304 L216.764 760.304 L216.764 763.502 L200.589 763.502 L200.589 760.304 Z" fill="#000000" fill-rule="nonzero" fill-opacity="1" /><path clip-path="url(#clip360)" d="M146.058 572.406 L153.697 572.406 L153.697 546.04 L145.387 547.707 L145.387 543.448 L153.651 541.781 L158.327 541.781 L158.327 572.406 L165.966 572.406 L165.966 576.341 L146.058 576.341 L146.058 572.406 Z" fill="#000000" fill-rule="nonzero" fill-opacity="1" /><path clip-path="url(#clip360)" d="M185.41 544.86 Q181.799 544.86 179.97 548.425 Q178.165 551.966 178.165 559.096 Q178.165 566.202 179.97 569.767 Q181.799 573.309 185.41 573.309 Q189.044 573.309 190.85 569.767 Q192.678 566.202 192.678 559.096 Q192.678 551.966 190.85 548.425 Q189.044 544.86 185.41 544.86 M185.41 541.156 Q191.22 541.156 194.276 545.763 Q197.354 550.346 197.354 559.096 Q197.354 567.823 194.276 572.429 Q191.22 577.013 185.41 577.013 Q179.6 577.013 176.521 572.429 Q173.466 567.823 173.466 559.096 Q173.466 550.346 176.521 545.763 Q179.6 541.156 185.41 541.156 Z" fill="#000000" fill-rule="nonzero" fill-opacity="1" /><path clip-path="url(#clip360)" d="M207.059 523.352 Q204.125 523.352 202.639 526.249 Q201.172 529.126 201.172 534.919 Q201.172 540.693 202.639 543.589 Q204.125 546.467 207.059 546.467 Q210.012 546.467 211.479 543.589 Q212.965 540.693 212.965 534.919 Q212.965 529.126 211.479 526.249 Q210.012 523.352 207.059 523.352 M207.059 520.343 Q211.78 520.343 214.263 524.086 Q216.764 527.81 216.764 534.919 Q216.764 542.01 214.263 545.752 Q211.78 549.476 207.059 549.476 Q202.338 549.476 199.837 545.752 Q197.354 542.01 197.354 534.919 Q197.354 527.81 199.837 524.086 Q202.338 520.343 207.059 520.343 Z" fill="#000000" fill-rule="nonzero" fill-opacity="1" /><path clip-path="url(#clip360)" d="M148.748 357.835 L156.387 357.835 L156.387 331.47 L148.077 333.136 L148.077 328.877 L156.34 327.21 L161.016 327.21 L161.016 357.835 L168.655 357.835 L168.655 361.77 L148.748 361.77 L148.748 357.835 Z" fill="#000000" fill-rule="nonzero" fill-opacity="1" /><path clip-path="url(#clip360)" d="M188.099 330.289 Q184.488 330.289 182.66 333.854 Q180.854 337.396 180.854 344.525 Q180.854 351.632 182.66 355.196 Q184.488 358.738 188.099 358.738 Q191.734 358.738 193.539 355.196 Q195.368 351.632 195.368 344.525 Q195.368 337.396 193.539 333.854 Q191.734 330.289 188.099 330.289 M188.099 326.585 Q193.91 326.585 196.965 331.192 Q200.044 335.775 200.044 344.525 Q200.044 353.252 196.965 357.858 Q193.91 362.442 188.099 362.442 Q182.289 362.442 179.211 357.858 Q176.155 353.252 176.155 344.525 Q176.155 335.775 179.211 331.192 Q182.289 326.585 188.099 326.585 Z" fill="#000000" fill-rule="nonzero" fill-opacity="1" /><path clip-path="url(#clip360)" d="M200.589 331.163 L206.796 331.163 L206.796 309.741 L200.044 311.095 L200.044 307.634 L206.758 306.28 L210.557 306.28 L210.557 331.163 L216.764 331.163 L216.764 334.36 L200.589 334.36 L200.589 331.163 Z" fill="#000000" fill-rule="nonzero" fill-opacity="1" /><path clip-path="url(#clip360)" d="M147.638 143.265 L155.277 143.265 L155.277 116.899 L146.967 118.566 L146.967 114.306 L155.231 112.64 L159.907 112.64 L159.907 143.265 L167.545 143.265 L167.545 147.2 L147.638 147.2 L147.638 143.265 Z" fill="#000000" fill-rule="nonzero" fill-opacity="1" /><path clip-path="url(#clip360)" d="M186.99 115.718 Q183.379 115.718 181.55 119.283 Q179.744 122.825 179.744 129.954 Q179.744 137.061 181.55 140.626 Q183.379 144.167 186.99 144.167 Q190.624 144.167 192.43 140.626 Q194.258 137.061 194.258 129.954 Q194.258 122.825 192.43 119.283 Q190.624 115.718 186.99 115.718 M186.99 112.015 Q192.8 112.015 195.855 116.621 Q198.934 121.204 198.934 129.954 Q198.934 138.681 195.855 143.288 Q192.8 147.871 186.99 147.871 Q181.18 147.871 178.101 143.288 Q175.045 138.681 175.045 129.954 Q175.045 121.204 178.101 116.621 Q181.18 112.015 186.99 112.015 Z" fill="#000000" fill-rule="nonzero" fill-opacity="1" /><path clip-path="url(#clip360)" d="M203.504 116.592 L216.764 116.592 L216.764 119.789 L198.934 119.789 L198.934 116.592 Q201.097 114.354 204.821 110.592 Q208.564 106.812 209.523 105.721 Q211.347 103.671 212.062 102.26 Q212.796 100.831 212.796 99.4581 Q212.796 97.22 211.216 95.8094 Q209.655 94.3988 207.134 94.3988 Q205.348 94.3988 203.354 95.0195 Q201.379 95.6401 199.122 96.9003 L199.122 93.0635 Q201.417 92.1419 203.41 91.6717 Q205.404 91.2015 207.059 91.2015 Q211.423 91.2015 214.018 93.3832 Q216.613 95.5649 216.613 99.2136 Q216.613 100.944 215.955 102.505 Q215.316 104.047 213.604 106.154 Q213.134 106.699 210.614 109.313 Q208.094 111.909 203.504 116.592 Z" fill="#000000" fill-rule="nonzero" fill-opacity="1" /><path clip-path="url(#clip360)" d="M55.4741 798.52 Q61.8398 797.215 61.8398 794.446 Q61.8398 792.599 58.1795 790.212 L58.1795 785.979 Q61.426 787.889 63.113 790.117 Q64.9272 792.536 64.9272 794.764 Q64.9272 799.729 60.503 801.734 L64.0042 804.121 L64.0042 809.087 Q59.3254 805.649 54.9649 803.103 Q52.4822 803.421 49.7768 803.421 Q44.9389 803.421 40.1009 802.434 Q21.9268 798.711 18.2029 795.4 Q15.6248 793.109 15.6248 789.194 Q15.6248 785.215 21.1311 785.215 Q23.6137 785.247 26.5738 785.82 Q38.7005 788.112 55.4741 798.52 M47.135 798.551 Q36.0587 792.599 27.2104 790.785 Q22.5316 789.83 21.3221 789.83 Q19.1259 789.83 19.1259 790.626 Q21.895 794.095 38.3822 797.183 Q42.9973 798.042 47.135 798.551 Z" fill="#000000" fill-rule="nonzero" fill-opacity="1" /><path clip-path="url(#clip360)" d="M16.4842 764.718 L16.4842 759.307 L70.0516 775.858 L70.0516 781.269 L16.4842 764.718 Z" fill="#000000" fill-rule="nonzero" fill-opacity="1" /><path clip-path="url(#clip360)" d="M46.0847 736.963 Q46.0847 744.061 47.7079 746.798 Q49.3312 749.535 53.2461 749.535 Q56.3653 749.535 58.2114 747.498 Q60.0256 745.43 60.0256 741.897 Q60.0256 737.027 56.5881 734.099 Q53.1188 731.139 47.3897 731.139 L46.0847 731.139 L46.0847 736.963 M43.6657 725.282 L64.0042 725.282 L64.0042 731.139 L58.5933 731.139 Q61.8398 733.144 63.3994 736.136 Q64.9272 739.128 64.9272 743.456 Q64.9272 748.931 61.8716 752.177 Q58.7843 755.392 53.6281 755.392 Q47.6125 755.392 44.5569 751.382 Q41.5014 747.339 41.5014 739.35 L41.5014 731.139 L40.9285 731.139 Q36.8862 731.139 34.6901 733.812 Q32.4621 736.454 32.4621 741.26 Q32.4621 744.316 33.1941 747.212 Q33.9262 750.108 35.3903 752.782 L29.9795 752.782 Q28.7381 749.567 28.1334 746.544 Q27.4968 743.52 27.4968 740.655 Q27.4968 732.921 31.5072 729.102 Q35.5176 725.282 43.6657 725.282 Z" fill="#000000" fill-rule="nonzero" fill-opacity="1" /><path clip-path="url(#clip360)" d="M553.322 18.8205 L553.322 41.5461 L563.612 41.5461 Q569.323 41.5461 572.443 38.5889 Q575.562 35.6318 575.562 30.163 Q575.562 24.7348 572.443 21.7777 Q569.323 18.8205 563.612 18.8205 L553.322 18.8205 M545.14 12.096 L563.612 12.096 Q573.779 12.096 578.965 16.714 Q584.19 21.2916 584.19 30.163 Q584.19 39.1155 578.965 43.6931 Q573.779 48.2706 563.612 48.2706 L553.322 48.2706 L553.322 72.576 L545.14 72.576 L545.14 12.096 Z" fill="#000000" fill-rule="nonzero" fill-opacity="1" /><path clip-path="url(#clip360)" d="M611.736 49.7694 Q602.703 49.7694 599.219 51.8354 Q595.735 53.9013 595.735 58.8839 Q595.735 62.8538 598.328 65.2034 Q600.961 67.5124 605.458 67.5124 Q611.655 67.5124 615.382 63.1374 Q619.15 58.7219 619.15 51.4303 L619.15 49.7694 L611.736 49.7694 M626.603 46.6907 L626.603 72.576 L619.15 72.576 L619.15 65.6895 Q616.598 69.8214 612.79 71.8063 Q608.982 73.7508 603.473 73.7508 Q596.505 73.7508 592.373 69.8619 Q588.282 65.9325 588.282 59.3701 Q588.282 51.7138 593.386 47.825 Q598.53 43.9361 608.698 43.9361 L619.15 43.9361 L619.15 43.2069 Q619.15 38.0623 615.747 35.2672 Q612.385 32.4315 606.268 32.4315 Q602.379 32.4315 598.693 33.3632 Q595.006 34.295 591.603 36.1584 L591.603 29.2718 Q595.695 27.692 599.543 26.9223 Q603.392 26.1121 607.037 26.1121 Q616.881 26.1121 621.742 31.2163 Q626.603 36.3204 626.603 46.6907 Z" fill="#000000" fill-rule="nonzero" fill-opacity="1" /><path clip-path="url(#clip360)" d="M668.247 34.1734 Q666.991 33.4443 665.492 33.1202 Q664.034 32.7556 662.251 32.7556 Q655.932 32.7556 652.529 36.8875 Q649.167 40.9789 649.167 48.6757 L649.167 72.576 L641.673 72.576 L641.673 27.2059 L649.167 27.2059 L649.167 34.2544 Q651.516 30.1225 655.284 28.1376 Q659.051 26.1121 664.439 26.1121 Q665.208 26.1121 666.14 26.2337 Q667.072 26.3147 668.206 26.5172 L668.247 34.1734 Z" fill="#000000" fill-rule="nonzero" fill-opacity="1" /><path clip-path="url(#clip360)" d="M683.437 14.324 L683.437 27.2059 L698.79 27.2059 L698.79 32.9987 L683.437 32.9987 L683.437 57.6282 Q683.437 63.1779 684.936 64.7578 Q686.476 66.3376 691.134 66.3376 L698.79 66.3376 L698.79 72.576 L691.134 72.576 Q682.506 72.576 679.224 69.3758 Q675.943 66.1351 675.943 57.6282 L675.943 32.9987 L670.475 32.9987 L670.475 27.2059 L675.943 27.2059 L675.943 14.324 L683.437 14.324 Z" fill="#000000" fill-rule="nonzero" fill-opacity="1" /><path clip-path="url(#clip360)" d="M708.594 27.2059 L716.047 27.2059 L716.047 72.576 L708.594 72.576 L708.594 27.2059 M708.594 9.54393 L716.047 9.54393 L716.047 18.9825 L708.594 18.9825 L708.594 9.54393 Z" fill="#000000" fill-rule="nonzero" fill-opacity="1" /><path clip-path="url(#clip360)" d="M764.293 28.9478 L764.293 35.9153 Q761.134 34.1734 757.934 33.3227 Q754.774 32.4315 751.533 32.4315 Q744.282 32.4315 740.272 37.0496 Q736.261 41.6271 736.261 49.9314 Q736.261 58.2358 740.272 62.8538 Q744.282 67.4314 751.533 67.4314 Q754.774 67.4314 757.934 66.5807 Q761.134 65.6895 764.293 63.9476 L764.293 70.8341 Q761.174 72.2924 757.812 73.0216 Q754.49 73.7508 750.723 73.7508 Q740.474 73.7508 734.438 67.3098 Q728.402 60.8689 728.402 49.9314 Q728.402 38.832 734.479 32.472 Q740.596 26.1121 751.209 26.1121 Q754.652 26.1121 757.934 26.8413 Q761.215 27.5299 764.293 28.9478 Z" fill="#000000" fill-rule="nonzero" fill-opacity="1" /><path clip-path="url(#clip360)" d="M777.256 9.54393 L784.71 9.54393 L784.71 72.576 L777.256 72.576 L777.256 9.54393 Z" fill="#000000" fill-rule="nonzero" fill-opacity="1" /><path clip-path="url(#clip360)" d="M839.114 48.0275 L839.114 51.6733 L804.843 51.6733 Q805.329 59.3701 809.461 63.421 Q813.633 67.4314 821.047 67.4314 Q825.341 67.4314 829.351 66.3781 Q833.402 65.3249 837.372 63.2184 L837.372 70.267 Q833.361 71.9684 829.148 72.8596 Q824.936 73.7508 820.601 73.7508 Q809.745 73.7508 803.385 67.4314 Q797.065 61.1119 797.065 50.3365 Q797.065 39.1965 803.061 32.6746 Q809.096 26.1121 819.305 26.1121 Q828.46 26.1121 833.766 32.0264 Q839.114 37.9003 839.114 48.0275 M831.66 45.84 Q831.579 39.7232 828.217 36.0774 Q824.895 32.4315 819.386 32.4315 Q813.147 32.4315 809.38 35.9558 Q805.653 39.4801 805.086 45.8805 L831.66 45.84 Z" fill="#000000" fill-rule="nonzero" fill-opacity="1" /><path clip-path="url(#clip360)" d="M878.043 12.096 L890.236 12.096 L905.67 53.2532 L921.185 12.096 L933.378 12.096 L933.378 72.576 L925.398 72.576 L925.398 19.4686 L909.802 60.9499 L901.579 60.9499 L885.983 19.4686 L885.983 72.576 L878.043 72.576 L878.043 12.096 Z" fill="#000000" fill-rule="nonzero" fill-opacity="1" /><path clip-path="url(#clip360)" d="M988.106 48.0275 L988.106 51.6733 L953.835 51.6733 Q954.321 59.3701 958.453 63.421 Q962.626 67.4314 970.039 67.4314 Q974.333 67.4314 978.343 66.3781 Q982.394 65.3249 986.364 63.2184 L986.364 70.267 Q982.354 71.9684 978.141 72.8596 Q973.928 73.7508 969.593 73.7508 Q958.737 73.7508 952.377 67.4314 Q946.058 61.1119 946.058 50.3365 Q946.058 39.1965 952.053 32.6746 Q958.089 26.1121 968.297 26.1121 Q977.452 26.1121 982.759 32.0264 Q988.106 37.9003 988.106 48.0275 M980.652 45.84 Q980.571 39.7232 977.209 36.0774 Q973.887 32.4315 968.378 32.4315 Q962.14 32.4315 958.372 35.9558 Q954.645 39.4801 954.078 45.8805 L980.652 45.84 Z" fill="#000000" fill-rule="nonzero" fill-opacity="1" /><path clip-path="url(#clip360)" d="M1020.96 49.7694 Q1011.93 49.7694 1008.44 51.8354 Q1004.96 53.9013 1004.96 58.8839 Q1004.96 62.8538 1007.55 65.2034 Q1010.18 67.5124 1014.68 67.5124 Q1020.88 67.5124 1024.6 63.1374 Q1028.37 58.7219 1028.37 51.4303 L1028.37 49.7694 L1020.96 49.7694 M1035.83 46.6907 L1035.83 72.576 L1028.37 72.576 L1028.37 65.6895 Q1025.82 69.8214 1022.01 71.8063 Q1018.2 73.7508 1012.69 73.7508 Q1005.73 73.7508 1001.6 69.8619 Q997.504 65.9325 997.504 59.3701 Q997.504 51.7138 1002.61 47.825 Q1007.75 43.9361 1017.92 43.9361 L1028.37 43.9361 L1028.37 43.2069 Q1028.37 38.0623 1024.97 35.2672 Q1021.61 32.4315 1015.49 32.4315 Q1011.6 32.4315 1007.91 33.3632 Q1004.23 34.295 1000.83 36.1584 L1000.83 29.2718 Q1004.92 27.692 1008.77 26.9223 Q1012.61 26.1121 1016.26 26.1121 Q1026.1 26.1121 1030.96 31.2163 Q1035.83 36.3204 1035.83 46.6907 Z" fill="#000000" fill-rule="nonzero" fill-opacity="1" /><path clip-path="url(#clip360)" d="M1088.89 45.1919 L1088.89 72.576 L1081.44 72.576 L1081.44 45.4349 Q1081.44 38.994 1078.93 35.7938 Q1076.42 32.5936 1071.39 32.5936 Q1065.36 32.5936 1061.87 36.4419 Q1058.39 40.2903 1058.39 46.9338 L1058.39 72.576 L1050.89 72.576 L1050.89 27.2059 L1058.39 27.2059 L1058.39 34.2544 Q1061.06 30.163 1064.67 28.1376 Q1068.31 26.1121 1073.05 26.1121 Q1080.87 26.1121 1084.88 30.9732 Q1088.89 35.7938 1088.89 45.1919 Z" fill="#000000" fill-rule="nonzero" fill-opacity="1" /><path clip-path="url(#clip360)" d="M1099.99 46.5287 L1121.83 46.5287 L1121.83 53.1722 L1099.99 53.1722 L1099.99 46.5287 Z" fill="#000000" fill-rule="nonzero" fill-opacity="1" /><path clip-path="url(#clip360)" d="M1134.02 12.096 L1168.78 12.096 L1168.78 18.9825 L1142.2 18.9825 L1142.2 36.8065 L1166.18 36.8065 L1166.18 43.6931 L1142.2 43.6931 L1142.2 72.576 L1134.02 72.576 L1134.02 12.096 Z" fill="#000000" fill-rule="nonzero" fill-opacity="1" /><path clip-path="url(#clip360)" d="M1201.67 34.1734 Q1200.41 33.4443 1198.91 33.1202 Q1197.46 32.7556 1195.67 32.7556 Q1189.35 32.7556 1185.95 36.8875 Q1182.59 40.9789 1182.59 48.6757 L1182.59 72.576 L1175.1 72.576 L1175.1 27.2059 L1182.59 27.2059 L1182.59 34.2544 Q1184.94 30.1225 1188.71 28.1376 Q1192.47 26.1121 1197.86 26.1121 Q1198.63 26.1121 1199.56 26.2337 Q1200.49 26.3147 1201.63 26.5172 L1201.67 34.1734 Z" fill="#000000" fill-rule="nonzero" fill-opacity="1" /><path clip-path="url(#clip360)" d="M1246.47 48.0275 L1246.47 51.6733 L1212.2 51.6733 Q1212.69 59.3701 1216.82 63.421 Q1220.99 67.4314 1228.41 67.4314 Q1232.7 67.4314 1236.71 66.3781 Q1240.76 65.3249 1244.73 63.2184 L1244.73 70.267 Q1240.72 71.9684 1236.51 72.8596 Q1232.29 73.7508 1227.96 73.7508 Q1217.1 73.7508 1210.74 67.4314 Q1204.42 61.1119 1204.42 50.3365 Q1204.42 39.1965 1210.42 32.6746 Q1216.46 26.1121 1226.66 26.1121 Q1235.82 26.1121 1241.13 32.0264 Q1246.47 37.9003 1246.47 48.0275 M1239.02 45.84 Q1238.94 39.7232 1235.58 36.0774 Q1232.25 32.4315 1226.74 32.4315 Q1220.51 32.4315 1216.74 35.9558 Q1213.01 39.4801 1212.45 45.8805 L1239.02 45.84 Z" fill="#000000" fill-rule="nonzero" fill-opacity="1" /><path clip-path="url(#clip360)" d="M1297.51 48.0275 L1297.51 51.6733 L1263.24 51.6733 Q1263.73 59.3701 1267.86 63.421 Q1272.03 67.4314 1279.45 67.4314 Q1283.74 67.4314 1287.75 66.3781 Q1291.8 65.3249 1295.77 63.2184 L1295.77 70.267 Q1291.76 71.9684 1287.55 72.8596 Q1283.34 73.7508 1279 73.7508 Q1268.14 73.7508 1261.79 67.4314 Q1255.47 61.1119 1255.47 50.3365 Q1255.47 39.1965 1261.46 32.6746 Q1267.5 26.1121 1277.71 26.1121 Q1286.86 26.1121 1292.17 32.0264 Q1297.51 37.9003 1297.51 48.0275 M1290.06 45.84 Q1289.98 39.7232 1286.62 36.0774 Q1283.3 32.4315 1277.79 32.4315 Q1271.55 32.4315 1267.78 35.9558 Q1264.05 39.4801 1263.49 45.8805 L1290.06 45.84 Z" fill="#000000" fill-rule="nonzero" fill-opacity="1" /><path clip-path="url(#clip360)" d="M1305.98 46.5287 L1327.81 46.5287 L1327.81 53.1722 L1305.98 53.1722 L1305.98 46.5287 Z" fill="#000000" fill-rule="nonzero" fill-opacity="1" /><path clip-path="url(#clip360)" d="M1348.19 18.8205 L1348.19 41.5461 L1358.48 41.5461 Q1364.19 41.5461 1367.31 38.5889 Q1370.43 35.6318 1370.43 30.163 Q1370.43 24.7348 1367.31 21.7777 Q1364.19 18.8205 1358.48 18.8205 L1348.19 18.8205 M1340.01 12.096 L1358.48 12.096 Q1368.65 12.096 1373.83 16.714 Q1379.06 21.2916 1379.06 30.163 Q1379.06 39.1155 1373.83 43.6931 Q1368.65 48.2706 1358.48 48.2706 L1348.19 48.2706 L1348.19 72.576 L1340.01 72.576 L1340.01 12.096 Z" fill="#000000" fill-rule="nonzero" fill-opacity="1" /><path clip-path="url(#clip360)" d="M1406.6 49.7694 Q1397.57 49.7694 1394.09 51.8354 Q1390.6 53.9013 1390.6 58.8839 Q1390.6 62.8538 1393.2 65.2034 Q1395.83 67.5124 1400.33 67.5124 Q1406.52 67.5124 1410.25 63.1374 Q1414.02 58.7219 1414.02 51.4303 L1414.02 49.7694 L1406.6 49.7694 M1421.47 46.6907 L1421.47 72.576 L1414.02 72.576 L1414.02 65.6895 Q1411.47 69.8214 1407.66 71.8063 Q1403.85 73.7508 1398.34 73.7508 Q1391.37 73.7508 1387.24 69.8619 Q1383.15 65.9325 1383.15 59.3701 Q1383.15 51.7138 1388.25 47.825 Q1393.4 43.9361 1403.57 43.9361 L1414.02 43.9361 L1414.02 43.2069 Q1414.02 38.0623 1410.62 35.2672 Q1407.25 32.4315 1401.14 32.4315 Q1397.25 32.4315 1393.56 33.3632 Q1389.87 34.295 1386.47 36.1584 L1386.47 29.2718 Q1390.56 27.692 1394.41 26.9223 Q1398.26 26.1121 1401.91 26.1121 Q1411.75 26.1121 1416.61 31.2163 Q1421.47 36.3204 1421.47 46.6907 Z" fill="#000000" fill-rule="nonzero" fill-opacity="1" /><path clip-path="url(#clip360)" d="M1444.2 14.324 L1444.2 27.2059 L1459.55 27.2059 L1459.55 32.9987 L1444.2 32.9987 L1444.2 57.6282 Q1444.2 63.1779 1445.7 64.7578 Q1447.24 66.3376 1451.89 66.3376 L1459.55 66.3376 L1459.55 72.576 L1451.89 72.576 Q1443.27 72.576 1439.98 69.3758 Q1436.7 66.1351 1436.7 57.6282 L1436.7 32.9987 L1431.23 32.9987 L1431.23 27.2059 L1436.7 27.2059 L1436.7 14.324 L1444.2 14.324 Z" fill="#000000" fill-rule="nonzero" fill-opacity="1" /><path clip-path="url(#clip360)" d="M1507.07 45.1919 L1507.07 72.576 L1499.61 72.576 L1499.61 45.4349 Q1499.61 38.994 1497.1 35.7938 Q1494.59 32.5936 1489.57 32.5936 Q1483.53 32.5936 1480.05 36.4419 Q1476.56 40.2903 1476.56 46.9338 L1476.56 72.576 L1469.07 72.576 L1469.07 9.54393 L1476.56 9.54393 L1476.56 34.2544 Q1479.24 30.163 1482.84 28.1376 Q1486.49 26.1121 1491.23 26.1121 Q1499.05 26.1121 1503.06 30.9732 Q1507.07 35.7938 1507.07 45.1919 Z" fill="#000000" fill-rule="nonzero" fill-opacity="1" /><path clip-path="url(#clip360)" d="M1577.31 44.2197 Q1579.94 45.1109 1582.41 48.0275 Q1584.93 50.9442 1587.44 56.0483 L1595.74 72.576 L1586.95 72.576 L1579.21 57.061 Q1576.22 50.9847 1573.38 48.9997 Q1570.59 47.0148 1565.72 47.0148 L1556.81 47.0148 L1556.81 72.576 L1548.63 72.576 L1548.63 12.096 L1567.1 12.096 Q1577.47 12.096 1582.58 16.4305 Q1587.68 20.7649 1587.68 29.5149 Q1587.68 35.2267 1585.01 38.994 Q1582.37 42.7613 1577.31 44.2197 M1556.81 18.8205 L1556.81 40.2903 L1567.1 40.2903 Q1573.02 40.2903 1576.01 37.5762 Q1579.05 34.8216 1579.05 29.5149 Q1579.05 24.2082 1576.01 21.5346 Q1573.02 18.8205 1567.1 18.8205 L1556.81 18.8205 Z" fill="#000000" fill-rule="nonzero" fill-opacity="1" /><path clip-path="url(#clip360)" d="M1624.75 49.7694 Q1615.71 49.7694 1612.23 51.8354 Q1608.74 53.9013 1608.74 58.8839 Q1608.74 62.8538 1611.34 65.2034 Q1613.97 67.5124 1618.47 67.5124 Q1624.67 67.5124 1628.39 63.1374 Q1632.16 58.7219 1632.16 51.4303 L1632.16 49.7694 L1624.75 49.7694 M1639.61 46.6907 L1639.61 72.576 L1632.16 72.576 L1632.16 65.6895 Q1629.61 69.8214 1625.8 71.8063 Q1621.99 73.7508 1616.48 73.7508 Q1609.51 73.7508 1605.38 69.8619 Q1601.29 65.9325 1601.29 59.3701 Q1601.29 51.7138 1606.4 47.825 Q1611.54 43.9361 1621.71 43.9361 L1632.16 43.9361 L1632.16 43.2069 Q1632.16 38.0623 1628.76 35.2672 Q1625.39 32.4315 1619.28 32.4315 Q1615.39 32.4315 1611.7 33.3632 Q1608.02 34.295 1604.61 36.1584 L1604.61 29.2718 Q1608.7 27.692 1612.55 26.9223 Q1616.4 26.1121 1620.05 26.1121 Q1629.89 26.1121 1634.75 31.2163 Q1639.61 36.3204 1639.61 46.6907 Z" fill="#000000" fill-rule="nonzero" fill-opacity="1" /><path clip-path="url(#clip360)" d="M1662.34 14.324 L1662.34 27.2059 L1677.69 27.2059 L1677.69 32.9987 L1662.34 32.9987 L1662.34 57.6282 Q1662.34 63.1779 1663.84 64.7578 Q1665.38 66.3376 1670.04 66.3376 L1677.69 66.3376 L1677.69 72.576 L1670.04 72.576 Q1661.41 72.576 1658.13 69.3758 Q1654.84 66.1351 1654.84 57.6282 L1654.84 32.9987 L1649.38 32.9987 L1649.38 27.2059 L1654.84 27.2059 L1654.84 14.324 L1662.34 14.324 Z" fill="#000000" fill-rule="nonzero" fill-opacity="1" /><path clip-path="url(#clip360)" d="M1687.49 27.2059 L1694.95 27.2059 L1694.95 72.576 L1687.49 72.576 L1687.49 27.2059 M1687.49 9.54393 L1694.95 9.54393 L1694.95 18.9825 L1687.49 18.9825 L1687.49 9.54393 Z" fill="#000000" fill-rule="nonzero" fill-opacity="1" /><path clip-path="url(#clip360)" d="M1728.13 32.4315 Q1722.13 32.4315 1718.65 37.1306 Q1715.16 41.7891 1715.16 49.9314 Q1715.16 58.0738 1718.61 62.7728 Q1722.09 67.4314 1728.13 67.4314 Q1734.08 67.4314 1737.56 62.7323 Q1741.05 58.0333 1741.05 49.9314 Q1741.05 41.8701 1737.56 37.1711 Q1734.08 32.4315 1728.13 32.4315 M1728.13 26.1121 Q1737.85 26.1121 1743.4 32.4315 Q1748.95 38.7509 1748.95 49.9314 Q1748.95 61.0714 1743.4 67.4314 Q1737.85 73.7508 1728.13 73.7508 Q1718.36 73.7508 1712.81 67.4314 Q1707.3 61.0714 1707.3 49.9314 Q1707.3 38.7509 1712.81 32.4315 Q1718.36 26.1121 1728.13 26.1121 Z" fill="#000000" fill-rule="nonzero" fill-opacity="1" /><path clip-path="url(#clip360)" d="M1805.58 9.62495 Q1800.15 18.942 1797.52 28.0566 Q1794.88 37.1711 1794.88 46.5287 Q1794.88 55.8863 1797.52 65.0818 Q1800.19 74.2369 1805.58 83.5134 L1799.1 83.5134 Q1793.02 73.9938 1789.98 64.7983 Q1786.98 55.6027 1786.98 46.5287 Q1786.98 37.4952 1789.98 28.3401 Q1792.98 19.1851 1799.1 9.62495 L1805.58 9.62495 Z" fill="#000000" fill-rule="nonzero" fill-opacity="1" /><path clip-path="url(#clip360)" d="M1820.36 12.096 L1855.12 12.096 L1855.12 18.9825 L1828.55 18.9825 L1828.55 36.8065 L1852.53 36.8065 L1852.53 43.6931 L1828.55 43.6931 L1828.55 72.576 L1820.36 72.576 L1820.36 12.096 Z" fill="#000000" fill-rule="nonzero" fill-opacity="1" /><path clip-path="url(#clip360)" d="M1861.72 27.2059 L1869.18 27.2059 L1869.18 72.576 L1861.72 72.576 L1861.72 27.2059 M1861.72 9.54393 L1869.18 9.54393 L1869.18 18.9825 L1861.72 18.9825 L1861.72 9.54393 Z" fill="#000000" fill-rule="nonzero" fill-opacity="1" /><path clip-path="url(#clip360)" d="M1914.63 49.3643 Q1914.63 41.2625 1911.27 36.8065 Q1907.94 32.3505 1901.91 32.3505 Q1895.91 32.3505 1892.55 36.8065 Q1889.23 41.2625 1889.23 49.3643 Q1889.23 57.4256 1892.55 61.8816 Q1895.91 66.3376 1901.91 66.3376 Q1907.94 66.3376 1911.27 61.8816 Q1914.63 57.4256 1914.63 49.3643 M1922.08 66.9452 Q1922.08 78.5308 1916.94 84.1616 Q1911.79 89.8329 1901.18 89.8329 Q1897.25 89.8329 1893.77 89.2252 Q1890.28 88.6581 1887 87.4428 L1887 80.1917 Q1890.28 81.9741 1893.48 82.8248 Q1896.68 83.6755 1900 83.6755 Q1907.34 83.6755 1910.98 79.8271 Q1914.63 76.0193 1914.63 68.282 L1914.63 64.5957 Q1912.32 68.6061 1908.71 70.5911 Q1905.11 72.576 1900.09 72.576 Q1891.74 72.576 1886.64 66.2161 Q1881.53 59.8562 1881.53 49.3643 Q1881.53 38.832 1886.64 32.472 Q1891.74 26.1121 1900.09 26.1121 Q1905.11 26.1121 1908.71 28.0971 Q1912.32 30.082 1914.63 34.0924 L1914.63 27.2059 L1922.08 27.2059 L1922.08 66.9452 Z" fill="#000000" fill-rule="nonzero" fill-opacity="1" /><path clip-path="url(#clip360)" d="M1938.49 62.2867 L1947.04 62.2867 L1947.04 72.576 L1938.49 72.576 L1938.49 62.2867 Z" fill="#000000" fill-rule="nonzero" fill-opacity="1" /><path clip-path="url(#clip360)" d="M1992.65 65.6895 L2006.02 65.6895 L2006.02 19.5497 L1991.47 22.4663 L1991.47 15.0127 L2005.94 12.096 L2014.12 12.096 L2014.12 65.6895 L2027.49 65.6895 L2027.49 72.576 L1992.65 72.576 L1992.65 65.6895 Z" fill="#000000" fill-rule="nonzero" fill-opacity="1" /><path clip-path="url(#clip360)" d="M2041.79 9.62495 L2048.27 9.62495 Q2054.34 19.1851 2057.34 28.3401 Q2060.38 37.4952 2060.38 46.5287 Q2060.38 55.6027 2057.34 64.7983 Q2054.34 73.9938 2048.27 83.5134 L2041.79 83.5134 Q2047.17 74.2369 2049.81 65.0818 Q2052.48 55.8863 2052.48 46.5287 Q2052.48 37.1711 2049.81 28.0566 Q2047.17 18.942 2041.79 9.62495 Z" fill="#000000" fill-rule="nonzero" fill-opacity="1" /><polyline clip-path="url(#clip362)" style="stroke:#009af9; stroke-linecap:round; stroke-linejoin:round; stroke-width:8; stroke-opacity:1; fill:none" points="252.764,183.378 263.317,191.436 273.869,199.493 284.422,207.547 294.975,215.6 305.528,223.651 316.08,231.699 326.633,239.745 337.186,247.789 347.738,255.83 358.291,263.869 368.844,271.904 379.397,279.936 389.949,287.965 400.502,295.991 411.055,304.013 421.608,312.031 432.16,320.044 442.713,328.054 453.266,336.058 463.818,344.058 474.371,352.052 484.924,360.041 495.477,368.023 506.029,376 516.582,383.969 527.135,391.931 537.687,399.886 548.24,407.833 558.793,415.771 569.346,423.699 579.898,431.619 590.451,439.527 601.004,447.425 611.557,455.311 622.109,463.185 632.662,471.045 643.215,478.891 653.767,486.723 664.32,494.538 674.873,502.337 685.426,510.118 695.978,517.879 706.531,525.621 717.084,533.34 727.637,541.037 738.189,548.71 748.742,556.356 759.295,563.975 769.847,571.565 780.4,579.124 790.953,586.65 801.506,594.141 812.058,601.596 822.611,609.011 833.164,616.384 843.716,623.714 854.269,630.997 864.822,638.232 875.375,645.415 885.927,652.543 896.48,659.614 907.033,666.625 917.586,673.573 928.138,680.455 938.691,687.267 949.244,694.008 959.796,700.673 970.349,707.259 980.902,713.765 991.455,720.187 1002.01,726.522 1012.56,732.767 1023.11,738.921 1033.67,744.981 1044.22,750.945 1054.77,756.812 1065.32,762.58 1075.88,768.248 1086.43,773.816 1096.98,779.283 1107.53,784.649 1118.09,789.915 1128.64,795.081 1139.19,800.148 1149.75,805.118 1160.3,809.993 1170.85,814.775 1181.4,819.466 1191.96,824.069 1202.51,828.586 1213.06,833.02 1223.61,837.375 1234.17,841.654 1244.72,845.859 1255.27,849.994 1265.83,854.061 1276.38,858.064 1286.93,862.006 1297.48,865.889 1308.04,869.717 1318.59,873.491 1329.14,877.213 1339.69,880.887 1350.25,884.515 1360.8,888.098 1371.35,891.638 1381.91,895.137 1392.46,898.598 1403.01,902.021 1413.56,905.408 1424.12,908.761 1434.67,912.081 1445.22,915.37 1455.77,918.629 1466.33,921.86 1476.88,925.063 1487.43,928.241 1497.99,931.393 1508.54,934.522 1519.09,937.629 1529.64,940.714 1540.2,943.778 1550.75,946.824 1561.3,949.85 1571.85,952.86 1582.41,955.852 1592.96,958.829 1603.51,961.791 1614.07,964.738 1624.62,967.672 1635.17,970.593 1645.72,973.502 1656.28,976.4 1666.83,979.286 1677.38,982.162 1687.93,985.029 1698.49,987.886 1709.04,990.734 1719.59,993.573 1730.15,996.405 1740.7,999.23 1751.25,1002.05 1761.8,1004.86 1772.36,1007.66 1782.91,1010.46 1793.46,1013.25 1804.01,1016.04 1814.57,1018.82 1825.12,1021.6 1835.67,1024.37 1846.23,1027.14 1856.78,1029.91 1867.33,1032.67 1877.88,1035.42 1888.44,1038.18 1898.99,1040.93 1909.54,1043.68 1920.09,1046.42 1930.65,1049.16 1941.2,1051.9 1951.75,1054.64 1962.31,1057.37 1972.86,1060.1 1983.41,1062.83 1993.96,1065.56 2004.52,1068.29 2015.07,1071.01 2025.62,1073.74 2036.17,1076.46 2046.73,1079.18 2057.28,1081.9 2067.83,1084.62 2078.39,1087.33 2088.94,1090.05 2099.49,1092.76 2110.04,1095.47 2120.6,1098.19 2131.15,1100.9 2141.7,1103.61 2152.25,1106.32 2162.81,1109.03 2173.36,1111.73 2183.91,1114.44 2194.47,1117.15 2205.02,1119.85 2215.57,1122.56 2226.12,1125.26 2236.68,1127.97 2247.23,1130.67 2257.78,1133.37 2268.33,1136.08 2278.89,1138.78 2289.44,1141.48 2299.99,1144.18 2310.55,1146.89 2321.1,1149.59 2331.65,1152.29 2342.2,1154.99 2352.76,1157.69 "/>
<polyline clip-path="url(#clip362)" style="stroke:#e26f46; stroke-linecap:round; stroke-linejoin:round; stroke-width:8; stroke-opacity:1; fill:none" points="252.764,995.376 263.317,998.071 273.869,1000.77 284.422,1003.46 294.975,1006.16 305.528,1008.85 316.08,1011.55 326.633,1014.24 337.186,1016.94 347.738,1019.64 358.291,1022.33 368.844,1025.03 379.397,1027.72 389.949,1030.42 400.502,1033.11 411.055,1035.81 421.608,1038.51 432.16,1041.2 442.713,1043.9 453.266,1046.59 463.818,1049.29 474.371,1051.98 484.924,1054.68 495.477,1057.37 506.029,1060.07 516.582,1062.77 527.135,1065.46 537.687,1068.16 548.24,1070.85 558.793,1073.55 569.346,1076.24 579.898,1078.94 590.451,1081.64 601.004,1084.33 611.557,1087.03 622.109,1089.72 632.662,1092.42 643.215,1095.11 653.767,1097.81 664.32,1100.5 674.873,1103.2 685.426,1105.9 695.978,1108.59 706.531,1111.29 717.084,1113.98 727.637,1116.68 738.189,1119.37 748.742,1122.07 759.295,1124.77 769.847,1127.46 780.4,1130.16 790.953,1132.85 801.506,1135.55 812.058,1138.24 822.611,1140.94 833.164,1143.63 843.716,1146.33 854.269,1149.03 864.822,1151.72 875.375,1154.42 885.927,1157.11 896.48,1159.81 907.033,1162.5 917.586,1165.2 928.138,1167.89 938.691,1170.59 949.244,1173.29 959.796,1175.98 970.349,1178.68 980.902,1181.37 991.455,1184.07 1002.01,1186.76 1012.56,1189.46 1023.11,1192.16 1033.67,1194.85 1044.22,1197.55 1054.77,1200.24 1065.32,1202.94 1075.88,1205.63 1086.43,1208.33 1096.98,1211.02 1107.53,1213.72 1118.09,1216.42 1128.64,1219.11 1139.19,1221.81 1149.75,1224.5 1160.3,1227.2 1170.85,1229.89 1181.4,1232.59 1191.96,1235.29 1202.51,1237.98 1213.06,1240.68 1223.61,1243.37 1234.17,1246.07 1244.72,1248.76 1255.27,1251.46 1265.83,1254.15 1276.38,1256.85 1286.93,1259.55 1297.48,1262.24 1308.04,1264.94 1318.59,1267.63 1329.14,1270.33 1339.69,1273.02 1350.25,1275.72 1360.8,1278.41 1371.35,1281.11 1381.91,1283.81 1392.46,1286.5 1403.01,1289.2 1413.56,1291.89 1424.12,1294.59 1434.67,1297.28 1445.22,1299.98 1455.77,1302.68 1466.33,1305.37 1476.88,1308.07 1487.43,1310.76 1497.99,1313.46 1508.54,1316.15 1519.09,1318.85 1529.64,1321.54 1540.2,1324.24 1550.75,1326.94 1561.3,1329.63 1571.85,1332.33 1582.41,1335.02 1592.96,1337.72 1603.51,1340.41 1614.07,1343.11 1624.62,1345.81 1635.17,1348.5 1645.72,1351.2 1656.28,1353.89 1666.83,1356.59 1677.38,1359.28 1687.93,1361.98 1698.49,1364.67 1709.04,1367.37 1719.59,1370.07 1730.15,1372.76 1740.7,1375.46 1751.25,1378.15 1761.8,1380.85 1772.36,1383.54 1782.91,1386.24 1793.46,1388.94 1804.01,1391.63 1814.57,1394.33 1825.12,1397.02 1835.67,1399.72 1846.23,1402.41 1856.78,1405.11 1867.33,1407.8 1877.88,1410.5 1888.44,1413.2 1898.99,1415.89 1909.54,1418.59 1920.09,1421.28 1930.65,1423.98 1941.2,1426.67 1951.75,1429.37 1962.31,1432.06 1972.86,1434.76 1983.41,1437.46 1993.96,1440.15 2004.52,1442.85 2015.07,1445.54 2025.62,1448.24 2036.17,1450.93 2046.73,1453.63 2057.28,1456.33 2067.83,1459.02 2078.39,1461.72 2088.94,1464.41 2099.49,1467.11 2110.04,1469.8 2120.6,1472.5 2131.15,1475.19 2141.7,1477.89 2152.25,1480.59 2162.81,1483.28 2173.36,1485.98 2183.91,1488.67 2194.47,1491.37 2205.02,1494.06 2215.57,1496.76 2226.12,1499.46 2236.68,1502.15 2247.23,1504.85 2257.78,1507.54 2268.33,1510.24 2278.89,1512.93 2289.44,1515.63 2299.99,1518.32 2310.55,1521.02 2321.1,1523.72 2331.65,1526.41 2342.2,1529.11 2352.76,1531.8 "/>
<path clip-path="url(#clip360)" d="M1728.31 321.906 L2282.76 321.906 L2282.76 166.386 L1728.31 166.386  Z" fill="#ffffff" fill-rule="evenodd" fill-opacity="1"/>
<polyline clip-path="url(#clip360)" style="stroke:#000000; stroke-linecap:round; stroke-linejoin:round; stroke-width:4; stroke-opacity:1; fill:none" points="1728.31,321.906 2282.76,321.906 2282.76,166.386 1728.31,166.386 1728.31,321.906 "/>
<polyline clip-path="url(#clip360)" style="stroke:#009af9; stroke-linecap:round; stroke-linejoin:round; stroke-width:8; stroke-opacity:1; fill:none" points="1751.65,218.226 1891.65,218.226 "/>
<path clip-path="url(#clip360)" d="M1930.81 205.553 L1924.47 222.752 L1937.18 222.752 L1930.81 205.553 M1928.17 200.946 L1933.48 200.946 L1946.65 235.506 L1941.79 235.506 L1938.64 226.641 L1923.06 226.641 L1919.91 235.506 L1914.98 235.506 L1928.17 200.946 Z" fill="#000000" fill-rule="nonzero" fill-opacity="1" /><path clip-path="url(#clip360)" d="M1951.51 209.58 L1955.77 209.58 L1955.77 235.506 L1951.51 235.506 L1951.51 209.58 M1951.51 199.488 L1955.77 199.488 L1955.77 204.881 L1951.51 204.881 L1951.51 199.488 Z" fill="#000000" fill-rule="nonzero" fill-opacity="1" /><path clip-path="url(#clip360)" d="M1979.7 213.562 Q1978.98 213.145 1978.13 212.96 Q1977.29 212.752 1976.28 212.752 Q1972.67 212.752 1970.72 215.113 Q1968.8 217.451 1968.8 221.849 L1968.8 235.506 L1964.52 235.506 L1964.52 209.58 L1968.8 209.58 L1968.8 213.608 Q1970.14 211.247 1972.29 210.113 Q1974.45 208.955 1977.53 208.955 Q1977.97 208.955 1978.5 209.025 Q1979.03 209.071 1979.68 209.187 L1979.7 213.562 Z" fill="#000000" fill-rule="nonzero" fill-opacity="1" /><path clip-path="url(#clip360)" d="M2019.42 214.557 Q2021.02 211.687 2023.24 210.321 Q2025.47 208.955 2028.48 208.955 Q2032.53 208.955 2034.73 211.803 Q2036.92 214.627 2036.92 219.858 L2036.92 235.506 L2032.64 235.506 L2032.64 219.997 Q2032.64 216.27 2031.32 214.465 Q2030 212.659 2027.29 212.659 Q2023.98 212.659 2022.06 214.858 Q2020.14 217.057 2020.14 220.854 L2020.14 235.506 L2015.86 235.506 L2015.86 219.997 Q2015.86 216.247 2014.54 214.465 Q2013.22 212.659 2010.47 212.659 Q2007.2 212.659 2005.28 214.881 Q2003.36 217.08 2003.36 220.854 L2003.36 235.506 L1999.08 235.506 L1999.08 209.58 L2003.36 209.58 L2003.36 213.608 Q2004.82 211.224 2006.85 210.09 Q2008.89 208.955 2011.69 208.955 Q2014.52 208.955 2016.48 210.391 Q2018.48 211.826 2019.42 214.557 Z" fill="#000000" fill-rule="nonzero" fill-opacity="1" /><path clip-path="url(#clip360)" d="M2067.6 221.479 L2067.6 223.562 L2048.01 223.562 Q2048.29 227.96 2050.65 230.275 Q2053.04 232.566 2057.27 232.566 Q2059.72 232.566 2062.02 231.965 Q2064.33 231.363 2066.6 230.159 L2066.6 234.187 Q2064.31 235.159 2061.9 235.668 Q2059.49 236.178 2057.02 236.178 Q2050.81 236.178 2047.18 232.566 Q2043.57 228.955 2043.57 222.798 Q2043.57 216.432 2046.99 212.705 Q2050.44 208.955 2056.28 208.955 Q2061.51 208.955 2064.54 212.335 Q2067.6 215.692 2067.6 221.479 M2063.34 220.229 Q2063.29 216.733 2061.37 214.65 Q2059.47 212.567 2056.32 212.567 Q2052.76 212.567 2050.6 214.58 Q2048.47 216.594 2048.15 220.252 L2063.34 220.229 Z" fill="#000000" fill-rule="nonzero" fill-opacity="1" /><path clip-path="url(#clip360)" d="M2091.65 213.516 L2091.65 199.488 L2095.91 199.488 L2095.91 235.506 L2091.65 235.506 L2091.65 231.617 Q2090.3 233.932 2088.24 235.066 Q2086.21 236.178 2083.34 236.178 Q2078.64 236.178 2075.67 232.428 Q2072.73 228.678 2072.73 222.567 Q2072.73 216.455 2075.67 212.705 Q2078.64 208.955 2083.34 208.955 Q2086.21 208.955 2088.24 210.09 Q2090.3 211.201 2091.65 213.516 M2077.13 222.567 Q2077.13 227.266 2079.05 229.951 Q2081 232.613 2084.38 232.613 Q2087.76 232.613 2089.7 229.951 Q2091.65 227.266 2091.65 222.567 Q2091.65 217.867 2089.7 215.205 Q2087.76 212.52 2084.38 212.52 Q2081 212.52 2079.05 215.205 Q2077.13 217.867 2077.13 222.567 Z" fill="#000000" fill-rule="nonzero" fill-opacity="1" /><path clip-path="url(#clip360)" d="M2104.68 209.58 L2108.94 209.58 L2108.94 235.506 L2104.68 235.506 L2104.68 209.58 M2104.68 199.488 L2108.94 199.488 L2108.94 204.881 L2104.68 204.881 L2104.68 199.488 Z" fill="#000000" fill-rule="nonzero" fill-opacity="1" /><path clip-path="url(#clip360)" d="M2117.41 225.275 L2117.41 209.58 L2121.67 209.58 L2121.67 225.113 Q2121.67 228.793 2123.1 230.645 Q2124.54 232.474 2127.41 232.474 Q2130.86 232.474 2132.85 230.275 Q2134.86 228.076 2134.86 224.279 L2134.86 209.58 L2139.12 209.58 L2139.12 235.506 L2134.86 235.506 L2134.86 231.525 Q2133.31 233.886 2131.25 235.043 Q2129.22 236.178 2126.51 236.178 Q2122.04 236.178 2119.72 233.4 Q2117.41 230.622 2117.41 225.275 M2128.13 208.955 L2128.13 208.955 Z" fill="#000000" fill-rule="nonzero" fill-opacity="1" /><path clip-path="url(#clip360)" d="M2168.08 214.557 Q2169.68 211.687 2171.9 210.321 Q2174.12 208.955 2177.13 208.955 Q2181.18 208.955 2183.38 211.803 Q2185.58 214.627 2185.58 219.858 L2185.58 235.506 L2181.3 235.506 L2181.3 219.997 Q2181.3 216.27 2179.98 214.465 Q2178.66 212.659 2175.95 212.659 Q2172.64 212.659 2170.72 214.858 Q2168.8 217.057 2168.8 220.854 L2168.8 235.506 L2164.52 235.506 L2164.52 219.997 Q2164.52 216.247 2163.2 214.465 Q2161.88 212.659 2159.12 212.659 Q2155.86 212.659 2153.94 214.881 Q2152.02 217.08 2152.02 220.854 L2152.02 235.506 L2147.73 235.506 L2147.73 209.58 L2152.02 209.58 L2152.02 213.608 Q2153.47 211.224 2155.51 210.09 Q2157.55 208.955 2160.35 208.955 Q2163.17 208.955 2165.14 210.391 Q2167.13 211.826 2168.08 214.557 Z" fill="#000000" fill-rule="nonzero" fill-opacity="1" /><polyline clip-path="url(#clip360)" style="stroke:#e26f46; stroke-linecap:round; stroke-linejoin:round; stroke-width:8; stroke-opacity:1; fill:none" points="1751.65,270.066 1891.65,270.066 "/>
<path clip-path="url(#clip360)" d="M1914.98 252.786 L1919.7 252.786 L1926.97 281.999 L1934.22 252.786 L1939.47 252.786 L1946.74 281.999 L1953.98 252.786 L1958.73 252.786 L1950.05 287.346 L1944.17 287.346 L1936.88 257.346 L1929.52 287.346 L1923.64 287.346 L1914.98 252.786 Z" fill="#000000" fill-rule="nonzero" fill-opacity="1" /><path clip-path="url(#clip360)" d="M1973.5 274.314 Q1968.34 274.314 1966.35 275.494 Q1964.36 276.675 1964.36 279.522 Q1964.36 281.791 1965.84 283.133 Q1967.34 284.453 1969.91 284.453 Q1973.45 284.453 1975.58 281.953 Q1977.73 279.43 1977.73 275.263 L1977.73 274.314 L1973.5 274.314 M1981.99 272.555 L1981.99 287.346 L1977.73 287.346 L1977.73 283.411 Q1976.28 285.772 1974.1 286.906 Q1971.92 288.018 1968.78 288.018 Q1964.79 288.018 1962.43 285.795 Q1960.1 283.55 1960.1 279.8 Q1960.1 275.425 1963.01 273.203 Q1965.95 270.981 1971.76 270.981 L1977.73 270.981 L1977.73 270.564 Q1977.73 267.624 1975.79 266.027 Q1973.87 264.407 1970.37 264.407 Q1968.15 264.407 1966.04 264.939 Q1963.94 265.471 1961.99 266.536 L1961.99 262.601 Q1964.33 261.698 1966.53 261.258 Q1968.73 260.795 1970.81 260.795 Q1976.44 260.795 1979.22 263.712 Q1981.99 266.629 1981.99 272.555 Z" fill="#000000" fill-rule="nonzero" fill-opacity="1" /><path clip-path="url(#clip360)" d="M1994.98 254.059 L1994.98 261.42 L2003.75 261.42 L2003.75 264.731 L1994.98 264.731 L1994.98 278.805 Q1994.98 281.976 1995.84 282.879 Q1996.72 283.781 1999.38 283.781 L2003.75 283.781 L2003.75 287.346 L1999.38 287.346 Q1994.45 287.346 1992.57 285.518 Q1990.7 283.666 1990.7 278.805 L1990.7 264.731 L1987.57 264.731 L1987.57 261.42 L1990.7 261.42 L1990.7 254.059 L1994.98 254.059 Z" fill="#000000" fill-rule="nonzero" fill-opacity="1" /><path clip-path="url(#clip360)" d="M2031.53 273.319 L2031.53 275.402 L2011.95 275.402 Q2012.23 279.8 2014.59 282.115 Q2016.97 284.406 2021.21 284.406 Q2023.66 284.406 2025.95 283.805 Q2028.27 283.203 2030.54 281.999 L2030.54 286.027 Q2028.24 286.999 2025.84 287.508 Q2023.43 288.018 2020.95 288.018 Q2014.75 288.018 2011.11 284.406 Q2007.5 280.795 2007.5 274.638 Q2007.5 268.272 2010.93 264.545 Q2014.38 260.795 2020.21 260.795 Q2025.44 260.795 2028.48 264.175 Q2031.53 267.532 2031.53 273.319 M2027.27 272.069 Q2027.23 268.573 2025.3 266.49 Q2023.41 264.407 2020.26 264.407 Q2016.69 264.407 2014.54 266.42 Q2012.41 268.434 2012.09 272.092 L2027.27 272.069 Z" fill="#000000" fill-rule="nonzero" fill-opacity="1" /><path clip-path="url(#clip360)" d="M2053.54 265.402 Q2052.83 264.985 2051.97 264.8 Q2051.14 264.592 2050.12 264.592 Q2046.51 264.592 2044.56 266.953 Q2042.64 269.291 2042.64 273.689 L2042.64 287.346 L2038.36 287.346 L2038.36 261.42 L2042.64 261.42 L2042.64 265.448 Q2043.98 263.087 2046.14 261.953 Q2048.29 260.795 2051.37 260.795 Q2051.81 260.795 2052.34 260.865 Q2052.87 260.911 2053.52 261.027 L2053.54 265.402 Z" fill="#000000" fill-rule="nonzero" fill-opacity="1" /><path clip-path="url(#clip360)" d="M2093.27 266.397 Q2094.86 263.527 2097.09 262.161 Q2099.31 260.795 2102.32 260.795 Q2106.37 260.795 2108.57 263.643 Q2110.77 266.467 2110.77 271.698 L2110.77 287.346 L2106.48 287.346 L2106.48 271.837 Q2106.48 268.11 2105.16 266.305 Q2103.85 264.499 2101.14 264.499 Q2097.83 264.499 2095.91 266.698 Q2093.98 268.897 2093.98 272.694 L2093.98 287.346 L2089.7 287.346 L2089.7 271.837 Q2089.7 268.087 2088.38 266.305 Q2087.06 264.499 2084.31 264.499 Q2081.04 264.499 2079.12 266.721 Q2077.2 268.92 2077.2 272.694 L2077.2 287.346 L2072.92 287.346 L2072.92 261.42 L2077.2 261.42 L2077.2 265.448 Q2078.66 263.064 2080.7 261.93 Q2082.73 260.795 2085.53 260.795 Q2088.36 260.795 2090.33 262.231 Q2092.32 263.666 2093.27 266.397 Z" fill="#000000" fill-rule="nonzero" fill-opacity="1" /><path clip-path="url(#clip360)" d="M2141.44 273.319 L2141.44 275.402 L2121.85 275.402 Q2122.13 279.8 2124.49 282.115 Q2126.88 284.406 2131.11 284.406 Q2133.57 284.406 2135.86 283.805 Q2138.17 283.203 2140.44 281.999 L2140.44 286.027 Q2138.15 286.999 2135.74 287.508 Q2133.34 288.018 2130.86 288.018 Q2124.66 288.018 2121.02 284.406 Q2117.41 280.795 2117.41 274.638 Q2117.41 268.272 2120.84 264.545 Q2124.28 260.795 2130.12 260.795 Q2135.35 260.795 2138.38 264.175 Q2141.44 267.532 2141.44 273.319 M2137.18 272.069 Q2137.13 268.573 2135.21 266.49 Q2133.31 264.407 2130.16 264.407 Q2126.6 264.407 2124.45 266.42 Q2122.32 268.434 2121.99 272.092 L2137.18 272.069 Z" fill="#000000" fill-rule="nonzero" fill-opacity="1" /><path clip-path="url(#clip360)" d="M2165.49 265.356 L2165.49 251.328 L2169.75 251.328 L2169.75 287.346 L2165.49 287.346 L2165.49 283.457 Q2164.15 285.772 2162.09 286.906 Q2160.05 288.018 2157.18 288.018 Q2152.48 288.018 2149.52 284.268 Q2146.58 280.518 2146.58 274.407 Q2146.58 268.295 2149.52 264.545 Q2152.48 260.795 2157.18 260.795 Q2160.05 260.795 2162.09 261.93 Q2164.15 263.041 2165.49 265.356 M2150.97 274.407 Q2150.97 279.106 2152.9 281.791 Q2154.84 284.453 2158.22 284.453 Q2161.6 284.453 2163.54 281.791 Q2165.49 279.106 2165.49 274.407 Q2165.49 269.707 2163.54 267.045 Q2161.6 264.36 2158.22 264.36 Q2154.84 264.36 2152.9 267.045 Q2150.97 269.707 2150.97 274.407 Z" fill="#000000" fill-rule="nonzero" fill-opacity="1" /><path clip-path="url(#clip360)" d="M2178.52 261.42 L2182.78 261.42 L2182.78 287.346 L2178.52 287.346 L2178.52 261.42 M2178.52 251.328 L2182.78 251.328 L2182.78 256.721 L2178.52 256.721 L2178.52 251.328 Z" fill="#000000" fill-rule="nonzero" fill-opacity="1" /><path clip-path="url(#clip360)" d="M2191.25 277.115 L2191.25 261.42 L2195.51 261.42 L2195.51 276.953 Q2195.51 280.633 2196.95 282.485 Q2198.38 284.314 2201.25 284.314 Q2204.7 284.314 2206.69 282.115 Q2208.71 279.916 2208.71 276.119 L2208.71 261.42 L2212.96 261.42 L2212.96 287.346 L2208.71 287.346 L2208.71 283.365 Q2207.15 285.726 2205.09 286.883 Q2203.06 288.018 2200.35 288.018 Q2195.88 288.018 2193.57 285.24 Q2191.25 282.462 2191.25 277.115 M2201.97 260.795 L2201.97 260.795 Z" fill="#000000" fill-rule="nonzero" fill-opacity="1" /><path clip-path="url(#clip360)" d="M2241.92 266.397 Q2243.52 263.527 2245.74 262.161 Q2247.96 260.795 2250.97 260.795 Q2255.02 260.795 2257.22 263.643 Q2259.42 266.467 2259.42 271.698 L2259.42 287.346 L2255.14 287.346 L2255.14 271.837 Q2255.14 268.11 2253.82 266.305 Q2252.5 264.499 2249.79 264.499 Q2246.48 264.499 2244.56 266.698 Q2242.64 268.897 2242.64 272.694 L2242.64 287.346 L2238.36 287.346 L2238.36 271.837 Q2238.36 268.087 2237.04 266.305 Q2235.72 264.499 2232.96 264.499 Q2229.7 264.499 2227.78 266.721 Q2225.86 268.92 2225.86 272.694 L2225.86 287.346 L2221.58 287.346 L2221.58 261.42 L2225.86 261.42 L2225.86 265.448 Q2227.32 263.064 2229.35 261.93 Q2231.39 260.795 2234.19 260.795 Q2237.02 260.795 2238.98 262.231 Q2240.97 263.666 2241.92 266.397 Z" fill="#000000" fill-rule="nonzero" fill-opacity="1" /></svg>
