<?xml version="1.0" encoding="utf-8"?>
<svg xmlns="http://www.w3.org/2000/svg" xmlns:xlink="http://www.w3.org/1999/xlink" width="600" height="400" viewBox="0 0 2400 1600">
<defs>
  <clipPath id="clip380">
    <rect x="0" y="0" width="2400" height="1600"/>
  </clipPath>
</defs>
<path clip-path="url(#clip380)" d="M0 1600 L2400 1600 L2400 0 L0 0  Z" fill="#ffffff" fill-rule="evenodd" fill-opacity="1"/>
<defs>
  <clipPath id="clip381">
    <rect x="252" y="123" width="2101" height="1288"/>
  </clipPath>
</defs>
<path clip-path="url(#clip380)" d="M203.964 1410.9 L2352.76 1410.9 L2352.76 123.472 L203.964 123.472  Z" fill="#ffffff" fill-rule="evenodd" fill-opacity="1"/>
<defs>
  <clipPath id="clip382">
    <rect x="203" y="123" width="2150" height="1288"/>
  </clipPath>
</defs>
<polyline clip-path="url(#clip382)" style="stroke:#000000; stroke-linecap:round; stroke-linejoin:round; stroke-width:2; stroke-opacity:0.1; fill:none" points="670.211,1410.9 670.211,123.472 "/>
<polyline clip-path="url(#clip382)" style="stroke:#000000; stroke-linecap:round; stroke-linejoin:round; stroke-width:2; stroke-opacity:0.1; fill:none" points="1886.51,1410.9 1886.51,123.472 "/>
<polyline clip-path="url(#clip382)" style="stroke:#000000; stroke-linecap:round; stroke-linejoin:round; stroke-width:2; stroke-opacity:0.1; fill:none" points="203.964,1159.05 2352.76,1159.05 "/>
<polyline clip-path="url(#clip382)" style="stroke:#000000; stroke-linecap:round; stroke-linejoin:round; stroke-width:2; stroke-opacity:0.1; fill:none" points="203.964,883.806 2352.76,883.806 "/>
<polyline clip-path="url(#clip382)" style="stroke:#000000; stroke-linecap:round; stroke-linejoin:round; stroke-width:2; stroke-opacity:0.1; fill:none" points="203.964,608.56 2352.76,608.56 "/>
<polyline clip-path="url(#clip382)" style="stroke:#000000; stroke-linecap:round; stroke-linejoin:round; stroke-width:2; stroke-opacity:0.1; fill:none" points="203.964,333.314 2352.76,333.314 "/>
<polyline clip-path="url(#clip380)" style="stroke:#000000; stroke-linecap:round; stroke-linejoin:round; stroke-width:4; stroke-opacity:1; fill:none" points="203.964,1410.9 2352.76,1410.9 "/>
<polyline clip-path="url(#clip380)" style="stroke:#000000; stroke-linecap:round; stroke-linejoin:round; stroke-width:4; stroke-opacity:1; fill:none" points="670.211,1410.9 670.211,1392 "/>
<polyline clip-path="url(#clip380)" style="stroke:#000000; stroke-linecap:round; stroke-linejoin:round; stroke-width:4; stroke-opacity:1; fill:none" points="1886.51,1410.9 1886.51,1392 "/>
<path clip-path="url(#clip380)" d="M635.194 1485.02 L642.833 1485.02 L642.833 1458.66 L634.523 1460.32 L634.523 1456.06 L642.786 1454.4 L647.462 1454.4 L647.462 1485.02 L655.101 1485.02 L655.101 1488.96 L635.194 1488.96 L635.194 1485.02 Z" fill="#000000" fill-rule="nonzero" fill-opacity="1" /><path clip-path="url(#clip380)" d="M674.545 1457.48 Q670.934 1457.48 669.106 1461.04 Q667.3 1464.58 667.3 1471.71 Q667.3 1478.82 669.106 1482.38 Q670.934 1485.92 674.545 1485.92 Q678.18 1485.92 679.985 1482.38 Q681.814 1478.82 681.814 1471.71 Q681.814 1464.58 679.985 1461.04 Q678.18 1457.48 674.545 1457.48 M674.545 1453.77 Q680.356 1453.77 683.411 1458.38 Q686.49 1462.96 686.49 1471.71 Q686.49 1480.44 683.411 1485.04 Q680.356 1489.63 674.545 1489.63 Q668.735 1489.63 665.657 1485.04 Q662.601 1480.44 662.601 1471.71 Q662.601 1462.96 665.657 1458.38 Q668.735 1453.77 674.545 1453.77 Z" fill="#000000" fill-rule="nonzero" fill-opacity="1" /><path clip-path="url(#clip380)" d="M696.195 1435.97 Q693.261 1435.97 691.775 1438.86 Q690.308 1441.74 690.308 1447.53 Q690.308 1453.31 691.775 1456.2 Q693.261 1459.08 696.195 1459.08 Q699.147 1459.08 700.614 1456.2 Q702.1 1453.31 702.1 1447.53 Q702.1 1441.74 700.614 1438.86 Q699.147 1435.97 696.195 1435.97 M696.195 1432.96 Q700.915 1432.96 703.398 1436.7 Q705.899 1440.43 705.899 1447.53 Q705.899 1454.62 703.398 1458.37 Q700.915 1462.09 696.195 1462.09 Q691.474 1462.09 688.972 1458.37 Q686.49 1454.62 686.49 1447.53 Q686.49 1440.43 688.972 1436.7 Q691.474 1432.96 696.195 1432.96 Z" fill="#000000" fill-rule="nonzero" fill-opacity="1" /><path clip-path="url(#clip380)" d="M1851.95 1485.02 L1859.59 1485.02 L1859.59 1458.66 L1851.28 1460.32 L1851.28 1456.06 L1859.54 1454.4 L1864.22 1454.4 L1864.22 1485.02 L1871.86 1485.02 L1871.86 1488.96 L1851.95 1488.96 L1851.95 1485.02 Z" fill="#000000" fill-rule="nonzero" fill-opacity="1" /><path clip-path="url(#clip380)" d="M1891.3 1457.48 Q1887.69 1457.48 1885.86 1461.04 Q1884.06 1464.58 1884.06 1471.71 Q1884.06 1478.82 1885.86 1482.38 Q1887.69 1485.92 1891.3 1485.92 Q1894.94 1485.92 1896.74 1482.38 Q1898.57 1478.82 1898.57 1471.71 Q1898.57 1464.58 1896.74 1461.04 Q1894.94 1457.48 1891.3 1457.48 M1891.3 1453.77 Q1897.11 1453.77 1900.17 1458.38 Q1903.25 1462.96 1903.25 1471.71 Q1903.25 1480.44 1900.17 1485.04 Q1897.11 1489.63 1891.3 1489.63 Q1885.49 1489.63 1882.41 1485.04 Q1879.36 1480.44 1879.36 1471.71 Q1879.36 1462.96 1882.41 1458.38 Q1885.49 1453.77 1891.3 1453.77 Z" fill="#000000" fill-rule="nonzero" fill-opacity="1" /><path clip-path="url(#clip380)" d="M1915.94 1446.41 Q1918.67 1446.99 1920.19 1448.83 Q1921.74 1450.68 1921.74 1453.38 Q1921.74 1457.54 1918.88 1459.82 Q1916.02 1462.09 1910.75 1462.09 Q1908.98 1462.09 1907.1 1461.73 Q1905.24 1461.4 1903.25 1460.7 L1903.25 1457.03 Q1904.83 1457.95 1906.71 1458.42 Q1908.59 1458.89 1910.64 1458.89 Q1914.21 1458.89 1916.08 1457.48 Q1917.96 1456.07 1917.96 1453.38 Q1917.96 1450.9 1916.21 1449.51 Q1914.48 1448.1 1911.37 1448.1 L1908.1 1448.1 L1908.1 1444.98 L1911.52 1444.98 Q1914.33 1444.98 1915.81 1443.87 Q1917.3 1442.74 1917.3 1440.63 Q1917.3 1438.47 1915.76 1437.32 Q1914.23 1436.16 1911.37 1436.16 Q1909.81 1436.16 1908.03 1436.49 Q1906.24 1436.83 1904.09 1437.55 L1904.09 1434.16 Q1906.26 1433.56 1908.14 1433.26 Q1910.04 1432.96 1911.71 1432.96 Q1916.04 1432.96 1918.56 1434.93 Q1921.08 1436.89 1921.08 1440.24 Q1921.08 1442.57 1919.74 1444.19 Q1918.41 1445.79 1915.94 1446.41 Z" fill="#000000" fill-rule="nonzero" fill-opacity="1" /><path clip-path="url(#clip380)" d="M819.424 1526.67 L825.853 1526.67 L825.853 1546.75 L847.179 1526.67 L855.454 1526.67 L831.869 1548.82 L857.141 1574.19 L848.675 1574.19 L825.853 1551.3 L825.853 1574.19 L819.424 1574.19 L819.424 1526.67 Z" fill="#000000" fill-rule="nonzero" fill-opacity="1" /><path clip-path="url(#clip380)" d="M891.548 1552.67 L891.548 1574.19 L885.691 1574.19 L885.691 1552.86 Q885.691 1547.8 883.718 1545.29 Q881.744 1542.77 877.798 1542.77 Q873.055 1542.77 870.318 1545.79 Q867.581 1548.82 867.581 1554.04 L867.581 1574.19 L861.692 1574.19 L861.692 1538.54 L867.581 1538.54 L867.581 1544.08 Q869.681 1540.86 872.514 1539.27 Q875.379 1537.68 879.103 1537.68 Q885.246 1537.68 888.397 1541.5 Q891.548 1545.29 891.548 1552.67 Z" fill="#000000" fill-rule="nonzero" fill-opacity="1" /><path clip-path="url(#clip380)" d="M902.624 1560.12 L902.624 1538.54 L908.48 1538.54 L908.48 1559.89 Q908.48 1564.96 910.454 1567.5 Q912.427 1570.02 916.374 1570.02 Q921.116 1570.02 923.854 1566.99 Q926.623 1563.97 926.623 1558.75 L926.623 1538.54 L932.479 1538.54 L932.479 1574.19 L926.623 1574.19 L926.623 1568.71 Q924.49 1571.96 921.657 1573.55 Q918.856 1575.11 915.133 1575.11 Q908.99 1575.11 905.807 1571.29 Q902.624 1567.47 902.624 1560.12 M917.361 1537.68 L917.361 1537.68 Z" fill="#000000" fill-rule="nonzero" fill-opacity="1" /><path clip-path="url(#clip380)" d="M968 1543.95 L968 1524.66 L973.856 1524.66 L973.856 1574.19 L968 1574.19 L968 1568.84 Q966.154 1572.02 963.321 1573.58 Q960.52 1575.11 956.573 1575.11 Q950.112 1575.11 946.038 1569.95 Q941.996 1564.8 941.996 1556.39 Q941.996 1547.99 946.038 1542.83 Q950.112 1537.68 956.573 1537.68 Q960.52 1537.68 963.321 1539.24 Q966.154 1540.77 968 1543.95 M948.043 1556.39 Q948.043 1562.85 950.685 1566.55 Q953.359 1570.21 958.006 1570.21 Q962.653 1570.21 965.326 1566.55 Q968 1562.85 968 1556.39 Q968 1549.93 965.326 1546.27 Q962.653 1542.58 958.006 1542.58 Q953.359 1542.58 950.685 1546.27 Q948.043 1549.93 948.043 1556.39 Z" fill="#000000" fill-rule="nonzero" fill-opacity="1" /><path clip-path="url(#clip380)" d="M1008.64 1539.59 L1008.64 1545.13 Q1006.16 1543.85 1003.49 1543.22 Q1000.81 1542.58 997.95 1542.58 Q993.59 1542.58 991.394 1543.92 Q989.229 1545.25 989.229 1547.93 Q989.229 1549.96 990.789 1551.14 Q992.349 1552.29 997.059 1553.34 L999.064 1553.78 Q1005.3 1555.12 1007.91 1557.57 Q1010.55 1559.99 1010.55 1564.35 Q1010.55 1569.32 1006.61 1572.21 Q1002.69 1575.11 995.818 1575.11 Q992.953 1575.11 989.834 1574.54 Q986.747 1573.99 983.309 1572.88 L983.309 1566.83 Q986.556 1568.52 989.707 1569.38 Q992.858 1570.21 995.945 1570.21 Q1000.08 1570.21 1002.31 1568.81 Q1004.54 1567.37 1004.54 1564.8 Q1004.54 1562.41 1002.92 1561.14 Q1001.32 1559.86 995.882 1558.68 L993.844 1558.21 Q988.402 1557.06 985.983 1554.71 Q983.564 1552.32 983.564 1548.18 Q983.564 1543.15 987.129 1540.42 Q990.693 1537.68 997.25 1537.68 Q1000.5 1537.68 1003.36 1538.16 Q1006.23 1538.63 1008.64 1539.59 Z" fill="#000000" fill-rule="nonzero" fill-opacity="1" /><path clip-path="url(#clip380)" d="M1050.37 1554.9 L1050.37 1557.76 L1023.45 1557.76 Q1023.83 1563.81 1027.07 1566.99 Q1030.35 1570.14 1036.18 1570.14 Q1039.55 1570.14 1042.7 1569.32 Q1045.88 1568.49 1049 1566.83 L1049 1572.37 Q1045.85 1573.71 1042.54 1574.41 Q1039.23 1575.11 1035.83 1575.11 Q1027.3 1575.11 1022.3 1570.14 Q1017.33 1565.18 1017.33 1556.71 Q1017.33 1547.96 1022.04 1542.83 Q1026.79 1537.68 1034.81 1537.68 Q1042 1537.68 1046.17 1542.33 Q1050.37 1546.94 1050.37 1554.9 M1044.52 1553.18 Q1044.45 1548.37 1041.81 1545.51 Q1039.2 1542.64 1034.87 1542.64 Q1029.97 1542.64 1027.01 1545.41 Q1024.08 1548.18 1023.64 1553.21 L1044.52 1553.18 Z" fill="#000000" fill-rule="nonzero" fill-opacity="1" /><path clip-path="url(#clip380)" d="M1089.62 1552.67 L1089.62 1574.19 L1083.76 1574.19 L1083.76 1552.86 Q1083.76 1547.8 1081.79 1545.29 Q1079.81 1542.77 1075.87 1542.77 Q1071.12 1542.77 1068.39 1545.79 Q1065.65 1548.82 1065.65 1554.04 L1065.65 1574.19 L1059.76 1574.19 L1059.76 1538.54 L1065.65 1538.54 L1065.65 1544.08 Q1067.75 1540.86 1070.58 1539.27 Q1073.45 1537.68 1077.17 1537.68 Q1083.31 1537.68 1086.47 1541.5 Q1089.62 1545.29 1089.62 1552.67 Z" fill="#000000" fill-rule="nonzero" fill-opacity="1" /><path clip-path="url(#clip380)" d="M1122.27 1526.67 L1130.93 1526.67 L1152 1566.42 L1152 1526.67 L1158.24 1526.67 L1158.24 1574.19 L1149.58 1574.19 L1128.51 1534.43 L1128.51 1574.19 L1122.27 1574.19 L1122.27 1526.67 Z" fill="#000000" fill-rule="nonzero" fill-opacity="1" /><path clip-path="url(#clip380)" d="M1170.17 1560.12 L1170.17 1538.54 L1176.03 1538.54 L1176.03 1559.89 Q1176.03 1564.96 1178 1567.5 Q1179.98 1570.02 1183.92 1570.02 Q1188.67 1570.02 1191.4 1566.99 Q1194.17 1563.97 1194.17 1558.75 L1194.17 1538.54 L1200.03 1538.54 L1200.03 1574.19 L1194.17 1574.19 L1194.17 1568.71 Q1192.04 1571.96 1189.21 1573.55 Q1186.41 1575.11 1182.68 1575.11 Q1176.54 1575.11 1173.36 1571.29 Q1170.17 1567.47 1170.17 1560.12 M1184.91 1537.68 L1184.91 1537.68 Z" fill="#000000" fill-rule="nonzero" fill-opacity="1" /><path clip-path="url(#clip380)" d="M1239.85 1545.38 Q1242.04 1541.43 1245.1 1539.56 Q1248.15 1537.68 1252.29 1537.68 Q1257.86 1537.68 1260.89 1541.59 Q1263.91 1545.48 1263.91 1552.67 L1263.91 1574.19 L1258.02 1574.19 L1258.02 1552.86 Q1258.02 1547.74 1256.21 1545.25 Q1254.39 1542.77 1250.67 1542.77 Q1246.12 1542.77 1243.48 1545.79 Q1240.83 1548.82 1240.83 1554.04 L1240.83 1574.19 L1234.95 1574.19 L1234.95 1552.86 Q1234.95 1547.7 1233.13 1545.25 Q1231.32 1542.77 1227.53 1542.77 Q1223.04 1542.77 1220.4 1545.83 Q1217.76 1548.85 1217.76 1554.04 L1217.76 1574.19 L1211.87 1574.19 L1211.87 1538.54 L1217.76 1538.54 L1217.76 1544.08 Q1219.76 1540.8 1222.56 1539.24 Q1225.37 1537.68 1229.22 1537.68 Q1233.1 1537.68 1235.8 1539.65 Q1238.54 1541.62 1239.85 1545.38 Z" fill="#000000" fill-rule="nonzero" fill-opacity="1" /><path clip-path="url(#clip380)" d="M1301.18 1556.39 Q1301.18 1549.93 1298.51 1546.27 Q1295.87 1542.58 1291.22 1542.58 Q1286.57 1542.58 1283.9 1546.27 Q1281.26 1549.93 1281.26 1556.39 Q1281.26 1562.85 1283.9 1566.55 Q1286.57 1570.21 1291.22 1570.21 Q1295.87 1570.21 1298.51 1566.55 Q1301.18 1562.85 1301.18 1556.39 M1281.26 1543.95 Q1283.1 1540.77 1285.9 1539.24 Q1288.74 1537.68 1292.65 1537.68 Q1299.14 1537.68 1303.19 1542.83 Q1307.26 1547.99 1307.26 1556.39 Q1307.26 1564.8 1303.19 1569.95 Q1299.14 1575.11 1292.65 1575.11 Q1288.74 1575.11 1285.9 1573.58 Q1283.1 1572.02 1281.26 1568.84 L1281.26 1574.19 L1275.37 1574.19 L1275.37 1524.66 L1281.26 1524.66 L1281.26 1543.95 Z" fill="#000000" fill-rule="nonzero" fill-opacity="1" /><path clip-path="url(#clip380)" d="M1347.46 1554.9 L1347.46 1557.76 L1320.53 1557.76 Q1320.91 1563.81 1324.16 1566.99 Q1327.44 1570.14 1333.26 1570.14 Q1336.64 1570.14 1339.79 1569.32 Q1342.97 1568.49 1346.09 1566.83 L1346.09 1572.37 Q1342.94 1573.71 1339.63 1574.41 Q1336.32 1575.11 1332.91 1575.11 Q1324.38 1575.11 1319.39 1570.14 Q1314.42 1565.18 1314.42 1556.71 Q1314.42 1547.96 1319.13 1542.83 Q1323.87 1537.68 1331.9 1537.68 Q1339.09 1537.68 1343.26 1542.33 Q1347.46 1546.94 1347.46 1554.9 M1341.6 1553.18 Q1341.54 1548.37 1338.9 1545.51 Q1336.29 1542.64 1331.96 1542.64 Q1327.06 1542.64 1324.1 1545.41 Q1321.17 1548.18 1320.72 1553.21 L1341.6 1553.18 Z" fill="#000000" fill-rule="nonzero" fill-opacity="1" /><path clip-path="url(#clip380)" d="M1377.73 1544.01 Q1376.74 1543.44 1375.56 1543.18 Q1374.42 1542.9 1373.02 1542.9 Q1368.05 1542.9 1365.38 1546.14 Q1362.74 1549.36 1362.74 1555.41 L1362.74 1574.19 L1356.85 1574.19 L1356.85 1538.54 L1362.74 1538.54 L1362.74 1544.08 Q1364.58 1540.83 1367.54 1539.27 Q1370.5 1537.68 1374.74 1537.68 Q1375.34 1537.68 1376.07 1537.77 Q1376.81 1537.84 1377.7 1538 L1377.73 1544.01 Z" fill="#000000" fill-rule="nonzero" fill-opacity="1" /><path clip-path="url(#clip380)" d="M1418.66 1524.72 Q1414.39 1532.04 1412.33 1539.21 Q1410.26 1546.37 1410.26 1553.72 Q1410.26 1561.07 1412.33 1568.3 Q1414.43 1575.49 1418.66 1582.78 L1413.57 1582.78 Q1408.79 1575.3 1406.41 1568.07 Q1404.05 1560.85 1404.05 1553.72 Q1404.05 1546.62 1406.41 1539.43 Q1408.76 1532.24 1413.57 1524.72 L1418.66 1524.72 Z" fill="#000000" fill-rule="nonzero" fill-opacity="1" /><path clip-path="url(#clip380)" d="M1430.28 1526.67 L1436.71 1526.67 L1436.71 1546.75 L1458.03 1526.67 L1466.31 1526.67 L1442.72 1548.82 L1467.99 1574.19 L1459.53 1574.19 L1436.71 1551.3 L1436.71 1574.19 L1430.28 1574.19 L1430.28 1526.67 Z" fill="#000000" fill-rule="nonzero" fill-opacity="1" /><path clip-path="url(#clip380)" d="M1502.4 1552.67 L1502.4 1574.19 L1496.54 1574.19 L1496.54 1552.86 Q1496.54 1547.8 1494.57 1545.29 Q1492.6 1542.77 1488.65 1542.77 Q1483.91 1542.77 1481.17 1545.79 Q1478.43 1548.82 1478.43 1554.04 L1478.43 1574.19 L1472.55 1574.19 L1472.55 1538.54 L1478.43 1538.54 L1478.43 1544.08 Q1480.53 1540.86 1483.37 1539.27 Q1486.23 1537.68 1489.96 1537.68 Q1496.1 1537.68 1499.25 1541.5 Q1502.4 1545.29 1502.4 1552.67 Z" fill="#000000" fill-rule="nonzero" fill-opacity="1" /><path clip-path="url(#clip380)" d="M1535.57 1544.58 L1576.37 1544.58 L1576.37 1549.93 L1535.57 1549.93 L1535.57 1544.58 M1535.57 1557.57 L1576.37 1557.57 L1576.37 1562.98 L1535.57 1562.98 L1535.57 1557.57 Z" fill="#000000" fill-rule="nonzero" fill-opacity="1" /><path clip-path="url(#clip380)" d="M1624.18 1530.23 L1640.63 1574.19 L1634.43 1574.19 L1624.43 1547.83 L1612.15 1574.19 L1605.94 1574.19 L1621.57 1540 L1619.21 1533.7 Q1617.72 1529.69 1614.31 1529.69 L1611.25 1529.69 L1611.25 1524.66 L1614.98 1524.72 Q1622.17 1524.82 1624.18 1530.23 Z" fill="#000000" fill-rule="nonzero" fill-opacity="1" /><path clip-path="url(#clip380)" d="M1659.12 1526.67 L1664.54 1526.67 L1647.98 1580.23 L1642.57 1580.23 L1659.12 1526.67 Z" fill="#000000" fill-rule="nonzero" fill-opacity="1" /><path clip-path="url(#clip380)" d="M1691.33 1544.01 Q1690.35 1543.44 1689.17 1543.18 Q1688.02 1542.9 1686.62 1542.9 Q1681.66 1542.9 1678.99 1546.14 Q1676.34 1549.36 1676.34 1555.41 L1676.34 1574.19 L1670.46 1574.19 L1670.46 1538.54 L1676.34 1538.54 L1676.34 1544.08 Q1678.19 1540.83 1681.15 1539.27 Q1684.11 1537.68 1688.34 1537.68 Q1688.95 1537.68 1689.68 1537.77 Q1690.41 1537.84 1691.3 1538 L1691.33 1544.01 Z" fill="#000000" fill-rule="nonzero" fill-opacity="1" /><path clip-path="url(#clip380)" d="M1696.3 1570.68 L1702.79 1570.68 L1702.79 1551.24 L1695.7 1552.54 L1695.7 1548.85 L1703.02 1547.61 L1707.38 1547.61 L1707.38 1570.68 L1713.9 1570.68 L1713.9 1574.19 L1696.3 1574.19 L1696.3 1570.68 Z" fill="#000000" fill-rule="nonzero" fill-opacity="1" /><path clip-path="url(#clip380)" d="M1722.69 1524.72 L1727.78 1524.72 Q1732.55 1532.24 1734.91 1539.43 Q1737.3 1546.62 1737.3 1553.72 Q1737.3 1560.85 1734.91 1568.07 Q1732.55 1575.3 1727.78 1582.78 L1722.69 1582.78 Q1726.92 1575.49 1728.99 1568.3 Q1731.09 1561.07 1731.09 1553.72 Q1731.09 1546.37 1728.99 1539.21 Q1726.92 1532.04 1722.69 1524.72 Z" fill="#000000" fill-rule="nonzero" fill-opacity="1" /><polyline clip-path="url(#clip380)" style="stroke:#000000; stroke-linecap:round; stroke-linejoin:round; stroke-width:4; stroke-opacity:1; fill:none" points="203.964,1410.9 203.964,123.472 "/>
<polyline clip-path="url(#clip380)" style="stroke:#000000; stroke-linecap:round; stroke-linejoin:round; stroke-width:4; stroke-opacity:1; fill:none" points="203.964,1159.05 222.861,1159.05 "/>
<polyline clip-path="url(#clip380)" style="stroke:#000000; stroke-linecap:round; stroke-linejoin:round; stroke-width:4; stroke-opacity:1; fill:none" points="203.964,883.806 222.861,883.806 "/>
<polyline clip-path="url(#clip380)" style="stroke:#000000; stroke-linecap:round; stroke-linejoin:round; stroke-width:4; stroke-opacity:1; fill:none" points="203.964,608.56 222.861,608.56 "/>
<polyline clip-path="url(#clip380)" style="stroke:#000000; stroke-linecap:round; stroke-linejoin:round; stroke-width:4; stroke-opacity:1; fill:none" points="203.964,333.314 222.861,333.314 "/>
<path clip-path="url(#clip380)" d="M147.061 1141.77 L165.417 1141.77 L165.417 1145.71 L151.343 1145.71 L151.343 1154.18 Q152.362 1153.83 153.38 1153.67 Q154.399 1153.49 155.417 1153.49 Q161.204 1153.49 164.584 1156.66 Q167.964 1159.83 167.964 1165.24 Q167.964 1170.82 164.491 1173.93 Q161.019 1177 154.7 1177 Q152.524 1177 150.255 1176.63 Q148.01 1176.26 145.603 1175.52 L145.603 1170.82 Q147.686 1171.96 149.908 1172.51 Q152.13 1173.07 154.607 1173.07 Q158.612 1173.07 160.95 1170.96 Q163.288 1168.86 163.288 1165.24 Q163.288 1161.63 160.95 1159.53 Q158.612 1157.42 154.607 1157.42 Q152.732 1157.42 150.857 1157.84 Q149.005 1158.25 147.061 1159.13 L147.061 1141.77 Z" fill="#000000" fill-rule="nonzero" fill-opacity="1" /><path clip-path="url(#clip380)" d="M116.668 897.151 L124.306 897.151 L124.306 870.785 L115.996 872.452 L115.996 868.193 L124.26 866.526 L128.936 866.526 L128.936 897.151 L136.575 897.151 L136.575 901.086 L116.668 901.086 L116.668 897.151 Z" fill="#000000" fill-rule="nonzero" fill-opacity="1" /><path clip-path="url(#clip380)" d="M156.019 869.605 Q152.408 869.605 150.579 873.17 Q148.774 876.711 148.774 883.841 Q148.774 890.947 150.579 894.512 Q152.408 898.054 156.019 898.054 Q159.653 898.054 161.459 894.512 Q163.288 890.947 163.288 883.841 Q163.288 876.711 161.459 873.17 Q159.653 869.605 156.019 869.605 M156.019 865.901 Q161.829 865.901 164.885 870.508 Q167.964 875.091 167.964 883.841 Q167.964 892.568 164.885 897.174 Q161.829 901.757 156.019 901.757 Q150.209 901.757 147.13 897.174 Q144.075 892.568 144.075 883.841 Q144.075 875.091 147.13 870.508 Q150.209 865.901 156.019 865.901 Z" fill="#000000" fill-rule="nonzero" fill-opacity="1" /><path clip-path="url(#clip380)" d="M117.663 621.905 L125.302 621.905 L125.302 595.539 L116.992 597.206 L116.992 592.947 L125.255 591.28 L129.931 591.28 L129.931 621.905 L137.57 621.905 L137.57 625.84 L117.663 625.84 L117.663 621.905 Z" fill="#000000" fill-rule="nonzero" fill-opacity="1" /><path clip-path="url(#clip380)" d="M147.061 591.28 L165.417 591.28 L165.417 595.215 L151.343 595.215 L151.343 603.687 Q152.362 603.34 153.38 603.178 Q154.399 602.993 155.417 602.993 Q161.204 602.993 164.584 606.164 Q167.964 609.335 167.964 614.752 Q167.964 620.331 164.491 623.433 Q161.019 626.511 154.7 626.511 Q152.524 626.511 150.255 626.141 Q148.01 625.771 145.603 625.03 L145.603 620.331 Q147.686 621.465 149.908 622.021 Q152.13 622.576 154.607 622.576 Q158.612 622.576 160.95 620.47 Q163.288 618.363 163.288 614.752 Q163.288 611.141 160.95 609.035 Q158.612 606.928 154.607 606.928 Q152.732 606.928 150.857 607.345 Q149.005 607.761 147.061 608.641 L147.061 591.28 Z" fill="#000000" fill-rule="nonzero" fill-opacity="1" /><path clip-path="url(#clip380)" d="M119.885 346.659 L136.204 346.659 L136.204 350.594 L114.26 350.594 L114.26 346.659 Q116.922 343.904 121.505 339.274 Q126.112 334.622 127.292 333.279 Q129.538 330.756 130.417 329.02 Q131.32 327.261 131.32 325.571 Q131.32 322.816 129.376 321.08 Q127.455 319.344 124.353 319.344 Q122.154 319.344 119.7 320.108 Q117.269 320.872 114.492 322.423 L114.492 317.7 Q117.316 316.566 119.769 315.987 Q122.223 315.409 124.26 315.409 Q129.63 315.409 132.825 318.094 Q136.019 320.779 136.019 325.27 Q136.019 327.399 135.209 329.321 Q134.422 331.219 132.316 333.811 Q131.737 334.483 128.635 337.7 Q125.533 340.895 119.885 346.659 Z" fill="#000000" fill-rule="nonzero" fill-opacity="1" /><path clip-path="url(#clip380)" d="M156.019 319.112 Q152.408 319.112 150.579 322.677 Q148.774 326.219 148.774 333.349 Q148.774 340.455 150.579 344.02 Q152.408 347.561 156.019 347.561 Q159.653 347.561 161.459 344.02 Q163.288 340.455 163.288 333.349 Q163.288 326.219 161.459 322.677 Q159.653 319.112 156.019 319.112 M156.019 315.409 Q161.829 315.409 164.885 320.015 Q167.964 324.599 167.964 333.349 Q167.964 342.075 164.885 346.682 Q161.829 351.265 156.019 351.265 Q150.209 351.265 147.13 346.682 Q144.075 342.075 144.075 333.349 Q144.075 324.599 147.13 320.015 Q150.209 315.409 156.019 315.409 Z" fill="#000000" fill-rule="nonzero" fill-opacity="1" /><path clip-path="url(#clip380)" d="M20.1444 1150.62 L26.9239 1150.62 Q23.9002 1153.87 22.4043 1157.56 Q20.9083 1161.22 20.9083 1165.36 Q20.9083 1173.51 25.9054 1177.84 Q30.8707 1182.16 40.2919 1182.16 Q49.6813 1182.16 54.6784 1177.84 Q59.6436 1173.51 59.6436 1165.36 Q59.6436 1161.22 58.1477 1157.56 Q56.6518 1153.87 53.6281 1150.62 L60.3439 1150.62 Q62.6355 1154 63.7814 1157.78 Q64.9272 1161.54 64.9272 1165.74 Q64.9272 1176.53 58.3387 1182.74 Q51.7183 1188.94 40.2919 1188.94 Q28.8336 1188.94 22.2451 1182.74 Q15.6248 1176.53 15.6248 1165.74 Q15.6248 1161.48 16.7706 1157.72 Q17.8846 1153.93 20.1444 1150.62 Z" fill="#000000" fill-rule="nonzero" fill-opacity="1" /><path clip-path="url(#clip380)" d="M32.4621 1127.13 Q32.4621 1131.84 36.1542 1134.58 Q39.8145 1137.32 46.212 1137.32 Q52.6095 1137.32 56.3017 1134.61 Q59.9619 1131.88 59.9619 1127.13 Q59.9619 1122.45 56.2698 1119.72 Q52.5777 1116.98 46.212 1116.98 Q39.8781 1116.98 36.186 1119.72 Q32.4621 1122.45 32.4621 1127.13 M27.4968 1127.13 Q27.4968 1119.49 32.4621 1115.13 Q37.4273 1110.77 46.212 1110.77 Q54.9649 1110.77 59.9619 1115.13 Q64.9272 1119.49 64.9272 1127.13 Q64.9272 1134.8 59.9619 1139.16 Q54.9649 1143.49 46.212 1143.49 Q37.4273 1143.49 32.4621 1139.16 Q27.4968 1134.8 27.4968 1127.13 Z" fill="#000000" fill-rule="nonzero" fill-opacity="1" /><path clip-path="url(#clip380)" d="M33.8307 1080.41 Q33.2578 1081.4 33.0032 1082.57 Q32.7167 1083.72 32.7167 1085.12 Q32.7167 1090.08 35.9632 1092.76 Q39.1779 1095.4 45.2253 1095.4 L64.0042 1095.4 L64.0042 1101.29 L28.3562 1101.29 L28.3562 1095.4 L33.8944 1095.4 Q30.6479 1093.55 29.0883 1090.59 Q27.4968 1087.63 27.4968 1083.4 Q27.4968 1082.8 27.5923 1082.06 Q27.656 1081.33 27.8151 1080.44 L33.8307 1080.41 Z" fill="#000000" fill-rule="nonzero" fill-opacity="1" /><path clip-path="url(#clip380)" d="M33.8307 1054.76 Q33.2578 1055.74 33.0032 1056.92 Q32.7167 1058.07 32.7167 1059.47 Q32.7167 1064.43 35.9632 1067.1 Q39.1779 1069.75 45.2253 1069.75 L64.0042 1069.75 L64.0042 1075.63 L28.3562 1075.63 L28.3562 1069.75 L33.8944 1069.75 Q30.6479 1067.9 29.0883 1064.94 Q27.4968 1061.98 27.4968 1057.75 Q27.4968 1057.14 27.5923 1056.41 Q27.656 1055.68 27.8151 1054.79 L33.8307 1054.76 Z" fill="#000000" fill-rule="nonzero" fill-opacity="1" /><path clip-path="url(#clip380)" d="M44.7161 1019.55 L47.5806 1019.55 L47.5806 1046.48 Q53.6281 1046.1 56.8109 1042.85 Q59.9619 1039.57 59.9619 1033.75 Q59.9619 1030.37 59.1344 1027.22 Q58.3069 1024.04 56.6518 1020.92 L62.1899 1020.92 Q63.5267 1024.07 64.227 1027.38 Q64.9272 1030.69 64.9272 1034.1 Q64.9272 1042.63 59.9619 1047.63 Q54.9967 1052.59 46.5303 1052.59 Q37.7774 1052.59 32.6531 1047.88 Q27.4968 1043.14 27.4968 1035.12 Q27.4968 1027.92 32.1438 1023.75 Q36.7589 1019.55 44.7161 1019.55 M42.9973 1025.41 Q38.1912 1025.47 35.3266 1028.11 Q32.4621 1030.72 32.4621 1035.05 Q32.4621 1039.95 35.2312 1042.91 Q38.0002 1045.84 43.0292 1046.29 L42.9973 1025.41 Z" fill="#000000" fill-rule="nonzero" fill-opacity="1" /><path clip-path="url(#clip380)" d="M29.7248 984.287 L35.1993 984.287 Q33.8307 986.769 33.1623 989.284 Q32.4621 991.767 32.4621 994.313 Q32.4621 1000.01 36.0905 1003.16 Q39.6872 1006.31 46.212 1006.31 Q52.7369 1006.31 56.3653 1003.16 Q59.9619 1000.01 59.9619 994.313 Q59.9619 991.767 59.2935 989.284 Q58.5933 986.769 57.2247 984.287 L62.6355 984.287 Q63.7814 986.738 64.3543 989.379 Q64.9272 991.989 64.9272 994.949 Q64.9272 1003 59.8664 1007.74 Q54.8057 1012.49 46.212 1012.49 Q37.491 1012.49 32.4939 1007.71 Q27.4968 1002.91 27.4968 994.567 Q27.4968 991.862 28.0697 989.284 Q28.6108 986.706 29.7248 984.287 Z" fill="#000000" fill-rule="nonzero" fill-opacity="1" /><path clip-path="url(#clip380)" d="M18.2347 968.309 L28.3562 968.309 L28.3562 956.246 L32.9077 956.246 L32.9077 968.309 L52.2594 968.309 Q56.6199 968.309 57.8613 967.131 Q59.1026 965.922 59.1026 962.261 L59.1026 956.246 L64.0042 956.246 L64.0042 962.261 Q64.0042 969.041 61.4897 971.619 Q58.9434 974.197 52.2594 974.197 L32.9077 974.197 L32.9077 978.494 L28.3562 978.494 L28.3562 974.197 L18.2347 974.197 L18.2347 968.309 Z" fill="#000000" fill-rule="nonzero" fill-opacity="1" /><path clip-path="url(#clip380)" d="M28.3562 948.543 L28.3562 942.687 L64.0042 942.687 L64.0042 948.543 L28.3562 948.543 M14.479 948.543 L14.479 942.687 L21.895 942.687 L21.895 948.543 L14.479 948.543 Z" fill="#000000" fill-rule="nonzero" fill-opacity="1" /><path clip-path="url(#clip380)" d="M32.4621 916.619 Q32.4621 921.33 36.1542 924.067 Q39.8145 926.804 46.212 926.804 Q52.6095 926.804 56.3017 924.099 Q59.9619 921.362 59.9619 916.619 Q59.9619 911.941 56.2698 909.203 Q52.5777 906.466 46.212 906.466 Q39.8781 906.466 36.186 909.203 Q32.4621 911.941 32.4621 916.619 M27.4968 916.619 Q27.4968 908.98 32.4621 904.62 Q37.4273 900.259 46.212 900.259 Q54.9649 900.259 59.9619 904.62 Q64.9272 908.98 64.9272 916.619 Q64.9272 924.29 59.9619 928.651 Q54.9649 932.979 46.212 932.979 Q37.4273 932.979 32.4621 928.651 Q27.4968 924.29 27.4968 916.619 Z" fill="#000000" fill-rule="nonzero" fill-opacity="1" /><path clip-path="url(#clip380)" d="M42.4881 860.919 L64.0042 860.919 L64.0042 866.776 L42.679 866.776 Q37.6183 866.776 35.1038 868.749 Q32.5894 870.723 32.5894 874.669 Q32.5894 879.412 35.6131 882.149 Q38.6368 884.886 43.8567 884.886 L64.0042 884.886 L64.0042 890.775 L28.3562 890.775 L28.3562 884.886 L33.8944 884.886 Q30.6797 882.786 29.0883 879.953 Q27.4968 877.088 27.4968 873.364 Q27.4968 867.221 31.3163 864.07 Q35.1038 860.919 42.4881 860.919 Z" fill="#000000" fill-rule="nonzero" fill-opacity="1" /><path clip-path="url(#clip380)" d="M16.4842 828.263 L16.4842 800.954 L21.895 800.954 L21.895 821.834 L35.8996 821.834 L35.8996 802.991 L41.3104 802.991 L41.3104 821.834 L64.0042 821.834 L64.0042 828.263 L16.4842 828.263 Z" fill="#000000" fill-rule="nonzero" fill-opacity="1" /><path clip-path="url(#clip380)" d="M46.0847 780.807 Q46.0847 787.905 47.7079 790.642 Q49.3312 793.379 53.2461 793.379 Q56.3653 793.379 58.2114 791.342 Q60.0256 789.273 60.0256 785.74 Q60.0256 780.871 56.5881 777.942 Q53.1188 774.982 47.3897 774.982 L46.0847 774.982 L46.0847 780.807 M43.6657 769.126 L64.0042 769.126 L64.0042 774.982 L58.5933 774.982 Q61.8398 776.988 63.3994 779.979 Q64.9272 782.971 64.9272 787.3 Q64.9272 792.775 61.8716 796.021 Q58.7843 799.236 53.6281 799.236 Q47.6125 799.236 44.5569 795.225 Q41.5014 791.183 41.5014 783.194 L41.5014 774.982 L40.9285 774.982 Q36.8862 774.982 34.6901 777.656 Q32.4621 780.298 32.4621 785.104 Q32.4621 788.159 33.1941 791.056 Q33.9262 793.952 35.3903 796.626 L29.9795 796.626 Q28.7381 793.411 28.1334 790.387 Q27.4968 787.364 27.4968 784.499 Q27.4968 776.765 31.5072 772.945 Q35.5176 769.126 43.6657 769.126 Z" fill="#000000" fill-rule="nonzero" fill-opacity="1" /><path clip-path="url(#clip380)" d="M29.7248 731.409 L35.1993 731.409 Q33.8307 733.892 33.1623 736.406 Q32.4621 738.889 32.4621 741.435 Q32.4621 747.132 36.0905 750.283 Q39.6872 753.434 46.212 753.434 Q52.7369 753.434 56.3653 750.283 Q59.9619 747.132 59.9619 741.435 Q59.9619 738.889 59.2935 736.406 Q58.5933 733.892 57.2247 731.409 L62.6355 731.409 Q63.7814 733.86 64.3543 736.502 Q64.9272 739.112 64.9272 742.072 Q64.9272 750.124 59.8664 754.867 Q54.8057 759.609 46.212 759.609 Q37.491 759.609 32.4939 754.835 Q27.4968 750.029 27.4968 741.69 Q27.4968 738.984 28.0697 736.406 Q28.6108 733.828 29.7248 731.409 Z" fill="#000000" fill-rule="nonzero" fill-opacity="1" /><path clip-path="url(#clip380)" d="M18.2347 715.431 L28.3562 715.431 L28.3562 703.368 L32.9077 703.368 L32.9077 715.431 L52.2594 715.431 Q56.6199 715.431 57.8613 714.254 Q59.1026 713.044 59.1026 709.384 L59.1026 703.368 L64.0042 703.368 L64.0042 709.384 Q64.0042 716.163 61.4897 718.741 Q58.9434 721.319 52.2594 721.319 L32.9077 721.319 L32.9077 725.616 L28.3562 725.616 L28.3562 721.319 L18.2347 721.319 L18.2347 715.431 Z" fill="#000000" fill-rule="nonzero" fill-opacity="1" /><path clip-path="url(#clip380)" d="M32.4621 681.852 Q32.4621 686.563 36.1542 689.3 Q39.8145 692.037 46.212 692.037 Q52.6095 692.037 56.3017 689.332 Q59.9619 686.595 59.9619 681.852 Q59.9619 677.173 56.2698 674.436 Q52.5777 671.699 46.212 671.699 Q39.8781 671.699 36.186 674.436 Q32.4621 677.173 32.4621 681.852 M27.4968 681.852 Q27.4968 674.213 32.4621 669.853 Q37.4273 665.492 46.212 665.492 Q54.9649 665.492 59.9619 669.853 Q64.9272 674.213 64.9272 681.852 Q64.9272 689.523 59.9619 693.883 Q54.9649 698.212 46.212 698.212 Q37.4273 698.212 32.4621 693.883 Q27.4968 689.523 27.4968 681.852 Z" fill="#000000" fill-rule="nonzero" fill-opacity="1" /><path clip-path="url(#clip380)" d="M33.8307 635.128 Q33.2578 636.114 33.0032 637.292 Q32.7167 638.438 32.7167 639.838 Q32.7167 644.804 35.9632 647.477 Q39.1779 650.119 45.2253 650.119 L64.0042 650.119 L64.0042 656.007 L28.3562 656.007 L28.3562 650.119 L33.8944 650.119 Q30.6479 648.273 29.0883 645.313 Q27.4968 642.353 27.4968 638.12 Q27.4968 637.515 27.5923 636.783 Q27.656 636.051 27.8151 635.16 L33.8307 635.128 Z" fill="#000000" fill-rule="nonzero" fill-opacity="1" /><path clip-path="url(#clip380)" d="M61.808 602.408 L77.5631 602.408 L77.5631 608.296 L28.579 608.296 Q14.0652 608.296 14.0652 594.737 Q14.0652 580.924 26.3192 580.924 Q35.0402 580.924 38.223 586.398 Q41.0876 577.486 49.5858 577.486 Q64.6726 577.486 64.6726 592.828 Q64.6726 599.575 61.808 602.408 M54.1691 602.408 Q59.6755 598.875 59.6755 592.605 Q59.6755 583.438 49.6813 583.438 Q40.7057 583.438 41.4059 598.207 L35.995 598.207 Q35.995 586.653 25.8099 586.653 Q18.8395 586.653 18.8395 594.101 Q18.8395 602.408 28.77 602.408 L54.1691 602.408 Z" fill="#000000" fill-rule="nonzero" fill-opacity="1" /><path clip-path="url(#clip380)" d="M34.4036 545.18 L34.4036 504.376 L39.7508 504.376 L39.7508 545.18 L34.4036 545.18 M47.3897 545.18 L47.3897 504.376 L52.8005 504.376 L52.8005 545.18 L47.3897 545.18 Z" fill="#000000" fill-rule="nonzero" fill-opacity="1" /><path clip-path="url(#clip380)" d="M16.4842 470.351 L16.4842 463.922 L36.568 463.922 L16.4842 442.597 L16.4842 434.322 L38.6368 457.907 L64.0042 432.635 L64.0042 441.101 L41.1194 463.922 L64.0042 463.922 L64.0042 470.351 L16.4842 470.351 Z" fill="#000000" fill-rule="nonzero" fill-opacity="1" /><path clip-path="url(#clip380)" d="M16.4842 417.452 L16.4842 412.042 L70.0516 428.592 L70.0516 434.003 L16.4842 417.452 Z" fill="#000000" fill-rule="nonzero" fill-opacity="1" /><path clip-path="url(#clip380)" d="M16.4842 405.644 L16.4842 399.215 L36.568 399.215 L16.4842 377.89 L16.4842 369.614 L38.6368 393.199 L64.0042 367.927 L64.0042 376.394 L41.1194 399.215 L64.0042 399.215 L64.0042 405.644 L16.4842 405.644 Z" fill="#000000" fill-rule="nonzero" fill-opacity="1" /><path clip-path="url(#clip380)" d="M42.4562 351.154 Q39.719 352.745 39.719 355.96 Q39.719 359.174 42.4562 360.766 Q45.1935 362.389 50.668 362.389 Q56.1743 362.389 58.9116 360.766 Q61.6488 359.174 61.6488 355.96 Q61.6488 352.745 58.9116 351.154 Q56.1743 349.53 50.668 349.53 Q45.1935 349.53 42.4562 351.154 M36.8862 355.96 Q36.8862 350.835 40.4192 348.13 Q43.9522 345.424 50.668 345.424 Q57.4157 345.424 60.9486 348.13 Q64.4816 350.835 64.4816 355.96 Q64.4816 361.116 60.9486 363.821 Q57.4157 366.527 50.668 366.527 Q43.9522 366.527 40.4192 363.821 Q36.8862 361.116 36.8862 355.96 Z" fill="#000000" fill-rule="nonzero" fill-opacity="1" /><path clip-path="url(#clip380)" d="M283.539 16.7545 L283.539 25.383 Q279.407 21.5346 274.708 19.6307 Q270.049 17.7268 264.783 17.7268 Q254.413 17.7268 248.903 24.0867 Q243.394 30.4061 243.394 42.3968 Q243.394 54.3469 248.903 60.7069 Q254.413 67.0263 264.783 67.0263 Q270.049 67.0263 274.708 65.1223 Q279.407 63.2184 283.539 59.3701 L283.539 67.9175 Q279.245 70.8341 274.424 72.2924 Q269.644 73.7508 264.297 73.7508 Q250.564 73.7508 242.665 65.3654 Q234.766 56.9395 234.766 42.3968 Q234.766 27.8135 242.665 19.4281 Q250.564 11.0023 264.297 11.0023 Q269.725 11.0023 274.505 12.4606 Q279.326 13.8784 283.539 16.7545 Z" fill="#000000" fill-rule="nonzero" fill-opacity="1" /><path clip-path="url(#clip380)" d="M313.434 32.4315 Q307.439 32.4315 303.955 37.1306 Q300.471 41.7891 300.471 49.9314 Q300.471 58.0738 303.915 62.7728 Q307.399 67.4314 313.434 67.4314 Q319.389 67.4314 322.873 62.7323 Q326.357 58.0333 326.357 49.9314 Q326.357 41.8701 322.873 37.1711 Q319.389 32.4315 313.434 32.4315 M313.434 26.1121 Q323.157 26.1121 328.706 32.4315 Q334.256 38.7509 334.256 49.9314 Q334.256 61.0714 328.706 67.4314 Q323.157 73.7508 313.434 73.7508 Q303.672 73.7508 298.122 67.4314 Q292.613 61.0714 292.613 49.9314 Q292.613 38.7509 298.122 32.4315 Q303.672 26.1121 313.434 26.1121 Z" fill="#000000" fill-rule="nonzero" fill-opacity="1" /><path clip-path="url(#clip380)" d="M367.23 49.7694 Q358.197 49.7694 354.713 51.8354 Q351.229 53.9013 351.229 58.8839 Q351.229 62.8538 353.822 65.2034 Q356.455 67.5124 360.951 67.5124 Q367.149 67.5124 370.876 63.1374 Q374.644 58.7219 374.644 51.4303 L374.644 49.7694 L367.23 49.7694 M382.097 46.6907 L382.097 72.576 L374.644 72.576 L374.644 65.6895 Q372.091 69.8214 368.284 71.8063 Q364.476 73.7508 358.967 73.7508 Q351.999 73.7508 347.867 69.8619 Q343.776 65.9325 343.776 59.3701 Q343.776 51.7138 348.88 47.825 Q354.024 43.9361 364.192 43.9361 L374.644 43.9361 L374.644 43.2069 Q374.644 38.0623 371.241 35.2672 Q367.879 32.4315 361.762 32.4315 Q357.873 32.4315 354.186 33.3632 Q350.5 34.295 347.097 36.1584 L347.097 29.2718 Q351.189 27.692 355.037 26.9223 Q358.885 26.1121 362.531 26.1121 Q372.375 26.1121 377.236 31.2163 Q382.097 36.3204 382.097 46.6907 Z" fill="#000000" fill-rule="nonzero" fill-opacity="1" /><path clip-path="url(#clip380)" d="M427.305 49.3643 Q427.305 41.2625 423.943 36.8065 Q420.621 32.3505 414.585 32.3505 Q408.59 32.3505 405.228 36.8065 Q401.906 41.2625 401.906 49.3643 Q401.906 57.4256 405.228 61.8816 Q408.59 66.3376 414.585 66.3376 Q420.621 66.3376 423.943 61.8816 Q427.305 57.4256 427.305 49.3643 M434.759 66.9452 Q434.759 78.5308 429.614 84.1616 Q424.47 89.8329 413.856 89.8329 Q409.927 89.8329 406.443 89.2252 Q402.959 88.6581 399.678 87.4428 L399.678 80.1917 Q402.959 81.9741 406.16 82.8248 Q409.36 83.6755 412.682 83.6755 Q420.014 83.6755 423.659 79.8271 Q427.305 76.0193 427.305 68.282 L427.305 64.5957 Q424.996 68.6061 421.391 70.5911 Q417.786 72.576 412.763 72.576 Q404.418 72.576 399.314 66.2161 Q394.209 59.8562 394.209 49.3643 Q394.209 38.832 399.314 32.472 Q404.418 26.1121 412.763 26.1121 Q417.786 26.1121 421.391 28.0971 Q424.996 30.082 427.305 34.0924 L427.305 27.2059 L434.759 27.2059 L434.759 66.9452 Z" fill="#000000" fill-rule="nonzero" fill-opacity="1" /><path clip-path="url(#clip380)" d="M449.342 54.671 L449.342 27.2059 L456.796 27.2059 L456.796 54.3874 Q456.796 60.8284 459.307 64.0691 Q461.819 67.2693 466.842 67.2693 Q472.878 67.2693 476.362 63.421 Q479.886 59.5726 479.886 52.9291 L479.886 27.2059 L487.34 27.2059 L487.34 72.576 L479.886 72.576 L479.886 65.6084 Q477.172 69.7404 473.567 71.7658 Q470.002 73.7508 465.262 73.7508 Q457.444 73.7508 453.393 68.8897 Q449.342 64.0286 449.342 54.671 M468.098 26.1121 L468.098 26.1121 Z" fill="#000000" fill-rule="nonzero" fill-opacity="1" /><path clip-path="url(#clip380)" d="M502.693 9.54393 L510.146 9.54393 L510.146 72.576 L502.693 72.576 L502.693 9.54393 Z" fill="#000000" fill-rule="nonzero" fill-opacity="1" /><path clip-path="url(#clip380)" d="M546.361 49.7694 Q537.328 49.7694 533.844 51.8354 Q530.36 53.9013 530.36 58.8839 Q530.36 62.8538 532.953 65.2034 Q535.586 67.5124 540.082 67.5124 Q546.28 67.5124 550.007 63.1374 Q553.775 58.7219 553.775 51.4303 L553.775 49.7694 L546.361 49.7694 M561.228 46.6907 L561.228 72.576 L553.775 72.576 L553.775 65.6895 Q551.222 69.8214 547.415 71.8063 Q543.607 73.7508 538.098 73.7508 Q531.13 73.7508 526.998 69.8619 Q522.907 65.9325 522.907 59.3701 Q522.907 51.7138 528.011 47.825 Q533.155 43.9361 543.323 43.9361 L553.775 43.9361 L553.775 43.2069 Q553.775 38.0623 550.372 35.2672 Q547.009 32.4315 540.893 32.4315 Q537.004 32.4315 533.317 33.3632 Q529.631 34.295 526.228 36.1584 L526.228 29.2718 Q530.32 27.692 534.168 26.9223 Q538.016 26.1121 541.662 26.1121 Q551.506 26.1121 556.367 31.2163 Q561.228 36.3204 561.228 46.6907 Z" fill="#000000" fill-rule="nonzero" fill-opacity="1" /><path clip-path="url(#clip380)" d="M583.954 14.324 L583.954 27.2059 L599.307 27.2059 L599.307 32.9987 L583.954 32.9987 L583.954 57.6282 Q583.954 63.1779 585.453 64.7578 Q586.992 66.3376 591.65 66.3376 L599.307 66.3376 L599.307 72.576 L591.65 72.576 Q583.022 72.576 579.741 69.3758 Q576.46 66.1351 576.46 57.6282 L576.46 32.9987 L570.991 32.9987 L570.991 27.2059 L576.46 27.2059 L576.46 14.324 L583.954 14.324 Z" fill="#000000" fill-rule="nonzero" fill-opacity="1" /><path clip-path="url(#clip380)" d="M609.11 27.2059 L616.564 27.2059 L616.564 72.576 L609.11 72.576 L609.11 27.2059 M609.11 9.54393 L616.564 9.54393 L616.564 18.9825 L609.11 18.9825 L609.11 9.54393 Z" fill="#000000" fill-rule="nonzero" fill-opacity="1" /><path clip-path="url(#clip380)" d="M649.74 32.4315 Q643.745 32.4315 640.261 37.1306 Q636.778 41.7891 636.778 49.9314 Q636.778 58.0738 640.221 62.7728 Q643.705 67.4314 649.74 67.4314 Q655.695 67.4314 659.179 62.7323 Q662.663 58.0333 662.663 49.9314 Q662.663 41.8701 659.179 37.1711 Q655.695 32.4315 649.74 32.4315 M649.74 26.1121 Q659.463 26.1121 665.012 32.4315 Q670.562 38.7509 670.562 49.9314 Q670.562 61.0714 665.012 67.4314 Q659.463 73.7508 649.74 73.7508 Q639.978 73.7508 634.428 67.4314 Q628.919 61.0714 628.919 49.9314 Q628.919 38.7509 634.428 32.4315 Q639.978 26.1121 649.74 26.1121 Z" fill="#000000" fill-rule="nonzero" fill-opacity="1" /><path clip-path="url(#clip380)" d="M720.631 45.1919 L720.631 72.576 L713.178 72.576 L713.178 45.4349 Q713.178 38.994 710.666 35.7938 Q708.154 32.5936 703.131 32.5936 Q697.095 32.5936 693.612 36.4419 Q690.128 40.2903 690.128 46.9338 L690.128 72.576 L682.634 72.576 L682.634 27.2059 L690.128 27.2059 L690.128 34.2544 Q692.802 30.163 696.407 28.1376 Q700.053 26.1121 704.792 26.1121 Q712.61 26.1121 716.621 30.9732 Q720.631 35.7938 720.631 45.1919 Z" fill="#000000" fill-rule="nonzero" fill-opacity="1" /><path clip-path="url(#clip380)" d="M807.483 16.7545 L807.483 25.383 Q803.351 21.5346 798.652 19.6307 Q793.993 17.7268 788.727 17.7268 Q778.357 17.7268 772.847 24.0867 Q767.338 30.4061 767.338 42.3968 Q767.338 54.3469 772.847 60.7069 Q778.357 67.0263 788.727 67.0263 Q793.993 67.0263 798.652 65.1223 Q803.351 63.2184 807.483 59.3701 L807.483 67.9175 Q803.189 70.8341 798.368 72.2924 Q793.588 73.7508 788.241 73.7508 Q774.508 73.7508 766.609 65.3654 Q758.71 56.9395 758.71 42.3968 Q758.71 27.8135 766.609 19.4281 Q774.508 11.0023 788.241 11.0023 Q793.669 11.0023 798.449 12.4606 Q803.27 13.8784 807.483 16.7545 Z" fill="#000000" fill-rule="nonzero" fill-opacity="1" /><path clip-path="url(#clip380)" d="M837.378 32.4315 Q831.383 32.4315 827.899 37.1306 Q824.415 41.7891 824.415 49.9314 Q824.415 58.0738 827.859 62.7728 Q831.342 67.4314 837.378 67.4314 Q843.333 67.4314 846.817 62.7323 Q850.301 58.0333 850.301 49.9314 Q850.301 41.8701 846.817 37.1711 Q843.333 32.4315 837.378 32.4315 M837.378 26.1121 Q847.1 26.1121 852.65 32.4315 Q858.2 38.7509 858.2 49.9314 Q858.2 61.0714 852.65 67.4314 Q847.1 73.7508 837.378 73.7508 Q827.616 73.7508 822.066 67.4314 Q816.557 61.0714 816.557 49.9314 Q816.557 38.7509 822.066 32.4315 Q827.616 26.1121 837.378 26.1121 Z" fill="#000000" fill-rule="nonzero" fill-opacity="1" /><path clip-path="url(#clip380)" d="M896.846 34.1734 Q895.59 33.4443 894.091 33.1202 Q892.633 32.7556 890.85 32.7556 Q884.531 32.7556 881.128 36.8875 Q877.766 40.9789 877.766 48.6757 L877.766 72.576 L870.272 72.576 L870.272 27.2059 L877.766 27.2059 L877.766 34.2544 Q880.115 30.1225 883.883 28.1376 Q887.65 26.1121 893.038 26.1121 Q893.807 26.1121 894.739 26.2337 Q895.671 26.3147 896.805 26.5172 L896.846 34.1734 Z" fill="#000000" fill-rule="nonzero" fill-opacity="1" /><path clip-path="url(#clip380)" d="M929.496 34.1734 Q928.24 33.4443 926.741 33.1202 Q925.283 32.7556 923.501 32.7556 Q917.181 32.7556 913.778 36.8875 Q910.416 40.9789 910.416 48.6757 L910.416 72.576 L902.922 72.576 L902.922 27.2059 L910.416 27.2059 L910.416 34.2544 Q912.766 30.1225 916.533 28.1376 Q920.3 26.1121 925.688 26.1121 Q926.458 26.1121 927.389 26.2337 Q928.321 26.3147 929.455 26.5172 L929.496 34.1734 Z" fill="#000000" fill-rule="nonzero" fill-opacity="1" /><path clip-path="url(#clip380)" d="M974.299 48.0275 L974.299 51.6733 L940.028 51.6733 Q940.514 59.3701 944.646 63.421 Q948.819 67.4314 956.232 67.4314 Q960.526 67.4314 964.536 66.3781 Q968.587 65.3249 972.557 63.2184 L972.557 70.267 Q968.547 71.9684 964.334 72.8596 Q960.121 73.7508 955.786 73.7508 Q944.93 73.7508 938.57 67.4314 Q932.25 61.1119 932.25 50.3365 Q932.25 39.1965 938.246 32.6746 Q944.282 26.1121 954.49 26.1121 Q963.645 26.1121 968.952 32.0264 Q974.299 37.9003 974.299 48.0275 M966.845 45.84 Q966.764 39.7232 963.402 36.0774 Q960.08 32.4315 954.571 32.4315 Q948.333 32.4315 944.565 35.9558 Q940.838 39.4801 940.271 45.8805 L966.845 45.84 Z" fill="#000000" fill-rule="nonzero" fill-opacity="1" /><path clip-path="url(#clip380)" d="M1019.18 28.9478 L1019.18 35.9153 Q1016.02 34.1734 1012.82 33.3227 Q1009.66 32.4315 1006.42 32.4315 Q999.171 32.4315 995.161 37.0496 Q991.151 41.6271 991.151 49.9314 Q991.151 58.2358 995.161 62.8538 Q999.171 67.4314 1006.42 67.4314 Q1009.66 67.4314 1012.82 66.5807 Q1016.02 65.6895 1019.18 63.9476 L1019.18 70.8341 Q1016.06 72.2924 1012.7 73.0216 Q1009.38 73.7508 1005.61 73.7508 Q995.364 73.7508 989.328 67.3098 Q983.292 60.8689 983.292 49.9314 Q983.292 38.832 989.368 32.472 Q995.485 26.1121 1006.1 26.1121 Q1009.54 26.1121 1012.82 26.8413 Q1016.1 27.5299 1019.18 28.9478 Z" fill="#000000" fill-rule="nonzero" fill-opacity="1" /><path clip-path="url(#clip380)" d="M1039.52 14.324 L1039.52 27.2059 L1054.87 27.2059 L1054.87 32.9987 L1039.52 32.9987 L1039.52 57.6282 Q1039.52 63.1779 1041.02 64.7578 Q1042.56 66.3376 1047.22 66.3376 L1054.87 66.3376 L1054.87 72.576 L1047.22 72.576 Q1038.59 72.576 1035.31 69.3758 Q1032.02 66.1351 1032.02 57.6282 L1032.02 32.9987 L1026.56 32.9987 L1026.56 27.2059 L1032.02 27.2059 L1032.02 14.324 L1039.52 14.324 Z" fill="#000000" fill-rule="nonzero" fill-opacity="1" /><path clip-path="url(#clip380)" d="M1064.67 27.2059 L1072.13 27.2059 L1072.13 72.576 L1064.67 72.576 L1064.67 27.2059 M1064.67 9.54393 L1072.13 9.54393 L1072.13 18.9825 L1064.67 18.9825 L1064.67 9.54393 Z" fill="#000000" fill-rule="nonzero" fill-opacity="1" /><path clip-path="url(#clip380)" d="M1105.31 32.4315 Q1099.31 32.4315 1095.83 37.1306 Q1092.34 41.7891 1092.34 49.9314 Q1092.34 58.0738 1095.79 62.7728 Q1099.27 67.4314 1105.31 67.4314 Q1111.26 67.4314 1114.74 62.7323 Q1118.23 58.0333 1118.23 49.9314 Q1118.23 41.8701 1114.74 37.1711 Q1111.26 32.4315 1105.31 32.4315 M1105.31 26.1121 Q1115.03 26.1121 1120.58 32.4315 Q1126.13 38.7509 1126.13 49.9314 Q1126.13 61.0714 1120.58 67.4314 Q1115.03 73.7508 1105.31 73.7508 Q1095.54 73.7508 1089.99 67.4314 Q1084.48 61.0714 1084.48 49.9314 Q1084.48 38.7509 1089.99 32.4315 Q1095.54 26.1121 1105.31 26.1121 Z" fill="#000000" fill-rule="nonzero" fill-opacity="1" /><path clip-path="url(#clip380)" d="M1176.2 45.1919 L1176.2 72.576 L1168.74 72.576 L1168.74 45.4349 Q1168.74 38.994 1166.23 35.7938 Q1163.72 32.5936 1158.7 32.5936 Q1152.66 32.5936 1149.18 36.4419 Q1145.69 40.2903 1145.69 46.9338 L1145.69 72.576 L1138.2 72.576 L1138.2 27.2059 L1145.69 27.2059 L1145.69 34.2544 Q1148.37 30.163 1151.97 28.1376 Q1155.62 26.1121 1160.36 26.1121 Q1168.18 26.1121 1172.19 30.9732 Q1176.2 35.7938 1176.2 45.1919 Z" fill="#000000" fill-rule="nonzero" fill-opacity="1" /><path clip-path="url(#clip380)" d="M1217.76 12.096 L1252.51 12.096 L1252.51 18.9825 L1225.94 18.9825 L1225.94 36.8065 L1249.92 36.8065 L1249.92 43.6931 L1225.94 43.6931 L1225.94 72.576 L1217.76 72.576 L1217.76 12.096 Z" fill="#000000" fill-rule="nonzero" fill-opacity="1" /><path clip-path="url(#clip380)" d="M1278.16 49.7694 Q1269.12 49.7694 1265.64 51.8354 Q1262.16 53.9013 1262.16 58.8839 Q1262.16 62.8538 1264.75 65.2034 Q1267.38 67.5124 1271.88 67.5124 Q1278.08 67.5124 1281.8 63.1374 Q1285.57 58.7219 1285.57 51.4303 L1285.57 49.7694 L1278.16 49.7694 M1293.02 46.6907 L1293.02 72.576 L1285.57 72.576 L1285.57 65.6895 Q1283.02 69.8214 1279.21 71.8063 Q1275.4 73.7508 1269.89 73.7508 Q1262.93 73.7508 1258.79 69.8619 Q1254.7 65.9325 1254.7 59.3701 Q1254.7 51.7138 1259.81 47.825 Q1264.95 43.9361 1275.12 43.9361 L1285.57 43.9361 L1285.57 43.2069 Q1285.57 38.0623 1282.17 35.2672 Q1278.81 32.4315 1272.69 32.4315 Q1268.8 32.4315 1265.11 33.3632 Q1261.43 34.295 1258.02 36.1584 L1258.02 29.2718 Q1262.12 27.692 1265.96 26.9223 Q1269.81 26.1121 1273.46 26.1121 Q1283.3 26.1121 1288.16 31.2163 Q1293.02 36.3204 1293.02 46.6907 Z" fill="#000000" fill-rule="nonzero" fill-opacity="1" /><path clip-path="url(#clip380)" d="M1341.03 28.9478 L1341.03 35.9153 Q1337.87 34.1734 1334.67 33.3227 Q1331.51 32.4315 1328.27 32.4315 Q1321.02 32.4315 1317.01 37.0496 Q1312.99 41.6271 1312.99 49.9314 Q1312.99 58.2358 1317.01 62.8538 Q1321.02 67.4314 1328.27 67.4314 Q1331.51 67.4314 1334.67 66.5807 Q1337.87 65.6895 1341.03 63.9476 L1341.03 70.8341 Q1337.91 72.2924 1334.55 73.0216 Q1331.22 73.7508 1327.46 73.7508 Q1317.21 73.7508 1311.17 67.3098 Q1305.14 60.8689 1305.14 49.9314 Q1305.14 38.832 1311.21 32.472 Q1317.33 26.1121 1327.94 26.1121 Q1331.39 26.1121 1334.67 26.8413 Q1337.95 27.5299 1341.03 28.9478 Z" fill="#000000" fill-rule="nonzero" fill-opacity="1" /><path clip-path="url(#clip380)" d="M1361.36 14.324 L1361.36 27.2059 L1376.72 27.2059 L1376.72 32.9987 L1361.36 32.9987 L1361.36 57.6282 Q1361.36 63.1779 1362.86 64.7578 Q1364.4 66.3376 1369.06 66.3376 L1376.72 66.3376 L1376.72 72.576 L1369.06 72.576 Q1360.43 72.576 1357.15 69.3758 Q1353.87 66.1351 1353.87 57.6282 L1353.87 32.9987 L1348.4 32.9987 L1348.4 27.2059 L1353.87 27.2059 L1353.87 14.324 L1361.36 14.324 Z" fill="#000000" fill-rule="nonzero" fill-opacity="1" /><path clip-path="url(#clip380)" d="M1404.1 32.4315 Q1398.1 32.4315 1394.62 37.1306 Q1391.14 41.7891 1391.14 49.9314 Q1391.14 58.0738 1394.58 62.7728 Q1398.06 67.4314 1404.1 67.4314 Q1410.05 67.4314 1413.54 62.7323 Q1417.02 58.0333 1417.02 49.9314 Q1417.02 41.8701 1413.54 37.1711 Q1410.05 32.4315 1404.1 32.4315 M1404.1 26.1121 Q1413.82 26.1121 1419.37 32.4315 Q1424.92 38.7509 1424.92 49.9314 Q1424.92 61.0714 1419.37 67.4314 Q1413.82 73.7508 1404.1 73.7508 Q1394.34 73.7508 1388.79 67.4314 Q1383.28 61.0714 1383.28 49.9314 Q1383.28 38.7509 1388.79 32.4315 Q1394.34 26.1121 1404.1 26.1121 Z" fill="#000000" fill-rule="nonzero" fill-opacity="1" /><path clip-path="url(#clip380)" d="M1463.57 34.1734 Q1462.31 33.4443 1460.81 33.1202 Q1459.35 32.7556 1457.57 32.7556 Q1451.25 32.7556 1447.85 36.8875 Q1444.49 40.9789 1444.49 48.6757 L1444.49 72.576 L1436.99 72.576 L1436.99 27.2059 L1444.49 27.2059 L1444.49 34.2544 Q1446.84 30.1225 1450.6 28.1376 Q1454.37 26.1121 1459.76 26.1121 Q1460.53 26.1121 1461.46 26.2337 Q1462.39 26.3147 1463.53 26.5172 L1463.57 34.1734 Z" fill="#000000" fill-rule="nonzero" fill-opacity="1" /><path clip-path="url(#clip380)" d="M1493.99 46.9338 L1568.85 46.9338 L1568.85 52.7671 L1493.99 52.7671 L1493.99 46.9338 Z" fill="#000000" fill-rule="nonzero" fill-opacity="1" /><path clip-path="url(#clip380)" d="M1599.03 12.096 L1650.19 12.096 L1650.19 18.9825 L1628.72 18.9825 L1628.72 72.576 L1620.5 72.576 L1620.5 18.9825 L1599.03 18.9825 L1599.03 12.096 Z" fill="#000000" fill-rule="nonzero" fill-opacity="1" /><path clip-path="url(#clip380)" d="M1664.65 49.7694 Q1655.62 49.7694 1652.14 51.8354 Q1648.65 53.9013 1648.65 58.8839 Q1648.65 62.8538 1651.25 65.2034 Q1653.88 67.5124 1658.38 67.5124 Q1664.57 67.5124 1668.3 63.1374 Q1672.07 58.7219 1672.07 51.4303 L1672.07 49.7694 L1664.65 49.7694 M1679.52 46.6907 L1679.52 72.576 L1672.07 72.576 L1672.07 65.6895 Q1669.52 69.8214 1665.71 71.8063 Q1661.9 73.7508 1656.39 73.7508 Q1649.42 73.7508 1645.29 69.8619 Q1641.2 65.9325 1641.2 59.3701 Q1641.2 51.7138 1646.3 47.825 Q1651.45 43.9361 1661.62 43.9361 L1672.07 43.9361 L1672.07 43.2069 Q1672.07 38.0623 1668.66 35.2672 Q1665.3 32.4315 1659.19 32.4315 Q1655.3 32.4315 1651.61 33.3632 Q1647.92 34.295 1644.52 36.1584 L1644.52 29.2718 Q1648.61 27.692 1652.46 26.9223 Q1656.31 26.1121 1659.95 26.1121 Q1669.8 26.1121 1674.66 31.2163 Q1679.52 36.3204 1679.52 46.6907 Z" fill="#000000" fill-rule="nonzero" fill-opacity="1" /><path clip-path="url(#clip380)" d="M1727.44 49.9314 Q1727.44 41.7081 1724.04 37.0496 Q1720.68 32.3505 1714.76 32.3505 Q1708.85 32.3505 1705.45 37.0496 Q1702.08 41.7081 1702.08 49.9314 Q1702.08 58.1548 1705.45 62.8538 Q1708.85 67.5124 1714.76 67.5124 Q1720.68 67.5124 1724.04 62.8538 Q1727.44 58.1548 1727.44 49.9314 M1702.08 34.0924 Q1704.43 30.0415 1708 28.0971 Q1711.6 26.1121 1716.59 26.1121 Q1724.85 26.1121 1730 32.6746 Q1735.18 39.2371 1735.18 49.9314 Q1735.18 60.6258 1730 67.1883 Q1724.85 73.7508 1716.59 73.7508 Q1711.6 73.7508 1708 71.8063 Q1704.43 69.8214 1702.08 65.7705 L1702.08 72.576 L1694.59 72.576 L1694.59 9.54393 L1702.08 9.54393 L1702.08 34.0924 Z" fill="#000000" fill-rule="nonzero" fill-opacity="1" /><path clip-path="url(#clip380)" d="M1747.54 9.54393 L1754.99 9.54393 L1754.99 72.576 L1747.54 72.576 L1747.54 9.54393 Z" fill="#000000" fill-rule="nonzero" fill-opacity="1" /><path clip-path="url(#clip380)" d="M1809.39 48.0275 L1809.39 51.6733 L1775.12 51.6733 Q1775.61 59.3701 1779.74 63.421 Q1783.91 67.4314 1791.33 67.4314 Q1795.62 67.4314 1799.63 66.3781 Q1803.68 65.3249 1807.65 63.2184 L1807.65 70.267 Q1803.64 71.9684 1799.43 72.8596 Q1795.21 73.7508 1790.88 73.7508 Q1780.02 73.7508 1773.66 67.4314 Q1767.34 61.1119 1767.34 50.3365 Q1767.34 39.1965 1773.34 32.6746 Q1779.38 26.1121 1789.58 26.1121 Q1798.74 26.1121 1804.05 32.0264 Q1809.39 37.9003 1809.39 48.0275 M1801.94 45.84 Q1801.86 39.7232 1798.5 36.0774 Q1795.17 32.4315 1789.66 32.4315 Q1783.43 32.4315 1779.66 35.9558 Q1775.93 39.4801 1775.37 45.8805 L1801.94 45.84 Z" fill="#000000" fill-rule="nonzero" fill-opacity="1" /><path clip-path="url(#clip380)" d="M1856.1 65.6895 L1884.66 65.6895 L1884.66 72.576 L1846.26 72.576 L1846.26 65.6895 Q1850.91 60.8689 1858.94 52.7671 Q1867 44.6248 1869.06 42.2752 Q1872.99 37.8598 1874.53 34.8216 Q1876.11 31.7429 1876.11 28.7857 Q1876.11 23.9651 1872.71 20.927 Q1869.35 17.8888 1863.92 17.8888 Q1860.07 17.8888 1855.78 19.2256 Q1851.52 20.5624 1846.66 23.2765 L1846.66 15.0127 Q1851.6 13.0277 1855.9 12.015 Q1860.19 11.0023 1863.76 11.0023 Q1873.15 11.0023 1878.74 15.7013 Q1884.33 20.4004 1884.33 28.2591 Q1884.33 31.9859 1882.92 35.3482 Q1881.54 38.6699 1877.85 43.2069 Q1876.84 44.3817 1871.41 50.0125 Q1865.98 55.6027 1856.1 65.6895 Z" fill="#000000" fill-rule="nonzero" fill-opacity="1" /><path clip-path="url(#clip380)" d="M1943.07 72.576 L1919.98 12.096 L1928.53 12.096 L1947.69 63.0159 L1966.89 12.096 L1975.4 12.096 L1952.35 72.576 L1943.07 72.576 Z" fill="#000000" fill-rule="nonzero" fill-opacity="1" /><path clip-path="url(#clip380)" d="M1998.08 49.7694 Q1989.05 49.7694 1985.57 51.8354 Q1982.08 53.9013 1982.08 58.8839 Q1982.08 62.8538 1984.68 65.2034 Q1987.31 67.5124 1991.8 67.5124 Q1998 67.5124 2001.73 63.1374 Q2005.5 58.7219 2005.5 51.4303 L2005.5 49.7694 L1998.08 49.7694 M2012.95 46.6907 L2012.95 72.576 L2005.5 72.576 L2005.5 65.6895 Q2002.94 69.8214 1999.14 71.8063 Q1995.33 73.7508 1989.82 73.7508 Q1982.85 73.7508 1978.72 69.8619 Q1974.63 65.9325 1974.63 59.3701 Q1974.63 51.7138 1979.73 47.825 Q1984.88 43.9361 1995.05 43.9361 L2005.5 43.9361 L2005.5 43.2069 Q2005.5 38.0623 2002.09 35.2672 Q1998.73 32.4315 1992.62 32.4315 Q1988.73 32.4315 1985.04 33.3632 Q1981.35 34.295 1977.95 36.1584 L1977.95 29.2718 Q1982.04 27.692 1985.89 26.9223 Q1989.74 26.1121 1993.38 26.1121 Q2003.23 26.1121 2008.09 31.2163 Q2012.95 36.3204 2012.95 46.6907 Z" fill="#000000" fill-rule="nonzero" fill-opacity="1" /><path clip-path="url(#clip380)" d="M2028.3 9.54393 L2035.76 9.54393 L2035.76 72.576 L2028.3 72.576 L2028.3 9.54393 Z" fill="#000000" fill-rule="nonzero" fill-opacity="1" /><path clip-path="url(#clip380)" d="M2051.35 27.2059 L2058.81 27.2059 L2058.81 72.576 L2051.35 72.576 L2051.35 27.2059 M2051.35 9.54393 L2058.81 9.54393 L2058.81 18.9825 L2051.35 18.9825 L2051.35 9.54393 Z" fill="#000000" fill-rule="nonzero" fill-opacity="1" /><path clip-path="url(#clip380)" d="M2104.26 34.0924 L2104.26 9.54393 L2111.71 9.54393 L2111.71 72.576 L2104.26 72.576 L2104.26 65.7705 Q2101.91 69.8214 2098.3 71.8063 Q2094.74 73.7508 2089.72 73.7508 Q2081.49 73.7508 2076.31 67.1883 Q2071.16 60.6258 2071.16 49.9314 Q2071.16 39.2371 2076.31 32.6746 Q2081.49 26.1121 2089.72 26.1121 Q2094.74 26.1121 2098.3 28.0971 Q2101.91 30.0415 2104.26 34.0924 M2078.86 49.9314 Q2078.86 58.1548 2082.22 62.8538 Q2085.62 67.5124 2091.54 67.5124 Q2097.45 67.5124 2100.86 62.8538 Q2104.26 58.1548 2104.26 49.9314 Q2104.26 41.7081 2100.86 37.0496 Q2097.45 32.3505 2091.54 32.3505 Q2085.62 32.3505 2082.22 37.0496 Q2078.86 41.7081 2078.86 49.9314 Z" fill="#000000" fill-rule="nonzero" fill-opacity="1" /><path clip-path="url(#clip380)" d="M2147.68 49.7694 Q2138.65 49.7694 2135.17 51.8354 Q2131.68 53.9013 2131.68 58.8839 Q2131.68 62.8538 2134.28 65.2034 Q2136.91 67.5124 2141.4 67.5124 Q2147.6 67.5124 2151.33 63.1374 Q2155.1 58.7219 2155.1 51.4303 L2155.1 49.7694 L2147.68 49.7694 M2162.55 46.6907 L2162.55 72.576 L2155.1 72.576 L2155.1 65.6895 Q2152.54 69.8214 2148.74 71.8063 Q2144.93 73.7508 2139.42 73.7508 Q2132.45 73.7508 2128.32 69.8619 Q2124.23 65.9325 2124.23 59.3701 Q2124.23 51.7138 2129.33 47.825 Q2134.48 43.9361 2144.65 43.9361 L2155.1 43.9361 L2155.1 43.2069 Q2155.1 38.0623 2151.69 35.2672 Q2148.33 32.4315 2142.22 32.4315 Q2138.33 32.4315 2134.64 33.3632 Q2130.95 34.295 2127.55 36.1584 L2127.55 29.2718 Q2131.64 27.692 2135.49 26.9223 Q2139.34 26.1121 2142.98 26.1121 Q2152.83 26.1121 2157.69 31.2163 Q2162.55 36.3204 2162.55 46.6907 Z" fill="#000000" fill-rule="nonzero" fill-opacity="1" /><path clip-path="url(#clip380)" d="M2185.28 14.324 L2185.28 27.2059 L2200.63 27.2059 L2200.63 32.9987 L2185.28 32.9987 L2185.28 57.6282 Q2185.28 63.1779 2186.78 64.7578 Q2188.31 66.3376 2192.97 66.3376 L2200.63 66.3376 L2200.63 72.576 L2192.97 72.576 Q2184.34 72.576 2181.06 69.3758 Q2177.78 66.1351 2177.78 57.6282 L2177.78 32.9987 L2172.31 32.9987 L2172.31 27.2059 L2177.78 27.2059 L2177.78 14.324 L2185.28 14.324 Z" fill="#000000" fill-rule="nonzero" fill-opacity="1" /><path clip-path="url(#clip380)" d="M2210.43 27.2059 L2217.89 27.2059 L2217.89 72.576 L2210.43 72.576 L2210.43 27.2059 M2210.43 9.54393 L2217.89 9.54393 L2217.89 18.9825 L2210.43 18.9825 L2210.43 9.54393 Z" fill="#000000" fill-rule="nonzero" fill-opacity="1" /><path clip-path="url(#clip380)" d="M2251.06 32.4315 Q2245.07 32.4315 2241.58 37.1306 Q2238.1 41.7891 2238.1 49.9314 Q2238.1 58.0738 2241.54 62.7728 Q2245.03 67.4314 2251.06 67.4314 Q2257.02 67.4314 2260.5 62.7323 Q2263.99 58.0333 2263.99 49.9314 Q2263.99 41.8701 2260.5 37.1711 Q2257.02 32.4315 2251.06 32.4315 M2251.06 26.1121 Q2260.79 26.1121 2266.33 32.4315 Q2271.88 38.7509 2271.88 49.9314 Q2271.88 61.0714 2266.33 67.4314 Q2260.79 73.7508 2251.06 73.7508 Q2241.3 73.7508 2235.75 67.4314 Q2230.24 61.0714 2230.24 49.9314 Q2230.24 38.7509 2235.75 32.4315 Q2241.3 26.1121 2251.06 26.1121 Z" fill="#000000" fill-rule="nonzero" fill-opacity="1" /><path clip-path="url(#clip380)" d="M2321.95 45.1919 L2321.95 72.576 L2314.5 72.576 L2314.5 45.4349 Q2314.5 38.994 2311.99 35.7938 Q2309.48 32.5936 2304.45 32.5936 Q2298.42 32.5936 2294.93 36.4419 Q2291.45 40.2903 2291.45 46.9338 L2291.45 72.576 L2283.96 72.576 L2283.96 27.2059 L2291.45 27.2059 L2291.45 34.2544 Q2294.12 30.163 2297.73 28.1376 Q2301.38 26.1121 2306.11 26.1121 Q2313.93 26.1121 2317.94 30.9732 Q2321.95 35.7938 2321.95 45.1919 Z" fill="#000000" fill-rule="nonzero" fill-opacity="1" /><polyline clip-path="url(#clip382)" style="stroke:#009af9; stroke-linecap:round; stroke-linejoin:round; stroke-width:0; stroke-opacity:1; fill:none" points="264.778,1373.96 386.826,1367.47 548.164,1346.55 607.409,1331.63 670.211,1308.68 792.258,1232.76 863.651,1161.2 953.596,1033.49 1012.84,925.093 1036.35,877.2 1075.64,792.975 1107.75,720.86 1147.04,632.782 1197.69,523.784 1269.08,391.666 1359.03,275.512 1418.27,228.72 1481.08,197.893 1603.12,170.919 1764.46,162.111 1886.51,160.459 2291.94,159.909 "/>
<circle clip-path="url(#clip382)" cx="264.778" cy="1373.96" r="18" fill="#009af9" fill-rule="evenodd" fill-opacity="1" stroke="#000000" stroke-opacity="1" stroke-width="3.2"/>
<circle clip-path="url(#clip382)" cx="386.826" cy="1367.47" r="18" fill="#009af9" fill-rule="evenodd" fill-opacity="1" stroke="#000000" stroke-opacity="1" stroke-width="3.2"/>
<circle clip-path="url(#clip382)" cx="548.164" cy="1346.55" r="18" fill="#009af9" fill-rule="evenodd" fill-opacity="1" stroke="#000000" stroke-opacity="1" stroke-width="3.2"/>
<circle clip-path="url(#clip382)" cx="607.409" cy="1331.63" r="18" fill="#009af9" fill-rule="evenodd" fill-opacity="1" stroke="#000000" stroke-opacity="1" stroke-width="3.2"/>
<circle clip-path="url(#clip382)" cx="670.211" cy="1308.68" r="18" fill="#009af9" fill-rule="evenodd" fill-opacity="1" stroke="#000000" stroke-opacity="1" stroke-width="3.2"/>
<circle clip-path="url(#clip382)" cx="792.258" cy="1232.76" r="18" fill="#009af9" fill-rule="evenodd" fill-opacity="1" stroke="#000000" stroke-opacity="1" stroke-width="3.2"/>
<circle clip-path="url(#clip382)" cx="863.651" cy="1161.2" r="18" fill="#009af9" fill-rule="evenodd" fill-opacity="1" stroke="#000000" stroke-opacity="1" stroke-width="3.2"/>
<circle clip-path="url(#clip382)" cx="953.596" cy="1033.49" r="18" fill="#009af9" fill-rule="evenodd" fill-opacity="1" stroke="#000000" stroke-opacity="1" stroke-width="3.2"/>
<circle clip-path="url(#clip382)" cx="1012.84" cy="925.093" r="18" fill="#009af9" fill-rule="evenodd" fill-opacity="1" stroke="#000000" stroke-opacity="1" stroke-width="3.2"/>
<circle clip-path="url(#clip382)" cx="1036.35" cy="877.2" r="18" fill="#009af9" fill-rule="evenodd" fill-opacity="1" stroke="#000000" stroke-opacity="1" stroke-width="3.2"/>
<circle clip-path="url(#clip382)" cx="1075.64" cy="792.975" r="18" fill="#009af9" fill-rule="evenodd" fill-opacity="1" stroke="#000000" stroke-opacity="1" stroke-width="3.2"/>
<circle clip-path="url(#clip382)" cx="1107.75" cy="720.86" r="18" fill="#009af9" fill-rule="evenodd" fill-opacity="1" stroke="#000000" stroke-opacity="1" stroke-width="3.2"/>
<circle clip-path="url(#clip382)" cx="1147.04" cy="632.782" r="18" fill="#009af9" fill-rule="evenodd" fill-opacity="1" stroke="#000000" stroke-opacity="1" stroke-width="3.2"/>
<circle clip-path="url(#clip382)" cx="1197.69" cy="523.784" r="18" fill="#009af9" fill-rule="evenodd" fill-opacity="1" stroke="#000000" stroke-opacity="1" stroke-width="3.2"/>
<circle clip-path="url(#clip382)" cx="1269.08" cy="391.666" r="18" fill="#009af9" fill-rule="evenodd" fill-opacity="1" stroke="#000000" stroke-opacity="1" stroke-width="3.2"/>
<circle clip-path="url(#clip382)" cx="1359.03" cy="275.512" r="18" fill="#009af9" fill-rule="evenodd" fill-opacity="1" stroke="#000000" stroke-opacity="1" stroke-width="3.2"/>
<circle clip-path="url(#clip382)" cx="1418.27" cy="228.72" r="18" fill="#009af9" fill-rule="evenodd" fill-opacity="1" stroke="#000000" stroke-opacity="1" stroke-width="3.2"/>
<circle clip-path="url(#clip382)" cx="1481.08" cy="197.893" r="18" fill="#009af9" fill-rule="evenodd" fill-opacity="1" stroke="#000000" stroke-opacity="1" stroke-width="3.2"/>
<circle clip-path="url(#clip382)" cx="1603.12" cy="170.919" r="18" fill="#009af9" fill-rule="evenodd" fill-opacity="1" stroke="#000000" stroke-opacity="1" stroke-width="3.2"/>
<circle clip-path="url(#clip382)" cx="1764.46" cy="162.111" r="18" fill="#009af9" fill-rule="evenodd" fill-opacity="1" stroke="#000000" stroke-opacity="1" stroke-width="3.2"/>
<circle clip-path="url(#clip382)" cx="1886.51" cy="160.459" r="18" fill="#009af9" fill-rule="evenodd" fill-opacity="1" stroke="#000000" stroke-opacity="1" stroke-width="3.2"/>
<circle clip-path="url(#clip382)" cx="2291.94" cy="159.909" r="18" fill="#009af9" fill-rule="evenodd" fill-opacity="1" stroke="#000000" stroke-opacity="1" stroke-width="3.2"/>
<polyline clip-path="url(#clip382)" style="stroke:#e26f46; stroke-linecap:round; stroke-linejoin:round; stroke-width:8; stroke-opacity:1; fill:none" points="264.778,1373.98 386.826,1367.45 548.164,1346.55 607.409,1331.62 670.211,1308.72 792.258,1232.85 863.651,1161.33 953.596,1033.76 1012.84,925.326 1036.35,877.757 1075.64,793.461 1107.75,721.738 1147.04,633.717 1197.69,525.024 1269.08,393.712 1359.03,278.459 1418.27,231.785 1481.08,201.217 1603.12,174.472 1764.46,165.553 1886.51,164.154 2291.94,163.675 "/>
<polyline clip-path="url(#clip382)" style="stroke:#3da44d; stroke-linecap:round; stroke-linejoin:round; stroke-width:0; stroke-opacity:1; fill:none" points="264.778,1374.46 386.826,1368.02 548.164,1347.54 607.409,1332.95 670.211,1310.6 792.258,1237.28 863.651,1168.74 953.596,1046.86 1012.84,942.929 1036.35,896.743 1075.64,814.444 1107.75,742.88 1147.04,654.251 1197.69,541.4 1269.08,401.575 1359.03,276.063 1418.27,227.069 1481.08,196.241 1603.12,170.919 1764.46,162.661 1886.51,161.56 2291.94,161.56 "/>
<path clip-path="url(#clip382)" d="M248.778 1358.46 L248.778 1390.46 L280.778 1390.46 L280.778 1358.46 L248.778 1358.46 Z" fill="#3da44d" fill-rule="evenodd" fill-opacity="1" stroke="#000000" stroke-opacity="1" stroke-width="3.2"/>
<path clip-path="url(#clip382)" d="M370.826 1352.02 L370.826 1384.02 L402.826 1384.02 L402.826 1352.02 L370.826 1352.02 Z" fill="#3da44d" fill-rule="evenodd" fill-opacity="1" stroke="#000000" stroke-opacity="1" stroke-width="3.2"/>
<path clip-path="url(#clip382)" d="M532.164 1331.54 L532.164 1363.54 L564.164 1363.54 L564.164 1331.54 L532.164 1331.54 Z" fill="#3da44d" fill-rule="evenodd" fill-opacity="1" stroke="#000000" stroke-opacity="1" stroke-width="3.2"/>
<path clip-path="url(#clip382)" d="M591.409 1316.95 L591.409 1348.95 L623.409 1348.95 L623.409 1316.95 L591.409 1316.95 Z" fill="#3da44d" fill-rule="evenodd" fill-opacity="1" stroke="#000000" stroke-opacity="1" stroke-width="3.2"/>
<path clip-path="url(#clip382)" d="M654.211 1294.6 L654.211 1326.6 L686.211 1326.6 L686.211 1294.6 L654.211 1294.6 Z" fill="#3da44d" fill-rule="evenodd" fill-opacity="1" stroke="#000000" stroke-opacity="1" stroke-width="3.2"/>
<path clip-path="url(#clip382)" d="M776.258 1221.28 L776.258 1253.28 L808.258 1253.28 L808.258 1221.28 L776.258 1221.28 Z" fill="#3da44d" fill-rule="evenodd" fill-opacity="1" stroke="#000000" stroke-opacity="1" stroke-width="3.2"/>
<path clip-path="url(#clip382)" d="M847.651 1152.74 L847.651 1184.74 L879.651 1184.74 L879.651 1152.74 L847.651 1152.74 Z" fill="#3da44d" fill-rule="evenodd" fill-opacity="1" stroke="#000000" stroke-opacity="1" stroke-width="3.2"/>
<path clip-path="url(#clip382)" d="M937.596 1030.86 L937.596 1062.86 L969.596 1062.86 L969.596 1030.86 L937.596 1030.86 Z" fill="#3da44d" fill-rule="evenodd" fill-opacity="1" stroke="#000000" stroke-opacity="1" stroke-width="3.2"/>
<path clip-path="url(#clip382)" d="M996.841 926.929 L996.841 958.929 L1028.84 958.929 L1028.84 926.929 L996.841 926.929 Z" fill="#3da44d" fill-rule="evenodd" fill-opacity="1" stroke="#000000" stroke-opacity="1" stroke-width="3.2"/>
<path clip-path="url(#clip382)" d="M1020.35 880.743 L1020.35 912.743 L1052.35 912.743 L1052.35 880.743 L1020.35 880.743 Z" fill="#3da44d" fill-rule="evenodd" fill-opacity="1" stroke="#000000" stroke-opacity="1" stroke-width="3.2"/>
<path clip-path="url(#clip382)" d="M1059.64 798.444 L1059.64 830.444 L1091.64 830.444 L1091.64 798.444 L1059.64 798.444 Z" fill="#3da44d" fill-rule="evenodd" fill-opacity="1" stroke="#000000" stroke-opacity="1" stroke-width="3.2"/>
<path clip-path="url(#clip382)" d="M1091.75 726.88 L1091.75 758.88 L1123.75 758.88 L1123.75 726.88 L1091.75 726.88 Z" fill="#3da44d" fill-rule="evenodd" fill-opacity="1" stroke="#000000" stroke-opacity="1" stroke-width="3.2"/>
<path clip-path="url(#clip382)" d="M1131.04 638.251 L1131.04 670.251 L1163.04 670.251 L1163.04 638.251 L1131.04 638.251 Z" fill="#3da44d" fill-rule="evenodd" fill-opacity="1" stroke="#000000" stroke-opacity="1" stroke-width="3.2"/>
<path clip-path="url(#clip382)" d="M1181.69 525.4 L1181.69 557.4 L1213.69 557.4 L1213.69 525.4 L1181.69 525.4 Z" fill="#3da44d" fill-rule="evenodd" fill-opacity="1" stroke="#000000" stroke-opacity="1" stroke-width="3.2"/>
<path clip-path="url(#clip382)" d="M1253.08 385.575 L1253.08 417.575 L1285.08 417.575 L1285.08 385.575 L1253.08 385.575 Z" fill="#3da44d" fill-rule="evenodd" fill-opacity="1" stroke="#000000" stroke-opacity="1" stroke-width="3.2"/>
<path clip-path="url(#clip382)" d="M1343.03 260.063 L1343.03 292.063 L1375.03 292.063 L1375.03 260.063 L1343.03 260.063 Z" fill="#3da44d" fill-rule="evenodd" fill-opacity="1" stroke="#000000" stroke-opacity="1" stroke-width="3.2"/>
<path clip-path="url(#clip382)" d="M1402.27 211.069 L1402.27 243.069 L1434.27 243.069 L1434.27 211.069 L1402.27 211.069 Z" fill="#3da44d" fill-rule="evenodd" fill-opacity="1" stroke="#000000" stroke-opacity="1" stroke-width="3.2"/>
<path clip-path="url(#clip382)" d="M1465.08 180.241 L1465.08 212.241 L1497.08 212.241 L1497.08 180.241 L1465.08 180.241 Z" fill="#3da44d" fill-rule="evenodd" fill-opacity="1" stroke="#000000" stroke-opacity="1" stroke-width="3.2"/>
<path clip-path="url(#clip382)" d="M1587.12 154.919 L1587.12 186.919 L1619.12 186.919 L1619.12 154.919 L1587.12 154.919 Z" fill="#3da44d" fill-rule="evenodd" fill-opacity="1" stroke="#000000" stroke-opacity="1" stroke-width="3.2"/>
<path clip-path="url(#clip382)" d="M1748.46 146.661 L1748.46 178.661 L1780.46 178.661 L1780.46 146.661 L1748.46 146.661 Z" fill="#3da44d" fill-rule="evenodd" fill-opacity="1" stroke="#000000" stroke-opacity="1" stroke-width="3.2"/>
<path clip-path="url(#clip382)" d="M1870.51 145.56 L1870.51 177.56 L1902.51 177.56 L1902.51 145.56 L1870.51 145.56 Z" fill="#3da44d" fill-rule="evenodd" fill-opacity="1" stroke="#000000" stroke-opacity="1" stroke-width="3.2"/>
<path clip-path="url(#clip382)" d="M2275.94 145.56 L2275.94 177.56 L2307.94 177.56 L2307.94 145.56 L2275.94 145.56 Z" fill="#3da44d" fill-rule="evenodd" fill-opacity="1" stroke="#000000" stroke-opacity="1" stroke-width="3.2"/>
<path clip-path="url(#clip380)" d="M1504.84 373.746 L2281.13 373.746 L2281.13 166.386 L1504.84 166.386  Z" fill="#ffffff" fill-rule="evenodd" fill-opacity="1"/>
<polyline clip-path="url(#clip380)" style="stroke:#000000; stroke-linecap:round; stroke-linejoin:round; stroke-width:4; stroke-opacity:1; fill:none" points="1504.84,373.746 2281.13,373.746 2281.13,166.386 1504.84,166.386 1504.84,373.746 "/>
<polyline clip-path="url(#clip380)" style="stroke:#009af9; stroke-linecap:round; stroke-linejoin:round; stroke-width:0.8; stroke-opacity:1; fill:none" points="1528.72,218.226 1671.97,218.226 "/>
<circle clip-path="url(#clip380)" cx="1600.34" cy="218.226" r="19.8962" fill="#009af9" fill-rule="evenodd" fill-opacity="1" stroke="#000000" stroke-opacity="1" stroke-width="3.72364"/>
<path clip-path="url(#clip380)" d="M1695.84 200.946 L1725.08 200.946 L1725.08 204.881 L1712.81 204.881 L1712.81 235.506 L1708.11 235.506 L1708.11 204.881 L1695.84 204.881 L1695.84 200.946 Z" fill="#000000" fill-rule="nonzero" fill-opacity="1" /><path clip-path="url(#clip380)" d="M1733.34 222.474 Q1728.18 222.474 1726.19 223.654 Q1724.2 224.835 1724.2 227.682 Q1724.2 229.951 1725.68 231.293 Q1727.19 232.613 1729.76 232.613 Q1733.3 232.613 1735.43 230.113 Q1737.58 227.59 1737.58 223.423 L1737.58 222.474 L1733.34 222.474 M1741.84 220.715 L1741.84 235.506 L1737.58 235.506 L1737.58 231.571 Q1736.12 233.932 1733.95 235.066 Q1731.77 236.178 1728.62 236.178 Q1724.64 236.178 1722.28 233.955 Q1719.94 231.71 1719.94 227.96 Q1719.94 223.585 1722.86 221.363 Q1725.8 219.141 1731.61 219.141 L1737.58 219.141 L1737.58 218.724 Q1737.58 215.784 1735.64 214.187 Q1733.72 212.567 1730.22 212.567 Q1728 212.567 1725.89 213.099 Q1723.78 213.631 1721.84 214.696 L1721.84 210.761 Q1724.18 209.858 1726.38 209.418 Q1728.58 208.955 1730.66 208.955 Q1736.28 208.955 1739.06 211.872 Q1741.84 214.789 1741.84 220.715 Z" fill="#000000" fill-rule="nonzero" fill-opacity="1" /><path clip-path="url(#clip380)" d="M1769.22 222.567 Q1769.22 217.867 1767.28 215.205 Q1765.36 212.52 1761.98 212.52 Q1758.6 212.52 1756.65 215.205 Q1754.73 217.867 1754.73 222.567 Q1754.73 227.266 1756.65 229.951 Q1758.6 232.613 1761.98 232.613 Q1765.36 232.613 1767.28 229.951 Q1769.22 227.266 1769.22 222.567 M1754.73 213.516 Q1756.08 211.201 1758.11 210.09 Q1760.17 208.955 1763.02 208.955 Q1767.74 208.955 1770.68 212.705 Q1773.65 216.455 1773.65 222.567 Q1773.65 228.678 1770.68 232.428 Q1767.74 236.178 1763.02 236.178 Q1760.17 236.178 1758.11 235.066 Q1756.08 233.932 1754.73 231.617 L1754.73 235.506 L1750.45 235.506 L1750.45 199.488 L1754.73 199.488 L1754.73 213.516 Z" fill="#000000" fill-rule="nonzero" fill-opacity="1" /><path clip-path="url(#clip380)" d="M1780.71 199.488 L1784.96 199.488 L1784.96 235.506 L1780.71 235.506 L1780.71 199.488 Z" fill="#000000" fill-rule="nonzero" fill-opacity="1" /><path clip-path="url(#clip380)" d="M1816.05 221.479 L1816.05 223.562 L1796.47 223.562 Q1796.75 227.96 1799.11 230.275 Q1801.49 232.566 1805.73 232.566 Q1808.18 232.566 1810.47 231.965 Q1812.79 231.363 1815.06 230.159 L1815.06 234.187 Q1812.77 235.159 1810.36 235.668 Q1807.95 236.178 1805.47 236.178 Q1799.27 236.178 1795.64 232.566 Q1792.03 228.955 1792.03 222.798 Q1792.03 216.432 1795.45 212.705 Q1798.9 208.955 1804.73 208.955 Q1809.96 208.955 1813 212.335 Q1816.05 215.692 1816.05 221.479 M1811.79 220.229 Q1811.75 216.733 1809.83 214.65 Q1807.93 212.567 1804.78 212.567 Q1801.21 212.567 1799.06 214.58 Q1796.93 216.594 1796.61 220.252 L1811.79 220.229 Z" fill="#000000" fill-rule="nonzero" fill-opacity="1" /><path clip-path="url(#clip380)" d="M1842.74 231.571 L1859.06 231.571 L1859.06 235.506 L1837.12 235.506 L1837.12 231.571 Q1839.78 228.816 1844.36 224.187 Q1848.97 219.534 1850.15 218.192 Q1852.4 215.668 1853.27 213.932 Q1854.18 212.173 1854.18 210.483 Q1854.18 207.729 1852.23 205.993 Q1850.31 204.256 1847.21 204.256 Q1845.01 204.256 1842.56 205.02 Q1840.13 205.784 1837.35 207.335 L1837.35 202.613 Q1840.17 201.479 1842.63 200.9 Q1845.08 200.321 1847.12 200.321 Q1852.49 200.321 1855.68 203.006 Q1858.88 205.692 1858.88 210.182 Q1858.88 212.312 1858.07 214.233 Q1857.28 216.131 1855.17 218.724 Q1854.59 219.395 1851.49 222.613 Q1848.39 225.807 1842.74 231.571 Z" fill="#000000" fill-rule="nonzero" fill-opacity="1" /><path clip-path="url(#clip380)" d="M1893.58 199.534 Q1890.47 204.858 1888.97 210.067 Q1887.46 215.275 1887.46 220.622 Q1887.46 225.969 1888.97 231.224 Q1890.5 236.455 1893.58 241.756 L1889.87 241.756 Q1886.4 236.316 1884.66 231.062 Q1882.95 225.807 1882.95 220.622 Q1882.95 215.46 1884.66 210.229 Q1886.38 204.997 1889.87 199.534 L1893.58 199.534 Z" fill="#000000" fill-rule="nonzero" fill-opacity="1" /><path clip-path="url(#clip380)" d="M1906.7 204.789 L1906.7 231.664 L1912.35 231.664 Q1919.5 231.664 1922.81 228.423 Q1926.14 225.182 1926.14 218.192 Q1926.14 211.247 1922.81 208.03 Q1919.5 204.789 1912.35 204.789 L1906.7 204.789 M1902.02 200.946 L1911.63 200.946 Q1921.68 200.946 1926.38 205.136 Q1931.08 209.303 1931.08 218.192 Q1931.08 227.127 1926.35 231.316 Q1921.63 235.506 1911.63 235.506 L1902.02 235.506 L1902.02 200.946 Z" fill="#000000" fill-rule="nonzero" fill-opacity="1" /><path clip-path="url(#clip380)" d="M1950.13 222.474 Q1944.96 222.474 1942.97 223.654 Q1940.98 224.835 1940.98 227.682 Q1940.98 229.951 1942.46 231.293 Q1943.97 232.613 1946.54 232.613 Q1950.08 232.613 1952.21 230.113 Q1954.36 227.59 1954.36 223.423 L1954.36 222.474 L1950.13 222.474 M1958.62 220.715 L1958.62 235.506 L1954.36 235.506 L1954.36 231.571 Q1952.9 233.932 1950.73 235.066 Q1948.55 236.178 1945.4 236.178 Q1941.42 236.178 1939.06 233.955 Q1936.72 231.71 1936.72 227.96 Q1936.72 223.585 1939.64 221.363 Q1942.58 219.141 1948.39 219.141 L1954.36 219.141 L1954.36 218.724 Q1954.36 215.784 1952.42 214.187 Q1950.5 212.567 1947 212.567 Q1944.78 212.567 1942.67 213.099 Q1940.57 213.631 1938.62 214.696 L1938.62 210.761 Q1940.96 209.858 1943.16 209.418 Q1945.36 208.955 1947.44 208.955 Q1953.07 208.955 1955.84 211.872 Q1958.62 214.789 1958.62 220.715 Z" fill="#000000" fill-rule="nonzero" fill-opacity="1" /><path clip-path="url(#clip380)" d="M1988.95 219.858 L1988.95 235.506 L1984.69 235.506 L1984.69 219.997 Q1984.69 216.317 1983.25 214.488 Q1981.82 212.659 1978.95 212.659 Q1975.5 212.659 1973.51 214.858 Q1971.51 217.057 1971.51 220.854 L1971.51 235.506 L1967.23 235.506 L1967.23 199.488 L1971.51 199.488 L1971.51 213.608 Q1973.04 211.27 1975.1 210.113 Q1977.19 208.955 1979.89 208.955 Q1984.36 208.955 1986.65 211.733 Q1988.95 214.488 1988.95 219.858 Z" fill="#000000" fill-rule="nonzero" fill-opacity="1" /><path clip-path="url(#clip380)" d="M2018.99 219.858 L2018.99 235.506 L2014.73 235.506 L2014.73 219.997 Q2014.73 216.317 2013.3 214.488 Q2011.86 212.659 2008.99 212.659 Q2005.54 212.659 2003.55 214.858 Q2001.56 217.057 2001.56 220.854 L2001.56 235.506 L1997.28 235.506 L1997.28 209.58 L2001.56 209.58 L2001.56 213.608 Q2003.09 211.27 2005.15 210.113 Q2007.23 208.955 2009.94 208.955 Q2014.41 208.955 2016.7 211.733 Q2018.99 214.488 2018.99 219.858 Z" fill="#000000" fill-rule="nonzero" fill-opacity="1" /><path clip-path="url(#clip380)" d="M2049.66 221.479 L2049.66 223.562 L2030.08 223.562 Q2030.36 227.96 2032.72 230.275 Q2035.1 232.566 2039.34 232.566 Q2041.79 232.566 2044.08 231.965 Q2046.4 231.363 2048.67 230.159 L2048.67 234.187 Q2046.38 235.159 2043.97 235.668 Q2041.56 236.178 2039.08 236.178 Q2032.88 236.178 2029.25 232.566 Q2025.63 228.955 2025.63 222.798 Q2025.63 216.432 2029.06 212.705 Q2032.51 208.955 2038.34 208.955 Q2043.57 208.955 2046.61 212.335 Q2049.66 215.692 2049.66 221.479 M2045.4 220.229 Q2045.36 216.733 2043.44 214.65 Q2041.54 212.567 2038.39 212.567 Q2034.82 212.567 2032.67 214.58 Q2030.54 216.594 2030.22 220.252 L2045.4 220.229 Z" fill="#000000" fill-rule="nonzero" fill-opacity="1" /><path clip-path="url(#clip380)" d="M2056.49 199.488 L2060.77 199.488 L2060.77 220.761 L2073.48 209.58 L2078.92 209.58 L2065.17 221.71 L2079.5 235.506 L2073.94 235.506 L2060.77 222.844 L2060.77 235.506 L2056.49 235.506 L2056.49 199.488 Z" fill="#000000" fill-rule="nonzero" fill-opacity="1" /><path clip-path="url(#clip380)" d="M2104.59 221.479 L2104.59 223.562 L2085.01 223.562 Q2085.29 227.96 2087.65 230.275 Q2090.03 232.566 2094.27 232.566 Q2096.72 232.566 2099.01 231.965 Q2101.33 231.363 2103.6 230.159 L2103.6 234.187 Q2101.31 235.159 2098.9 235.668 Q2096.49 236.178 2094.01 236.178 Q2087.81 236.178 2084.18 232.566 Q2080.57 228.955 2080.57 222.798 Q2080.57 216.432 2083.99 212.705 Q2087.44 208.955 2093.27 208.955 Q2098.5 208.955 2101.54 212.335 Q2104.59 215.692 2104.59 221.479 M2100.33 220.229 Q2100.29 216.733 2098.37 214.65 Q2096.47 212.567 2093.32 212.567 Q2089.75 212.567 2087.6 214.58 Q2085.47 216.594 2085.15 220.252 L2100.33 220.229 Z" fill="#000000" fill-rule="nonzero" fill-opacity="1" /><path clip-path="url(#clip380)" d="M2128.06 231.571 L2135.7 231.571 L2135.7 205.206 L2127.39 206.872 L2127.39 202.613 L2135.66 200.946 L2140.33 200.946 L2140.33 231.571 L2147.97 231.571 L2147.97 235.506 L2128.06 235.506 L2128.06 231.571 Z" fill="#000000" fill-rule="nonzero" fill-opacity="1" /><path clip-path="url(#clip380)" d="M2157.56 234.789 L2157.56 230.529 Q2159.31 231.363 2161.12 231.803 Q2162.93 232.242 2164.66 232.242 Q2169.29 232.242 2171.72 229.141 Q2174.18 226.016 2174.52 219.673 Q2173.18 221.664 2171.12 222.729 Q2169.06 223.793 2166.56 223.793 Q2161.37 223.793 2158.34 220.668 Q2155.33 217.52 2155.33 212.08 Q2155.33 206.756 2158.48 203.539 Q2161.63 200.321 2166.86 200.321 Q2172.86 200.321 2176 204.928 Q2179.18 209.511 2179.18 218.261 Q2179.18 226.432 2175.29 231.316 Q2171.42 236.178 2164.87 236.178 Q2163.11 236.178 2161.31 235.83 Q2159.5 235.483 2157.56 234.789 M2166.86 220.136 Q2170.01 220.136 2171.84 217.983 Q2173.69 215.83 2173.69 212.08 Q2173.69 208.354 2171.84 206.201 Q2170.01 204.025 2166.86 204.025 Q2163.71 204.025 2161.86 206.201 Q2160.03 208.354 2160.03 212.08 Q2160.03 215.83 2161.86 217.983 Q2163.71 220.136 2166.86 220.136 Z" fill="#000000" fill-rule="nonzero" fill-opacity="1" /><path clip-path="url(#clip380)" d="M2197.58 219.094 Q2194.25 219.094 2192.32 220.877 Q2190.43 222.659 2190.43 225.784 Q2190.43 228.909 2192.32 230.691 Q2194.25 232.474 2197.58 232.474 Q2200.91 232.474 2202.83 230.691 Q2204.75 228.886 2204.75 225.784 Q2204.75 222.659 2202.83 220.877 Q2200.93 219.094 2197.58 219.094 M2192.9 217.104 Q2189.89 216.363 2188.2 214.303 Q2186.54 212.243 2186.54 209.28 Q2186.54 205.136 2189.48 202.729 Q2192.44 200.321 2197.58 200.321 Q2202.74 200.321 2205.68 202.729 Q2208.62 205.136 2208.62 209.28 Q2208.62 212.243 2206.93 214.303 Q2205.26 216.363 2202.28 217.104 Q2205.66 217.891 2207.53 220.182 Q2209.43 222.474 2209.43 225.784 Q2209.43 230.807 2206.35 233.492 Q2203.3 236.178 2197.58 236.178 Q2191.86 236.178 2188.78 233.492 Q2185.73 230.807 2185.73 225.784 Q2185.73 222.474 2187.62 220.182 Q2189.52 217.891 2192.9 217.104 M2191.19 209.719 Q2191.19 212.405 2192.86 213.909 Q2194.55 215.414 2197.58 215.414 Q2200.59 215.414 2202.28 213.909 Q2203.99 212.405 2203.99 209.719 Q2203.99 207.034 2202.28 205.53 Q2200.59 204.025 2197.58 204.025 Q2194.55 204.025 2192.86 205.53 Q2191.19 207.034 2191.19 209.719 Z" fill="#000000" fill-rule="nonzero" fill-opacity="1" /><path clip-path="url(#clip380)" d="M2231.91 216.872 Q2235.26 217.59 2237.14 219.858 Q2239.04 222.127 2239.04 225.46 Q2239.04 230.576 2235.52 233.377 Q2232 236.178 2225.52 236.178 Q2223.34 236.178 2221.03 235.738 Q2218.74 235.321 2216.28 234.465 L2216.28 229.951 Q2218.23 231.085 2220.54 231.664 Q2222.86 232.242 2225.38 232.242 Q2229.78 232.242 2232.07 230.506 Q2234.38 228.77 2234.38 225.46 Q2234.38 222.404 2232.23 220.692 Q2230.1 218.955 2226.28 218.955 L2222.25 218.955 L2222.25 215.113 L2226.47 215.113 Q2229.92 215.113 2231.74 213.747 Q2233.57 212.358 2233.57 209.766 Q2233.57 207.104 2231.68 205.692 Q2229.8 204.256 2226.28 204.256 Q2224.36 204.256 2222.16 204.673 Q2219.96 205.09 2217.32 205.969 L2217.32 201.803 Q2219.99 201.062 2222.3 200.692 Q2224.64 200.321 2226.7 200.321 Q2232.02 200.321 2235.12 202.752 Q2238.23 205.159 2238.23 209.28 Q2238.23 212.15 2236.58 214.141 Q2234.94 216.108 2231.91 216.872 Z" fill="#000000" fill-rule="nonzero" fill-opacity="1" /><path clip-path="url(#clip380)" d="M2246.63 199.534 L2250.33 199.534 Q2253.8 204.997 2255.52 210.229 Q2257.25 215.46 2257.25 220.622 Q2257.25 225.807 2255.52 231.062 Q2253.8 236.316 2250.33 241.756 L2246.63 241.756 Q2249.71 236.455 2251.21 231.224 Q2252.74 225.969 2252.74 220.622 Q2252.74 215.275 2251.21 210.067 Q2249.71 204.858 2246.63 199.534 Z" fill="#000000" fill-rule="nonzero" fill-opacity="1" /><polyline clip-path="url(#clip380)" style="stroke:#e26f46; stroke-linecap:round; stroke-linejoin:round; stroke-width:8; stroke-opacity:1; fill:none" points="1528.72,270.066 1671.97,270.066 "/>
<path clip-path="url(#clip380)" d="M1695.84 252.786 L1725.08 252.786 L1725.08 256.721 L1712.81 256.721 L1712.81 287.346 L1708.11 287.346 L1708.11 256.721 L1695.84 256.721 L1695.84 252.786 Z" fill="#000000" fill-rule="nonzero" fill-opacity="1" /><path clip-path="url(#clip380)" d="M1750.96 271.698 L1750.96 287.346 L1746.7 287.346 L1746.7 271.837 Q1746.7 268.157 1745.27 266.328 Q1743.83 264.499 1740.96 264.499 Q1737.51 264.499 1735.52 266.698 Q1733.53 268.897 1733.53 272.694 L1733.53 287.346 L1729.25 287.346 L1729.25 251.328 L1733.53 251.328 L1733.53 265.448 Q1735.06 263.11 1737.12 261.953 Q1739.2 260.795 1741.91 260.795 Q1746.38 260.795 1748.67 263.573 Q1750.96 266.328 1750.96 271.698 Z" fill="#000000" fill-rule="nonzero" fill-opacity="1" /><path clip-path="url(#clip380)" d="M1759.46 261.42 L1763.72 261.42 L1763.72 287.346 L1759.46 287.346 L1759.46 261.42 M1759.46 251.328 L1763.72 251.328 L1763.72 256.721 L1759.46 256.721 L1759.46 251.328 Z" fill="#000000" fill-rule="nonzero" fill-opacity="1" /><path clip-path="url(#clip380)" d="M1789.15 262.184 L1789.15 266.212 Q1787.35 265.286 1785.4 264.823 Q1783.46 264.36 1781.38 264.36 Q1778.21 264.36 1776.61 265.333 Q1775.03 266.305 1775.03 268.249 Q1775.03 269.731 1776.17 270.587 Q1777.3 271.42 1780.73 272.184 L1782.19 272.508 Q1786.72 273.481 1788.62 275.263 Q1790.54 277.022 1790.54 280.194 Q1790.54 283.805 1787.67 285.911 Q1784.83 288.018 1779.83 288.018 Q1777.74 288.018 1775.47 287.601 Q1773.23 287.207 1770.73 286.397 L1770.73 281.999 Q1773.09 283.226 1775.38 283.851 Q1777.67 284.453 1779.92 284.453 Q1782.93 284.453 1784.55 283.434 Q1786.17 282.393 1786.17 280.518 Q1786.17 278.782 1784.99 277.856 Q1783.83 276.93 1779.87 276.073 L1778.39 275.726 Q1774.43 274.893 1772.67 273.18 Q1770.91 271.444 1770.91 268.434 Q1770.91 264.777 1773.51 262.786 Q1776.1 260.795 1780.87 260.795 Q1783.23 260.795 1785.31 261.143 Q1787.4 261.49 1789.15 262.184 Z" fill="#000000" fill-rule="nonzero" fill-opacity="1" /><path clip-path="url(#clip380)" d="M1812.4 261.42 L1816.65 261.42 L1816.65 287.346 L1812.4 287.346 L1812.4 261.42 M1812.4 251.328 L1816.65 251.328 L1816.65 256.721 L1812.4 256.721 L1812.4 251.328 Z" fill="#000000" fill-rule="nonzero" fill-opacity="1" /><path clip-path="url(#clip380)" d="M1845.75 266.397 Q1847.35 263.527 1849.57 262.161 Q1851.79 260.795 1854.8 260.795 Q1858.85 260.795 1861.05 263.643 Q1863.25 266.467 1863.25 271.698 L1863.25 287.346 L1858.97 287.346 L1858.97 271.837 Q1858.97 268.11 1857.65 266.305 Q1856.33 264.499 1853.62 264.499 Q1850.31 264.499 1848.39 266.698 Q1846.47 268.897 1846.47 272.694 L1846.47 287.346 L1842.19 287.346 L1842.19 271.837 Q1842.19 268.087 1840.87 266.305 Q1839.55 264.499 1836.79 264.499 Q1833.53 264.499 1831.61 266.721 Q1829.69 268.92 1829.69 272.694 L1829.69 287.346 L1825.4 287.346 L1825.4 261.42 L1829.69 261.42 L1829.69 265.448 Q1831.15 263.064 1833.18 261.93 Q1835.22 260.795 1838.02 260.795 Q1840.84 260.795 1842.81 262.231 Q1844.8 263.666 1845.75 266.397 Z" fill="#000000" fill-rule="nonzero" fill-opacity="1" /><path clip-path="url(#clip380)" d="M1875.87 283.457 L1875.87 297.207 L1871.58 297.207 L1871.58 261.42 L1875.87 261.42 L1875.87 265.356 Q1877.21 263.041 1879.25 261.93 Q1881.31 260.795 1884.15 260.795 Q1888.88 260.795 1891.82 264.545 Q1894.78 268.295 1894.78 274.407 Q1894.78 280.518 1891.82 284.268 Q1888.88 288.018 1884.15 288.018 Q1881.31 288.018 1879.25 286.906 Q1877.21 285.772 1875.87 283.457 M1890.36 274.407 Q1890.36 269.707 1888.41 267.045 Q1886.49 264.36 1883.11 264.36 Q1879.73 264.36 1877.79 267.045 Q1875.87 269.707 1875.87 274.407 Q1875.87 279.106 1877.79 281.791 Q1879.73 284.453 1883.11 284.453 Q1886.49 284.453 1888.41 281.791 Q1890.36 279.106 1890.36 274.407 Z" fill="#000000" fill-rule="nonzero" fill-opacity="1" /><path clip-path="url(#clip380)" d="M1901.84 251.328 L1906.1 251.328 L1906.1 287.346 L1901.84 287.346 L1901.84 251.328 Z" fill="#000000" fill-rule="nonzero" fill-opacity="1" /><path clip-path="url(#clip380)" d="M1937.19 273.319 L1937.19 275.402 L1917.6 275.402 Q1917.88 279.8 1920.24 282.115 Q1922.63 284.406 1926.86 284.406 Q1929.32 284.406 1931.61 283.805 Q1933.92 283.203 1936.19 281.999 L1936.19 286.027 Q1933.9 286.999 1931.49 287.508 Q1929.08 288.018 1926.61 288.018 Q1920.4 288.018 1916.77 284.406 Q1913.16 280.795 1913.16 274.638 Q1913.16 268.272 1916.58 264.545 Q1920.03 260.795 1925.87 260.795 Q1931.1 260.795 1934.13 264.175 Q1937.19 267.532 1937.19 273.319 M1932.93 272.069 Q1932.88 268.573 1930.96 266.49 Q1929.06 264.407 1925.91 264.407 Q1922.35 264.407 1920.2 266.42 Q1918.07 268.434 1917.74 272.092 L1932.93 272.069 Z" fill="#000000" fill-rule="nonzero" fill-opacity="1" /><path clip-path="url(#clip380)" d="M1964.36 266.397 Q1965.96 263.527 1968.18 262.161 Q1970.4 260.795 1973.41 260.795 Q1977.46 260.795 1979.66 263.643 Q1981.86 266.467 1981.86 271.698 L1981.86 287.346 L1977.58 287.346 L1977.58 271.837 Q1977.58 268.11 1976.26 266.305 Q1974.94 264.499 1972.23 264.499 Q1968.92 264.499 1967 266.698 Q1965.08 268.897 1965.08 272.694 L1965.08 287.346 L1960.8 287.346 L1960.8 271.837 Q1960.8 268.087 1959.48 266.305 Q1958.16 264.499 1955.4 264.499 Q1952.14 264.499 1950.22 266.721 Q1948.3 268.92 1948.3 272.694 L1948.3 287.346 L1944.01 287.346 L1944.01 261.42 L1948.3 261.42 L1948.3 265.448 Q1949.76 263.064 1951.79 261.93 Q1953.83 260.795 1956.63 260.795 Q1959.45 260.795 1961.42 262.231 Q1963.41 263.666 1964.36 266.397 Z" fill="#000000" fill-rule="nonzero" fill-opacity="1" /><path clip-path="url(#clip380)" d="M2012.53 273.319 L2012.53 275.402 L1992.95 275.402 Q1993.23 279.8 1995.59 282.115 Q1997.97 284.406 2002.21 284.406 Q2004.66 284.406 2006.95 283.805 Q2009.27 283.203 2011.54 281.999 L2011.54 286.027 Q2009.25 286.999 2006.84 287.508 Q2004.43 288.018 2001.95 288.018 Q1995.75 288.018 1992.12 284.406 Q1988.51 280.795 1988.51 274.638 Q1988.51 268.272 1991.93 264.545 Q1995.38 260.795 2001.21 260.795 Q2006.45 260.795 2009.48 264.175 Q2012.53 267.532 2012.53 273.319 M2008.27 272.069 Q2008.23 268.573 2006.31 266.49 Q2004.41 264.407 2001.26 264.407 Q1997.7 264.407 1995.54 266.42 Q1993.41 268.434 1993.09 272.092 L2008.27 272.069 Z" fill="#000000" fill-rule="nonzero" fill-opacity="1" /><path clip-path="url(#clip380)" d="M2041.07 271.698 L2041.07 287.346 L2036.82 287.346 L2036.82 271.837 Q2036.82 268.157 2035.38 266.328 Q2033.95 264.499 2031.07 264.499 Q2027.63 264.499 2025.63 266.698 Q2023.64 268.897 2023.64 272.694 L2023.64 287.346 L2019.36 287.346 L2019.36 261.42 L2023.64 261.42 L2023.64 265.448 Q2025.17 263.11 2027.23 261.953 Q2029.32 260.795 2032.02 260.795 Q2036.49 260.795 2038.78 263.573 Q2041.07 266.328 2041.07 271.698 Z" fill="#000000" fill-rule="nonzero" fill-opacity="1" /><path clip-path="url(#clip380)" d="M2053.78 254.059 L2053.78 261.42 L2062.56 261.42 L2062.56 264.731 L2053.78 264.731 L2053.78 278.805 Q2053.78 281.976 2054.64 282.879 Q2055.52 283.781 2058.18 283.781 L2062.56 283.781 L2062.56 287.346 L2058.18 287.346 Q2053.25 287.346 2051.38 285.518 Q2049.5 283.666 2049.5 278.805 L2049.5 264.731 L2046.38 264.731 L2046.38 261.42 L2049.5 261.42 L2049.5 254.059 L2053.78 254.059 Z" fill="#000000" fill-rule="nonzero" fill-opacity="1" /><path clip-path="url(#clip380)" d="M2079.94 274.314 Q2074.78 274.314 2072.79 275.494 Q2070.8 276.675 2070.8 279.522 Q2070.8 281.791 2072.28 283.133 Q2073.78 284.453 2076.35 284.453 Q2079.89 284.453 2082.02 281.953 Q2084.18 279.43 2084.18 275.263 L2084.18 274.314 L2079.94 274.314 M2088.44 272.555 L2088.44 287.346 L2084.18 287.346 L2084.18 283.411 Q2082.72 285.772 2080.54 286.906 Q2078.37 288.018 2075.22 288.018 Q2071.24 288.018 2068.88 285.795 Q2066.54 283.55 2066.54 279.8 Q2066.54 275.425 2069.45 273.203 Q2072.39 270.981 2078.2 270.981 L2084.18 270.981 L2084.18 270.564 Q2084.18 267.624 2082.23 266.027 Q2080.31 264.407 2076.82 264.407 Q2074.59 264.407 2072.49 264.939 Q2070.38 265.471 2068.44 266.536 L2068.44 262.601 Q2070.77 261.698 2072.97 261.258 Q2075.17 260.795 2077.25 260.795 Q2082.88 260.795 2085.66 263.712 Q2088.44 266.629 2088.44 272.555 Z" fill="#000000" fill-rule="nonzero" fill-opacity="1" /><path clip-path="url(#clip380)" d="M2101.42 254.059 L2101.42 261.42 L2110.19 261.42 L2110.19 264.731 L2101.42 264.731 L2101.42 278.805 Q2101.42 281.976 2102.28 282.879 Q2103.16 283.781 2105.82 283.781 L2110.19 283.781 L2110.19 287.346 L2105.82 287.346 Q2100.89 287.346 2099.01 285.518 Q2097.14 283.666 2097.14 278.805 L2097.14 264.731 L2094.01 264.731 L2094.01 261.42 L2097.14 261.42 L2097.14 254.059 L2101.42 254.059 Z" fill="#000000" fill-rule="nonzero" fill-opacity="1" /><path clip-path="url(#clip380)" d="M2115.8 261.42 L2120.06 261.42 L2120.06 287.346 L2115.8 287.346 L2115.8 261.42 M2115.8 251.328 L2120.06 251.328 L2120.06 256.721 L2115.8 256.721 L2115.8 251.328 Z" fill="#000000" fill-rule="nonzero" fill-opacity="1" /><path clip-path="url(#clip380)" d="M2139.01 264.407 Q2135.59 264.407 2133.6 267.092 Q2131.61 269.754 2131.61 274.407 Q2131.61 279.059 2133.57 281.744 Q2135.56 284.406 2139.01 284.406 Q2142.42 284.406 2144.41 281.721 Q2146.4 279.036 2146.4 274.407 Q2146.4 269.8 2144.41 267.115 Q2142.42 264.407 2139.01 264.407 M2139.01 260.795 Q2144.57 260.795 2147.74 264.407 Q2150.91 268.018 2150.91 274.407 Q2150.91 280.772 2147.74 284.406 Q2144.57 288.018 2139.01 288.018 Q2133.44 288.018 2130.26 284.406 Q2127.12 280.772 2127.12 274.407 Q2127.12 268.018 2130.26 264.407 Q2133.44 260.795 2139.01 260.795 Z" fill="#000000" fill-rule="nonzero" fill-opacity="1" /><path clip-path="url(#clip380)" d="M2179.52 271.698 L2179.52 287.346 L2175.26 287.346 L2175.26 271.837 Q2175.26 268.157 2173.83 266.328 Q2172.39 264.499 2169.52 264.499 Q2166.07 264.499 2164.08 266.698 Q2162.09 268.897 2162.09 272.694 L2162.09 287.346 L2157.81 287.346 L2157.81 261.42 L2162.09 261.42 L2162.09 265.448 Q2163.62 263.11 2165.68 261.953 Q2167.76 260.795 2170.47 260.795 Q2174.94 260.795 2177.23 263.573 Q2179.52 266.328 2179.52 271.698 Z" fill="#000000" fill-rule="nonzero" fill-opacity="1" /><polyline clip-path="url(#clip380)" style="stroke:#3da44d; stroke-linecap:round; stroke-linejoin:round; stroke-width:0.8; stroke-opacity:1; fill:none" points="1528.72,321.906 1671.97,321.906 "/>
<path clip-path="url(#clip380)" d="M1578.24 299.799 L1578.24 344.013 L1622.45 344.013 L1622.45 299.799 L1578.24 299.799 Z" fill="#3da44d" fill-rule="evenodd" fill-opacity="1" stroke="#000000" stroke-opacity="1" stroke-width="4.55111"/>
<path clip-path="url(#clip380)" d="M1695.84 304.626 L1715.71 304.626 L1715.71 308.561 L1700.52 308.561 L1700.52 318.747 L1714.22 318.747 L1714.22 322.682 L1700.52 322.682 L1700.52 339.186 L1695.84 339.186 L1695.84 304.626 Z" fill="#000000" fill-rule="nonzero" fill-opacity="1" /><path clip-path="url(#clip380)" d="M1719.9 328.955 L1719.9 313.26 L1724.16 313.26 L1724.16 328.793 Q1724.16 332.473 1725.59 334.325 Q1727.03 336.154 1729.9 336.154 Q1733.34 336.154 1735.34 333.955 Q1737.35 331.756 1737.35 327.959 L1737.35 313.26 L1741.61 313.26 L1741.61 339.186 L1737.35 339.186 L1737.35 335.205 Q1735.8 337.566 1733.74 338.723 Q1731.7 339.858 1728.99 339.858 Q1724.53 339.858 1722.21 337.08 Q1719.9 334.302 1719.9 328.955 M1730.61 312.635 L1730.61 312.635 Z" fill="#000000" fill-rule="nonzero" fill-opacity="1" /><path clip-path="url(#clip380)" d="M1769.04 314.256 L1769.04 318.237 Q1767.23 317.242 1765.4 316.756 Q1763.6 316.247 1761.75 316.247 Q1757.6 316.247 1755.31 318.885 Q1753.02 321.501 1753.02 326.247 Q1753.02 330.992 1755.31 333.631 Q1757.6 336.246 1761.75 336.246 Q1763.6 336.246 1765.4 335.76 Q1767.23 335.251 1769.04 334.256 L1769.04 338.191 Q1767.26 339.024 1765.34 339.441 Q1763.44 339.858 1761.28 339.858 Q1755.43 339.858 1751.98 336.177 Q1748.53 332.496 1748.53 326.247 Q1748.53 319.904 1752 316.27 Q1755.5 312.635 1761.56 312.635 Q1763.53 312.635 1765.4 313.052 Q1767.28 313.446 1769.04 314.256 Z" fill="#000000" fill-rule="nonzero" fill-opacity="1" /><path clip-path="url(#clip380)" d="M1798 323.538 L1798 339.186 L1793.74 339.186 L1793.74 323.677 Q1793.74 319.997 1792.3 318.168 Q1790.87 316.339 1788 316.339 Q1784.55 316.339 1782.56 318.538 Q1780.57 320.737 1780.57 324.534 L1780.57 339.186 L1776.28 339.186 L1776.28 303.168 L1780.57 303.168 L1780.57 317.288 Q1782.09 314.95 1784.15 313.793 Q1786.24 312.635 1788.95 312.635 Q1793.41 312.635 1795.71 315.413 Q1798 318.168 1798 323.538 Z" fill="#000000" fill-rule="nonzero" fill-opacity="1" /><path clip-path="url(#clip380)" d="M1823.02 314.024 L1823.02 318.052 Q1821.21 317.126 1819.27 316.663 Q1817.33 316.2 1815.24 316.2 Q1812.07 316.2 1810.47 317.173 Q1808.9 318.145 1808.9 320.089 Q1808.9 321.571 1810.03 322.427 Q1811.17 323.26 1814.59 324.024 L1816.05 324.348 Q1820.59 325.321 1822.49 327.103 Q1824.41 328.862 1824.41 332.034 Q1824.41 335.645 1821.54 337.751 Q1818.69 339.858 1813.69 339.858 Q1811.61 339.858 1809.34 339.441 Q1807.09 339.047 1804.59 338.237 L1804.59 333.839 Q1806.96 335.066 1809.25 335.691 Q1811.54 336.293 1813.78 336.293 Q1816.79 336.293 1818.41 335.274 Q1820.03 334.233 1820.03 332.358 Q1820.03 330.622 1818.85 329.696 Q1817.7 328.77 1813.74 327.913 L1812.26 327.566 Q1808.3 326.733 1806.54 325.02 Q1804.78 323.284 1804.78 320.274 Q1804.78 316.617 1807.37 314.626 Q1809.96 312.635 1814.73 312.635 Q1817.09 312.635 1819.18 312.983 Q1821.26 313.33 1823.02 314.024 Z" fill="#000000" fill-rule="nonzero" fill-opacity="1" /><path clip-path="url(#clip380)" d="M1835.22 304.626 L1835.22 317.473 L1831.28 317.473 L1831.28 304.626 L1835.22 304.626 Z" fill="#000000" fill-rule="nonzero" fill-opacity="1" /><path clip-path="url(#clip380)" d="M1863.51 305.899 L1863.51 313.26 L1872.28 313.26 L1872.28 316.571 L1863.51 316.571 L1863.51 330.645 Q1863.51 333.816 1864.36 334.719 Q1865.24 335.621 1867.9 335.621 L1872.28 335.621 L1872.28 339.186 L1867.9 339.186 Q1862.97 339.186 1861.1 337.358 Q1859.22 335.506 1859.22 330.645 L1859.22 316.571 L1856.1 316.571 L1856.1 313.26 L1859.22 313.26 L1859.22 305.899 L1863.51 305.899 Z" fill="#000000" fill-rule="nonzero" fill-opacity="1" /><path clip-path="url(#clip380)" d="M1899.43 323.538 L1899.43 339.186 L1895.17 339.186 L1895.17 323.677 Q1895.17 319.997 1893.74 318.168 Q1892.3 316.339 1889.43 316.339 Q1885.98 316.339 1883.99 318.538 Q1882 320.737 1882 324.534 L1882 339.186 L1877.72 339.186 L1877.72 303.168 L1882 303.168 L1882 317.288 Q1883.53 314.95 1885.59 313.793 Q1887.67 312.635 1890.38 312.635 Q1894.85 312.635 1897.14 315.413 Q1899.43 318.168 1899.43 323.538 Z" fill="#000000" fill-rule="nonzero" fill-opacity="1" /><path clip-path="url(#clip380)" d="M1930.1 325.159 L1930.1 327.242 L1910.52 327.242 Q1910.8 331.64 1913.16 333.955 Q1915.54 336.246 1919.78 336.246 Q1922.23 336.246 1924.52 335.645 Q1926.84 335.043 1929.11 333.839 L1929.11 337.867 Q1926.82 338.839 1924.41 339.348 Q1922 339.858 1919.52 339.858 Q1913.32 339.858 1909.69 336.246 Q1906.08 332.635 1906.08 326.478 Q1906.08 320.112 1909.5 316.385 Q1912.95 312.635 1918.78 312.635 Q1924.02 312.635 1927.05 316.015 Q1930.1 319.372 1930.1 325.159 M1925.84 323.909 Q1925.8 320.413 1923.88 318.33 Q1921.98 316.247 1918.83 316.247 Q1915.27 316.247 1913.11 318.26 Q1910.98 320.274 1910.66 323.932 L1925.84 323.909 Z" fill="#000000" fill-rule="nonzero" fill-opacity="1" /><path clip-path="url(#clip380)" d="M1947.14 316.247 Q1943.71 316.247 1941.72 318.932 Q1939.73 321.594 1939.73 326.247 Q1939.73 330.899 1941.7 333.584 Q1943.69 336.246 1947.14 336.246 Q1950.54 336.246 1952.53 333.561 Q1954.52 330.876 1954.52 326.247 Q1954.52 321.64 1952.53 318.955 Q1950.54 316.247 1947.14 316.247 M1947.14 312.635 Q1952.7 312.635 1955.87 316.247 Q1959.04 319.858 1959.04 326.247 Q1959.04 332.612 1955.87 336.246 Q1952.7 339.858 1947.14 339.858 Q1941.56 339.858 1938.39 336.246 Q1935.24 332.612 1935.24 326.247 Q1935.24 319.858 1938.39 316.247 Q1941.56 312.635 1947.14 312.635 Z" fill="#000000" fill-rule="nonzero" fill-opacity="1" /><path clip-path="url(#clip380)" d="M1981.12 317.242 Q1980.4 316.825 1979.55 316.64 Q1978.71 316.432 1977.7 316.432 Q1974.08 316.432 1972.14 318.793 Q1970.22 321.131 1970.22 325.529 L1970.22 339.186 L1965.94 339.186 L1965.94 313.26 L1970.22 313.26 L1970.22 317.288 Q1971.56 314.927 1973.71 313.793 Q1975.87 312.635 1978.95 312.635 Q1979.39 312.635 1979.92 312.705 Q1980.45 312.751 1981.1 312.867 L1981.12 317.242 Z" fill="#000000" fill-rule="nonzero" fill-opacity="1" /><path clip-path="url(#clip380)" d="M1996.38 341.594 Q1994.57 346.223 1992.86 347.635 Q1991.14 349.047 1988.27 349.047 L1984.87 349.047 L1984.87 345.483 L1987.37 345.483 Q1989.13 345.483 1990.1 344.649 Q1991.07 343.816 1992.26 340.714 L1993.02 338.77 L1982.53 313.26 L1987.05 313.26 L1995.15 333.538 L2003.25 313.26 L2007.76 313.26 L1996.38 341.594 Z" fill="#000000" fill-rule="nonzero" fill-opacity="1" /></svg>
