<?xml version="1.0" encoding="utf-8"?>
<svg xmlns="http://www.w3.org/2000/svg" xmlns:xlink="http://www.w3.org/1999/xlink" width="600" height="400" viewBox="0 0 2400 1600">
<defs>
  <clipPath id="clip650">
    <rect x="0" y="0" width="2400" height="1600"/>
  </clipPath>
</defs>
<path clip-path="url(#clip650)" d="M0 1600 L2400 1600 L2400 0 L0 0  Z" fill="#ffffff" fill-rule="evenodd" fill-opacity="1"/>
<defs>
  <clipPath id="clip651">
    <rect x="175" y="123" width="2178" height="1301"/>
  </clipPath>
</defs>
<path clip-path="url(#clip650)" d="M175.445 1423.18 L2352.76 1423.18 L2352.76 123.472 L175.445 123.472  Z" fill="#ffffff" fill-rule="evenodd" fill-opacity="1"/>
<polyline clip-path="url(#clip651)" style="stroke:#000000; stroke-linecap:round; stroke-linejoin:round; stroke-width:2; stroke-opacity:0.1; fill:none" points="237.067,1423.18 237.067,123.472 "/>
<polyline clip-path="url(#clip651)" style="stroke:#000000; stroke-linecap:round; stroke-linejoin:round; stroke-width:2; stroke-opacity:0.1; fill:none" points="647.881,1423.18 647.881,123.472 "/>
<polyline clip-path="url(#clip651)" style="stroke:#000000; stroke-linecap:round; stroke-linejoin:round; stroke-width:2; stroke-opacity:0.1; fill:none" points="1058.69,1423.18 1058.69,123.472 "/>
<polyline clip-path="url(#clip651)" style="stroke:#000000; stroke-linecap:round; stroke-linejoin:round; stroke-width:2; stroke-opacity:0.1; fill:none" points="1469.51,1423.18 1469.51,123.472 "/>
<polyline clip-path="url(#clip651)" style="stroke:#000000; stroke-linecap:round; stroke-linejoin:round; stroke-width:2; stroke-opacity:0.1; fill:none" points="1880.32,1423.18 1880.32,123.472 "/>
<polyline clip-path="url(#clip651)" style="stroke:#000000; stroke-linecap:round; stroke-linejoin:round; stroke-width:2; stroke-opacity:0.1; fill:none" points="2291.13,1423.18 2291.13,123.472 "/>
<polyline clip-path="url(#clip651)" style="stroke:#000000; stroke-linecap:round; stroke-linejoin:round; stroke-width:2; stroke-opacity:0.1; fill:none" points="175.445,1191.45 2352.76,1191.45 "/>
<polyline clip-path="url(#clip651)" style="stroke:#000000; stroke-linecap:round; stroke-linejoin:round; stroke-width:2; stroke-opacity:0.1; fill:none" points="175.445,901.044 2352.76,901.044 "/>
<polyline clip-path="url(#clip651)" style="stroke:#000000; stroke-linecap:round; stroke-linejoin:round; stroke-width:2; stroke-opacity:0.1; fill:none" points="175.445,610.64 2352.76,610.64 "/>
<polyline clip-path="url(#clip651)" style="stroke:#000000; stroke-linecap:round; stroke-linejoin:round; stroke-width:2; stroke-opacity:0.1; fill:none" points="175.445,320.237 2352.76,320.237 "/>
<polyline clip-path="url(#clip650)" style="stroke:#000000; stroke-linecap:round; stroke-linejoin:round; stroke-width:4; stroke-opacity:1; fill:none" points="175.445,1423.18 2352.76,1423.18 "/>
<polyline clip-path="url(#clip650)" style="stroke:#000000; stroke-linecap:round; stroke-linejoin:round; stroke-width:4; stroke-opacity:1; fill:none" points="237.067,1423.18 237.067,1404.28 "/>
<polyline clip-path="url(#clip650)" style="stroke:#000000; stroke-linecap:round; stroke-linejoin:round; stroke-width:4; stroke-opacity:1; fill:none" points="647.881,1423.18 647.881,1404.28 "/>
<polyline clip-path="url(#clip650)" style="stroke:#000000; stroke-linecap:round; stroke-linejoin:round; stroke-width:4; stroke-opacity:1; fill:none" points="1058.69,1423.18 1058.69,1404.28 "/>
<polyline clip-path="url(#clip650)" style="stroke:#000000; stroke-linecap:round; stroke-linejoin:round; stroke-width:4; stroke-opacity:1; fill:none" points="1469.51,1423.18 1469.51,1404.28 "/>
<polyline clip-path="url(#clip650)" style="stroke:#000000; stroke-linecap:round; stroke-linejoin:round; stroke-width:4; stroke-opacity:1; fill:none" points="1880.32,1423.18 1880.32,1404.28 "/>
<polyline clip-path="url(#clip650)" style="stroke:#000000; stroke-linecap:round; stroke-linejoin:round; stroke-width:4; stroke-opacity:1; fill:none" points="2291.13,1423.18 2291.13,1404.28 "/>
<path clip-path="url(#clip650)" d="M199.371 1454.1 Q195.76 1454.1 193.931 1457.66 Q192.125 1461.2 192.125 1468.33 Q192.125 1475.44 193.931 1479.01 Q195.76 1482.55 199.371 1482.55 Q203.005 1482.55 204.81 1479.01 Q206.639 1475.44 206.639 1468.33 Q206.639 1461.2 204.81 1457.66 Q203.005 1454.1 199.371 1454.1 M199.371 1450.39 Q205.181 1450.39 208.236 1455 Q211.315 1459.58 211.315 1468.33 Q211.315 1477.06 208.236 1481.67 Q205.181 1486.25 199.371 1486.25 Q193.56 1486.25 190.482 1481.67 Q187.426 1477.06 187.426 1468.33 Q187.426 1459.58 190.482 1455 Q193.56 1450.39 199.371 1450.39 Z" fill="#000000" fill-rule="nonzero" fill-opacity="1" /><path clip-path="url(#clip650)" d="M219.533 1479.7 L224.417 1479.7 L224.417 1485.58 L219.533 1485.58 L219.533 1479.7 Z" fill="#000000" fill-rule="nonzero" fill-opacity="1" /><path clip-path="url(#clip650)" d="M233.421 1451.02 L255.643 1451.02 L255.643 1453.01 L243.097 1485.58 L238.213 1485.58 L250.019 1454.96 L233.421 1454.96 L233.421 1451.02 Z" fill="#000000" fill-rule="nonzero" fill-opacity="1" /><path clip-path="url(#clip650)" d="M274.764 1454.1 Q271.153 1454.1 269.324 1457.66 Q267.518 1461.2 267.518 1468.33 Q267.518 1475.44 269.324 1479.01 Q271.153 1482.55 274.764 1482.55 Q278.398 1482.55 280.204 1479.01 Q282.032 1475.44 282.032 1468.33 Q282.032 1461.2 280.204 1457.66 Q278.398 1454.1 274.764 1454.1 M274.764 1450.39 Q280.574 1450.39 283.629 1455 Q286.708 1459.58 286.708 1468.33 Q286.708 1477.06 283.629 1481.67 Q280.574 1486.25 274.764 1486.25 Q268.954 1486.25 265.875 1481.67 Q262.819 1477.06 262.819 1468.33 Q262.819 1459.58 265.875 1455 Q268.954 1450.39 274.764 1450.39 Z" fill="#000000" fill-rule="nonzero" fill-opacity="1" /><path clip-path="url(#clip650)" d="M610.682 1454.1 Q607.071 1454.1 605.242 1457.66 Q603.436 1461.2 603.436 1468.33 Q603.436 1475.44 605.242 1479.01 Q607.071 1482.55 610.682 1482.55 Q614.316 1482.55 616.121 1479.01 Q617.95 1475.44 617.95 1468.33 Q617.95 1461.2 616.121 1457.66 Q614.316 1454.1 610.682 1454.1 M610.682 1450.39 Q616.492 1450.39 619.547 1455 Q622.626 1459.58 622.626 1468.33 Q622.626 1477.06 619.547 1481.67 Q616.492 1486.25 610.682 1486.25 Q604.872 1486.25 601.793 1481.67 Q598.737 1477.06 598.737 1468.33 Q598.737 1459.58 601.793 1455 Q604.872 1450.39 610.682 1450.39 Z" fill="#000000" fill-rule="nonzero" fill-opacity="1" /><path clip-path="url(#clip650)" d="M630.844 1479.7 L635.728 1479.7 L635.728 1485.58 L630.844 1485.58 L630.844 1479.7 Z" fill="#000000" fill-rule="nonzero" fill-opacity="1" /><path clip-path="url(#clip650)" d="M644.732 1451.02 L666.955 1451.02 L666.955 1453.01 L654.408 1485.58 L649.524 1485.58 L661.33 1454.96 L644.732 1454.96 L644.732 1451.02 Z" fill="#000000" fill-rule="nonzero" fill-opacity="1" /><path clip-path="url(#clip650)" d="M676.121 1451.02 L694.478 1451.02 L694.478 1454.96 L680.404 1454.96 L680.404 1463.43 Q681.422 1463.08 682.441 1462.92 Q683.459 1462.73 684.478 1462.73 Q690.265 1462.73 693.644 1465.9 Q697.024 1469.08 697.024 1474.49 Q697.024 1480.07 693.552 1483.17 Q690.079 1486.25 683.76 1486.25 Q681.584 1486.25 679.316 1485.88 Q677.07 1485.51 674.663 1484.77 L674.663 1480.07 Q676.746 1481.2 678.968 1481.76 Q681.191 1482.32 683.667 1482.32 Q687.672 1482.32 690.01 1480.21 Q692.348 1478.1 692.348 1474.49 Q692.348 1470.88 690.01 1468.77 Q687.672 1466.67 683.667 1466.67 Q681.792 1466.67 679.917 1467.08 Q678.066 1467.5 676.121 1468.38 L676.121 1451.02 Z" fill="#000000" fill-rule="nonzero" fill-opacity="1" /><path clip-path="url(#clip650)" d="M1021 1454.1 Q1017.39 1454.1 1015.56 1457.66 Q1013.75 1461.2 1013.75 1468.33 Q1013.75 1475.44 1015.56 1479.01 Q1017.39 1482.55 1021 1482.55 Q1024.63 1482.55 1026.44 1479.01 Q1028.27 1475.44 1028.27 1468.33 Q1028.27 1461.2 1026.44 1457.66 Q1024.63 1454.1 1021 1454.1 M1021 1450.39 Q1026.81 1450.39 1029.86 1455 Q1032.94 1459.58 1032.94 1468.33 Q1032.94 1477.06 1029.86 1481.67 Q1026.81 1486.25 1021 1486.25 Q1015.19 1486.25 1012.11 1481.67 Q1009.05 1477.06 1009.05 1468.33 Q1009.05 1459.58 1012.11 1455 Q1015.19 1450.39 1021 1450.39 Z" fill="#000000" fill-rule="nonzero" fill-opacity="1" /><path clip-path="url(#clip650)" d="M1041.16 1479.7 L1046.04 1479.7 L1046.04 1485.58 L1041.16 1485.58 L1041.16 1479.7 Z" fill="#000000" fill-rule="nonzero" fill-opacity="1" /><path clip-path="url(#clip650)" d="M1066.23 1469.17 Q1062.9 1469.17 1060.97 1470.95 Q1059.08 1472.73 1059.08 1475.86 Q1059.08 1478.98 1060.97 1480.77 Q1062.9 1482.55 1066.23 1482.55 Q1069.56 1482.55 1071.48 1480.77 Q1073.4 1478.96 1073.4 1475.86 Q1073.4 1472.73 1071.48 1470.95 Q1069.59 1469.17 1066.23 1469.17 M1061.55 1467.18 Q1058.54 1466.44 1056.85 1464.38 Q1055.19 1462.32 1055.19 1459.35 Q1055.19 1455.21 1058.13 1452.8 Q1061.09 1450.39 1066.23 1450.39 Q1071.39 1450.39 1074.33 1452.8 Q1077.27 1455.21 1077.27 1459.35 Q1077.27 1462.32 1075.58 1464.38 Q1073.91 1466.44 1070.93 1467.18 Q1074.31 1467.96 1076.18 1470.26 Q1078.08 1472.55 1078.08 1475.86 Q1078.08 1480.88 1075 1483.57 Q1071.95 1486.25 1066.23 1486.25 Q1060.51 1486.25 1057.43 1483.57 Q1054.38 1480.88 1054.38 1475.86 Q1054.38 1472.55 1056.27 1470.26 Q1058.17 1467.96 1061.55 1467.18 M1059.84 1459.79 Q1059.84 1462.48 1061.51 1463.98 Q1063.2 1465.49 1066.23 1465.49 Q1069.24 1465.49 1070.93 1463.98 Q1072.64 1462.48 1072.64 1459.79 Q1072.64 1457.11 1070.93 1455.6 Q1069.24 1454.1 1066.23 1454.1 Q1063.2 1454.1 1061.51 1455.6 Q1059.84 1457.11 1059.84 1459.79 Z" fill="#000000" fill-rule="nonzero" fill-opacity="1" /><path clip-path="url(#clip650)" d="M1096.39 1454.1 Q1092.78 1454.1 1090.95 1457.66 Q1089.15 1461.2 1089.15 1468.33 Q1089.15 1475.44 1090.95 1479.01 Q1092.78 1482.55 1096.39 1482.55 Q1100.02 1482.55 1101.83 1479.01 Q1103.66 1475.44 1103.66 1468.33 Q1103.66 1461.2 1101.83 1457.66 Q1100.02 1454.1 1096.39 1454.1 M1096.39 1450.39 Q1102.2 1450.39 1105.26 1455 Q1108.33 1459.58 1108.33 1468.33 Q1108.33 1477.06 1105.26 1481.67 Q1102.2 1486.25 1096.39 1486.25 Q1090.58 1486.25 1087.5 1481.67 Q1084.45 1477.06 1084.45 1468.33 Q1084.45 1459.58 1087.5 1455 Q1090.58 1450.39 1096.39 1450.39 Z" fill="#000000" fill-rule="nonzero" fill-opacity="1" /><path clip-path="url(#clip650)" d="M1432.31 1454.1 Q1428.7 1454.1 1426.87 1457.66 Q1425.06 1461.2 1425.06 1468.33 Q1425.06 1475.44 1426.87 1479.01 Q1428.7 1482.55 1432.31 1482.55 Q1435.94 1482.55 1437.75 1479.01 Q1439.58 1475.44 1439.58 1468.33 Q1439.58 1461.2 1437.75 1457.66 Q1435.94 1454.1 1432.31 1454.1 M1432.31 1450.39 Q1438.12 1450.39 1441.17 1455 Q1444.25 1459.58 1444.25 1468.33 Q1444.25 1477.06 1441.17 1481.67 Q1438.12 1486.25 1432.31 1486.25 Q1426.5 1486.25 1423.42 1481.67 Q1420.36 1477.06 1420.36 1468.33 Q1420.36 1459.58 1423.42 1455 Q1426.5 1450.39 1432.31 1450.39 Z" fill="#000000" fill-rule="nonzero" fill-opacity="1" /><path clip-path="url(#clip650)" d="M1452.47 1479.7 L1457.35 1479.7 L1457.35 1485.58 L1452.47 1485.58 L1452.47 1479.7 Z" fill="#000000" fill-rule="nonzero" fill-opacity="1" /><path clip-path="url(#clip650)" d="M1477.54 1469.17 Q1474.21 1469.17 1472.28 1470.95 Q1470.39 1472.73 1470.39 1475.86 Q1470.39 1478.98 1472.28 1480.77 Q1474.21 1482.55 1477.54 1482.55 Q1480.87 1482.55 1482.79 1480.77 Q1484.72 1478.96 1484.72 1475.86 Q1484.72 1472.73 1482.79 1470.95 Q1480.9 1469.17 1477.54 1469.17 M1472.86 1467.18 Q1469.85 1466.44 1468.16 1464.38 Q1466.5 1462.32 1466.5 1459.35 Q1466.5 1455.21 1469.44 1452.8 Q1472.4 1450.39 1477.54 1450.39 Q1482.7 1450.39 1485.64 1452.8 Q1488.58 1455.21 1488.58 1459.35 Q1488.58 1462.32 1486.89 1464.38 Q1485.22 1466.44 1482.24 1467.18 Q1485.62 1467.96 1487.49 1470.26 Q1489.39 1472.55 1489.39 1475.86 Q1489.39 1480.88 1486.31 1483.57 Q1483.26 1486.25 1477.54 1486.25 Q1471.82 1486.25 1468.74 1483.57 Q1465.69 1480.88 1465.69 1475.86 Q1465.69 1472.55 1467.59 1470.26 Q1469.48 1467.96 1472.86 1467.18 M1471.15 1459.79 Q1471.15 1462.48 1472.82 1463.98 Q1474.51 1465.49 1477.54 1465.49 Q1480.55 1465.49 1482.24 1463.98 Q1483.95 1462.48 1483.95 1459.79 Q1483.95 1457.11 1482.24 1455.6 Q1480.55 1454.1 1477.54 1454.1 Q1474.51 1454.1 1472.82 1455.6 Q1471.15 1457.11 1471.15 1459.79 Z" fill="#000000" fill-rule="nonzero" fill-opacity="1" /><path clip-path="url(#clip650)" d="M1497.75 1451.02 L1516.1 1451.02 L1516.1 1454.96 L1502.03 1454.96 L1502.03 1463.43 Q1503.05 1463.08 1504.07 1462.92 Q1505.09 1462.73 1506.1 1462.73 Q1511.89 1462.73 1515.27 1465.9 Q1518.65 1469.08 1518.65 1474.49 Q1518.65 1480.07 1515.18 1483.17 Q1511.71 1486.25 1505.39 1486.25 Q1503.21 1486.25 1500.94 1485.88 Q1498.7 1485.51 1496.29 1484.77 L1496.29 1480.07 Q1498.37 1481.2 1500.6 1481.76 Q1502.82 1482.32 1505.29 1482.32 Q1509.3 1482.32 1511.64 1480.21 Q1513.97 1478.1 1513.97 1474.49 Q1513.97 1470.88 1511.64 1468.77 Q1509.3 1466.67 1505.29 1466.67 Q1503.42 1466.67 1501.54 1467.08 Q1499.69 1467.5 1497.75 1468.38 L1497.75 1451.02 Z" fill="#000000" fill-rule="nonzero" fill-opacity="1" /><path clip-path="url(#clip650)" d="M1842.62 1454.1 Q1839.01 1454.1 1837.18 1457.66 Q1835.38 1461.2 1835.38 1468.33 Q1835.38 1475.44 1837.18 1479.01 Q1839.01 1482.55 1842.62 1482.55 Q1846.26 1482.55 1848.06 1479.01 Q1849.89 1475.44 1849.89 1468.33 Q1849.89 1461.2 1848.06 1457.66 Q1846.26 1454.1 1842.62 1454.1 M1842.62 1450.39 Q1848.43 1450.39 1851.49 1455 Q1854.57 1459.58 1854.57 1468.33 Q1854.57 1477.06 1851.49 1481.67 Q1848.43 1486.25 1842.62 1486.25 Q1836.81 1486.25 1833.74 1481.67 Q1830.68 1477.06 1830.68 1468.33 Q1830.68 1459.58 1833.74 1455 Q1836.81 1450.39 1842.62 1450.39 Z" fill="#000000" fill-rule="nonzero" fill-opacity="1" /><path clip-path="url(#clip650)" d="M1862.79 1479.7 L1867.67 1479.7 L1867.67 1485.58 L1862.79 1485.58 L1862.79 1479.7 Z" fill="#000000" fill-rule="nonzero" fill-opacity="1" /><path clip-path="url(#clip650)" d="M1877.99 1484.86 L1877.99 1480.6 Q1879.75 1481.44 1881.56 1481.88 Q1883.36 1482.32 1885.1 1482.32 Q1889.73 1482.32 1892.16 1479.21 Q1894.61 1476.09 1894.96 1469.75 Q1893.62 1471.74 1891.56 1472.8 Q1889.5 1473.87 1887 1473.87 Q1881.81 1473.87 1878.78 1470.74 Q1875.77 1467.59 1875.77 1462.15 Q1875.77 1456.83 1878.92 1453.61 Q1882.07 1450.39 1887.3 1450.39 Q1893.3 1450.39 1896.44 1455 Q1899.61 1459.58 1899.61 1468.33 Q1899.61 1476.51 1895.73 1481.39 Q1891.86 1486.25 1885.31 1486.25 Q1883.55 1486.25 1881.74 1485.9 Q1879.94 1485.56 1877.99 1484.86 M1887.3 1470.21 Q1890.45 1470.21 1892.28 1468.06 Q1894.13 1465.9 1894.13 1462.15 Q1894.13 1458.43 1892.28 1456.27 Q1890.45 1454.1 1887.3 1454.1 Q1884.15 1454.1 1882.3 1456.27 Q1880.47 1458.43 1880.47 1462.15 Q1880.47 1465.9 1882.3 1468.06 Q1884.15 1470.21 1887.3 1470.21 Z" fill="#000000" fill-rule="nonzero" fill-opacity="1" /><path clip-path="url(#clip650)" d="M1918.02 1454.1 Q1914.41 1454.1 1912.58 1457.66 Q1910.77 1461.2 1910.77 1468.33 Q1910.77 1475.44 1912.58 1479.01 Q1914.41 1482.55 1918.02 1482.55 Q1921.65 1482.55 1923.46 1479.01 Q1925.29 1475.44 1925.29 1468.33 Q1925.29 1461.2 1923.46 1457.66 Q1921.65 1454.1 1918.02 1454.1 M1918.02 1450.39 Q1923.83 1450.39 1926.88 1455 Q1929.96 1459.58 1929.96 1468.33 Q1929.96 1477.06 1926.88 1481.67 Q1923.83 1486.25 1918.02 1486.25 Q1912.21 1486.25 1909.13 1481.67 Q1906.07 1477.06 1906.07 1468.33 Q1906.07 1459.58 1909.13 1455 Q1912.21 1450.39 1918.02 1450.39 Z" fill="#000000" fill-rule="nonzero" fill-opacity="1" /><path clip-path="url(#clip650)" d="M2253.94 1454.1 Q2250.32 1454.1 2248.5 1457.66 Q2246.69 1461.2 2246.69 1468.33 Q2246.69 1475.44 2248.5 1479.01 Q2250.32 1482.55 2253.94 1482.55 Q2257.57 1482.55 2259.37 1479.01 Q2261.2 1475.44 2261.2 1468.33 Q2261.2 1461.2 2259.37 1457.66 Q2257.57 1454.1 2253.94 1454.1 M2253.94 1450.39 Q2259.75 1450.39 2262.8 1455 Q2265.88 1459.58 2265.88 1468.33 Q2265.88 1477.06 2262.8 1481.67 Q2259.75 1486.25 2253.94 1486.25 Q2248.12 1486.25 2245.05 1481.67 Q2241.99 1477.06 2241.99 1468.33 Q2241.99 1459.58 2245.05 1455 Q2248.12 1450.39 2253.94 1450.39 Z" fill="#000000" fill-rule="nonzero" fill-opacity="1" /><path clip-path="url(#clip650)" d="M2274.1 1479.7 L2278.98 1479.7 L2278.98 1485.58 L2274.1 1485.58 L2274.1 1479.7 Z" fill="#000000" fill-rule="nonzero" fill-opacity="1" /><path clip-path="url(#clip650)" d="M2289.31 1484.86 L2289.31 1480.6 Q2291.06 1481.44 2292.87 1481.88 Q2294.68 1482.32 2296.41 1482.32 Q2301.04 1482.32 2303.47 1479.21 Q2305.93 1476.09 2306.27 1469.75 Q2304.93 1471.74 2302.87 1472.8 Q2300.81 1473.87 2298.31 1473.87 Q2293.12 1473.87 2290.09 1470.74 Q2287.08 1467.59 2287.08 1462.15 Q2287.08 1456.83 2290.23 1453.61 Q2293.38 1450.39 2298.61 1450.39 Q2304.61 1450.39 2307.75 1455 Q2310.93 1459.58 2310.93 1468.33 Q2310.93 1476.51 2307.04 1481.39 Q2303.17 1486.25 2296.62 1486.25 Q2294.86 1486.25 2293.06 1485.9 Q2291.25 1485.56 2289.31 1484.86 M2298.61 1470.21 Q2301.76 1470.21 2303.59 1468.06 Q2305.44 1465.9 2305.44 1462.15 Q2305.44 1458.43 2303.59 1456.27 Q2301.76 1454.1 2298.61 1454.1 Q2295.46 1454.1 2293.61 1456.27 Q2291.78 1458.43 2291.78 1462.15 Q2291.78 1465.9 2293.61 1468.06 Q2295.46 1470.21 2298.61 1470.21 Z" fill="#000000" fill-rule="nonzero" fill-opacity="1" /><path clip-path="url(#clip650)" d="M2319.37 1451.02 L2337.73 1451.02 L2337.73 1454.96 L2323.66 1454.96 L2323.66 1463.43 Q2324.68 1463.08 2325.69 1462.92 Q2326.71 1462.73 2327.73 1462.73 Q2333.52 1462.73 2336.9 1465.9 Q2340.28 1469.08 2340.28 1474.49 Q2340.28 1480.07 2336.8 1483.17 Q2333.33 1486.25 2327.01 1486.25 Q2324.84 1486.25 2322.57 1485.88 Q2320.32 1485.51 2317.92 1484.77 L2317.92 1480.07 Q2320 1481.2 2322.22 1481.76 Q2324.44 1482.32 2326.92 1482.32 Q2330.93 1482.32 2333.26 1480.21 Q2335.6 1478.1 2335.6 1474.49 Q2335.6 1470.88 2333.26 1468.77 Q2330.93 1466.67 2326.92 1466.67 Q2325.05 1466.67 2323.17 1467.08 Q2321.32 1467.5 2319.37 1468.38 L2319.37 1451.02 Z" fill="#000000" fill-rule="nonzero" fill-opacity="1" /><path clip-path="url(#clip650)" d="M1001.23 1545.76 Q1003.3 1546.46 1005.24 1548.76 Q1007.21 1551.05 1009.19 1555.06 L1015.71 1568.04 L1008.8 1568.04 L1002.72 1555.85 Q1000.37 1551.08 998.141 1549.52 Q995.945 1547.96 992.126 1547.96 L985.123 1547.96 L985.123 1568.04 L978.694 1568.04 L978.694 1520.52 L993.208 1520.52 Q1001.36 1520.52 1005.37 1523.93 Q1009.38 1527.34 1009.38 1534.21 Q1009.38 1538.7 1007.28 1541.66 Q1005.21 1544.62 1001.23 1545.76 M985.123 1525.81 L985.123 1542.68 L993.208 1542.68 Q997.855 1542.68 1000.21 1540.54 Q1002.6 1538.38 1002.6 1534.21 Q1002.6 1530.04 1000.21 1527.94 Q997.855 1525.81 993.208 1525.81 L985.123 1525.81 Z" fill="#000000" fill-rule="nonzero" fill-opacity="1" /><path clip-path="url(#clip650)" d="M1051.29 1548.76 L1051.29 1551.62 L1024.37 1551.62 Q1024.75 1557.67 1028 1560.85 Q1031.27 1564 1037.1 1564 Q1040.47 1564 1043.62 1563.17 Q1046.81 1562.35 1049.93 1560.69 L1049.93 1566.23 Q1046.78 1567.57 1043.47 1568.27 Q1040.15 1568.97 1036.75 1568.97 Q1028.22 1568.97 1023.22 1564 Q1018.26 1559.04 1018.26 1550.57 Q1018.26 1541.82 1022.97 1536.69 Q1027.71 1531.54 1035.73 1531.54 Q1042.92 1531.54 1047.09 1536.18 Q1051.29 1540.8 1051.29 1548.76 M1045.44 1547.04 Q1045.37 1542.23 1042.73 1539.37 Q1040.12 1536.5 1035.79 1536.5 Q1030.89 1536.5 1027.93 1539.27 Q1025 1542.04 1024.56 1547.07 L1045.44 1547.04 Z" fill="#000000" fill-rule="nonzero" fill-opacity="1" /><path clip-path="url(#clip650)" d="M1060.91 1518.52 L1066.76 1518.52 L1066.76 1568.04 L1060.91 1568.04 L1060.91 1518.52 Z" fill="#000000" fill-rule="nonzero" fill-opacity="1" /><path clip-path="url(#clip650)" d="M1095.22 1550.12 Q1088.12 1550.12 1085.38 1551.75 Q1082.65 1553.37 1082.65 1557.29 Q1082.65 1560.4 1084.68 1562.25 Q1086.75 1564.07 1090.28 1564.07 Q1095.15 1564.07 1098.08 1560.63 Q1101.04 1557.16 1101.04 1551.43 L1101.04 1550.12 L1095.22 1550.12 M1106.9 1547.71 L1106.9 1568.04 L1101.04 1568.04 L1101.04 1562.63 Q1099.04 1565.88 1096.05 1567.44 Q1093.05 1568.97 1088.73 1568.97 Q1083.25 1568.97 1080 1565.91 Q1076.79 1562.82 1076.79 1557.67 Q1076.79 1551.65 1080.8 1548.6 Q1084.84 1545.54 1092.83 1545.54 L1101.04 1545.54 L1101.04 1544.97 Q1101.04 1540.93 1098.37 1538.73 Q1095.73 1536.5 1090.92 1536.5 Q1087.87 1536.5 1084.97 1537.23 Q1082.07 1537.97 1079.4 1539.43 L1079.4 1534.02 Q1082.61 1532.78 1085.64 1532.17 Q1088.66 1531.54 1091.53 1531.54 Q1099.26 1531.54 1103.08 1535.55 Q1106.9 1539.56 1106.9 1547.71 Z" fill="#000000" fill-rule="nonzero" fill-opacity="1" /><path clip-path="url(#clip650)" d="M1124.76 1522.27 L1124.76 1532.4 L1136.82 1532.4 L1136.82 1536.95 L1124.76 1536.95 L1124.76 1556.3 Q1124.76 1560.66 1125.93 1561.9 Q1127.14 1563.14 1130.8 1563.14 L1136.82 1563.14 L1136.82 1568.04 L1130.8 1568.04 Q1124.02 1568.04 1121.45 1565.53 Q1118.87 1562.98 1118.87 1556.3 L1118.87 1536.95 L1114.57 1536.95 L1114.57 1532.4 L1118.87 1532.4 L1118.87 1522.27 L1124.76 1522.27 Z" fill="#000000" fill-rule="nonzero" fill-opacity="1" /><path clip-path="url(#clip650)" d="M1144.52 1532.4 L1150.38 1532.4 L1150.38 1568.04 L1144.52 1568.04 L1144.52 1532.4 M1144.52 1518.52 L1150.38 1518.52 L1150.38 1525.93 L1144.52 1525.93 L1144.52 1518.52 Z" fill="#000000" fill-rule="nonzero" fill-opacity="1" /><path clip-path="url(#clip650)" d="M1158.43 1532.4 L1164.64 1532.4 L1175.78 1562.31 L1186.92 1532.4 L1193.12 1532.4 L1179.75 1568.04 L1171.8 1568.04 L1158.43 1532.4 Z" fill="#000000" fill-rule="nonzero" fill-opacity="1" /><path clip-path="url(#clip650)" d="M1231.7 1548.76 L1231.7 1551.62 L1204.77 1551.62 Q1205.15 1557.67 1208.4 1560.85 Q1211.68 1564 1217.5 1564 Q1220.88 1564 1224.03 1563.17 Q1227.21 1562.35 1230.33 1560.69 L1230.33 1566.23 Q1227.18 1567.57 1223.87 1568.27 Q1220.56 1568.97 1217.15 1568.97 Q1208.62 1568.97 1203.63 1564 Q1198.66 1559.04 1198.66 1550.57 Q1198.66 1541.82 1203.37 1536.69 Q1208.11 1531.54 1216.13 1531.54 Q1223.33 1531.54 1227.5 1536.18 Q1231.7 1540.8 1231.7 1548.76 M1225.84 1547.04 Q1225.78 1542.23 1223.14 1539.37 Q1220.53 1536.5 1216.2 1536.5 Q1211.3 1536.5 1208.34 1539.27 Q1205.41 1542.04 1204.96 1547.07 L1225.84 1547.04 Z" fill="#000000" fill-rule="nonzero" fill-opacity="1" /><path clip-path="url(#clip650)" d="M1262.29 1520.52 L1268.72 1520.52 L1268.72 1540 L1292.08 1540 L1292.08 1520.52 L1298.51 1520.52 L1298.51 1568.04 L1292.08 1568.04 L1292.08 1545.41 L1268.72 1545.41 L1268.72 1568.04 L1262.29 1568.04 L1262.29 1520.52 Z" fill="#000000" fill-rule="nonzero" fill-opacity="1" /><path clip-path="url(#clip650)" d="M1310.44 1553.98 L1310.44 1532.4 L1316.3 1532.4 L1316.3 1553.75 Q1316.3 1558.81 1318.27 1561.36 Q1320.25 1563.87 1324.19 1563.87 Q1328.94 1563.87 1331.67 1560.85 Q1334.44 1557.83 1334.44 1552.61 L1334.44 1532.4 L1340.3 1532.4 L1340.3 1568.04 L1334.44 1568.04 L1334.44 1562.57 Q1332.31 1565.82 1329.48 1567.41 Q1326.68 1568.97 1322.95 1568.97 Q1316.81 1568.97 1313.63 1565.15 Q1310.44 1561.33 1310.44 1553.98 M1325.18 1531.54 L1325.18 1531.54 Z" fill="#000000" fill-rule="nonzero" fill-opacity="1" /><path clip-path="url(#clip650)" d="M1380.12 1539.24 Q1382.31 1535.29 1385.37 1533.41 Q1388.42 1531.54 1392.56 1531.54 Q1398.13 1531.54 1401.15 1535.45 Q1404.18 1539.33 1404.18 1546.53 L1404.18 1568.04 L1398.29 1568.04 L1398.29 1546.72 Q1398.29 1541.59 1396.48 1539.11 Q1394.66 1536.63 1390.94 1536.63 Q1386.39 1536.63 1383.74 1539.65 Q1381.1 1542.68 1381.1 1547.9 L1381.1 1568.04 L1375.21 1568.04 L1375.21 1546.72 Q1375.21 1541.56 1373.4 1539.11 Q1371.59 1536.63 1367.8 1536.63 Q1363.31 1536.63 1360.67 1539.68 Q1358.03 1542.71 1358.03 1547.9 L1358.03 1568.04 L1352.14 1568.04 L1352.14 1532.4 L1358.03 1532.4 L1358.03 1537.93 Q1360.03 1534.66 1362.83 1533.1 Q1365.63 1531.54 1369.48 1531.54 Q1373.37 1531.54 1376.07 1533.51 Q1378.81 1535.48 1380.12 1539.24 Z" fill="#000000" fill-rule="nonzero" fill-opacity="1" /><path clip-path="url(#clip650)" d="M1415.86 1532.4 L1421.72 1532.4 L1421.72 1568.04 L1415.86 1568.04 L1415.86 1532.4 M1415.86 1518.52 L1421.72 1518.52 L1421.72 1525.93 L1415.86 1525.93 L1415.86 1518.52 Z" fill="#000000" fill-rule="nonzero" fill-opacity="1" /><path clip-path="url(#clip650)" d="M1457.43 1537.81 L1457.43 1518.52 L1463.28 1518.52 L1463.28 1568.04 L1457.43 1568.04 L1457.43 1562.7 Q1455.58 1565.88 1452.75 1567.44 Q1449.95 1568.97 1446 1568.97 Q1439.54 1568.97 1435.47 1563.81 Q1431.42 1558.65 1431.42 1550.25 Q1431.42 1541.85 1435.47 1536.69 Q1439.54 1531.54 1446 1531.54 Q1449.95 1531.54 1452.75 1533.1 Q1455.58 1534.62 1457.43 1537.81 M1437.47 1550.25 Q1437.47 1556.71 1440.11 1560.4 Q1442.79 1564.07 1447.43 1564.07 Q1452.08 1564.07 1454.75 1560.4 Q1457.43 1556.71 1457.43 1550.25 Q1457.43 1543.79 1454.75 1540.13 Q1452.08 1536.44 1447.43 1536.44 Q1442.79 1536.44 1440.11 1540.13 Q1437.47 1543.79 1437.47 1550.25 Z" fill="#000000" fill-rule="nonzero" fill-opacity="1" /><path clip-path="url(#clip650)" d="M1475.35 1532.4 L1481.2 1532.4 L1481.2 1568.04 L1475.35 1568.04 L1475.35 1532.4 M1475.35 1518.52 L1481.2 1518.52 L1481.2 1525.93 L1475.35 1525.93 L1475.35 1518.52 Z" fill="#000000" fill-rule="nonzero" fill-opacity="1" /><path clip-path="url(#clip650)" d="M1499.25 1522.27 L1499.25 1532.4 L1511.31 1532.4 L1511.31 1536.95 L1499.25 1536.95 L1499.25 1556.3 Q1499.25 1560.66 1500.43 1561.9 Q1501.64 1563.14 1505.3 1563.14 L1511.31 1563.14 L1511.31 1568.04 L1505.3 1568.04 Q1498.52 1568.04 1495.94 1565.53 Q1493.36 1562.98 1493.36 1556.3 L1493.36 1536.95 L1489.06 1536.95 L1489.06 1532.4 L1493.36 1532.4 L1493.36 1522.27 L1499.25 1522.27 Z" fill="#000000" fill-rule="nonzero" fill-opacity="1" /><path clip-path="url(#clip650)" d="M1533.85 1571.35 Q1531.36 1577.72 1529.01 1579.66 Q1526.65 1581.6 1522.71 1581.6 L1518.03 1581.6 L1518.03 1576.7 L1521.47 1576.7 Q1523.89 1576.7 1525.22 1575.56 Q1526.56 1574.41 1528.18 1570.14 L1529.23 1567.47 L1514.81 1532.4 L1521.02 1532.4 L1532.16 1560.28 L1543.3 1532.4 L1549.51 1532.4 L1533.85 1571.35 Z" fill="#000000" fill-rule="nonzero" fill-opacity="1" /><polyline clip-path="url(#clip650)" style="stroke:#000000; stroke-linecap:round; stroke-linejoin:round; stroke-width:4; stroke-opacity:1; fill:none" points="175.445,1423.18 175.445,123.472 "/>
<polyline clip-path="url(#clip650)" style="stroke:#000000; stroke-linecap:round; stroke-linejoin:round; stroke-width:4; stroke-opacity:1; fill:none" points="175.445,1191.45 194.343,1191.45 "/>
<polyline clip-path="url(#clip650)" style="stroke:#000000; stroke-linecap:round; stroke-linejoin:round; stroke-width:4; stroke-opacity:1; fill:none" points="175.445,901.044 194.343,901.044 "/>
<polyline clip-path="url(#clip650)" style="stroke:#000000; stroke-linecap:round; stroke-linejoin:round; stroke-width:4; stroke-opacity:1; fill:none" points="175.445,610.64 194.343,610.64 "/>
<polyline clip-path="url(#clip650)" style="stroke:#000000; stroke-linecap:round; stroke-linejoin:round; stroke-width:4; stroke-opacity:1; fill:none" points="175.445,320.237 194.343,320.237 "/>
<path clip-path="url(#clip650)" d="M123.126 1204.79 L139.445 1204.79 L139.445 1208.73 L117.501 1208.73 L117.501 1204.79 Q120.163 1202.04 124.746 1197.41 Q129.353 1192.76 130.533 1191.41 Q132.779 1188.89 133.658 1187.15 Q134.561 1185.39 134.561 1183.7 Q134.561 1180.95 132.617 1179.21 Q130.695 1177.48 127.593 1177.48 Q125.394 1177.48 122.941 1178.24 Q120.51 1179.01 117.732 1180.56 L117.732 1175.83 Q120.556 1174.7 123.01 1174.12 Q125.464 1173.54 127.501 1173.54 Q132.871 1173.54 136.066 1176.23 Q139.26 1178.91 139.26 1183.4 Q139.26 1185.53 138.45 1187.45 Q137.663 1189.35 135.556 1191.94 Q134.978 1192.62 131.876 1195.83 Q128.774 1199.03 123.126 1204.79 Z" fill="#000000" fill-rule="nonzero" fill-opacity="1" /><path clip-path="url(#clip650)" d="M129.862 887.838 L118.056 906.287 L129.862 906.287 L129.862 887.838 M128.635 883.764 L134.515 883.764 L134.515 906.287 L139.445 906.287 L139.445 910.176 L134.515 910.176 L134.515 918.324 L129.862 918.324 L129.862 910.176 L114.26 910.176 L114.26 905.662 L128.635 883.764 Z" fill="#000000" fill-rule="nonzero" fill-opacity="1" /><path clip-path="url(#clip650)" d="M127.917 608.777 Q124.769 608.777 122.918 610.93 Q121.089 613.082 121.089 616.832 Q121.089 620.559 122.918 622.735 Q124.769 624.888 127.917 624.888 Q131.066 624.888 132.894 622.735 Q134.746 620.559 134.746 616.832 Q134.746 613.082 132.894 610.93 Q131.066 608.777 127.917 608.777 M137.2 594.124 L137.2 598.383 Q135.441 597.55 133.635 597.11 Q131.853 596.67 130.093 596.67 Q125.464 596.67 123.01 599.795 Q120.58 602.92 120.232 609.24 Q121.598 607.226 123.658 606.161 Q125.718 605.073 128.195 605.073 Q133.404 605.073 136.413 608.244 Q139.445 611.393 139.445 616.832 Q139.445 622.156 136.297 625.374 Q133.149 628.592 127.917 628.592 Q121.922 628.592 118.751 624.008 Q115.58 619.402 115.58 610.675 Q115.58 602.481 119.468 597.62 Q123.357 592.735 129.908 592.735 Q131.667 592.735 133.45 593.083 Q135.255 593.43 137.2 594.124 Z" fill="#000000" fill-rule="nonzero" fill-opacity="1" /><path clip-path="url(#clip650)" d="M127.593 321.105 Q124.26 321.105 122.339 322.887 Q120.441 324.67 120.441 327.795 Q120.441 330.92 122.339 332.702 Q124.26 334.484 127.593 334.484 Q130.927 334.484 132.848 332.702 Q134.769 330.897 134.769 327.795 Q134.769 324.67 132.848 322.887 Q130.95 321.105 127.593 321.105 M122.918 319.114 Q119.908 318.373 118.218 316.313 Q116.552 314.253 116.552 311.29 Q116.552 307.147 119.492 304.739 Q122.455 302.332 127.593 302.332 Q132.755 302.332 135.695 304.739 Q138.635 307.147 138.635 311.29 Q138.635 314.253 136.945 316.313 Q135.279 318.373 132.292 319.114 Q135.672 319.901 137.547 322.193 Q139.445 324.485 139.445 327.795 Q139.445 332.818 136.367 335.503 Q133.311 338.188 127.593 338.188 Q121.876 338.188 118.797 335.503 Q115.742 332.818 115.742 327.795 Q115.742 324.485 117.64 322.193 Q119.538 319.901 122.918 319.114 M121.205 311.73 Q121.205 314.415 122.871 315.92 Q124.561 317.424 127.593 317.424 Q130.603 317.424 132.292 315.92 Q134.005 314.415 134.005 311.73 Q134.005 309.045 132.292 307.54 Q130.603 306.036 127.593 306.036 Q124.561 306.036 122.871 307.54 Q121.205 309.045 121.205 311.73 Z" fill="#000000" fill-rule="nonzero" fill-opacity="1" /><path clip-path="url(#clip650)" d="M22.818 1009.37 L46.4666 1018.09 L46.4666 1000.61 L22.818 1009.37 M16.4842 1012.99 L16.4842 1005.71 L64.0042 987.596 L64.0042 994.28 L51.8138 998.608 L51.8138 1020.03 L64.0042 1024.36 L64.0042 1031.14 L16.4842 1012.99 Z" fill="#000000" fill-rule="nonzero" fill-opacity="1" /><path clip-path="url(#clip650)" d="M44.7161 951.566 L47.5806 951.566 L47.5806 978.493 Q53.6281 978.111 56.8109 974.864 Q59.9619 971.586 59.9619 965.761 Q59.9619 962.387 59.1344 959.236 Q58.3069 956.054 56.6518 952.934 L62.1899 952.934 Q63.5267 956.085 64.227 959.396 Q64.9272 962.706 64.9272 966.111 Q64.9272 974.641 59.9619 979.639 Q54.9967 984.604 46.5303 984.604 Q37.7774 984.604 32.6531 979.893 Q27.4968 975.151 27.4968 967.13 Q27.4968 959.937 32.1438 955.767 Q36.7589 951.566 44.7161 951.566 M42.9973 957.422 Q38.1912 957.486 35.3266 960.128 Q32.4621 962.738 32.4621 967.066 Q32.4621 971.968 35.2312 974.928 Q38.0002 977.856 43.0292 978.302 L42.9973 957.422 Z" fill="#000000" fill-rule="nonzero" fill-opacity="1" /><path clip-path="url(#clip650)" d="M33.8307 921.297 Q33.2578 922.284 33.0032 923.461 Q32.7167 924.607 32.7167 926.007 Q32.7167 930.973 35.9632 933.646 Q39.1779 936.288 45.2253 936.288 L64.0042 936.288 L64.0042 942.176 L28.3562 942.176 L28.3562 936.288 L33.8944 936.288 Q30.6479 934.442 29.0883 931.482 Q27.4968 928.522 27.4968 924.289 Q27.4968 923.684 27.5923 922.952 Q27.656 922.22 27.8151 921.329 L33.8307 921.297 Z" fill="#000000" fill-rule="nonzero" fill-opacity="1" /><path clip-path="url(#clip650)" d="M32.4621 902.773 Q32.4621 907.483 36.1542 910.221 Q39.8145 912.958 46.212 912.958 Q52.6095 912.958 56.3017 910.252 Q59.9619 907.515 59.9619 902.773 Q59.9619 898.094 56.2698 895.357 Q52.5777 892.619 46.212 892.619 Q39.8781 892.619 36.186 895.357 Q32.4621 898.094 32.4621 902.773 M27.4968 902.773 Q27.4968 895.134 32.4621 890.773 Q37.4273 886.413 46.212 886.413 Q54.9649 886.413 59.9619 890.773 Q64.9272 895.134 64.9272 902.773 Q64.9272 910.443 59.9619 914.804 Q54.9649 919.132 46.212 919.132 Q37.4273 919.132 32.4621 914.804 Q27.4968 910.443 27.4968 902.773 Z" fill="#000000" fill-rule="nonzero" fill-opacity="1" /><path clip-path="url(#clip650)" d="M29.4065 853.979 L34.9447 853.979 Q33.6716 856.462 33.035 859.136 Q32.3984 861.809 32.3984 864.674 Q32.3984 869.034 33.7352 871.231 Q35.072 873.395 37.7456 873.395 Q39.7826 873.395 40.9603 871.835 Q42.1061 870.276 43.1565 865.565 L43.6021 863.56 Q44.9389 857.321 47.3897 854.712 Q49.8086 852.07 54.1691 852.07 Q59.1344 852.07 62.0308 856.017 Q64.9272 859.931 64.9272 866.806 Q64.9272 869.671 64.3543 872.79 Q63.8132 875.878 62.6992 879.315 L56.6518 879.315 Q58.3387 876.068 59.198 872.917 Q60.0256 869.766 60.0256 866.679 Q60.0256 862.541 58.6251 860.313 Q57.1929 858.085 54.6147 858.085 Q52.2276 858.085 50.9545 859.709 Q49.6813 861.3 48.5037 866.743 L48.0262 868.78 Q46.8804 874.222 44.5251 876.641 Q42.138 879.06 38.0002 879.06 Q32.9713 879.06 30.2341 875.496 Q27.4968 871.931 27.4968 865.374 Q27.4968 862.128 27.9743 859.263 Q28.4517 856.398 29.4065 853.979 Z" fill="#000000" fill-rule="nonzero" fill-opacity="1" /><path clip-path="url(#clip650)" d="M32.4621 828.93 Q32.4621 833.641 36.1542 836.378 Q39.8145 839.116 46.212 839.116 Q52.6095 839.116 56.3017 836.41 Q59.9619 833.673 59.9619 828.93 Q59.9619 824.252 56.2698 821.514 Q52.5777 818.777 46.212 818.777 Q39.8781 818.777 36.186 821.514 Q32.4621 824.252 32.4621 828.93 M27.4968 828.93 Q27.4968 821.292 32.4621 816.931 Q37.4273 812.571 46.212 812.571 Q54.9649 812.571 59.9619 816.931 Q64.9272 821.292 64.9272 828.93 Q64.9272 836.601 59.9619 840.962 Q54.9649 845.29 46.212 845.29 Q37.4273 845.29 32.4621 840.962 Q27.4968 836.601 27.4968 828.93 Z" fill="#000000" fill-rule="nonzero" fill-opacity="1" /><path clip-path="url(#clip650)" d="M14.479 802.863 L14.479 797.006 L64.0042 797.006 L64.0042 802.863 L14.479 802.863 Z" fill="#000000" fill-rule="nonzero" fill-opacity="1" /><path clip-path="url(#clip650)" d="M16.4842 763.777 L16.4842 736.469 L21.895 736.469 L21.895 757.348 L35.8996 757.348 L35.8996 738.506 L41.3104 738.506 L41.3104 757.348 L64.0042 757.348 L64.0042 763.777 L16.4842 763.777 Z" fill="#000000" fill-rule="nonzero" fill-opacity="1" /><path clip-path="url(#clip650)" d="M33.8307 710.624 Q33.2578 711.61 33.0032 712.788 Q32.7167 713.934 32.7167 715.334 Q32.7167 720.3 35.9632 722.973 Q39.1779 725.615 45.2253 725.615 L64.0042 725.615 L64.0042 731.503 L28.3562 731.503 L28.3562 725.615 L33.8944 725.615 Q30.6479 723.769 29.0883 720.809 Q27.4968 717.849 27.4968 713.616 Q27.4968 713.011 27.5923 712.279 Q27.656 711.547 27.8151 710.656 L33.8307 710.624 Z" fill="#000000" fill-rule="nonzero" fill-opacity="1" /><path clip-path="url(#clip650)" d="M46.0847 688.28 Q46.0847 695.378 47.7079 698.115 Q49.3312 700.852 53.2461 700.852 Q56.3653 700.852 58.2114 698.815 Q60.0256 696.747 60.0256 693.214 Q60.0256 688.344 56.5881 685.416 Q53.1188 682.456 47.3897 682.456 L46.0847 682.456 L46.0847 688.28 M43.6657 676.599 L64.0042 676.599 L64.0042 682.456 L58.5933 682.456 Q61.8398 684.461 63.3994 687.453 Q64.9272 690.444 64.9272 694.773 Q64.9272 700.248 61.8716 703.494 Q58.7843 706.709 53.6281 706.709 Q47.6125 706.709 44.5569 702.698 Q41.5014 698.656 41.5014 690.667 L41.5014 682.456 L40.9285 682.456 Q36.8862 682.456 34.6901 685.129 Q32.4621 687.771 32.4621 692.577 Q32.4621 695.633 33.1941 698.529 Q33.9262 701.425 35.3903 704.099 L29.9795 704.099 Q28.7381 700.884 28.1334 697.861 Q27.4968 694.837 27.4968 691.972 Q27.4968 684.238 31.5072 680.418 Q35.5176 676.599 43.6657 676.599 Z" fill="#000000" fill-rule="nonzero" fill-opacity="1" /><path clip-path="url(#clip650)" d="M29.7248 638.882 L35.1993 638.882 Q33.8307 641.365 33.1623 643.879 Q32.4621 646.362 32.4621 648.908 Q32.4621 654.606 36.0905 657.757 Q39.6872 660.908 46.212 660.908 Q52.7369 660.908 56.3653 657.757 Q59.9619 654.606 59.9619 648.908 Q59.9619 646.362 59.2935 643.879 Q58.5933 641.365 57.2247 638.882 L62.6355 638.882 Q63.7814 641.333 64.3543 643.975 Q64.9272 646.585 64.9272 649.545 Q64.9272 657.597 59.8664 662.34 Q54.8057 667.082 46.212 667.082 Q37.491 667.082 32.4939 662.308 Q27.4968 657.502 27.4968 649.163 Q27.4968 646.457 28.0697 643.879 Q28.6108 641.301 29.7248 638.882 Z" fill="#000000" fill-rule="nonzero" fill-opacity="1" /><path clip-path="url(#clip650)" d="M18.2347 622.904 L28.3562 622.904 L28.3562 610.841 L32.9077 610.841 L32.9077 622.904 L52.2594 622.904 Q56.6199 622.904 57.8613 621.727 Q59.1026 620.517 59.1026 616.857 L59.1026 610.841 L64.0042 610.841 L64.0042 616.857 Q64.0042 623.636 61.4897 626.215 Q58.9434 628.793 52.2594 628.793 L32.9077 628.793 L32.9077 633.089 L28.3562 633.089 L28.3562 628.793 L18.2347 628.793 L18.2347 622.904 Z" fill="#000000" fill-rule="nonzero" fill-opacity="1" /><path clip-path="url(#clip650)" d="M28.3562 603.139 L28.3562 597.282 L64.0042 597.282 L64.0042 603.139 L28.3562 603.139 M14.479 603.139 L14.479 597.282 L21.895 597.282 L21.895 603.139 L14.479 603.139 Z" fill="#000000" fill-rule="nonzero" fill-opacity="1" /><path clip-path="url(#clip650)" d="M32.4621 571.215 Q32.4621 575.925 36.1542 578.663 Q39.8145 581.4 46.212 581.4 Q52.6095 581.4 56.3017 578.695 Q59.9619 575.957 59.9619 571.215 Q59.9619 566.536 56.2698 563.799 Q52.5777 561.061 46.212 561.061 Q39.8781 561.061 36.186 563.799 Q32.4621 566.536 32.4621 571.215 M27.4968 571.215 Q27.4968 563.576 32.4621 559.215 Q37.4273 554.855 46.212 554.855 Q54.9649 554.855 59.9619 559.215 Q64.9272 563.576 64.9272 571.215 Q64.9272 578.885 59.9619 583.246 Q54.9649 587.575 46.212 587.575 Q37.4273 587.575 32.4621 583.246 Q27.4968 578.885 27.4968 571.215 Z" fill="#000000" fill-rule="nonzero" fill-opacity="1" /><path clip-path="url(#clip650)" d="M42.4881 515.515 L64.0042 515.515 L64.0042 521.371 L42.679 521.371 Q37.6183 521.371 35.1038 523.345 Q32.5894 525.318 32.5894 529.265 Q32.5894 534.007 35.6131 536.744 Q38.6368 539.482 43.8567 539.482 L64.0042 539.482 L64.0042 545.37 L28.3562 545.37 L28.3562 539.482 L33.8944 539.482 Q30.6797 537.381 29.0883 534.548 Q27.4968 531.684 27.4968 527.96 Q27.4968 521.817 31.3163 518.666 Q35.1038 515.515 42.4881 515.515 Z" fill="#000000" fill-rule="nonzero" fill-opacity="1" /><path clip-path="url(#clip650)" d="M387.708 63.9476 L387.708 47.7034 L374.34 47.7034 L374.34 40.9789 L395.809 40.9789 L395.809 66.9452 Q391.07 70.3075 385.358 72.0494 Q379.646 73.7508 373.165 73.7508 Q358.987 73.7508 350.966 65.4869 Q342.986 57.1826 342.986 42.3968 Q342.986 27.5705 350.966 19.3066 Q358.987 11.0023 373.165 11.0023 Q379.079 11.0023 384.386 12.4606 Q389.733 13.9189 394.23 16.7545 L394.23 25.464 Q389.693 21.6156 384.588 19.6712 Q379.484 17.7268 373.854 17.7268 Q362.754 17.7268 357.164 23.9246 Q351.614 30.1225 351.614 42.3968 Q351.614 54.6305 357.164 60.8284 Q362.754 67.0263 373.854 67.0263 Q378.188 67.0263 381.591 66.2971 Q384.994 65.5274 387.708 63.9476 Z" fill="#000000" fill-rule="nonzero" fill-opacity="1" /><path clip-path="url(#clip650)" d="M431.052 49.7694 Q422.019 49.7694 418.535 51.8354 Q415.051 53.9013 415.051 58.8839 Q415.051 62.8538 417.644 65.2034 Q420.277 67.5124 424.773 67.5124 Q430.971 67.5124 434.698 63.1374 Q438.466 58.7219 438.466 51.4303 L438.466 49.7694 L431.052 49.7694 M445.919 46.6907 L445.919 72.576 L438.466 72.576 L438.466 65.6895 Q435.913 69.8214 432.106 71.8063 Q428.298 73.7508 422.789 73.7508 Q415.821 73.7508 411.689 69.8619 Q407.598 65.9325 407.598 59.3701 Q407.598 51.7138 412.702 47.825 Q417.846 43.9361 428.014 43.9361 L438.466 43.9361 L438.466 43.2069 Q438.466 38.0623 435.063 35.2672 Q431.701 32.4315 425.584 32.4315 Q421.695 32.4315 418.008 33.3632 Q414.322 34.295 410.919 36.1584 L410.919 29.2718 Q415.011 27.692 418.859 26.9223 Q422.707 26.1121 426.353 26.1121 Q436.197 26.1121 441.058 31.2163 Q445.919 36.3204 445.919 46.6907 Z" fill="#000000" fill-rule="nonzero" fill-opacity="1" /><path clip-path="url(#clip650)" d="M490.196 28.5427 L490.196 35.5912 Q487.036 33.9709 483.633 33.1607 Q480.23 32.3505 476.585 32.3505 Q471.035 32.3505 468.24 34.0519 Q465.485 35.7533 465.485 39.156 Q465.485 41.7486 467.47 43.2475 Q469.455 44.7058 475.45 46.0426 L478.002 46.6097 Q485.942 48.3111 489.264 51.4303 Q492.626 54.509 492.626 60.0587 Q492.626 66.3781 487.603 70.0644 Q482.62 73.7508 473.87 73.7508 Q470.225 73.7508 466.255 73.0216 Q462.325 72.3329 457.95 70.9151 L457.95 63.2184 Q462.082 65.3654 466.093 66.4591 Q470.103 67.5124 474.032 67.5124 Q479.299 67.5124 482.134 65.73 Q484.97 63.9071 484.97 60.6258 Q484.97 57.5877 482.904 55.9673 Q480.878 54.3469 473.951 52.8481 L471.359 52.2405 Q464.432 50.7821 461.353 47.7845 Q458.274 44.7463 458.274 39.4801 Q458.274 33.0797 462.811 29.5959 Q467.348 26.1121 475.693 26.1121 Q479.825 26.1121 483.471 26.7198 Q487.117 27.3274 490.196 28.5427 Z" fill="#000000" fill-rule="nonzero" fill-opacity="1" /><path clip-path="url(#clip650)" d="M500.728 46.5287 L522.562 46.5287 L522.562 53.1722 L500.728 53.1722 L500.728 46.5287 Z" fill="#000000" fill-rule="nonzero" fill-opacity="1" /><path clip-path="url(#clip650)" d="M553.147 20.1573 L542.047 50.2555 L564.287 50.2555 L553.147 20.1573 M548.529 12.096 L557.805 12.096 L580.855 72.576 L572.348 72.576 L566.839 57.061 L539.576 57.061 L534.067 72.576 L525.438 72.576 L548.529 12.096 Z" fill="#000000" fill-rule="nonzero" fill-opacity="1" /><path clip-path="url(#clip650)" d="M626.711 48.0275 L626.711 51.6733 L592.44 51.6733 Q592.926 59.3701 597.058 63.421 Q601.231 67.4314 608.644 67.4314 Q612.938 67.4314 616.948 66.3781 Q620.999 65.3249 624.969 63.2184 L624.969 70.267 Q620.959 71.9684 616.746 72.8596 Q612.533 73.7508 608.198 73.7508 Q597.342 73.7508 590.982 67.4314 Q584.663 61.1119 584.663 50.3365 Q584.663 39.1965 590.658 32.6746 Q596.694 26.1121 606.902 26.1121 Q616.057 26.1121 621.364 32.0264 Q626.711 37.9003 626.711 48.0275 M619.257 45.84 Q619.176 39.7232 615.814 36.0774 Q612.492 32.4315 606.983 32.4315 Q600.745 32.4315 596.977 35.9558 Q593.251 39.4801 592.683 45.8805 L619.257 45.84 Z" fill="#000000" fill-rule="nonzero" fill-opacity="1" /><path clip-path="url(#clip650)" d="M665.235 34.1734 Q663.979 33.4443 662.481 33.1202 Q661.022 32.7556 659.24 32.7556 Q652.92 32.7556 649.518 36.8875 Q646.155 40.9789 646.155 48.6757 L646.155 72.576 L638.661 72.576 L638.661 27.2059 L646.155 27.2059 L646.155 34.2544 Q648.505 30.1225 652.272 28.1376 Q656.04 26.1121 661.427 26.1121 Q662.197 26.1121 663.129 26.2337 Q664.06 26.3147 665.195 26.5172 L665.235 34.1734 Z" fill="#000000" fill-rule="nonzero" fill-opacity="1" /><path clip-path="url(#clip650)" d="M688.811 32.4315 Q682.816 32.4315 679.332 37.1306 Q675.849 41.7891 675.849 49.9314 Q675.849 58.0738 679.292 62.7728 Q682.776 67.4314 688.811 67.4314 Q694.766 67.4314 698.25 62.7323 Q701.734 58.0333 701.734 49.9314 Q701.734 41.8701 698.25 37.1711 Q694.766 32.4315 688.811 32.4315 M688.811 26.1121 Q698.534 26.1121 704.083 32.4315 Q709.633 38.7509 709.633 49.9314 Q709.633 61.0714 704.083 67.4314 Q698.534 73.7508 688.811 73.7508 Q679.049 73.7508 673.499 67.4314 Q667.99 61.0714 667.99 49.9314 Q667.99 38.7509 673.499 32.4315 Q679.049 26.1121 688.811 26.1121 Z" fill="#000000" fill-rule="nonzero" fill-opacity="1" /><path clip-path="url(#clip650)" d="M750.912 28.5427 L750.912 35.5912 Q747.752 33.9709 744.349 33.1607 Q740.947 32.3505 737.301 32.3505 Q731.751 32.3505 728.956 34.0519 Q726.201 35.7533 726.201 39.156 Q726.201 41.7486 728.186 43.2475 Q730.171 44.7058 736.166 46.0426 L738.719 46.6097 Q746.658 48.3111 749.98 51.4303 Q753.342 54.509 753.342 60.0587 Q753.342 66.3781 748.319 70.0644 Q743.337 73.7508 734.587 73.7508 Q730.941 73.7508 726.971 73.0216 Q723.042 72.3329 718.667 70.9151 L718.667 63.2184 Q722.798 65.3654 726.809 66.4591 Q730.819 67.5124 734.749 67.5124 Q740.015 67.5124 742.85 65.73 Q745.686 63.9071 745.686 60.6258 Q745.686 57.5877 743.62 55.9673 Q741.595 54.3469 734.668 52.8481 L732.075 52.2405 Q725.148 50.7821 722.069 47.7845 Q718.991 44.7463 718.991 39.4801 Q718.991 33.0797 723.528 29.5959 Q728.065 26.1121 736.41 26.1121 Q740.541 26.1121 744.187 26.7198 Q747.833 27.3274 750.912 28.5427 Z" fill="#000000" fill-rule="nonzero" fill-opacity="1" /><path clip-path="url(#clip650)" d="M782.792 32.4315 Q776.797 32.4315 773.313 37.1306 Q769.829 41.7891 769.829 49.9314 Q769.829 58.0738 773.273 62.7728 Q776.757 67.4314 782.792 67.4314 Q788.747 67.4314 792.231 62.7323 Q795.715 58.0333 795.715 49.9314 Q795.715 41.8701 792.231 37.1711 Q788.747 32.4315 782.792 32.4315 M782.792 26.1121 Q792.515 26.1121 798.064 32.4315 Q803.614 38.7509 803.614 49.9314 Q803.614 61.0714 798.064 67.4314 Q792.515 73.7508 782.792 73.7508 Q773.03 73.7508 767.48 67.4314 Q761.971 61.0714 761.971 49.9314 Q761.971 38.7509 767.48 32.4315 Q773.03 26.1121 782.792 26.1121 Z" fill="#000000" fill-rule="nonzero" fill-opacity="1" /><path clip-path="url(#clip650)" d="M815.969 9.54393 L823.423 9.54393 L823.423 72.576 L815.969 72.576 L815.969 9.54393 Z" fill="#000000" fill-rule="nonzero" fill-opacity="1" /><path clip-path="url(#clip650)" d="M873.897 18.8205 L873.897 41.5461 L884.187 41.5461 Q889.898 41.5461 893.017 38.5889 Q896.137 35.6318 896.137 30.163 Q896.137 24.7348 893.017 21.7777 Q889.898 18.8205 884.187 18.8205 L873.897 18.8205 M865.714 12.096 L884.187 12.096 Q894.354 12.096 899.539 16.714 Q904.765 21.2916 904.765 30.163 Q904.765 39.1155 899.539 43.6931 Q894.354 48.2706 884.187 48.2706 L873.897 48.2706 L873.897 72.576 L865.714 72.576 L865.714 12.096 Z" fill="#000000" fill-rule="nonzero" fill-opacity="1" /><path clip-path="url(#clip650)" d="M932.311 49.7694 Q923.278 49.7694 919.794 51.8354 Q916.31 53.9013 916.31 58.8839 Q916.31 62.8538 918.903 65.2034 Q921.536 67.5124 926.032 67.5124 Q932.23 67.5124 935.957 63.1374 Q939.724 58.7219 939.724 51.4303 L939.724 49.7694 L932.311 49.7694 M947.178 46.6907 L947.178 72.576 L939.724 72.576 L939.724 65.6895 Q937.172 69.8214 933.364 71.8063 Q929.557 73.7508 924.047 73.7508 Q917.08 73.7508 912.948 69.8619 Q908.857 65.9325 908.857 59.3701 Q908.857 51.7138 913.961 47.825 Q919.105 43.9361 929.273 43.9361 L939.724 43.9361 L939.724 43.2069 Q939.724 38.0623 936.322 35.2672 Q932.959 32.4315 926.843 32.4315 Q922.954 32.4315 919.267 33.3632 Q915.581 34.295 912.178 36.1584 L912.178 29.2718 Q916.27 27.692 920.118 26.9223 Q923.966 26.1121 927.612 26.1121 Q937.456 26.1121 942.317 31.2163 Q947.178 36.3204 947.178 46.6907 Z" fill="#000000" fill-rule="nonzero" fill-opacity="1" /><path clip-path="url(#clip650)" d="M988.821 34.1734 Q987.566 33.4443 986.067 33.1202 Q984.608 32.7556 982.826 32.7556 Q976.507 32.7556 973.104 36.8875 Q969.742 40.9789 969.742 48.6757 L969.742 72.576 L962.247 72.576 L962.247 27.2059 L969.742 27.2059 L969.742 34.2544 Q972.091 30.1225 975.858 28.1376 Q979.626 26.1121 985.014 26.1121 Q985.783 26.1121 986.715 26.2337 Q987.647 26.3147 988.781 26.5172 L988.821 34.1734 Z" fill="#000000" fill-rule="nonzero" fill-opacity="1" /><path clip-path="url(#clip650)" d="M1004.01 14.324 L1004.01 27.2059 L1019.37 27.2059 L1019.37 32.9987 L1004.01 32.9987 L1004.01 57.6282 Q1004.01 63.1779 1005.51 64.7578 Q1007.05 66.3376 1011.71 66.3376 L1019.37 66.3376 L1019.37 72.576 L1011.71 72.576 Q1003.08 72.576 999.799 69.3758 Q996.518 66.1351 996.518 57.6282 L996.518 32.9987 L991.049 32.9987 L991.049 27.2059 L996.518 27.2059 L996.518 14.324 L1004.01 14.324 Z" fill="#000000" fill-rule="nonzero" fill-opacity="1" /><path clip-path="url(#clip650)" d="M1029.17 27.2059 L1036.62 27.2059 L1036.62 72.576 L1029.17 72.576 L1029.17 27.2059 M1029.17 9.54393 L1036.62 9.54393 L1036.62 18.9825 L1029.17 18.9825 L1029.17 9.54393 Z" fill="#000000" fill-rule="nonzero" fill-opacity="1" /><path clip-path="url(#clip650)" d="M1059.59 14.324 L1059.59 27.2059 L1074.94 27.2059 L1074.94 32.9987 L1059.59 32.9987 L1059.59 57.6282 Q1059.59 63.1779 1061.09 64.7578 Q1062.63 66.3376 1067.29 66.3376 L1074.94 66.3376 L1074.94 72.576 L1067.29 72.576 Q1058.66 72.576 1055.38 69.3758 Q1052.1 66.1351 1052.1 57.6282 L1052.1 32.9987 L1046.63 32.9987 L1046.63 27.2059 L1052.1 27.2059 L1052.1 14.324 L1059.59 14.324 Z" fill="#000000" fill-rule="nonzero" fill-opacity="1" /><path clip-path="url(#clip650)" d="M1084.75 27.2059 L1092.2 27.2059 L1092.2 72.576 L1084.75 72.576 L1084.75 27.2059 M1084.75 9.54393 L1092.2 9.54393 L1092.2 18.9825 L1084.75 18.9825 L1084.75 9.54393 Z" fill="#000000" fill-rule="nonzero" fill-opacity="1" /><path clip-path="url(#clip650)" d="M1125.38 32.4315 Q1119.38 32.4315 1115.9 37.1306 Q1112.41 41.7891 1112.41 49.9314 Q1112.41 58.0738 1115.86 62.7728 Q1119.34 67.4314 1125.38 67.4314 Q1131.33 67.4314 1134.82 62.7323 Q1138.3 58.0333 1138.3 49.9314 Q1138.3 41.8701 1134.82 37.1711 Q1131.33 32.4315 1125.38 32.4315 M1125.38 26.1121 Q1135.1 26.1121 1140.65 32.4315 Q1146.2 38.7509 1146.2 49.9314 Q1146.2 61.0714 1140.65 67.4314 Q1135.1 73.7508 1125.38 73.7508 Q1115.61 73.7508 1110.06 67.4314 Q1104.56 61.0714 1104.56 49.9314 Q1104.56 38.7509 1110.06 32.4315 Q1115.61 26.1121 1125.38 26.1121 Z" fill="#000000" fill-rule="nonzero" fill-opacity="1" /><path clip-path="url(#clip650)" d="M1196.27 45.1919 L1196.27 72.576 L1188.81 72.576 L1188.81 45.4349 Q1188.81 38.994 1186.3 35.7938 Q1183.79 32.5936 1178.77 32.5936 Q1172.73 32.5936 1169.25 36.4419 Q1165.76 40.2903 1165.76 46.9338 L1165.76 72.576 L1158.27 72.576 L1158.27 27.2059 L1165.76 27.2059 L1165.76 34.2544 Q1168.44 30.163 1172.04 28.1376 Q1175.69 26.1121 1180.43 26.1121 Q1188.25 26.1121 1192.26 30.9732 Q1196.27 35.7938 1196.27 45.1919 Z" fill="#000000" fill-rule="nonzero" fill-opacity="1" /><path clip-path="url(#clip650)" d="M1211.13 27.2059 L1218.59 27.2059 L1218.59 72.576 L1211.13 72.576 L1211.13 27.2059 M1211.13 9.54393 L1218.59 9.54393 L1218.59 18.9825 L1211.13 18.9825 L1211.13 9.54393 Z" fill="#000000" fill-rule="nonzero" fill-opacity="1" /><path clip-path="url(#clip650)" d="M1271.9 45.1919 L1271.9 72.576 L1264.44 72.576 L1264.44 45.4349 Q1264.44 38.994 1261.93 35.7938 Q1259.42 32.5936 1254.4 32.5936 Q1248.36 32.5936 1244.88 36.4419 Q1241.4 40.2903 1241.4 46.9338 L1241.4 72.576 L1233.9 72.576 L1233.9 27.2059 L1241.4 27.2059 L1241.4 34.2544 Q1244.07 30.163 1247.67 28.1376 Q1251.32 26.1121 1256.06 26.1121 Q1263.88 26.1121 1267.89 30.9732 Q1271.9 35.7938 1271.9 45.1919 Z" fill="#000000" fill-rule="nonzero" fill-opacity="1" /><path clip-path="url(#clip650)" d="M1316.62 49.3643 Q1316.62 41.2625 1313.26 36.8065 Q1309.94 32.3505 1303.9 32.3505 Q1297.91 32.3505 1294.54 36.8065 Q1291.22 41.2625 1291.22 49.3643 Q1291.22 57.4256 1294.54 61.8816 Q1297.91 66.3376 1303.9 66.3376 Q1309.94 66.3376 1313.26 61.8816 Q1316.62 57.4256 1316.62 49.3643 M1324.07 66.9452 Q1324.07 78.5308 1318.93 84.1616 Q1313.78 89.8329 1303.17 89.8329 Q1299.24 89.8329 1295.76 89.2252 Q1292.27 88.6581 1288.99 87.4428 L1288.99 80.1917 Q1292.27 81.9741 1295.47 82.8248 Q1298.68 83.6755 1302 83.6755 Q1309.33 83.6755 1312.97 79.8271 Q1316.62 76.0193 1316.62 68.282 L1316.62 64.5957 Q1314.31 68.6061 1310.71 70.5911 Q1307.1 72.576 1302.08 72.576 Q1293.73 72.576 1288.63 66.2161 Q1283.52 59.8562 1283.52 49.3643 Q1283.52 38.832 1288.63 32.472 Q1293.73 26.1121 1302.08 26.1121 Q1307.1 26.1121 1310.71 28.0971 Q1314.31 30.082 1316.62 34.0924 L1316.62 27.2059 L1324.07 27.2059 L1324.07 66.9452 Z" fill="#000000" fill-rule="nonzero" fill-opacity="1" /><path clip-path="url(#clip650)" d="M1360.45 27.2059 L1368.35 27.2059 L1382.53 65.2844 L1396.71 27.2059 L1404.61 27.2059 L1387.59 72.576 L1377.47 72.576 L1360.45 27.2059 Z" fill="#000000" fill-rule="nonzero" fill-opacity="1" /><path clip-path="url(#clip650)" d="M1443.82 28.5427 L1443.82 35.5912 Q1440.66 33.9709 1437.26 33.1607 Q1433.85 32.3505 1430.21 32.3505 Q1424.66 32.3505 1421.86 34.0519 Q1419.11 35.7533 1419.11 39.156 Q1419.11 41.7486 1421.09 43.2475 Q1423.08 44.7058 1429.07 46.0426 L1431.63 46.6097 Q1439.57 48.3111 1442.89 51.4303 Q1446.25 54.509 1446.25 60.0587 Q1446.25 66.3781 1441.23 70.0644 Q1436.24 73.7508 1427.49 73.7508 Q1423.85 73.7508 1419.88 73.0216 Q1415.95 72.3329 1411.57 70.9151 L1411.57 63.2184 Q1415.71 65.3654 1419.72 66.4591 Q1423.73 67.5124 1427.66 67.5124 Q1432.92 67.5124 1435.76 65.73 Q1438.59 63.9071 1438.59 60.6258 Q1438.59 57.5877 1436.53 55.9673 Q1434.5 54.3469 1427.57 52.8481 L1424.98 52.2405 Q1418.06 50.7821 1414.98 47.7845 Q1411.9 44.7463 1411.9 39.4801 Q1411.9 33.0797 1416.43 29.5959 Q1420.97 26.1121 1429.32 26.1121 Q1433.45 26.1121 1437.09 26.7198 Q1440.74 27.3274 1443.82 28.5427 Z" fill="#000000" fill-rule="nonzero" fill-opacity="1" /><path clip-path="url(#clip650)" d="M1513.49 44.2197 Q1516.13 45.1109 1518.6 48.0275 Q1521.11 50.9442 1523.62 56.0483 L1531.93 72.576 L1523.14 72.576 L1515.4 57.061 Q1512.4 50.9847 1509.57 48.9997 Q1506.77 47.0148 1501.91 47.0148 L1493 47.0148 L1493 72.576 L1484.81 72.576 L1484.81 12.096 L1503.29 12.096 Q1513.66 12.096 1518.76 16.4305 Q1523.86 20.7649 1523.86 29.5149 Q1523.86 35.2267 1521.19 38.994 Q1518.56 42.7613 1513.49 44.2197 M1493 18.8205 L1493 40.2903 L1503.29 40.2903 Q1509.2 40.2903 1512.2 37.5762 Q1515.24 34.8216 1515.24 29.5149 Q1515.24 24.2082 1512.2 21.5346 Q1509.2 18.8205 1503.29 18.8205 L1493 18.8205 Z" fill="#000000" fill-rule="nonzero" fill-opacity="1" /><path clip-path="url(#clip650)" d="M1542.46 12.096 L1550.64 12.096 L1550.64 36.8875 L1580.37 36.8875 L1580.37 12.096 L1588.56 12.096 L1588.56 72.576 L1580.37 72.576 L1580.37 43.7741 L1550.64 43.7741 L1550.64 72.576 L1542.46 72.576 L1542.46 12.096 Z" fill="#000000" fill-rule="nonzero" fill-opacity="1" /><path clip-path="url(#clip650)" d="M1648.79 9.62495 Q1643.37 18.942 1640.73 28.0566 Q1638.1 37.1711 1638.1 46.5287 Q1638.1 55.8863 1640.73 65.0818 Q1643.41 74.2369 1648.79 83.5134 L1642.31 83.5134 Q1636.24 73.9938 1633.2 64.7983 Q1630.2 55.6027 1630.2 46.5287 Q1630.2 37.4952 1633.2 28.3401 Q1636.2 19.1851 1642.31 9.62495 L1648.79 9.62495 Z" fill="#000000" fill-rule="nonzero" fill-opacity="1" /><path clip-path="url(#clip650)" d="M1699.84 14.0809 L1699.84 22.0612 Q1695.18 19.8332 1691.05 18.7395 Q1686.91 17.6457 1683.07 17.6457 Q1676.38 17.6457 1672.74 20.2383 Q1669.13 22.8309 1669.13 27.611 Q1669.13 31.6214 1671.52 33.6873 Q1673.95 35.7128 1680.68 36.9686 L1685.62 37.9813 Q1694.77 39.7232 1699.11 44.1387 Q1703.48 48.5136 1703.48 55.8863 Q1703.48 64.6767 1697.57 69.2137 Q1691.69 73.7508 1680.31 73.7508 Q1676.02 73.7508 1671.16 72.7785 Q1666.34 71.8063 1661.15 69.9024 L1661.15 61.4765 Q1666.13 64.2716 1670.91 65.6895 Q1675.69 67.1073 1680.31 67.1073 Q1687.32 67.1073 1691.13 64.3527 Q1694.93 61.598 1694.93 56.4939 Q1694.93 52.0379 1692.18 49.5264 Q1689.47 47.0148 1683.23 45.759 L1678.24 44.7868 Q1669.09 42.9639 1665 39.075 Q1660.91 35.1862 1660.91 28.2591 Q1660.91 20.2383 1666.54 15.6203 Q1672.21 11.0023 1682.13 11.0023 Q1686.39 11.0023 1690.8 11.7719 Q1695.22 12.5416 1699.84 14.0809 Z" fill="#000000" fill-rule="nonzero" fill-opacity="1" /><path clip-path="url(#clip650)" d="M1715.15 54.671 L1715.15 27.2059 L1722.6 27.2059 L1722.6 54.3874 Q1722.6 60.8284 1725.11 64.0691 Q1727.63 67.2693 1732.65 67.2693 Q1738.68 67.2693 1742.17 63.421 Q1745.69 59.5726 1745.69 52.9291 L1745.69 27.2059 L1753.15 27.2059 L1753.15 72.576 L1745.69 72.576 L1745.69 65.6084 Q1742.98 69.7404 1739.37 71.7658 Q1735.81 73.7508 1731.07 73.7508 Q1723.25 73.7508 1719.2 68.8897 Q1715.15 64.0286 1715.15 54.671 M1733.9 26.1121 L1733.9 26.1121 Z" fill="#000000" fill-rule="nonzero" fill-opacity="1" /><path clip-path="url(#clip650)" d="M1768.5 9.54393 L1775.95 9.54393 L1775.95 72.576 L1768.5 72.576 L1768.5 9.54393 Z" fill="#000000" fill-rule="nonzero" fill-opacity="1" /><path clip-path="url(#clip650)" d="M1814.52 9.54393 L1814.52 15.7418 L1807.39 15.7418 Q1803.38 15.7418 1801.8 17.3622 Q1800.26 18.9825 1800.26 23.1955 L1800.26 27.2059 L1812.53 27.2059 L1812.53 32.9987 L1800.26 32.9987 L1800.26 72.576 L1792.76 72.576 L1792.76 32.9987 L1785.63 32.9987 L1785.63 27.2059 L1792.76 27.2059 L1792.76 24.0462 Q1792.76 16.471 1796.29 13.0277 Q1799.81 9.54393 1807.47 9.54393 L1814.52 9.54393 Z" fill="#000000" fill-rule="nonzero" fill-opacity="1" /><path clip-path="url(#clip650)" d="M1841.37 49.7694 Q1832.34 49.7694 1828.86 51.8354 Q1825.37 53.9013 1825.37 58.8839 Q1825.37 62.8538 1827.97 65.2034 Q1830.6 67.5124 1835.1 67.5124 Q1841.29 67.5124 1845.02 63.1374 Q1848.79 58.7219 1848.79 51.4303 L1848.79 49.7694 L1841.37 49.7694 M1856.24 46.6907 L1856.24 72.576 L1848.79 72.576 L1848.79 65.6895 Q1846.24 69.8214 1842.43 71.8063 Q1838.62 73.7508 1833.11 73.7508 Q1826.14 73.7508 1822.01 69.8619 Q1817.92 65.9325 1817.92 59.3701 Q1817.92 51.7138 1823.02 47.825 Q1828.17 43.9361 1838.34 43.9361 L1848.79 43.9361 L1848.79 43.2069 Q1848.79 38.0623 1845.39 35.2672 Q1842.02 32.4315 1835.91 32.4315 Q1832.02 32.4315 1828.33 33.3632 Q1824.64 34.295 1821.24 36.1584 L1821.24 29.2718 Q1825.33 27.692 1829.18 26.9223 Q1833.03 26.1121 1836.68 26.1121 Q1846.52 26.1121 1851.38 31.2163 Q1856.24 36.3204 1856.24 46.6907 Z" fill="#000000" fill-rule="nonzero" fill-opacity="1" /><path clip-path="url(#clip650)" d="M1878.97 14.324 L1878.97 27.2059 L1894.32 27.2059 L1894.32 32.9987 L1878.97 32.9987 L1878.97 57.6282 Q1878.97 63.1779 1880.47 64.7578 Q1882.01 66.3376 1886.66 66.3376 L1894.32 66.3376 L1894.32 72.576 L1886.66 72.576 Q1878.04 72.576 1874.75 69.3758 Q1871.47 66.1351 1871.47 57.6282 L1871.47 32.9987 L1866 32.9987 L1866 27.2059 L1871.47 27.2059 L1871.47 14.324 L1878.97 14.324 Z" fill="#000000" fill-rule="nonzero" fill-opacity="1" /><path clip-path="url(#clip650)" d="M1942.93 48.0275 L1942.93 51.6733 L1908.66 51.6733 Q1909.15 59.3701 1913.28 63.421 Q1917.45 67.4314 1924.86 67.4314 Q1929.16 67.4314 1933.17 66.3781 Q1937.22 65.3249 1941.19 63.2184 L1941.19 70.267 Q1937.18 71.9684 1932.97 72.8596 Q1928.75 73.7508 1924.42 73.7508 Q1913.56 73.7508 1907.2 67.4314 Q1900.88 61.1119 1900.88 50.3365 Q1900.88 39.1965 1906.88 32.6746 Q1912.91 26.1121 1923.12 26.1121 Q1932.28 26.1121 1937.58 32.0264 Q1942.93 37.9003 1942.93 48.0275 M1935.48 45.84 Q1935.4 39.7232 1932.03 36.0774 Q1928.71 32.4315 1923.2 32.4315 Q1916.96 32.4315 1913.2 35.9558 Q1909.47 39.4801 1908.9 45.8805 L1935.48 45.84 Z" fill="#000000" fill-rule="nonzero" fill-opacity="1" /><path clip-path="url(#clip650)" d="M1951.4 46.5287 L1973.23 46.5287 L1973.23 53.1722 L1951.4 53.1722 L1951.4 46.5287 Z" fill="#000000" fill-rule="nonzero" fill-opacity="1" /><path clip-path="url(#clip650)" d="M1993.61 18.8205 L1993.61 41.5461 L2003.9 41.5461 Q2009.61 41.5461 2012.73 38.5889 Q2015.85 35.6318 2015.85 30.163 Q2015.85 24.7348 2012.73 21.7777 Q2009.61 18.8205 2003.9 18.8205 L1993.61 18.8205 M1985.42 12.096 L2003.9 12.096 Q2014.06 12.096 2019.25 16.714 Q2024.48 21.2916 2024.48 30.163 Q2024.48 39.1155 2019.25 43.6931 Q2014.06 48.2706 2003.9 48.2706 L1993.61 48.2706 L1993.61 72.576 L1985.42 72.576 L1985.42 12.096 Z" fill="#000000" fill-rule="nonzero" fill-opacity="1" /><path clip-path="url(#clip650)" d="M2049.75 32.4315 Q2043.76 32.4315 2040.27 37.1306 Q2036.79 41.7891 2036.79 49.9314 Q2036.79 58.0738 2040.23 62.7728 Q2043.72 67.4314 2049.75 67.4314 Q2055.71 67.4314 2059.19 62.7323 Q2062.68 58.0333 2062.68 49.9314 Q2062.68 41.8701 2059.19 37.1711 Q2055.71 32.4315 2049.75 32.4315 M2049.75 26.1121 Q2059.48 26.1121 2065.03 32.4315 Q2070.57 38.7509 2070.57 49.9314 Q2070.57 61.0714 2065.03 67.4314 Q2059.48 73.7508 2049.75 73.7508 Q2039.99 73.7508 2034.44 67.4314 Q2028.93 61.0714 2028.93 49.9314 Q2028.93 38.7509 2034.44 32.4315 Q2039.99 26.1121 2049.75 26.1121 Z" fill="#000000" fill-rule="nonzero" fill-opacity="1" /><path clip-path="url(#clip650)" d="M2100.51 32.4315 Q2094.52 32.4315 2091.03 37.1306 Q2087.55 41.7891 2087.55 49.9314 Q2087.55 58.0738 2090.99 62.7728 Q2094.48 67.4314 2100.51 67.4314 Q2106.47 67.4314 2109.95 62.7323 Q2113.43 58.0333 2113.43 49.9314 Q2113.43 41.8701 2109.95 37.1711 Q2106.47 32.4315 2100.51 32.4315 M2100.51 26.1121 Q2110.23 26.1121 2115.78 32.4315 Q2121.33 38.7509 2121.33 49.9314 Q2121.33 61.0714 2115.78 67.4314 Q2110.23 73.7508 2100.51 73.7508 Q2090.75 73.7508 2085.2 67.4314 Q2079.69 61.0714 2079.69 49.9314 Q2079.69 38.7509 2085.2 32.4315 Q2090.75 26.1121 2100.51 26.1121 Z" fill="#000000" fill-rule="nonzero" fill-opacity="1" /><path clip-path="url(#clip650)" d="M2159.98 34.1734 Q2158.72 33.4443 2157.22 33.1202 Q2155.77 32.7556 2153.98 32.7556 Q2147.66 32.7556 2144.26 36.8875 Q2140.9 40.9789 2140.9 48.6757 L2140.9 72.576 L2133.4 72.576 L2133.4 27.2059 L2140.9 27.2059 L2140.9 34.2544 Q2143.25 30.1225 2147.02 28.1376 Q2150.78 26.1121 2156.17 26.1121 Q2156.94 26.1121 2157.87 26.2337 Q2158.8 26.3147 2159.94 26.5172 L2159.98 34.1734 Z" fill="#000000" fill-rule="nonzero" fill-opacity="1" /><path clip-path="url(#clip650)" d="M2166.62 9.62495 L2173.1 9.62495 Q2179.18 19.1851 2182.18 28.3401 Q2185.22 37.4952 2185.22 46.5287 Q2185.22 55.6027 2182.18 64.7983 Q2179.18 73.9938 2173.1 83.5134 L2166.62 83.5134 Q2172.01 74.2369 2174.64 65.0818 Q2177.32 55.8863 2177.32 46.5287 Q2177.32 37.1711 2174.64 28.0566 Q2172.01 18.942 2166.62 9.62495 Z" fill="#000000" fill-rule="nonzero" fill-opacity="1" /><polyline clip-path="url(#clip651)" style="stroke:#009af9; stroke-linecap:round; stroke-linejoin:round; stroke-width:4; stroke-opacity:1; fill:none" points="647.881,1324.31 1058.69,1321.04 1469.51,1309.28 1880.32,1353.26 "/>
<polyline clip-path="url(#clip651)" style="stroke:#e26f46; stroke-linecap:round; stroke-linejoin:round; stroke-width:4; stroke-opacity:1; fill:none" points="647.881,1299.64 1058.69,1289.84 1469.51,160.256 1880.32,1386.4 "/>
<path clip-path="url(#clip650)" d="M1534.95 322.316 L2280.18 322.316 L2280.18 166.796 L1534.95 166.796  Z" fill="#ffffff" fill-rule="evenodd" fill-opacity="1"/>
<polyline clip-path="url(#clip650)" style="stroke:#000000; stroke-linecap:round; stroke-linejoin:round; stroke-width:4; stroke-opacity:1; fill:none" points="1534.95,322.316 2280.18,322.316 2280.18,166.796 1534.95,166.796 1534.95,322.316 "/>
<polyline clip-path="url(#clip650)" style="stroke:#009af9; stroke-linecap:round; stroke-linejoin:round; stroke-width:4; stroke-opacity:1; fill:none" points="1559.14,218.636 1704.3,218.636 "/>
<path clip-path="url(#clip650)" d="M1728.49 201.356 L1734.79 201.356 L1750.11 230.268 L1750.11 201.356 L1754.65 201.356 L1754.65 235.916 L1748.35 235.916 L1733.03 207.004 L1733.03 235.916 L1728.49 235.916 L1728.49 201.356 Z" fill="#000000" fill-rule="nonzero" fill-opacity="1" /><path clip-path="url(#clip650)" d="M1763.95 201.356 L1768.63 201.356 L1768.63 215.522 L1785.62 215.522 L1785.62 201.356 L1790.29 201.356 L1790.29 235.916 L1785.62 235.916 L1785.62 219.457 L1768.63 219.457 L1768.63 235.916 L1763.95 235.916 L1763.95 201.356 Z" fill="#000000" fill-rule="nonzero" fill-opacity="1" /><path clip-path="url(#clip650)" d="M1812.86 205.43 L1801.06 223.879 L1812.86 223.879 L1812.86 205.43 M1811.64 201.356 L1817.52 201.356 L1817.52 223.879 L1822.45 223.879 L1822.45 227.768 L1817.52 227.768 L1817.52 235.916 L1812.86 235.916 L1812.86 227.768 L1797.26 227.768 L1797.26 223.254 L1811.64 201.356 Z" fill="#000000" fill-rule="nonzero" fill-opacity="1" /><path clip-path="url(#clip650)" d="M1846.91 206.194 L1846.91 219.087 L1859.81 219.087 L1859.81 223.022 L1846.91 223.022 L1846.91 235.916 L1843.03 235.916 L1843.03 223.022 L1830.13 223.022 L1830.13 219.087 L1843.03 219.087 L1843.03 206.194 L1846.91 206.194 Z" fill="#000000" fill-rule="nonzero" fill-opacity="1" /><path clip-path="url(#clip650)" d="M1891.94 201.356 L1895.87 201.356 L1883.84 240.314 L1879.9 240.314 L1891.94 201.356 Z" fill="#000000" fill-rule="nonzero" fill-opacity="1" /><path clip-path="url(#clip650)" d="M1925.64 199.944 Q1922.54 205.268 1921.03 210.476 Q1919.53 215.684 1919.53 221.032 Q1919.53 226.379 1921.03 231.633 Q1922.56 236.865 1925.64 242.166 L1921.94 242.166 Q1918.47 236.726 1916.73 231.471 Q1915.02 226.217 1915.02 221.032 Q1915.02 215.87 1916.73 210.638 Q1918.44 205.407 1921.94 199.944 L1925.64 199.944 Z" fill="#000000" fill-rule="nonzero" fill-opacity="1" /><path clip-path="url(#clip650)" d="M1934.09 201.356 L1940.39 201.356 L1955.71 230.268 L1955.71 201.356 L1960.25 201.356 L1960.25 235.916 L1953.95 235.916 L1938.63 207.004 L1938.63 235.916 L1934.09 235.916 L1934.09 201.356 Z" fill="#000000" fill-rule="nonzero" fill-opacity="1" /><path clip-path="url(#clip650)" d="M1969.55 201.356 L1974.23 201.356 L1974.23 215.522 L1991.22 215.522 L1991.22 201.356 L1995.9 201.356 L1995.9 235.916 L1991.22 235.916 L1991.22 219.457 L1974.23 219.457 L1974.23 235.916 L1969.55 235.916 L1969.55 201.356 Z" fill="#000000" fill-rule="nonzero" fill-opacity="1" /><path clip-path="url(#clip650)" d="M2018.46 205.43 L2006.66 223.879 L2018.46 223.879 L2018.46 205.43 M2017.24 201.356 L2023.12 201.356 L2023.12 223.879 L2028.05 223.879 L2028.05 227.768 L2023.12 227.768 L2023.12 235.916 L2018.46 235.916 L2018.46 227.768 L2002.86 227.768 L2002.86 223.254 L2017.24 201.356 Z" fill="#000000" fill-rule="nonzero" fill-opacity="1" /><path clip-path="url(#clip650)" d="M2052.52 206.194 L2052.52 219.087 L2065.41 219.087 L2065.41 223.022 L2052.52 223.022 L2052.52 235.916 L2048.63 235.916 L2048.63 223.022 L2035.73 223.022 L2035.73 219.087 L2048.63 219.087 L2048.63 206.194 L2052.52 206.194 Z" fill="#000000" fill-rule="nonzero" fill-opacity="1" /><path clip-path="url(#clip650)" d="M2107.31 206.194 L2107.31 219.087 L2120.2 219.087 L2120.2 223.022 L2107.31 223.022 L2107.31 235.916 L2103.42 235.916 L2103.42 223.022 L2090.52 223.022 L2090.52 219.087 L2103.42 219.087 L2103.42 206.194 L2107.31 206.194 Z" fill="#000000" fill-rule="nonzero" fill-opacity="1" /><path clip-path="url(#clip650)" d="M2144.95 201.356 L2151.24 201.356 L2166.57 230.268 L2166.57 201.356 L2171.1 201.356 L2171.1 235.916 L2164.81 235.916 L2149.48 207.004 L2149.48 235.916 L2144.95 235.916 L2144.95 201.356 Z" fill="#000000" fill-rule="nonzero" fill-opacity="1" /><path clip-path="url(#clip650)" d="M2180.41 201.356 L2185.08 201.356 L2185.08 215.522 L2202.07 215.522 L2202.07 201.356 L2206.75 201.356 L2206.75 235.916 L2202.07 235.916 L2202.07 219.457 L2185.08 219.457 L2185.08 235.916 L2180.41 235.916 L2180.41 201.356 Z" fill="#000000" fill-rule="nonzero" fill-opacity="1" /><path clip-path="url(#clip650)" d="M2230.64 217.282 Q2234 217.999 2235.87 220.268 Q2237.77 222.536 2237.77 225.869 Q2237.77 230.985 2234.25 233.786 Q2230.73 236.587 2224.25 236.587 Q2222.07 236.587 2219.76 236.147 Q2217.47 235.731 2215.01 234.874 L2215.01 230.36 Q2216.96 231.494 2219.27 232.073 Q2221.59 232.652 2224.11 232.652 Q2228.51 232.652 2230.8 230.916 Q2233.12 229.18 2233.12 225.869 Q2233.12 222.814 2230.96 221.101 Q2228.83 219.365 2225.01 219.365 L2220.99 219.365 L2220.99 215.522 L2225.2 215.522 Q2228.65 215.522 2230.48 214.157 Q2232.31 212.768 2232.31 210.175 Q2232.31 207.513 2230.41 206.101 Q2228.53 204.666 2225.01 204.666 Q2223.09 204.666 2220.89 205.083 Q2218.7 205.499 2216.06 206.379 L2216.06 202.212 Q2218.72 201.471 2221.03 201.101 Q2223.37 200.731 2225.43 200.731 Q2230.76 200.731 2233.86 203.161 Q2236.96 205.569 2236.96 209.689 Q2236.96 212.559 2235.32 214.55 Q2233.67 216.518 2230.64 217.282 Z" fill="#000000" fill-rule="nonzero" fill-opacity="1" /><path clip-path="url(#clip650)" d="M2245.36 199.944 L2249.07 199.944 Q2252.54 205.407 2254.25 210.638 Q2255.99 215.87 2255.99 221.032 Q2255.99 226.217 2254.25 231.471 Q2252.54 236.726 2249.07 242.166 L2245.36 242.166 Q2248.44 236.865 2249.94 231.633 Q2251.47 226.379 2251.47 221.032 Q2251.47 215.684 2249.94 210.476 Q2248.44 205.268 2245.36 199.944 Z" fill="#000000" fill-rule="nonzero" fill-opacity="1" /><polyline clip-path="url(#clip650)" style="stroke:#e26f46; stroke-linecap:round; stroke-linejoin:round; stroke-width:4; stroke-opacity:1; fill:none" points="1559.14,270.476 1704.3,270.476 "/>
<path clip-path="url(#clip650)" d="M1728.49 253.196 L1734.79 253.196 L1750.11 282.108 L1750.11 253.196 L1754.65 253.196 L1754.65 287.756 L1748.35 287.756 L1733.03 258.844 L1733.03 287.756 L1728.49 287.756 L1728.49 253.196 Z" fill="#000000" fill-rule="nonzero" fill-opacity="1" /><path clip-path="url(#clip650)" d="M1777.98 256.367 Q1772.89 256.367 1769.88 260.163 Q1766.89 263.96 1766.89 270.51 Q1766.89 277.038 1769.88 280.834 Q1772.89 284.631 1777.98 284.631 Q1783.07 284.631 1786.04 280.834 Q1789.02 277.038 1789.02 270.51 Q1789.02 263.96 1786.04 260.163 Q1783.07 256.367 1777.98 256.367 M1777.98 252.571 Q1785.25 252.571 1789.6 257.455 Q1793.95 262.316 1793.95 270.51 Q1793.95 278.682 1789.6 283.566 Q1785.25 288.427 1777.98 288.427 Q1770.69 288.427 1766.31 283.566 Q1761.96 278.705 1761.96 270.51 Q1761.96 262.316 1766.31 257.455 Q1770.69 252.571 1777.98 252.571 Z" fill="#000000" fill-rule="nonzero" fill-opacity="1" /><path clip-path="url(#clip650)" d="M1815.85 269.122 Q1819.21 269.839 1821.08 272.108 Q1822.98 274.376 1822.98 277.709 Q1822.98 282.825 1819.46 285.626 Q1815.94 288.427 1809.46 288.427 Q1807.29 288.427 1804.97 287.987 Q1802.68 287.571 1800.23 286.714 L1800.23 282.2 Q1802.17 283.334 1804.48 283.913 Q1806.8 284.492 1809.32 284.492 Q1813.72 284.492 1816.01 282.756 Q1818.33 281.02 1818.33 277.709 Q1818.33 274.654 1816.17 272.941 Q1814.04 271.205 1810.23 271.205 L1806.2 271.205 L1806.2 267.362 L1810.41 267.362 Q1813.86 267.362 1815.69 265.997 Q1817.52 264.608 1817.52 262.015 Q1817.52 259.353 1815.62 257.941 Q1813.74 256.506 1810.23 256.506 Q1808.3 256.506 1806.1 256.923 Q1803.91 257.339 1801.27 258.219 L1801.27 254.052 Q1803.93 253.311 1806.24 252.941 Q1808.58 252.571 1810.64 252.571 Q1815.97 252.571 1819.07 255.001 Q1822.17 257.409 1822.17 261.529 Q1822.17 264.399 1820.53 266.39 Q1818.88 268.358 1815.85 269.122 Z" fill="#000000" fill-rule="nonzero" fill-opacity="1" /><path clip-path="url(#clip650)" d="M1829.09 272.872 L1841.57 272.872 L1841.57 276.668 L1829.09 276.668 L1829.09 272.872 Z" fill="#000000" fill-rule="nonzero" fill-opacity="1" /><path clip-path="url(#clip650)" d="M1870.99 253.196 L1874.92 253.196 L1862.89 292.154 L1858.95 292.154 L1870.99 253.196 Z" fill="#000000" fill-rule="nonzero" fill-opacity="1" /><path clip-path="url(#clip650)" d="M1904.69 251.784 Q1901.59 257.108 1900.09 262.316 Q1898.58 267.524 1898.58 272.872 Q1898.58 278.219 1900.09 283.473 Q1901.61 288.705 1904.69 294.006 L1900.99 294.006 Q1897.52 288.566 1895.78 283.311 Q1894.07 278.057 1894.07 272.872 Q1894.07 267.71 1895.78 262.478 Q1897.49 257.247 1900.99 251.784 L1904.69 251.784 Z" fill="#000000" fill-rule="nonzero" fill-opacity="1" /><path clip-path="url(#clip650)" d="M1913.14 253.196 L1919.44 253.196 L1934.76 282.108 L1934.76 253.196 L1939.3 253.196 L1939.3 287.756 L1933 287.756 L1917.68 258.844 L1917.68 287.756 L1913.14 287.756 L1913.14 253.196 Z" fill="#000000" fill-rule="nonzero" fill-opacity="1" /><path clip-path="url(#clip650)" d="M1962.63 256.367 Q1957.54 256.367 1954.53 260.163 Q1951.54 263.96 1951.54 270.51 Q1951.54 277.038 1954.53 280.834 Q1957.54 284.631 1962.63 284.631 Q1967.72 284.631 1970.69 280.834 Q1973.67 277.038 1973.67 270.51 Q1973.67 263.96 1970.69 260.163 Q1967.72 256.367 1962.63 256.367 M1962.63 252.571 Q1969.9 252.571 1974.25 257.455 Q1978.6 262.316 1978.6 270.51 Q1978.6 278.682 1974.25 283.566 Q1969.9 288.427 1962.63 288.427 Q1955.34 288.427 1950.97 283.566 Q1946.61 278.705 1946.61 270.51 Q1946.61 262.316 1950.97 257.455 Q1955.34 252.571 1962.63 252.571 Z" fill="#000000" fill-rule="nonzero" fill-opacity="1" /><path clip-path="url(#clip650)" d="M2000.5 269.122 Q2003.86 269.839 2005.73 272.108 Q2007.63 274.376 2007.63 277.709 Q2007.63 282.825 2004.11 285.626 Q2000.59 288.427 1994.11 288.427 Q1991.94 288.427 1989.62 287.987 Q1987.33 287.571 1984.88 286.714 L1984.88 282.2 Q1986.82 283.334 1989.14 283.913 Q1991.45 284.492 1993.97 284.492 Q1998.37 284.492 2000.66 282.756 Q2002.98 281.02 2002.98 277.709 Q2002.98 274.654 2000.83 272.941 Q1998.7 271.205 1994.88 271.205 L1990.85 271.205 L1990.85 267.362 L1995.06 267.362 Q1998.51 267.362 2000.34 265.997 Q2002.17 264.608 2002.17 262.015 Q2002.17 259.353 2000.27 257.941 Q1998.4 256.506 1994.88 256.506 Q1992.96 256.506 1990.76 256.923 Q1988.56 257.339 1985.92 258.219 L1985.92 254.052 Q1988.58 253.311 1990.9 252.941 Q1993.23 252.571 1995.29 252.571 Q2000.62 252.571 2003.72 255.001 Q2006.82 257.409 2006.82 261.529 Q2006.82 264.399 2005.18 266.39 Q2003.53 268.358 2000.5 269.122 Z" fill="#000000" fill-rule="nonzero" fill-opacity="1" /><path clip-path="url(#clip650)" d="M2013.74 272.872 L2026.22 272.872 L2026.22 276.668 L2013.74 276.668 L2013.74 272.872 Z" fill="#000000" fill-rule="nonzero" fill-opacity="1" /><path clip-path="url(#clip650)" d="M2065.41 258.034 L2065.41 270.927 L2078.3 270.927 L2078.3 274.862 L2065.41 274.862 L2065.41 287.756 L2061.52 287.756 L2061.52 274.862 L2048.63 274.862 L2048.63 270.927 L2061.52 270.927 L2061.52 258.034 L2065.41 258.034 Z" fill="#000000" fill-rule="nonzero" fill-opacity="1" /><path clip-path="url(#clip650)" d="M2103.05 253.196 L2107.72 253.196 L2107.72 267.362 L2124.71 267.362 L2124.71 253.196 L2129.39 253.196 L2129.39 287.756 L2124.71 287.756 L2124.71 271.297 L2107.72 271.297 L2107.72 287.756 L2103.05 287.756 L2103.05 253.196 Z" fill="#000000" fill-rule="nonzero" fill-opacity="1" /><path clip-path="url(#clip650)" d="M2138.7 253.196 L2144.99 253.196 L2160.32 282.108 L2160.32 253.196 L2164.85 253.196 L2164.85 287.756 L2158.56 287.756 L2143.23 258.844 L2143.23 287.756 L2138.7 287.756 L2138.7 253.196 Z" fill="#000000" fill-rule="nonzero" fill-opacity="1" /><path clip-path="url(#clip650)" d="M2188.19 256.367 Q2183.09 256.367 2180.08 260.163 Q2177.1 263.96 2177.1 270.51 Q2177.1 277.038 2180.08 280.834 Q2183.09 284.631 2188.19 284.631 Q2193.28 284.631 2196.24 280.834 Q2199.23 277.038 2199.23 270.51 Q2199.23 263.96 2196.24 260.163 Q2193.28 256.367 2188.19 256.367 M2188.19 252.571 Q2195.45 252.571 2199.81 257.455 Q2204.16 262.316 2204.16 270.51 Q2204.16 278.682 2199.81 283.566 Q2195.45 288.427 2188.19 288.427 Q2180.89 288.427 2176.52 283.566 Q2172.17 278.705 2172.17 270.51 Q2172.17 262.316 2176.52 257.455 Q2180.89 252.571 2188.19 252.571 Z" fill="#000000" fill-rule="nonzero" fill-opacity="1" /><path clip-path="url(#clip650)" d="M2226.06 269.122 Q2229.41 269.839 2231.29 272.108 Q2233.19 274.376 2233.19 277.709 Q2233.19 282.825 2229.67 285.626 Q2226.15 288.427 2219.67 288.427 Q2217.49 288.427 2215.18 287.987 Q2212.88 287.571 2210.43 286.714 L2210.43 282.2 Q2212.38 283.334 2214.69 283.913 Q2217.01 284.492 2219.53 284.492 Q2223.93 284.492 2226.22 282.756 Q2228.53 281.02 2228.53 277.709 Q2228.53 274.654 2226.38 272.941 Q2224.25 271.205 2220.43 271.205 L2216.4 271.205 L2216.4 267.362 L2220.62 267.362 Q2224.07 267.362 2225.89 265.997 Q2227.72 264.608 2227.72 262.015 Q2227.72 259.353 2225.82 257.941 Q2223.95 256.506 2220.43 256.506 Q2218.51 256.506 2216.31 256.923 Q2214.11 257.339 2211.47 258.219 L2211.47 254.052 Q2214.13 253.311 2216.45 252.941 Q2218.79 252.571 2220.85 252.571 Q2226.17 252.571 2229.27 255.001 Q2232.38 257.409 2232.38 261.529 Q2232.38 264.399 2230.73 266.39 Q2229.09 268.358 2226.06 269.122 Z" fill="#000000" fill-rule="nonzero" fill-opacity="1" /><path clip-path="url(#clip650)" d="M2240.78 251.784 L2244.48 251.784 Q2247.95 257.247 2249.67 262.478 Q2251.4 267.71 2251.4 272.872 Q2251.4 278.057 2249.67 283.311 Q2247.95 288.566 2244.48 294.006 L2240.78 294.006 Q2243.86 288.705 2245.36 283.473 Q2246.89 278.219 2246.89 272.872 Q2246.89 267.524 2245.36 262.316 Q2243.86 257.108 2240.78 251.784 Z" fill="#000000" fill-rule="nonzero" fill-opacity="1" /></svg>
