<?xml version="1.0" encoding="utf-8"?>
<svg xmlns="http://www.w3.org/2000/svg" xmlns:xlink="http://www.w3.org/1999/xlink" width="600" height="400" viewBox="0 0 2400 1600">
<defs>
  <clipPath id="clip000">
    <rect x="0" y="0" width="2400" height="1600"/>
  </clipPath>
</defs>
<path clip-path="url(#clip000)" d="M0 1600 L2400 1600 L2400 0 L0 0  Z" fill="#ffffff" fill-rule="evenodd" fill-opacity="1"/>
<defs>
  <clipPath id="clip001">
    <rect x="247" y="123" width="2106" height="1301"/>
  </clipPath>
</defs>
<path clip-path="url(#clip000)" d="M247.459 1423.18 L2352.76 1423.18 L2352.76 123.472 L247.459 123.472  Z" fill="#ffffff" fill-rule="evenodd" fill-opacity="1"/>
<polyline clip-path="url(#clip001)" style="stroke:#000000; stroke-linecap:round; stroke-linejoin:round; stroke-width:2; stroke-opacity:0.1; fill:none" points="307.043,1423.18 307.043,123.472 "/>
<polyline clip-path="url(#clip001)" style="stroke:#000000; stroke-linecap:round; stroke-linejoin:round; stroke-width:2; stroke-opacity:0.1; fill:none" points="704.268,1423.18 704.268,123.472 "/>
<polyline clip-path="url(#clip001)" style="stroke:#000000; stroke-linecap:round; stroke-linejoin:round; stroke-width:2; stroke-opacity:0.1; fill:none" points="1101.49,1423.18 1101.49,123.472 "/>
<polyline clip-path="url(#clip001)" style="stroke:#000000; stroke-linecap:round; stroke-linejoin:round; stroke-width:2; stroke-opacity:0.1; fill:none" points="1498.72,1423.18 1498.72,123.472 "/>
<polyline clip-path="url(#clip001)" style="stroke:#000000; stroke-linecap:round; stroke-linejoin:round; stroke-width:2; stroke-opacity:0.1; fill:none" points="1895.95,1423.18 1895.95,123.472 "/>
<polyline clip-path="url(#clip001)" style="stroke:#000000; stroke-linecap:round; stroke-linejoin:round; stroke-width:2; stroke-opacity:0.1; fill:none" points="2293.17,1423.18 2293.17,123.472 "/>
<polyline clip-path="url(#clip001)" style="stroke:#000000; stroke-linecap:round; stroke-linejoin:round; stroke-width:2; stroke-opacity:0.1; fill:none" points="247.459,1209.41 2352.76,1209.41 "/>
<polyline clip-path="url(#clip001)" style="stroke:#000000; stroke-linecap:round; stroke-linejoin:round; stroke-width:2; stroke-opacity:0.1; fill:none" points="247.459,962.412 2352.76,962.412 "/>
<polyline clip-path="url(#clip001)" style="stroke:#000000; stroke-linecap:round; stroke-linejoin:round; stroke-width:2; stroke-opacity:0.1; fill:none" points="247.459,715.417 2352.76,715.417 "/>
<polyline clip-path="url(#clip001)" style="stroke:#000000; stroke-linecap:round; stroke-linejoin:round; stroke-width:2; stroke-opacity:0.1; fill:none" points="247.459,468.422 2352.76,468.422 "/>
<polyline clip-path="url(#clip001)" style="stroke:#000000; stroke-linecap:round; stroke-linejoin:round; stroke-width:2; stroke-opacity:0.1; fill:none" points="247.459,221.427 2352.76,221.427 "/>
<polyline clip-path="url(#clip000)" style="stroke:#000000; stroke-linecap:round; stroke-linejoin:round; stroke-width:4; stroke-opacity:1; fill:none" points="247.459,1423.18 2352.76,1423.18 "/>
<polyline clip-path="url(#clip000)" style="stroke:#000000; stroke-linecap:round; stroke-linejoin:round; stroke-width:4; stroke-opacity:1; fill:none" points="307.043,1423.18 307.043,1404.28 "/>
<polyline clip-path="url(#clip000)" style="stroke:#000000; stroke-linecap:round; stroke-linejoin:round; stroke-width:4; stroke-opacity:1; fill:none" points="704.268,1423.18 704.268,1404.28 "/>
<polyline clip-path="url(#clip000)" style="stroke:#000000; stroke-linecap:round; stroke-linejoin:round; stroke-width:4; stroke-opacity:1; fill:none" points="1101.49,1423.18 1101.49,1404.28 "/>
<polyline clip-path="url(#clip000)" style="stroke:#000000; stroke-linecap:round; stroke-linejoin:round; stroke-width:4; stroke-opacity:1; fill:none" points="1498.72,1423.18 1498.72,1404.28 "/>
<polyline clip-path="url(#clip000)" style="stroke:#000000; stroke-linecap:round; stroke-linejoin:round; stroke-width:4; stroke-opacity:1; fill:none" points="1895.95,1423.18 1895.95,1404.28 "/>
<polyline clip-path="url(#clip000)" style="stroke:#000000; stroke-linecap:round; stroke-linejoin:round; stroke-width:4; stroke-opacity:1; fill:none" points="2293.17,1423.18 2293.17,1404.28 "/>
<path clip-path="url(#clip000)" d="M269.346 1454.1 Q265.735 1454.1 263.906 1457.66 Q262.101 1461.2 262.101 1468.33 Q262.101 1475.44 263.906 1479.01 Q265.735 1482.55 269.346 1482.55 Q272.98 1482.55 274.786 1479.01 Q276.615 1475.44 276.615 1468.33 Q276.615 1461.2 274.786 1457.66 Q272.98 1454.1 269.346 1454.1 M269.346 1450.39 Q275.156 1450.39 278.212 1455 Q281.29 1459.58 281.29 1468.33 Q281.29 1477.06 278.212 1481.67 Q275.156 1486.25 269.346 1486.25 Q263.536 1486.25 260.457 1481.67 Q257.402 1477.06 257.402 1468.33 Q257.402 1459.58 260.457 1455 Q263.536 1450.39 269.346 1450.39 Z" fill="#000000" fill-rule="nonzero" fill-opacity="1" /><path clip-path="url(#clip000)" d="M289.508 1479.7 L294.392 1479.7 L294.392 1485.58 L289.508 1485.58 L289.508 1479.7 Z" fill="#000000" fill-rule="nonzero" fill-opacity="1" /><path clip-path="url(#clip000)" d="M303.397 1451.02 L325.619 1451.02 L325.619 1453.01 L313.073 1485.58 L308.188 1485.58 L319.994 1454.96 L303.397 1454.96 L303.397 1451.02 Z" fill="#000000" fill-rule="nonzero" fill-opacity="1" /><path clip-path="url(#clip000)" d="M344.739 1454.1 Q341.128 1454.1 339.299 1457.66 Q337.494 1461.2 337.494 1468.33 Q337.494 1475.44 339.299 1479.01 Q341.128 1482.55 344.739 1482.55 Q348.373 1482.55 350.179 1479.01 Q352.008 1475.44 352.008 1468.33 Q352.008 1461.2 350.179 1457.66 Q348.373 1454.1 344.739 1454.1 M344.739 1450.39 Q350.549 1450.39 353.605 1455 Q356.684 1459.58 356.684 1468.33 Q356.684 1477.06 353.605 1481.67 Q350.549 1486.25 344.739 1486.25 Q338.929 1486.25 335.85 1481.67 Q332.795 1477.06 332.795 1468.33 Q332.795 1459.58 335.85 1455 Q338.929 1450.39 344.739 1450.39 Z" fill="#000000" fill-rule="nonzero" fill-opacity="1" /><path clip-path="url(#clip000)" d="M667.07 1454.1 Q663.459 1454.1 661.63 1457.66 Q659.824 1461.2 659.824 1468.33 Q659.824 1475.44 661.63 1479.01 Q663.459 1482.55 667.07 1482.55 Q670.704 1482.55 672.509 1479.01 Q674.338 1475.44 674.338 1468.33 Q674.338 1461.2 672.509 1457.66 Q670.704 1454.1 667.07 1454.1 M667.07 1450.39 Q672.88 1450.39 675.935 1455 Q679.014 1459.58 679.014 1468.33 Q679.014 1477.06 675.935 1481.67 Q672.88 1486.25 667.07 1486.25 Q661.259 1486.25 658.181 1481.67 Q655.125 1477.06 655.125 1468.33 Q655.125 1459.58 658.181 1455 Q661.259 1450.39 667.07 1450.39 Z" fill="#000000" fill-rule="nonzero" fill-opacity="1" /><path clip-path="url(#clip000)" d="M687.232 1479.7 L692.116 1479.7 L692.116 1485.58 L687.232 1485.58 L687.232 1479.7 Z" fill="#000000" fill-rule="nonzero" fill-opacity="1" /><path clip-path="url(#clip000)" d="M701.12 1451.02 L723.342 1451.02 L723.342 1453.01 L710.796 1485.58 L705.912 1485.58 L717.717 1454.96 L701.12 1454.96 L701.12 1451.02 Z" fill="#000000" fill-rule="nonzero" fill-opacity="1" /><path clip-path="url(#clip000)" d="M732.509 1451.02 L750.865 1451.02 L750.865 1454.96 L736.791 1454.96 L736.791 1463.43 Q737.81 1463.08 738.828 1462.92 Q739.847 1462.73 740.866 1462.73 Q746.653 1462.73 750.032 1465.9 Q753.412 1469.08 753.412 1474.49 Q753.412 1480.07 749.94 1483.17 Q746.467 1486.25 740.148 1486.25 Q737.972 1486.25 735.703 1485.88 Q733.458 1485.51 731.051 1484.77 L731.051 1480.07 Q733.134 1481.2 735.356 1481.76 Q737.578 1482.32 740.055 1482.32 Q744.06 1482.32 746.398 1480.21 Q748.736 1478.1 748.736 1474.49 Q748.736 1470.88 746.398 1468.77 Q744.06 1466.67 740.055 1466.67 Q738.18 1466.67 736.305 1467.08 Q734.454 1467.5 732.509 1468.38 L732.509 1451.02 Z" fill="#000000" fill-rule="nonzero" fill-opacity="1" /><path clip-path="url(#clip000)" d="M1063.8 1454.1 Q1060.19 1454.1 1058.36 1457.66 Q1056.55 1461.2 1056.55 1468.33 Q1056.55 1475.44 1058.36 1479.01 Q1060.19 1482.55 1063.8 1482.55 Q1067.43 1482.55 1069.24 1479.01 Q1071.07 1475.44 1071.07 1468.33 Q1071.07 1461.2 1069.24 1457.66 Q1067.43 1454.1 1063.8 1454.1 M1063.8 1450.39 Q1069.61 1450.39 1072.66 1455 Q1075.74 1459.58 1075.74 1468.33 Q1075.74 1477.06 1072.66 1481.67 Q1069.61 1486.25 1063.8 1486.25 Q1057.99 1486.25 1054.91 1481.67 Q1051.85 1477.06 1051.85 1468.33 Q1051.85 1459.58 1054.91 1455 Q1057.99 1450.39 1063.8 1450.39 Z" fill="#000000" fill-rule="nonzero" fill-opacity="1" /><path clip-path="url(#clip000)" d="M1083.96 1479.7 L1088.84 1479.7 L1088.84 1485.58 L1083.96 1485.58 L1083.96 1479.7 Z" fill="#000000" fill-rule="nonzero" fill-opacity="1" /><path clip-path="url(#clip000)" d="M1109.03 1469.17 Q1105.7 1469.17 1103.77 1470.95 Q1101.88 1472.73 1101.88 1475.86 Q1101.88 1478.98 1103.77 1480.77 Q1105.7 1482.55 1109.03 1482.55 Q1112.36 1482.55 1114.28 1480.77 Q1116.2 1478.96 1116.2 1475.86 Q1116.2 1472.73 1114.28 1470.95 Q1112.39 1469.17 1109.03 1469.17 M1104.35 1467.18 Q1101.34 1466.44 1099.65 1464.38 Q1097.99 1462.32 1097.99 1459.35 Q1097.99 1455.21 1100.93 1452.8 Q1103.89 1450.39 1109.03 1450.39 Q1114.19 1450.39 1117.13 1452.8 Q1120.07 1455.21 1120.07 1459.35 Q1120.07 1462.32 1118.38 1464.38 Q1116.71 1466.44 1113.73 1467.18 Q1117.11 1467.96 1118.98 1470.26 Q1120.88 1472.55 1120.88 1475.86 Q1120.88 1480.88 1117.8 1483.57 Q1114.75 1486.25 1109.03 1486.25 Q1103.31 1486.25 1100.23 1483.57 Q1097.18 1480.88 1097.18 1475.86 Q1097.18 1472.55 1099.08 1470.26 Q1100.97 1467.96 1104.35 1467.18 M1102.64 1459.79 Q1102.64 1462.48 1104.31 1463.98 Q1106 1465.49 1109.03 1465.49 Q1112.04 1465.49 1113.73 1463.98 Q1115.44 1462.48 1115.44 1459.79 Q1115.44 1457.11 1113.73 1455.6 Q1112.04 1454.1 1109.03 1454.1 Q1106 1454.1 1104.31 1455.6 Q1102.64 1457.11 1102.64 1459.79 Z" fill="#000000" fill-rule="nonzero" fill-opacity="1" /><path clip-path="url(#clip000)" d="M1139.19 1454.1 Q1135.58 1454.1 1133.75 1457.66 Q1131.95 1461.2 1131.95 1468.33 Q1131.95 1475.44 1133.75 1479.01 Q1135.58 1482.55 1139.19 1482.55 Q1142.83 1482.55 1144.63 1479.01 Q1146.46 1475.44 1146.46 1468.33 Q1146.46 1461.2 1144.63 1457.66 Q1142.83 1454.1 1139.19 1454.1 M1139.19 1450.39 Q1145 1450.39 1148.06 1455 Q1151.14 1459.58 1151.14 1468.33 Q1151.14 1477.06 1148.06 1481.67 Q1145 1486.25 1139.19 1486.25 Q1133.38 1486.25 1130.3 1481.67 Q1127.25 1477.06 1127.25 1468.33 Q1127.25 1459.58 1130.3 1455 Q1133.38 1450.39 1139.19 1450.39 Z" fill="#000000" fill-rule="nonzero" fill-opacity="1" /><path clip-path="url(#clip000)" d="M1461.52 1454.1 Q1457.91 1454.1 1456.08 1457.66 Q1454.28 1461.2 1454.28 1468.33 Q1454.28 1475.44 1456.08 1479.01 Q1457.91 1482.55 1461.52 1482.55 Q1465.16 1482.55 1466.96 1479.01 Q1468.79 1475.44 1468.79 1468.33 Q1468.79 1461.2 1466.96 1457.66 Q1465.16 1454.1 1461.52 1454.1 M1461.52 1450.39 Q1467.33 1450.39 1470.39 1455 Q1473.47 1459.58 1473.47 1468.33 Q1473.47 1477.06 1470.39 1481.67 Q1467.33 1486.25 1461.52 1486.25 Q1455.71 1486.25 1452.63 1481.67 Q1449.58 1477.06 1449.58 1468.33 Q1449.58 1459.58 1452.63 1455 Q1455.71 1450.39 1461.52 1450.39 Z" fill="#000000" fill-rule="nonzero" fill-opacity="1" /><path clip-path="url(#clip000)" d="M1481.68 1479.7 L1486.57 1479.7 L1486.57 1485.58 L1481.68 1485.58 L1481.68 1479.7 Z" fill="#000000" fill-rule="nonzero" fill-opacity="1" /><path clip-path="url(#clip000)" d="M1506.75 1469.17 Q1503.42 1469.17 1501.5 1470.95 Q1499.6 1472.73 1499.6 1475.86 Q1499.6 1478.98 1501.5 1480.77 Q1503.42 1482.55 1506.75 1482.55 Q1510.09 1482.55 1512.01 1480.77 Q1513.93 1478.96 1513.93 1475.86 Q1513.93 1472.73 1512.01 1470.95 Q1510.11 1469.17 1506.75 1469.17 M1502.08 1467.18 Q1499.07 1466.44 1497.38 1464.38 Q1495.71 1462.32 1495.71 1459.35 Q1495.71 1455.21 1498.65 1452.8 Q1501.61 1450.39 1506.75 1450.39 Q1511.91 1450.39 1514.85 1452.8 Q1517.79 1455.21 1517.79 1459.35 Q1517.79 1462.32 1516.1 1464.38 Q1514.44 1466.44 1511.45 1467.18 Q1514.83 1467.96 1516.71 1470.26 Q1518.6 1472.55 1518.6 1475.86 Q1518.6 1480.88 1515.53 1483.57 Q1512.47 1486.25 1506.75 1486.25 Q1501.04 1486.25 1497.96 1483.57 Q1494.9 1480.88 1494.9 1475.86 Q1494.9 1472.55 1496.8 1470.26 Q1498.7 1467.96 1502.08 1467.18 M1500.36 1459.79 Q1500.36 1462.48 1502.03 1463.98 Q1503.72 1465.49 1506.75 1465.49 Q1509.76 1465.49 1511.45 1463.98 Q1513.16 1462.48 1513.16 1459.79 Q1513.16 1457.11 1511.45 1455.6 Q1509.76 1454.1 1506.75 1454.1 Q1503.72 1454.1 1502.03 1455.6 Q1500.36 1457.11 1500.36 1459.79 Z" fill="#000000" fill-rule="nonzero" fill-opacity="1" /><path clip-path="url(#clip000)" d="M1526.96 1451.02 L1545.32 1451.02 L1545.32 1454.96 L1531.24 1454.96 L1531.24 1463.43 Q1532.26 1463.08 1533.28 1462.92 Q1534.3 1462.73 1535.32 1462.73 Q1541.1 1462.73 1544.48 1465.9 Q1547.86 1469.08 1547.86 1474.49 Q1547.86 1480.07 1544.39 1483.17 Q1540.92 1486.25 1534.6 1486.25 Q1532.42 1486.25 1530.16 1485.88 Q1527.91 1485.51 1525.5 1484.77 L1525.5 1480.07 Q1527.59 1481.2 1529.81 1481.76 Q1532.03 1482.32 1534.51 1482.32 Q1538.51 1482.32 1540.85 1480.21 Q1543.19 1478.1 1543.19 1474.49 Q1543.19 1470.88 1540.85 1468.77 Q1538.51 1466.67 1534.51 1466.67 Q1532.63 1466.67 1530.76 1467.08 Q1528.91 1467.5 1526.96 1468.38 L1526.96 1451.02 Z" fill="#000000" fill-rule="nonzero" fill-opacity="1" /><path clip-path="url(#clip000)" d="M1858.25 1454.1 Q1854.64 1454.1 1852.81 1457.66 Q1851 1461.2 1851 1468.33 Q1851 1475.44 1852.81 1479.01 Q1854.64 1482.55 1858.25 1482.55 Q1861.88 1482.55 1863.69 1479.01 Q1865.52 1475.44 1865.52 1468.33 Q1865.52 1461.2 1863.69 1457.66 Q1861.88 1454.1 1858.25 1454.1 M1858.25 1450.39 Q1864.06 1450.39 1867.12 1455 Q1870.19 1459.58 1870.19 1468.33 Q1870.19 1477.06 1867.12 1481.67 Q1864.06 1486.25 1858.25 1486.25 Q1852.44 1486.25 1849.36 1481.67 Q1846.31 1477.06 1846.31 1468.33 Q1846.31 1459.58 1849.36 1455 Q1852.44 1450.39 1858.25 1450.39 Z" fill="#000000" fill-rule="nonzero" fill-opacity="1" /><path clip-path="url(#clip000)" d="M1878.41 1479.7 L1883.3 1479.7 L1883.3 1485.58 L1878.41 1485.58 L1878.41 1479.7 Z" fill="#000000" fill-rule="nonzero" fill-opacity="1" /><path clip-path="url(#clip000)" d="M1893.62 1484.86 L1893.62 1480.6 Q1895.38 1481.44 1897.18 1481.88 Q1898.99 1482.32 1900.73 1482.32 Q1905.36 1482.32 1907.79 1479.21 Q1910.24 1476.09 1910.59 1469.75 Q1909.24 1471.74 1907.18 1472.8 Q1905.12 1473.87 1902.62 1473.87 Q1897.44 1473.87 1894.41 1470.74 Q1891.4 1467.59 1891.4 1462.15 Q1891.4 1456.83 1894.55 1453.61 Q1897.69 1450.39 1902.93 1450.39 Q1908.92 1450.39 1912.07 1455 Q1915.24 1459.58 1915.24 1468.33 Q1915.24 1476.51 1911.35 1481.39 Q1907.49 1486.25 1900.93 1486.25 Q1899.18 1486.25 1897.37 1485.9 Q1895.56 1485.56 1893.62 1484.86 M1902.93 1470.21 Q1906.07 1470.21 1907.9 1468.06 Q1909.75 1465.9 1909.75 1462.15 Q1909.75 1458.43 1907.9 1456.27 Q1906.07 1454.1 1902.93 1454.1 Q1899.78 1454.1 1897.93 1456.27 Q1896.1 1458.43 1896.1 1462.15 Q1896.1 1465.9 1897.93 1468.06 Q1899.78 1470.21 1902.93 1470.21 Z" fill="#000000" fill-rule="nonzero" fill-opacity="1" /><path clip-path="url(#clip000)" d="M1933.64 1454.1 Q1930.03 1454.1 1928.2 1457.66 Q1926.4 1461.2 1926.4 1468.33 Q1926.4 1475.44 1928.2 1479.01 Q1930.03 1482.55 1933.64 1482.55 Q1937.28 1482.55 1939.08 1479.01 Q1940.91 1475.44 1940.91 1468.33 Q1940.91 1461.2 1939.08 1457.66 Q1937.28 1454.1 1933.64 1454.1 M1933.64 1450.39 Q1939.45 1450.39 1942.51 1455 Q1945.59 1459.58 1945.59 1468.33 Q1945.59 1477.06 1942.51 1481.67 Q1939.45 1486.25 1933.64 1486.25 Q1927.83 1486.25 1924.75 1481.67 Q1921.7 1477.06 1921.7 1468.33 Q1921.7 1459.58 1924.75 1455 Q1927.83 1450.39 1933.64 1450.39 Z" fill="#000000" fill-rule="nonzero" fill-opacity="1" /><path clip-path="url(#clip000)" d="M2255.97 1454.1 Q2252.36 1454.1 2250.53 1457.66 Q2248.73 1461.2 2248.73 1468.33 Q2248.73 1475.44 2250.53 1479.01 Q2252.36 1482.55 2255.97 1482.55 Q2259.61 1482.55 2261.41 1479.01 Q2263.24 1475.44 2263.24 1468.33 Q2263.24 1461.2 2261.41 1457.66 Q2259.61 1454.1 2255.97 1454.1 M2255.97 1450.39 Q2261.78 1450.39 2264.84 1455 Q2267.92 1459.58 2267.92 1468.33 Q2267.92 1477.06 2264.84 1481.67 Q2261.78 1486.25 2255.97 1486.25 Q2250.16 1486.25 2247.08 1481.67 Q2244.03 1477.06 2244.03 1468.33 Q2244.03 1459.58 2247.08 1455 Q2250.16 1450.39 2255.97 1450.39 Z" fill="#000000" fill-rule="nonzero" fill-opacity="1" /><path clip-path="url(#clip000)" d="M2276.14 1479.7 L2281.02 1479.7 L2281.02 1485.58 L2276.14 1485.58 L2276.14 1479.7 Z" fill="#000000" fill-rule="nonzero" fill-opacity="1" /><path clip-path="url(#clip000)" d="M2291.34 1484.86 L2291.34 1480.6 Q2293.1 1481.44 2294.91 1481.88 Q2296.71 1482.32 2298.45 1482.32 Q2303.08 1482.32 2305.51 1479.21 Q2307.96 1476.09 2308.31 1469.75 Q2306.97 1471.74 2304.91 1472.8 Q2302.85 1473.87 2300.35 1473.87 Q2295.16 1473.87 2292.13 1470.74 Q2289.12 1467.59 2289.12 1462.15 Q2289.12 1456.83 2292.27 1453.61 Q2295.42 1450.39 2300.65 1450.39 Q2306.64 1450.39 2309.79 1455 Q2312.96 1459.58 2312.96 1468.33 Q2312.96 1476.51 2309.07 1481.39 Q2305.21 1486.25 2298.66 1486.25 Q2296.9 1486.25 2295.09 1485.9 Q2293.29 1485.56 2291.34 1484.86 M2300.65 1470.21 Q2303.8 1470.21 2305.63 1468.06 Q2307.48 1465.9 2307.48 1462.15 Q2307.48 1458.43 2305.63 1456.27 Q2303.8 1454.1 2300.65 1454.1 Q2297.5 1454.1 2295.65 1456.27 Q2293.82 1458.43 2293.82 1462.15 Q2293.82 1465.9 2295.65 1468.06 Q2297.5 1470.21 2300.65 1470.21 Z" fill="#000000" fill-rule="nonzero" fill-opacity="1" /><path clip-path="url(#clip000)" d="M2321.41 1451.02 L2339.77 1451.02 L2339.77 1454.96 L2325.69 1454.96 L2325.69 1463.43 Q2326.71 1463.08 2327.73 1462.92 Q2328.75 1462.73 2329.77 1462.73 Q2335.56 1462.73 2338.94 1465.9 Q2342.32 1469.08 2342.32 1474.49 Q2342.32 1480.07 2338.84 1483.17 Q2335.37 1486.25 2329.05 1486.25 Q2326.88 1486.25 2324.61 1485.88 Q2322.36 1485.51 2319.95 1484.77 L2319.95 1480.07 Q2322.04 1481.2 2324.26 1481.76 Q2326.48 1482.32 2328.96 1482.32 Q2332.96 1482.32 2335.3 1480.21 Q2337.64 1478.1 2337.64 1474.49 Q2337.64 1470.88 2335.3 1468.77 Q2332.96 1466.67 2328.96 1466.67 Q2327.08 1466.67 2325.21 1467.08 Q2323.36 1467.5 2321.41 1468.38 L2321.41 1451.02 Z" fill="#000000" fill-rule="nonzero" fill-opacity="1" /><path clip-path="url(#clip000)" d="M1037.24 1545.76 Q1039.3 1546.46 1041.25 1548.76 Q1043.22 1551.05 1045.19 1555.06 L1051.72 1568.04 L1044.81 1568.04 L1038.73 1555.85 Q1036.38 1551.08 1034.15 1549.52 Q1031.95 1547.96 1028.13 1547.96 L1021.13 1547.96 L1021.13 1568.04 L1014.7 1568.04 L1014.7 1520.52 L1029.21 1520.52 Q1037.36 1520.52 1041.37 1523.93 Q1045.38 1527.34 1045.38 1534.21 Q1045.38 1538.7 1043.28 1541.66 Q1041.21 1544.62 1037.24 1545.76 M1021.13 1525.81 L1021.13 1542.68 L1029.21 1542.68 Q1033.86 1542.68 1036.22 1540.54 Q1038.6 1538.38 1038.6 1534.21 Q1038.6 1530.04 1036.22 1527.94 Q1033.86 1525.81 1029.21 1525.81 L1021.13 1525.81 Z" fill="#000000" fill-rule="nonzero" fill-opacity="1" /><path clip-path="url(#clip000)" d="M1087.3 1548.76 L1087.3 1551.62 L1060.37 1551.62 Q1060.76 1557.67 1064 1560.85 Q1067.28 1564 1073.11 1564 Q1076.48 1564 1079.63 1563.17 Q1082.81 1562.35 1085.93 1560.69 L1085.93 1566.23 Q1082.78 1567.57 1079.47 1568.27 Q1076.16 1568.97 1072.76 1568.97 Q1064.23 1568.97 1059.23 1564 Q1054.26 1559.04 1054.26 1550.57 Q1054.26 1541.82 1058.97 1536.69 Q1063.72 1531.54 1071.74 1531.54 Q1078.93 1531.54 1083.1 1536.18 Q1087.3 1540.8 1087.3 1548.76 M1081.45 1547.04 Q1081.38 1542.23 1078.74 1539.37 Q1076.13 1536.5 1071.8 1536.5 Q1066.9 1536.5 1063.94 1539.27 Q1061.01 1542.04 1060.57 1547.07 L1081.45 1547.04 Z" fill="#000000" fill-rule="nonzero" fill-opacity="1" /><path clip-path="url(#clip000)" d="M1096.91 1518.52 L1102.77 1518.52 L1102.77 1568.04 L1096.91 1568.04 L1096.91 1518.52 Z" fill="#000000" fill-rule="nonzero" fill-opacity="1" /><path clip-path="url(#clip000)" d="M1131.23 1550.12 Q1124.13 1550.12 1121.39 1551.75 Q1118.65 1553.37 1118.65 1557.29 Q1118.65 1560.4 1120.69 1562.25 Q1122.76 1564.07 1126.29 1564.07 Q1131.16 1564.07 1134.09 1560.63 Q1137.05 1557.16 1137.05 1551.43 L1137.05 1550.12 L1131.23 1550.12 M1142.91 1547.71 L1142.91 1568.04 L1137.05 1568.04 L1137.05 1562.63 Q1135.04 1565.88 1132.05 1567.44 Q1129.06 1568.97 1124.73 1568.97 Q1119.26 1568.97 1116.01 1565.91 Q1112.8 1562.82 1112.8 1557.67 Q1112.8 1551.65 1116.81 1548.6 Q1120.85 1545.54 1128.84 1545.54 L1137.05 1545.54 L1137.05 1544.97 Q1137.05 1540.93 1134.38 1538.73 Q1131.73 1536.5 1126.93 1536.5 Q1123.87 1536.5 1120.98 1537.23 Q1118.08 1537.97 1115.41 1539.43 L1115.41 1534.02 Q1118.62 1532.78 1121.64 1532.17 Q1124.67 1531.54 1127.53 1531.54 Q1135.27 1531.54 1139.09 1535.55 Q1142.91 1539.56 1142.91 1547.71 Z" fill="#000000" fill-rule="nonzero" fill-opacity="1" /><path clip-path="url(#clip000)" d="M1160.76 1522.27 L1160.76 1532.4 L1172.83 1532.4 L1172.83 1536.95 L1160.76 1536.95 L1160.76 1556.3 Q1160.76 1560.66 1161.94 1561.9 Q1163.15 1563.14 1166.81 1563.14 L1172.83 1563.14 L1172.83 1568.04 L1166.81 1568.04 Q1160.03 1568.04 1157.45 1565.53 Q1154.87 1562.98 1154.87 1556.3 L1154.87 1536.95 L1150.58 1536.95 L1150.58 1532.4 L1154.87 1532.4 L1154.87 1522.27 L1160.76 1522.27 Z" fill="#000000" fill-rule="nonzero" fill-opacity="1" /><path clip-path="url(#clip000)" d="M1180.53 1532.4 L1186.38 1532.4 L1186.38 1568.04 L1180.53 1568.04 L1180.53 1532.4 M1180.53 1518.52 L1186.38 1518.52 L1186.38 1525.93 L1180.53 1525.93 L1180.53 1518.52 Z" fill="#000000" fill-rule="nonzero" fill-opacity="1" /><path clip-path="url(#clip000)" d="M1194.44 1532.4 L1200.64 1532.4 L1211.78 1562.31 L1222.92 1532.4 L1229.13 1532.4 L1215.76 1568.04 L1207.8 1568.04 L1194.44 1532.4 Z" fill="#000000" fill-rule="nonzero" fill-opacity="1" /><path clip-path="url(#clip000)" d="M1267.71 1548.76 L1267.71 1551.62 L1240.78 1551.62 Q1241.16 1557.67 1244.41 1560.85 Q1247.69 1564 1253.51 1564 Q1256.88 1564 1260.04 1563.17 Q1263.22 1562.35 1266.34 1560.69 L1266.34 1566.23 Q1263.19 1567.57 1259.88 1568.27 Q1256.57 1568.97 1253.16 1568.97 Q1244.63 1568.97 1239.63 1564 Q1234.67 1559.04 1234.67 1550.57 Q1234.67 1541.82 1239.38 1536.69 Q1244.12 1531.54 1252.14 1531.54 Q1259.33 1531.54 1263.5 1536.18 Q1267.71 1540.8 1267.71 1548.76 M1261.85 1547.04 Q1261.79 1542.23 1259.14 1539.37 Q1256.53 1536.5 1252.21 1536.5 Q1247.3 1536.5 1244.34 1539.27 Q1241.42 1542.04 1240.97 1547.07 L1261.85 1547.04 Z" fill="#000000" fill-rule="nonzero" fill-opacity="1" /><path clip-path="url(#clip000)" d="M1298.29 1520.52 L1304.72 1520.52 L1304.72 1540 L1328.08 1540 L1328.08 1520.52 L1334.51 1520.52 L1334.51 1568.04 L1328.08 1568.04 L1328.08 1545.41 L1304.72 1545.41 L1304.72 1568.04 L1298.29 1568.04 L1298.29 1520.52 Z" fill="#000000" fill-rule="nonzero" fill-opacity="1" /><path clip-path="url(#clip000)" d="M1346.45 1553.98 L1346.45 1532.4 L1352.31 1532.4 L1352.31 1553.75 Q1352.31 1558.81 1354.28 1561.36 Q1356.25 1563.87 1360.2 1563.87 Q1364.94 1563.87 1367.68 1560.85 Q1370.45 1557.83 1370.45 1552.61 L1370.45 1532.4 L1376.3 1532.4 L1376.3 1568.04 L1370.45 1568.04 L1370.45 1562.57 Q1368.32 1565.82 1365.48 1567.41 Q1362.68 1568.97 1358.96 1568.97 Q1352.82 1568.97 1349.63 1565.15 Q1346.45 1561.33 1346.45 1553.98 M1361.19 1531.54 L1361.19 1531.54 Z" fill="#000000" fill-rule="nonzero" fill-opacity="1" /><path clip-path="url(#clip000)" d="M1416.12 1539.24 Q1418.32 1535.29 1421.37 1533.41 Q1424.43 1531.54 1428.57 1531.54 Q1434.14 1531.54 1437.16 1535.45 Q1440.18 1539.33 1440.18 1546.53 L1440.18 1568.04 L1434.3 1568.04 L1434.3 1546.72 Q1434.3 1541.59 1432.48 1539.11 Q1430.67 1536.63 1426.94 1536.63 Q1422.39 1536.63 1419.75 1539.65 Q1417.11 1542.68 1417.11 1547.9 L1417.11 1568.04 L1411.22 1568.04 L1411.22 1546.72 Q1411.22 1541.56 1409.41 1539.11 Q1407.59 1536.63 1403.8 1536.63 Q1399.32 1536.63 1396.68 1539.68 Q1394.03 1542.71 1394.03 1547.9 L1394.03 1568.04 L1388.15 1568.04 L1388.15 1532.4 L1394.03 1532.4 L1394.03 1537.93 Q1396.04 1534.66 1398.84 1533.1 Q1401.64 1531.54 1405.49 1531.54 Q1409.37 1531.54 1412.08 1533.51 Q1414.82 1535.48 1416.12 1539.24 Z" fill="#000000" fill-rule="nonzero" fill-opacity="1" /><path clip-path="url(#clip000)" d="M1451.87 1532.4 L1457.72 1532.4 L1457.72 1568.04 L1451.87 1568.04 L1451.87 1532.4 M1451.87 1518.52 L1457.72 1518.52 L1457.72 1525.93 L1451.87 1525.93 L1451.87 1518.52 Z" fill="#000000" fill-rule="nonzero" fill-opacity="1" /><path clip-path="url(#clip000)" d="M1493.43 1537.81 L1493.43 1518.52 L1499.29 1518.52 L1499.29 1568.04 L1493.43 1568.04 L1493.43 1562.7 Q1491.59 1565.88 1488.76 1567.44 Q1485.95 1568.97 1482.01 1568.97 Q1475.55 1568.97 1471.47 1563.81 Q1467.43 1558.65 1467.43 1550.25 Q1467.43 1541.85 1471.47 1536.69 Q1475.55 1531.54 1482.01 1531.54 Q1485.95 1531.54 1488.76 1533.1 Q1491.59 1534.62 1493.43 1537.81 M1473.48 1550.25 Q1473.48 1556.71 1476.12 1560.4 Q1478.79 1564.07 1483.44 1564.07 Q1488.09 1564.07 1490.76 1560.4 Q1493.43 1556.71 1493.43 1550.25 Q1493.43 1543.79 1490.76 1540.13 Q1488.09 1536.44 1483.44 1536.44 Q1478.79 1536.44 1476.12 1540.13 Q1473.48 1543.79 1473.48 1550.25 Z" fill="#000000" fill-rule="nonzero" fill-opacity="1" /><path clip-path="url(#clip000)" d="M1511.35 1532.4 L1517.21 1532.4 L1517.21 1568.04 L1511.35 1568.04 L1511.35 1532.4 M1511.35 1518.52 L1517.21 1518.52 L1517.21 1525.93 L1511.35 1525.93 L1511.35 1518.52 Z" fill="#000000" fill-rule="nonzero" fill-opacity="1" /><path clip-path="url(#clip000)" d="M1535.26 1522.27 L1535.26 1532.4 L1547.32 1532.4 L1547.32 1536.95 L1535.26 1536.95 L1535.26 1556.3 Q1535.26 1560.66 1536.43 1561.9 Q1537.64 1563.14 1541.3 1563.14 L1547.32 1563.14 L1547.32 1568.04 L1541.3 1568.04 Q1534.52 1568.04 1531.95 1565.53 Q1529.37 1562.98 1529.37 1556.3 L1529.37 1536.95 L1525.07 1536.95 L1525.07 1532.4 L1529.37 1532.4 L1529.37 1522.27 L1535.26 1522.27 Z" fill="#000000" fill-rule="nonzero" fill-opacity="1" /><path clip-path="url(#clip000)" d="M1569.85 1571.35 Q1567.37 1577.72 1565.02 1579.66 Q1562.66 1581.6 1558.71 1581.6 L1554.04 1581.6 L1554.04 1576.7 L1557.47 1576.7 Q1559.89 1576.7 1561.23 1575.56 Q1562.57 1574.41 1564.19 1570.14 L1565.24 1567.47 L1550.82 1532.4 L1557.03 1532.4 L1568.17 1560.28 L1579.31 1532.4 L1585.51 1532.4 L1569.85 1571.35 Z" fill="#000000" fill-rule="nonzero" fill-opacity="1" /><polyline clip-path="url(#clip000)" style="stroke:#000000; stroke-linecap:round; stroke-linejoin:round; stroke-width:4; stroke-opacity:1; fill:none" points="247.459,1423.18 247.459,123.472 "/>
<polyline clip-path="url(#clip000)" style="stroke:#000000; stroke-linecap:round; stroke-linejoin:round; stroke-width:4; stroke-opacity:1; fill:none" points="247.459,1209.41 266.356,1209.41 "/>
<polyline clip-path="url(#clip000)" style="stroke:#000000; stroke-linecap:round; stroke-linejoin:round; stroke-width:4; stroke-opacity:1; fill:none" points="247.459,962.412 266.356,962.412 "/>
<polyline clip-path="url(#clip000)" style="stroke:#000000; stroke-linecap:round; stroke-linejoin:round; stroke-width:4; stroke-opacity:1; fill:none" points="247.459,715.417 266.356,715.417 "/>
<polyline clip-path="url(#clip000)" style="stroke:#000000; stroke-linecap:round; stroke-linejoin:round; stroke-width:4; stroke-opacity:1; fill:none" points="247.459,468.422 266.356,468.422 "/>
<polyline clip-path="url(#clip000)" style="stroke:#000000; stroke-linecap:round; stroke-linejoin:round; stroke-width:4; stroke-opacity:1; fill:none" points="247.459,221.427 266.356,221.427 "/>
<path clip-path="url(#clip000)" d="M149.306 1222.75 L165.626 1222.75 L165.626 1226.69 L143.681 1226.69 L143.681 1222.75 Q146.343 1220 150.927 1215.37 Q155.533 1210.71 156.714 1209.37 Q158.959 1206.85 159.839 1205.11 Q160.741 1203.35 160.741 1201.66 Q160.741 1198.91 158.797 1197.17 Q156.876 1195.44 153.774 1195.44 Q151.575 1195.44 149.121 1196.2 Q146.691 1196.96 143.913 1198.52 L143.913 1193.79 Q146.737 1192.66 149.191 1192.08 Q151.644 1191.5 153.681 1191.5 Q159.052 1191.5 162.246 1194.19 Q165.44 1196.87 165.44 1201.36 Q165.44 1203.49 164.63 1205.41 Q163.843 1207.31 161.737 1209.9 Q161.158 1210.58 158.056 1213.79 Q154.954 1216.99 149.306 1222.75 Z" fill="#000000" fill-rule="nonzero" fill-opacity="1" /><path clip-path="url(#clip000)" d="M175.44 1220.81 L180.325 1220.81 L180.325 1226.69 L175.44 1226.69 L175.44 1220.81 Z" fill="#000000" fill-rule="nonzero" fill-opacity="1" /><path clip-path="url(#clip000)" d="M190.556 1192.13 L208.912 1192.13 L208.912 1196.06 L194.838 1196.06 L194.838 1204.53 Q195.857 1204.19 196.875 1204.02 Q197.894 1203.84 198.912 1203.84 Q204.699 1203.84 208.079 1207.01 Q211.459 1210.18 211.459 1215.6 Q211.459 1221.18 207.987 1224.28 Q204.514 1227.36 198.195 1227.36 Q196.019 1227.36 193.75 1226.99 Q191.505 1226.62 189.098 1225.88 L189.098 1221.18 Q191.181 1222.31 193.403 1222.87 Q195.625 1223.42 198.102 1223.42 Q202.107 1223.42 204.445 1221.32 Q206.783 1219.21 206.783 1215.6 Q206.783 1211.99 204.445 1209.88 Q202.107 1207.77 198.102 1207.77 Q196.227 1207.77 194.352 1208.19 Q192.5 1208.61 190.556 1209.49 L190.556 1192.13 Z" fill="#000000" fill-rule="nonzero" fill-opacity="1" /><path clip-path="url(#clip000)" d="M144.329 945.132 L162.686 945.132 L162.686 949.067 L148.612 949.067 L148.612 957.539 Q149.63 957.192 150.649 957.03 Q151.667 956.845 152.686 956.845 Q158.473 956.845 161.852 960.016 Q165.232 963.187 165.232 968.604 Q165.232 974.183 161.76 977.284 Q158.288 980.363 151.968 980.363 Q149.792 980.363 147.524 979.993 Q145.279 979.622 142.871 978.882 L142.871 974.183 Q144.954 975.317 147.177 975.872 Q149.399 976.428 151.876 976.428 Q155.88 976.428 158.218 974.322 Q160.556 972.215 160.556 968.604 Q160.556 964.993 158.218 962.886 Q155.88 960.78 151.876 960.78 Q150.001 960.78 148.126 961.197 Q146.274 961.613 144.329 962.493 L144.329 945.132 Z" fill="#000000" fill-rule="nonzero" fill-opacity="1" /><path clip-path="url(#clip000)" d="M174.445 973.812 L179.329 973.812 L179.329 979.692 L174.445 979.692 L174.445 973.812 Z" fill="#000000" fill-rule="nonzero" fill-opacity="1" /><path clip-path="url(#clip000)" d="M199.514 948.211 Q195.903 948.211 194.075 951.775 Q192.269 955.317 192.269 962.447 Q192.269 969.553 194.075 973.118 Q195.903 976.659 199.514 976.659 Q203.149 976.659 204.954 973.118 Q206.783 969.553 206.783 962.447 Q206.783 955.317 204.954 951.775 Q203.149 948.211 199.514 948.211 M199.514 944.507 Q205.324 944.507 208.38 949.113 Q211.459 953.697 211.459 962.447 Q211.459 971.173 208.38 975.78 Q205.324 980.363 199.514 980.363 Q193.704 980.363 190.625 975.78 Q187.57 971.173 187.57 962.447 Q187.57 953.697 190.625 949.113 Q193.704 944.507 199.514 944.507 Z" fill="#000000" fill-rule="nonzero" fill-opacity="1" /><path clip-path="url(#clip000)" d="M144.098 698.137 L166.32 698.137 L166.32 700.128 L153.774 732.697 L148.89 732.697 L160.695 702.072 L144.098 702.072 L144.098 698.137 Z" fill="#000000" fill-rule="nonzero" fill-opacity="1" /><path clip-path="url(#clip000)" d="M175.44 726.817 L180.325 726.817 L180.325 732.697 L175.44 732.697 L175.44 726.817 Z" fill="#000000" fill-rule="nonzero" fill-opacity="1" /><path clip-path="url(#clip000)" d="M190.556 698.137 L208.912 698.137 L208.912 702.072 L194.838 702.072 L194.838 710.544 Q195.857 710.197 196.875 710.035 Q197.894 709.85 198.912 709.85 Q204.699 709.85 208.079 713.021 Q211.459 716.193 211.459 721.609 Q211.459 727.188 207.987 730.29 Q204.514 733.368 198.195 733.368 Q196.019 733.368 193.75 732.998 Q191.505 732.628 189.098 731.887 L189.098 727.188 Q191.181 728.322 193.403 728.878 Q195.625 729.433 198.102 729.433 Q202.107 729.433 204.445 727.327 Q206.783 725.22 206.783 721.609 Q206.783 717.998 204.445 715.892 Q202.107 713.785 198.102 713.785 Q196.227 713.785 194.352 714.202 Q192.5 714.618 190.556 715.498 L190.556 698.137 Z" fill="#000000" fill-rule="nonzero" fill-opacity="1" /><path clip-path="url(#clip000)" d="M114.931 481.767 L122.57 481.767 L122.57 455.402 L114.26 457.068 L114.26 452.809 L122.524 451.142 L127.2 451.142 L127.2 481.767 L134.839 481.767 L134.839 485.702 L114.931 485.702 L114.931 481.767 Z" fill="#000000" fill-rule="nonzero" fill-opacity="1" /><path clip-path="url(#clip000)" d="M154.283 454.221 Q150.672 454.221 148.843 457.786 Q147.038 461.327 147.038 468.457 Q147.038 475.563 148.843 479.128 Q150.672 482.67 154.283 482.67 Q157.917 482.67 159.723 479.128 Q161.552 475.563 161.552 468.457 Q161.552 461.327 159.723 457.786 Q157.917 454.221 154.283 454.221 M154.283 450.517 Q160.093 450.517 163.149 455.124 Q166.227 459.707 166.227 468.457 Q166.227 477.184 163.149 481.79 Q160.093 486.374 154.283 486.374 Q148.473 486.374 145.394 481.79 Q142.339 477.184 142.339 468.457 Q142.339 459.707 145.394 455.124 Q148.473 450.517 154.283 450.517 Z" fill="#000000" fill-rule="nonzero" fill-opacity="1" /><path clip-path="url(#clip000)" d="M174.445 479.823 L179.329 479.823 L179.329 485.702 L174.445 485.702 L174.445 479.823 Z" fill="#000000" fill-rule="nonzero" fill-opacity="1" /><path clip-path="url(#clip000)" d="M199.514 454.221 Q195.903 454.221 194.075 457.786 Q192.269 461.327 192.269 468.457 Q192.269 475.563 194.075 479.128 Q195.903 482.67 199.514 482.67 Q203.149 482.67 204.954 479.128 Q206.783 475.563 206.783 468.457 Q206.783 461.327 204.954 457.786 Q203.149 454.221 199.514 454.221 M199.514 450.517 Q205.324 450.517 208.38 455.124 Q211.459 459.707 211.459 468.457 Q211.459 477.184 208.38 481.79 Q205.324 486.374 199.514 486.374 Q193.704 486.374 190.625 481.79 Q187.57 477.184 187.57 468.457 Q187.57 459.707 190.625 455.124 Q193.704 450.517 199.514 450.517 Z" fill="#000000" fill-rule="nonzero" fill-opacity="1" /><path clip-path="url(#clip000)" d="M115.927 234.772 L123.566 234.772 L123.566 208.407 L115.256 210.073 L115.256 205.814 L123.519 204.147 L128.195 204.147 L128.195 234.772 L135.834 234.772 L135.834 238.707 L115.927 238.707 L115.927 234.772 Z" fill="#000000" fill-rule="nonzero" fill-opacity="1" /><path clip-path="url(#clip000)" d="M149.306 234.772 L165.626 234.772 L165.626 238.707 L143.681 238.707 L143.681 234.772 Q146.343 232.018 150.927 227.388 Q155.533 222.735 156.714 221.393 Q158.959 218.87 159.839 217.133 Q160.741 215.374 160.741 213.684 Q160.741 210.93 158.797 209.194 Q156.876 207.458 153.774 207.458 Q151.575 207.458 149.121 208.222 Q146.691 208.985 143.913 210.536 L143.913 205.814 Q146.737 204.68 149.191 204.101 Q151.644 203.522 153.681 203.522 Q159.052 203.522 162.246 206.208 Q165.44 208.893 165.44 213.384 Q165.44 215.513 164.63 217.434 Q163.843 219.333 161.737 221.925 Q161.158 222.596 158.056 225.814 Q154.954 229.008 149.306 234.772 Z" fill="#000000" fill-rule="nonzero" fill-opacity="1" /><path clip-path="url(#clip000)" d="M175.44 232.828 L180.325 232.828 L180.325 238.707 L175.44 238.707 L175.44 232.828 Z" fill="#000000" fill-rule="nonzero" fill-opacity="1" /><path clip-path="url(#clip000)" d="M190.556 204.147 L208.912 204.147 L208.912 208.083 L194.838 208.083 L194.838 216.555 Q195.857 216.208 196.875 216.046 Q197.894 215.86 198.912 215.86 Q204.699 215.86 208.079 219.032 Q211.459 222.203 211.459 227.62 Q211.459 233.198 207.987 236.3 Q204.514 239.379 198.195 239.379 Q196.019 239.379 193.75 239.008 Q191.505 238.638 189.098 237.897 L189.098 233.198 Q191.181 234.332 193.403 234.888 Q195.625 235.444 198.102 235.444 Q202.107 235.444 204.445 233.337 Q206.783 231.231 206.783 227.62 Q206.783 224.008 204.445 221.902 Q202.107 219.796 198.102 219.796 Q196.227 219.796 194.352 220.212 Q192.5 220.629 190.556 221.508 L190.556 204.147 Z" fill="#000000" fill-rule="nonzero" fill-opacity="1" /><path clip-path="url(#clip000)" d="M22.818 1009.37 L46.4666 1018.09 L46.4666 1000.61 L22.818 1009.37 M16.4842 1012.99 L16.4842 1005.71 L64.0042 987.596 L64.0042 994.28 L51.8138 998.608 L51.8138 1020.03 L64.0042 1024.36 L64.0042 1031.14 L16.4842 1012.99 Z" fill="#000000" fill-rule="nonzero" fill-opacity="1" /><path clip-path="url(#clip000)" d="M44.7161 951.566 L47.5806 951.566 L47.5806 978.493 Q53.6281 978.111 56.8109 974.864 Q59.9619 971.586 59.9619 965.761 Q59.9619 962.387 59.1344 959.236 Q58.3069 956.054 56.6518 952.934 L62.1899 952.934 Q63.5267 956.085 64.227 959.396 Q64.9272 962.706 64.9272 966.111 Q64.9272 974.641 59.9619 979.639 Q54.9967 984.604 46.5303 984.604 Q37.7774 984.604 32.6531 979.893 Q27.4968 975.151 27.4968 967.13 Q27.4968 959.937 32.1438 955.767 Q36.7589 951.566 44.7161 951.566 M42.9973 957.422 Q38.1912 957.486 35.3266 960.128 Q32.4621 962.738 32.4621 967.066 Q32.4621 971.968 35.2312 974.928 Q38.0002 977.856 43.0292 978.302 L42.9973 957.422 Z" fill="#000000" fill-rule="nonzero" fill-opacity="1" /><path clip-path="url(#clip000)" d="M33.8307 921.297 Q33.2578 922.284 33.0032 923.461 Q32.7167 924.607 32.7167 926.007 Q32.7167 930.973 35.9632 933.646 Q39.1779 936.288 45.2253 936.288 L64.0042 936.288 L64.0042 942.176 L28.3562 942.176 L28.3562 936.288 L33.8944 936.288 Q30.6479 934.442 29.0883 931.482 Q27.4968 928.522 27.4968 924.289 Q27.4968 923.684 27.5923 922.952 Q27.656 922.22 27.8151 921.329 L33.8307 921.297 Z" fill="#000000" fill-rule="nonzero" fill-opacity="1" /><path clip-path="url(#clip000)" d="M32.4621 902.773 Q32.4621 907.483 36.1542 910.221 Q39.8145 912.958 46.212 912.958 Q52.6095 912.958 56.3017 910.252 Q59.9619 907.515 59.9619 902.773 Q59.9619 898.094 56.2698 895.357 Q52.5777 892.619 46.212 892.619 Q39.8781 892.619 36.186 895.357 Q32.4621 898.094 32.4621 902.773 M27.4968 902.773 Q27.4968 895.134 32.4621 890.773 Q37.4273 886.413 46.212 886.413 Q54.9649 886.413 59.9619 890.773 Q64.9272 895.134 64.9272 902.773 Q64.9272 910.443 59.9619 914.804 Q54.9649 919.132 46.212 919.132 Q37.4273 919.132 32.4621 914.804 Q27.4968 910.443 27.4968 902.773 Z" fill="#000000" fill-rule="nonzero" fill-opacity="1" /><path clip-path="url(#clip000)" d="M29.4065 853.979 L34.9447 853.979 Q33.6716 856.462 33.035 859.136 Q32.3984 861.809 32.3984 864.674 Q32.3984 869.034 33.7352 871.231 Q35.072 873.395 37.7456 873.395 Q39.7826 873.395 40.9603 871.835 Q42.1061 870.276 43.1565 865.565 L43.6021 863.56 Q44.9389 857.321 47.3897 854.712 Q49.8086 852.07 54.1691 852.07 Q59.1344 852.07 62.0308 856.017 Q64.9272 859.931 64.9272 866.806 Q64.9272 869.671 64.3543 872.79 Q63.8132 875.878 62.6992 879.315 L56.6518 879.315 Q58.3387 876.068 59.198 872.917 Q60.0256 869.766 60.0256 866.679 Q60.0256 862.541 58.6251 860.313 Q57.1929 858.085 54.6147 858.085 Q52.2276 858.085 50.9545 859.709 Q49.6813 861.3 48.5037 866.743 L48.0262 868.78 Q46.8804 874.222 44.5251 876.641 Q42.138 879.06 38.0002 879.06 Q32.9713 879.06 30.2341 875.496 Q27.4968 871.931 27.4968 865.374 Q27.4968 862.128 27.9743 859.263 Q28.4517 856.398 29.4065 853.979 Z" fill="#000000" fill-rule="nonzero" fill-opacity="1" /><path clip-path="url(#clip000)" d="M32.4621 828.93 Q32.4621 833.641 36.1542 836.378 Q39.8145 839.116 46.212 839.116 Q52.6095 839.116 56.3017 836.41 Q59.9619 833.673 59.9619 828.93 Q59.9619 824.252 56.2698 821.514 Q52.5777 818.777 46.212 818.777 Q39.8781 818.777 36.186 821.514 Q32.4621 824.252 32.4621 828.93 M27.4968 828.93 Q27.4968 821.292 32.4621 816.931 Q37.4273 812.571 46.212 812.571 Q54.9649 812.571 59.9619 816.931 Q64.9272 821.292 64.9272 828.93 Q64.9272 836.601 59.9619 840.962 Q54.9649 845.29 46.212 845.29 Q37.4273 845.29 32.4621 840.962 Q27.4968 836.601 27.4968 828.93 Z" fill="#000000" fill-rule="nonzero" fill-opacity="1" /><path clip-path="url(#clip000)" d="M14.479 802.863 L14.479 797.006 L64.0042 797.006 L64.0042 802.863 L14.479 802.863 Z" fill="#000000" fill-rule="nonzero" fill-opacity="1" /><path clip-path="url(#clip000)" d="M16.4842 763.777 L16.4842 736.469 L21.895 736.469 L21.895 757.348 L35.8996 757.348 L35.8996 738.506 L41.3104 738.506 L41.3104 757.348 L64.0042 757.348 L64.0042 763.777 L16.4842 763.777 Z" fill="#000000" fill-rule="nonzero" fill-opacity="1" /><path clip-path="url(#clip000)" d="M33.8307 710.624 Q33.2578 711.61 33.0032 712.788 Q32.7167 713.934 32.7167 715.334 Q32.7167 720.3 35.9632 722.973 Q39.1779 725.615 45.2253 725.615 L64.0042 725.615 L64.0042 731.503 L28.3562 731.503 L28.3562 725.615 L33.8944 725.615 Q30.6479 723.769 29.0883 720.809 Q27.4968 717.849 27.4968 713.616 Q27.4968 713.011 27.5923 712.279 Q27.656 711.547 27.8151 710.656 L33.8307 710.624 Z" fill="#000000" fill-rule="nonzero" fill-opacity="1" /><path clip-path="url(#clip000)" d="M46.0847 688.28 Q46.0847 695.378 47.7079 698.115 Q49.3312 700.852 53.2461 700.852 Q56.3653 700.852 58.2114 698.815 Q60.0256 696.747 60.0256 693.214 Q60.0256 688.344 56.5881 685.416 Q53.1188 682.456 47.3897 682.456 L46.0847 682.456 L46.0847 688.28 M43.6657 676.599 L64.0042 676.599 L64.0042 682.456 L58.5933 682.456 Q61.8398 684.461 63.3994 687.453 Q64.9272 690.444 64.9272 694.773 Q64.9272 700.248 61.8716 703.494 Q58.7843 706.709 53.6281 706.709 Q47.6125 706.709 44.5569 702.698 Q41.5014 698.656 41.5014 690.667 L41.5014 682.456 L40.9285 682.456 Q36.8862 682.456 34.6901 685.129 Q32.4621 687.771 32.4621 692.577 Q32.4621 695.633 33.1941 698.529 Q33.9262 701.425 35.3903 704.099 L29.9795 704.099 Q28.7381 700.884 28.1334 697.861 Q27.4968 694.837 27.4968 691.972 Q27.4968 684.238 31.5072 680.418 Q35.5176 676.599 43.6657 676.599 Z" fill="#000000" fill-rule="nonzero" fill-opacity="1" /><path clip-path="url(#clip000)" d="M29.7248 638.882 L35.1993 638.882 Q33.8307 641.365 33.1623 643.879 Q32.4621 646.362 32.4621 648.908 Q32.4621 654.606 36.0905 657.757 Q39.6872 660.908 46.212 660.908 Q52.7369 660.908 56.3653 657.757 Q59.9619 654.606 59.9619 648.908 Q59.9619 646.362 59.2935 643.879 Q58.5933 641.365 57.2247 638.882 L62.6355 638.882 Q63.7814 641.333 64.3543 643.975 Q64.9272 646.585 64.9272 649.545 Q64.9272 657.597 59.8664 662.34 Q54.8057 667.082 46.212 667.082 Q37.491 667.082 32.4939 662.308 Q27.4968 657.502 27.4968 649.163 Q27.4968 646.457 28.0697 643.879 Q28.6108 641.301 29.7248 638.882 Z" fill="#000000" fill-rule="nonzero" fill-opacity="1" /><path clip-path="url(#clip000)" d="M18.2347 622.904 L28.3562 622.904 L28.3562 610.841 L32.9077 610.841 L32.9077 622.904 L52.2594 622.904 Q56.6199 622.904 57.8613 621.727 Q59.1026 620.517 59.1026 616.857 L59.1026 610.841 L64.0042 610.841 L64.0042 616.857 Q64.0042 623.636 61.4897 626.215 Q58.9434 628.793 52.2594 628.793 L32.9077 628.793 L32.9077 633.089 L28.3562 633.089 L28.3562 628.793 L18.2347 628.793 L18.2347 622.904 Z" fill="#000000" fill-rule="nonzero" fill-opacity="1" /><path clip-path="url(#clip000)" d="M28.3562 603.139 L28.3562 597.282 L64.0042 597.282 L64.0042 603.139 L28.3562 603.139 M14.479 603.139 L14.479 597.282 L21.895 597.282 L21.895 603.139 L14.479 603.139 Z" fill="#000000" fill-rule="nonzero" fill-opacity="1" /><path clip-path="url(#clip000)" d="M32.4621 571.215 Q32.4621 575.925 36.1542 578.663 Q39.8145 581.4 46.212 581.4 Q52.6095 581.4 56.3017 578.695 Q59.9619 575.957 59.9619 571.215 Q59.9619 566.536 56.2698 563.799 Q52.5777 561.061 46.212 561.061 Q39.8781 561.061 36.186 563.799 Q32.4621 566.536 32.4621 571.215 M27.4968 571.215 Q27.4968 563.576 32.4621 559.215 Q37.4273 554.855 46.212 554.855 Q54.9649 554.855 59.9619 559.215 Q64.9272 563.576 64.9272 571.215 Q64.9272 578.885 59.9619 583.246 Q54.9649 587.575 46.212 587.575 Q37.4273 587.575 32.4621 583.246 Q27.4968 578.885 27.4968 571.215 Z" fill="#000000" fill-rule="nonzero" fill-opacity="1" /><path clip-path="url(#clip000)" d="M42.4881 515.515 L64.0042 515.515 L64.0042 521.371 L42.679 521.371 Q37.6183 521.371 35.1038 523.345 Q32.5894 525.318 32.5894 529.265 Q32.5894 534.007 35.6131 536.744 Q38.6368 539.482 43.8567 539.482 L64.0042 539.482 L64.0042 545.37 L28.3562 545.37 L28.3562 539.482 L33.8944 539.482 Q30.6797 537.381 29.0883 534.548 Q27.4968 531.684 27.4968 527.96 Q27.4968 521.817 31.3163 518.666 Q35.1038 515.515 42.4881 515.515 Z" fill="#000000" fill-rule="nonzero" fill-opacity="1" /><path clip-path="url(#clip000)" d="M423.714 63.9476 L423.714 47.7034 L410.346 47.7034 L410.346 40.9789 L431.816 40.9789 L431.816 66.9452 Q427.077 70.3075 421.365 72.0494 Q415.653 73.7508 409.172 73.7508 Q394.994 73.7508 386.973 65.4869 Q378.992 57.1826 378.992 42.3968 Q378.992 27.5705 386.973 19.3066 Q394.994 11.0023 409.172 11.0023 Q415.086 11.0023 420.393 12.4606 Q425.74 13.9189 430.236 16.7545 L430.236 25.464 Q425.699 21.6156 420.595 19.6712 Q415.491 17.7268 409.86 17.7268 Q398.761 17.7268 393.171 23.9246 Q387.621 30.1225 387.621 42.3968 Q387.621 54.6305 393.171 60.8284 Q398.761 67.0263 409.86 67.0263 Q414.195 67.0263 417.598 66.2971 Q421 65.5274 423.714 63.9476 Z" fill="#000000" fill-rule="nonzero" fill-opacity="1" /><path clip-path="url(#clip000)" d="M467.059 49.7694 Q458.026 49.7694 454.542 51.8354 Q451.058 53.9013 451.058 58.8839 Q451.058 62.8538 453.651 65.2034 Q456.284 67.5124 460.78 67.5124 Q466.978 67.5124 470.705 63.1374 Q474.472 58.7219 474.472 51.4303 L474.472 49.7694 L467.059 49.7694 M481.926 46.6907 L481.926 72.576 L474.472 72.576 L474.472 65.6895 Q471.92 69.8214 468.112 71.8063 Q464.304 73.7508 458.795 73.7508 Q451.828 73.7508 447.696 69.8619 Q443.604 65.9325 443.604 59.3701 Q443.604 51.7138 448.709 47.825 Q453.853 43.9361 464.021 43.9361 L474.472 43.9361 L474.472 43.2069 Q474.472 38.0623 471.07 35.2672 Q467.707 32.4315 461.59 32.4315 Q457.702 32.4315 454.015 33.3632 Q450.329 34.295 446.926 36.1584 L446.926 29.2718 Q451.018 27.692 454.866 26.9223 Q458.714 26.1121 462.36 26.1121 Q472.204 26.1121 477.065 31.2163 Q481.926 36.3204 481.926 46.6907 Z" fill="#000000" fill-rule="nonzero" fill-opacity="1" /><path clip-path="url(#clip000)" d="M526.202 28.5427 L526.202 35.5912 Q523.043 33.9709 519.64 33.1607 Q516.237 32.3505 512.591 32.3505 Q507.042 32.3505 504.246 34.0519 Q501.492 35.7533 501.492 39.156 Q501.492 41.7486 503.477 43.2475 Q505.462 44.7058 511.457 46.0426 L514.009 46.6097 Q521.949 48.3111 525.271 51.4303 Q528.633 54.509 528.633 60.0587 Q528.633 66.3781 523.61 70.0644 Q518.627 73.7508 509.877 73.7508 Q506.231 73.7508 502.261 73.0216 Q498.332 72.3329 493.957 70.9151 L493.957 63.2184 Q498.089 65.3654 502.099 66.4591 Q506.11 67.5124 510.039 67.5124 Q515.305 67.5124 518.141 65.73 Q520.977 63.9071 520.977 60.6258 Q520.977 57.5877 518.911 55.9673 Q516.885 54.3469 509.958 52.8481 L507.366 52.2405 Q500.439 50.7821 497.36 47.7845 Q494.281 44.7463 494.281 39.4801 Q494.281 33.0797 498.818 29.5959 Q503.355 26.1121 511.7 26.1121 Q515.832 26.1121 519.478 26.7198 Q523.124 27.3274 526.202 28.5427 Z" fill="#000000" fill-rule="nonzero" fill-opacity="1" /><path clip-path="url(#clip000)" d="M536.735 46.5287 L558.569 46.5287 L558.569 53.1722 L536.735 53.1722 L536.735 46.5287 Z" fill="#000000" fill-rule="nonzero" fill-opacity="1" /><path clip-path="url(#clip000)" d="M589.153 20.1573 L578.054 50.2555 L600.293 50.2555 L589.153 20.1573 M584.535 12.096 L593.812 12.096 L616.862 72.576 L608.355 72.576 L602.845 57.061 L575.583 57.061 L570.074 72.576 L561.445 72.576 L584.535 12.096 Z" fill="#000000" fill-rule="nonzero" fill-opacity="1" /><path clip-path="url(#clip000)" d="M662.718 48.0275 L662.718 51.6733 L628.447 51.6733 Q628.933 59.3701 633.065 63.421 Q637.238 67.4314 644.651 67.4314 Q648.945 67.4314 652.955 66.3781 Q657.006 65.3249 660.976 63.2184 L660.976 70.267 Q656.965 71.9684 652.753 72.8596 Q648.54 73.7508 644.205 73.7508 Q633.349 73.7508 626.989 67.4314 Q620.669 61.1119 620.669 50.3365 Q620.669 39.1965 626.665 32.6746 Q632.701 26.1121 642.909 26.1121 Q652.064 26.1121 657.371 32.0264 Q662.718 37.9003 662.718 48.0275 M655.264 45.84 Q655.183 39.7232 651.821 36.0774 Q648.499 32.4315 642.99 32.4315 Q636.751 32.4315 632.984 35.9558 Q629.257 39.4801 628.69 45.8805 L655.264 45.84 Z" fill="#000000" fill-rule="nonzero" fill-opacity="1" /><path clip-path="url(#clip000)" d="M701.242 34.1734 Q699.986 33.4443 698.487 33.1202 Q697.029 32.7556 695.247 32.7556 Q688.927 32.7556 685.524 36.8875 Q682.162 40.9789 682.162 48.6757 L682.162 72.576 L674.668 72.576 L674.668 27.2059 L682.162 27.2059 L682.162 34.2544 Q684.512 30.1225 688.279 28.1376 Q692.046 26.1121 697.434 26.1121 Q698.204 26.1121 699.135 26.2337 Q700.067 26.3147 701.201 26.5172 L701.242 34.1734 Z" fill="#000000" fill-rule="nonzero" fill-opacity="1" /><path clip-path="url(#clip000)" d="M724.818 32.4315 Q718.823 32.4315 715.339 37.1306 Q711.855 41.7891 711.855 49.9314 Q711.855 58.0738 715.299 62.7728 Q718.782 67.4314 724.818 67.4314 Q730.773 67.4314 734.257 62.7323 Q737.741 58.0333 737.741 49.9314 Q737.741 41.8701 734.257 37.1711 Q730.773 32.4315 724.818 32.4315 M724.818 26.1121 Q734.54 26.1121 740.09 32.4315 Q745.64 38.7509 745.64 49.9314 Q745.64 61.0714 740.09 67.4314 Q734.54 73.7508 724.818 73.7508 Q715.055 73.7508 709.506 67.4314 Q703.996 61.0714 703.996 49.9314 Q703.996 38.7509 709.506 32.4315 Q715.055 26.1121 724.818 26.1121 Z" fill="#000000" fill-rule="nonzero" fill-opacity="1" /><path clip-path="url(#clip000)" d="M786.919 28.5427 L786.919 35.5912 Q783.759 33.9709 780.356 33.1607 Q776.953 32.3505 773.307 32.3505 Q767.758 32.3505 764.963 34.0519 Q762.208 35.7533 762.208 39.156 Q762.208 41.7486 764.193 43.2475 Q766.178 44.7058 772.173 46.0426 L774.725 46.6097 Q782.665 48.3111 785.987 51.4303 Q789.349 54.509 789.349 60.0587 Q789.349 66.3781 784.326 70.0644 Q779.343 73.7508 770.593 73.7508 Q766.948 73.7508 762.978 73.0216 Q759.048 72.3329 754.673 70.9151 L754.673 63.2184 Q758.805 65.3654 762.816 66.4591 Q766.826 67.5124 770.755 67.5124 Q776.022 67.5124 778.857 65.73 Q781.693 63.9071 781.693 60.6258 Q781.693 57.5877 779.627 55.9673 Q777.601 54.3469 770.674 52.8481 L768.082 52.2405 Q761.155 50.7821 758.076 47.7845 Q754.997 44.7463 754.997 39.4801 Q754.997 33.0797 759.534 29.5959 Q764.071 26.1121 772.416 26.1121 Q776.548 26.1121 780.194 26.7198 Q783.84 27.3274 786.919 28.5427 Z" fill="#000000" fill-rule="nonzero" fill-opacity="1" /><path clip-path="url(#clip000)" d="M818.799 32.4315 Q812.804 32.4315 809.32 37.1306 Q805.836 41.7891 805.836 49.9314 Q805.836 58.0738 809.279 62.7728 Q812.763 67.4314 818.799 67.4314 Q824.754 67.4314 828.238 62.7323 Q831.722 58.0333 831.722 49.9314 Q831.722 41.8701 828.238 37.1711 Q824.754 32.4315 818.799 32.4315 M818.799 26.1121 Q828.521 26.1121 834.071 32.4315 Q839.621 38.7509 839.621 49.9314 Q839.621 61.0714 834.071 67.4314 Q828.521 73.7508 818.799 73.7508 Q809.036 73.7508 803.487 67.4314 Q797.977 61.0714 797.977 49.9314 Q797.977 38.7509 803.487 32.4315 Q809.036 26.1121 818.799 26.1121 Z" fill="#000000" fill-rule="nonzero" fill-opacity="1" /><path clip-path="url(#clip000)" d="M851.976 9.54393 L859.43 9.54393 L859.43 72.576 L851.976 72.576 L851.976 9.54393 Z" fill="#000000" fill-rule="nonzero" fill-opacity="1" /><path clip-path="url(#clip000)" d="M909.904 18.8205 L909.904 41.5461 L920.193 41.5461 Q925.905 41.5461 929.024 38.5889 Q932.143 35.6318 932.143 30.163 Q932.143 24.7348 929.024 21.7777 Q925.905 18.8205 920.193 18.8205 L909.904 18.8205 M901.721 12.096 L920.193 12.096 Q930.361 12.096 935.546 16.714 Q940.772 21.2916 940.772 30.163 Q940.772 39.1155 935.546 43.6931 Q930.361 48.2706 920.193 48.2706 L909.904 48.2706 L909.904 72.576 L901.721 72.576 L901.721 12.096 Z" fill="#000000" fill-rule="nonzero" fill-opacity="1" /><path clip-path="url(#clip000)" d="M968.318 49.7694 Q959.284 49.7694 955.801 51.8354 Q952.317 53.9013 952.317 58.8839 Q952.317 62.8538 954.91 65.2034 Q957.543 67.5124 962.039 67.5124 Q968.237 67.5124 971.964 63.1374 Q975.731 58.7219 975.731 51.4303 L975.731 49.7694 L968.318 49.7694 M983.185 46.6907 L983.185 72.576 L975.731 72.576 L975.731 65.6895 Q973.179 69.8214 969.371 71.8063 Q965.563 73.7508 960.054 73.7508 Q953.087 73.7508 948.955 69.8619 Q944.863 65.9325 944.863 59.3701 Q944.863 51.7138 949.967 47.825 Q955.112 43.9361 965.28 43.9361 L975.731 43.9361 L975.731 43.2069 Q975.731 38.0623 972.328 35.2672 Q968.966 32.4315 962.849 32.4315 Q958.96 32.4315 955.274 33.3632 Q951.588 34.295 948.185 36.1584 L948.185 29.2718 Q952.276 27.692 956.125 26.9223 Q959.973 26.1121 963.619 26.1121 Q973.463 26.1121 978.324 31.2163 Q983.185 36.3204 983.185 46.6907 Z" fill="#000000" fill-rule="nonzero" fill-opacity="1" /><path clip-path="url(#clip000)" d="M1024.83 34.1734 Q1023.57 33.4443 1022.07 33.1202 Q1020.62 32.7556 1018.83 32.7556 Q1012.51 32.7556 1009.11 36.8875 Q1005.75 40.9789 1005.75 48.6757 L1005.75 72.576 L998.254 72.576 L998.254 27.2059 L1005.75 27.2059 L1005.75 34.2544 Q1008.1 30.1225 1011.87 28.1376 Q1015.63 26.1121 1021.02 26.1121 Q1021.79 26.1121 1022.72 26.2337 Q1023.65 26.3147 1024.79 26.5172 L1024.83 34.1734 Z" fill="#000000" fill-rule="nonzero" fill-opacity="1" /><path clip-path="url(#clip000)" d="M1040.02 14.324 L1040.02 27.2059 L1055.37 27.2059 L1055.37 32.9987 L1040.02 32.9987 L1040.02 57.6282 Q1040.02 63.1779 1041.52 64.7578 Q1043.06 66.3376 1047.72 66.3376 L1055.37 66.3376 L1055.37 72.576 L1047.72 72.576 Q1039.09 72.576 1035.81 69.3758 Q1032.52 66.1351 1032.52 57.6282 L1032.52 32.9987 L1027.06 32.9987 L1027.06 27.2059 L1032.52 27.2059 L1032.52 14.324 L1040.02 14.324 Z" fill="#000000" fill-rule="nonzero" fill-opacity="1" /><path clip-path="url(#clip000)" d="M1065.18 27.2059 L1072.63 27.2059 L1072.63 72.576 L1065.18 72.576 L1065.18 27.2059 M1065.18 9.54393 L1072.63 9.54393 L1072.63 18.9825 L1065.18 18.9825 L1065.18 9.54393 Z" fill="#000000" fill-rule="nonzero" fill-opacity="1" /><path clip-path="url(#clip000)" d="M1095.6 14.324 L1095.6 27.2059 L1110.95 27.2059 L1110.95 32.9987 L1095.6 32.9987 L1095.6 57.6282 Q1095.6 63.1779 1097.1 64.7578 Q1098.64 66.3376 1103.29 66.3376 L1110.95 66.3376 L1110.95 72.576 L1103.29 72.576 Q1094.67 72.576 1091.38 69.3758 Q1088.1 66.1351 1088.1 57.6282 L1088.1 32.9987 L1082.63 32.9987 L1082.63 27.2059 L1088.1 27.2059 L1088.1 14.324 L1095.6 14.324 Z" fill="#000000" fill-rule="nonzero" fill-opacity="1" /><path clip-path="url(#clip000)" d="M1120.75 27.2059 L1128.21 27.2059 L1128.21 72.576 L1120.75 72.576 L1120.75 27.2059 M1120.75 9.54393 L1128.21 9.54393 L1128.21 18.9825 L1120.75 18.9825 L1120.75 9.54393 Z" fill="#000000" fill-rule="nonzero" fill-opacity="1" /><path clip-path="url(#clip000)" d="M1161.38 32.4315 Q1155.39 32.4315 1151.9 37.1306 Q1148.42 41.7891 1148.42 49.9314 Q1148.42 58.0738 1151.86 62.7728 Q1155.35 67.4314 1161.38 67.4314 Q1167.34 67.4314 1170.82 62.7323 Q1174.31 58.0333 1174.31 49.9314 Q1174.31 41.8701 1170.82 37.1711 Q1167.34 32.4315 1161.38 32.4315 M1161.38 26.1121 Q1171.11 26.1121 1176.66 32.4315 Q1182.21 38.7509 1182.21 49.9314 Q1182.21 61.0714 1176.66 67.4314 Q1171.11 73.7508 1161.38 73.7508 Q1151.62 73.7508 1146.07 67.4314 Q1140.56 61.0714 1140.56 49.9314 Q1140.56 38.7509 1146.07 32.4315 Q1151.62 26.1121 1161.38 26.1121 Z" fill="#000000" fill-rule="nonzero" fill-opacity="1" /><path clip-path="url(#clip000)" d="M1232.27 45.1919 L1232.27 72.576 L1224.82 72.576 L1224.82 45.4349 Q1224.82 38.994 1222.31 35.7938 Q1219.8 32.5936 1214.78 32.5936 Q1208.74 32.5936 1205.26 36.4419 Q1201.77 40.2903 1201.77 46.9338 L1201.77 72.576 L1194.28 72.576 L1194.28 27.2059 L1201.77 27.2059 L1201.77 34.2544 Q1204.45 30.163 1208.05 28.1376 Q1211.7 26.1121 1216.44 26.1121 Q1224.25 26.1121 1228.26 30.9732 Q1232.27 35.7938 1232.27 45.1919 Z" fill="#000000" fill-rule="nonzero" fill-opacity="1" /><path clip-path="url(#clip000)" d="M1247.14 27.2059 L1254.6 27.2059 L1254.6 72.576 L1247.14 72.576 L1247.14 27.2059 M1247.14 9.54393 L1254.6 9.54393 L1254.6 18.9825 L1247.14 18.9825 L1247.14 9.54393 Z" fill="#000000" fill-rule="nonzero" fill-opacity="1" /><path clip-path="url(#clip000)" d="M1307.91 45.1919 L1307.91 72.576 L1300.45 72.576 L1300.45 45.4349 Q1300.45 38.994 1297.94 35.7938 Q1295.43 32.5936 1290.41 32.5936 Q1284.37 32.5936 1280.89 36.4419 Q1277.4 40.2903 1277.4 46.9338 L1277.4 72.576 L1269.91 72.576 L1269.91 27.2059 L1277.4 27.2059 L1277.4 34.2544 Q1280.08 30.163 1283.68 28.1376 Q1287.33 26.1121 1292.07 26.1121 Q1299.88 26.1121 1303.89 30.9732 Q1307.91 35.7938 1307.91 45.1919 Z" fill="#000000" fill-rule="nonzero" fill-opacity="1" /><path clip-path="url(#clip000)" d="M1352.63 49.3643 Q1352.63 41.2625 1349.27 36.8065 Q1345.94 32.3505 1339.91 32.3505 Q1333.91 32.3505 1330.55 36.8065 Q1327.23 41.2625 1327.23 49.3643 Q1327.23 57.4256 1330.55 61.8816 Q1333.91 66.3376 1339.91 66.3376 Q1345.94 66.3376 1349.27 61.8816 Q1352.63 57.4256 1352.63 49.3643 M1360.08 66.9452 Q1360.08 78.5308 1354.94 84.1616 Q1349.79 89.8329 1339.18 89.8329 Q1335.25 89.8329 1331.77 89.2252 Q1328.28 88.6581 1325 87.4428 L1325 80.1917 Q1328.28 81.9741 1331.48 82.8248 Q1334.68 83.6755 1338 83.6755 Q1345.34 83.6755 1348.98 79.8271 Q1352.63 76.0193 1352.63 68.282 L1352.63 64.5957 Q1350.32 68.6061 1346.71 70.5911 Q1343.11 72.576 1338.08 72.576 Q1329.74 72.576 1324.64 66.2161 Q1319.53 59.8562 1319.53 49.3643 Q1319.53 38.832 1324.64 32.472 Q1329.74 26.1121 1338.08 26.1121 Q1343.11 26.1121 1346.71 28.0971 Q1350.32 30.082 1352.63 34.0924 L1352.63 27.2059 L1360.08 27.2059 L1360.08 66.9452 Z" fill="#000000" fill-rule="nonzero" fill-opacity="1" /><path clip-path="url(#clip000)" d="M1396.46 27.2059 L1404.36 27.2059 L1418.54 65.2844 L1432.71 27.2059 L1440.61 27.2059 L1423.6 72.576 L1413.47 72.576 L1396.46 27.2059 Z" fill="#000000" fill-rule="nonzero" fill-opacity="1" /><path clip-path="url(#clip000)" d="M1479.83 28.5427 L1479.83 35.5912 Q1476.67 33.9709 1473.26 33.1607 Q1469.86 32.3505 1466.21 32.3505 Q1460.66 32.3505 1457.87 34.0519 Q1455.12 35.7533 1455.12 39.156 Q1455.12 41.7486 1457.1 43.2475 Q1459.09 44.7058 1465.08 46.0426 L1467.63 46.6097 Q1475.57 48.3111 1478.89 51.4303 Q1482.26 54.509 1482.26 60.0587 Q1482.26 66.3781 1477.23 70.0644 Q1472.25 73.7508 1463.5 73.7508 Q1459.85 73.7508 1455.88 73.0216 Q1451.96 72.3329 1447.58 70.9151 L1447.58 63.2184 Q1451.71 65.3654 1455.72 66.4591 Q1459.73 67.5124 1463.66 67.5124 Q1468.93 67.5124 1471.76 65.73 Q1474.6 63.9071 1474.6 60.6258 Q1474.6 57.5877 1472.53 55.9673 Q1470.51 54.3469 1463.58 52.8481 L1460.99 52.2405 Q1454.06 50.7821 1450.98 47.7845 Q1447.9 44.7463 1447.9 39.4801 Q1447.9 33.0797 1452.44 29.5959 Q1456.98 26.1121 1465.32 26.1121 Q1469.46 26.1121 1473.1 26.7198 Q1476.75 27.3274 1479.83 28.5427 Z" fill="#000000" fill-rule="nonzero" fill-opacity="1" /><path clip-path="url(#clip000)" d="M1549.5 44.2197 Q1552.13 45.1109 1554.61 48.0275 Q1557.12 50.9442 1559.63 56.0483 L1567.93 72.576 L1559.14 72.576 L1551.41 57.061 Q1548.41 50.9847 1545.57 48.9997 Q1542.78 47.0148 1537.92 47.0148 L1529 47.0148 L1529 72.576 L1520.82 72.576 L1520.82 12.096 L1539.29 12.096 Q1549.66 12.096 1554.77 16.4305 Q1559.87 20.7649 1559.87 29.5149 Q1559.87 35.2267 1557.2 38.994 Q1554.56 42.7613 1549.5 44.2197 M1529 18.8205 L1529 40.2903 L1539.29 40.2903 Q1545.21 40.2903 1548.2 37.5762 Q1551.24 34.8216 1551.24 29.5149 Q1551.24 24.2082 1548.2 21.5346 Q1545.21 18.8205 1539.29 18.8205 L1529 18.8205 Z" fill="#000000" fill-rule="nonzero" fill-opacity="1" /><path clip-path="url(#clip000)" d="M1578.47 12.096 L1586.65 12.096 L1586.65 36.8875 L1616.38 36.8875 L1616.38 12.096 L1624.56 12.096 L1624.56 72.576 L1616.38 72.576 L1616.38 43.7741 L1586.65 43.7741 L1586.65 72.576 L1578.47 72.576 L1578.47 12.096 Z" fill="#000000" fill-rule="nonzero" fill-opacity="1" /><path clip-path="url(#clip000)" d="M1684.8 9.62495 Q1679.37 18.942 1676.74 28.0566 Q1674.11 37.1711 1674.11 46.5287 Q1674.11 55.8863 1676.74 65.0818 Q1679.41 74.2369 1684.8 83.5134 L1678.32 83.5134 Q1672.24 73.9938 1669.21 64.7983 Q1666.21 55.6027 1666.21 46.5287 Q1666.21 37.4952 1669.21 28.3401 Q1672.2 19.1851 1678.32 9.62495 L1684.8 9.62495 Z" fill="#000000" fill-rule="nonzero" fill-opacity="1" /><path clip-path="url(#clip000)" d="M1735.84 14.0809 L1735.84 22.0612 Q1731.18 19.8332 1727.05 18.7395 Q1722.92 17.6457 1719.07 17.6457 Q1712.39 17.6457 1708.74 20.2383 Q1705.14 22.8309 1705.14 27.611 Q1705.14 31.6214 1707.53 33.6873 Q1709.96 35.7128 1716.68 36.9686 L1721.62 37.9813 Q1730.78 39.7232 1735.11 44.1387 Q1739.49 48.5136 1739.49 55.8863 Q1739.49 64.6767 1733.57 69.2137 Q1727.7 73.7508 1716.32 73.7508 Q1712.02 73.7508 1707.16 72.7785 Q1702.34 71.8063 1697.16 69.9024 L1697.16 61.4765 Q1702.14 64.2716 1706.92 65.6895 Q1711.7 67.1073 1716.32 67.1073 Q1723.33 67.1073 1727.13 64.3527 Q1730.94 61.598 1730.94 56.4939 Q1730.94 52.0379 1728.19 49.5264 Q1725.47 47.0148 1719.23 45.759 L1714.25 44.7868 Q1705.1 42.9639 1701.01 39.075 Q1696.91 35.1862 1696.91 28.2591 Q1696.91 20.2383 1702.54 15.6203 Q1708.22 11.0023 1718.14 11.0023 Q1722.39 11.0023 1726.81 11.7719 Q1731.22 12.5416 1735.84 14.0809 Z" fill="#000000" fill-rule="nonzero" fill-opacity="1" /><path clip-path="url(#clip000)" d="M1751.16 54.671 L1751.16 27.2059 L1758.61 27.2059 L1758.61 54.3874 Q1758.61 60.8284 1761.12 64.0691 Q1763.63 67.2693 1768.66 67.2693 Q1774.69 67.2693 1778.17 63.421 Q1781.7 59.5726 1781.7 52.9291 L1781.7 27.2059 L1789.15 27.2059 L1789.15 72.576 L1781.7 72.576 L1781.7 65.6084 Q1778.98 69.7404 1775.38 71.7658 Q1771.81 73.7508 1767.08 73.7508 Q1759.26 73.7508 1755.21 68.8897 Q1751.16 64.0286 1751.16 54.671 M1769.91 26.1121 L1769.91 26.1121 Z" fill="#000000" fill-rule="nonzero" fill-opacity="1" /><path clip-path="url(#clip000)" d="M1804.51 9.54393 L1811.96 9.54393 L1811.96 72.576 L1804.51 72.576 L1804.51 9.54393 Z" fill="#000000" fill-rule="nonzero" fill-opacity="1" /><path clip-path="url(#clip000)" d="M1850.52 9.54393 L1850.52 15.7418 L1843.39 15.7418 Q1839.38 15.7418 1837.8 17.3622 Q1836.26 18.9825 1836.26 23.1955 L1836.26 27.2059 L1848.54 27.2059 L1848.54 32.9987 L1836.26 32.9987 L1836.26 72.576 L1828.77 72.576 L1828.77 32.9987 L1821.64 32.9987 L1821.64 27.2059 L1828.77 27.2059 L1828.77 24.0462 Q1828.77 16.471 1832.29 13.0277 Q1835.82 9.54393 1843.48 9.54393 L1850.52 9.54393 Z" fill="#000000" fill-rule="nonzero" fill-opacity="1" /><path clip-path="url(#clip000)" d="M1877.38 49.7694 Q1868.35 49.7694 1864.86 51.8354 Q1861.38 53.9013 1861.38 58.8839 Q1861.38 62.8538 1863.97 65.2034 Q1866.61 67.5124 1871.1 67.5124 Q1877.3 67.5124 1881.03 63.1374 Q1884.79 58.7219 1884.79 51.4303 L1884.79 49.7694 L1877.38 49.7694 M1892.25 46.6907 L1892.25 72.576 L1884.79 72.576 L1884.79 65.6895 Q1882.24 69.8214 1878.43 71.8063 Q1874.63 73.7508 1869.12 73.7508 Q1862.15 73.7508 1858.02 69.8619 Q1853.93 65.9325 1853.93 59.3701 Q1853.93 51.7138 1859.03 47.825 Q1864.18 43.9361 1874.34 43.9361 L1884.79 43.9361 L1884.79 43.2069 Q1884.79 38.0623 1881.39 35.2672 Q1878.03 32.4315 1871.91 32.4315 Q1868.02 32.4315 1864.34 33.3632 Q1860.65 34.295 1857.25 36.1584 L1857.25 29.2718 Q1861.34 27.692 1865.19 26.9223 Q1869.04 26.1121 1872.68 26.1121 Q1882.53 26.1121 1887.39 31.2163 Q1892.25 36.3204 1892.25 46.6907 Z" fill="#000000" fill-rule="nonzero" fill-opacity="1" /><path clip-path="url(#clip000)" d="M1914.97 14.324 L1914.97 27.2059 L1930.33 27.2059 L1930.33 32.9987 L1914.97 32.9987 L1914.97 57.6282 Q1914.97 63.1779 1916.47 64.7578 Q1918.01 66.3376 1922.67 66.3376 L1930.33 66.3376 L1930.33 72.576 L1922.67 72.576 Q1914.04 72.576 1910.76 69.3758 Q1907.48 66.1351 1907.48 57.6282 L1907.48 32.9987 L1902.01 32.9987 L1902.01 27.2059 L1907.48 27.2059 L1907.48 14.324 L1914.97 14.324 Z" fill="#000000" fill-rule="nonzero" fill-opacity="1" /><path clip-path="url(#clip000)" d="M1978.94 48.0275 L1978.94 51.6733 L1944.67 51.6733 Q1945.15 59.3701 1949.28 63.421 Q1953.46 67.4314 1960.87 67.4314 Q1965.16 67.4314 1969.17 66.3781 Q1973.23 65.3249 1977.2 63.2184 L1977.2 70.267 Q1973.19 71.9684 1968.97 72.8596 Q1964.76 73.7508 1960.42 73.7508 Q1949.57 73.7508 1943.21 67.4314 Q1936.89 61.1119 1936.89 50.3365 Q1936.89 39.1965 1942.88 32.6746 Q1948.92 26.1121 1959.13 26.1121 Q1968.28 26.1121 1973.59 32.0264 Q1978.94 37.9003 1978.94 48.0275 M1971.48 45.84 Q1971.4 39.7232 1968.04 36.0774 Q1964.72 32.4315 1959.21 32.4315 Q1952.97 32.4315 1949.2 35.9558 Q1945.48 39.4801 1944.91 45.8805 L1971.48 45.84 Z" fill="#000000" fill-rule="nonzero" fill-opacity="1" /><path clip-path="url(#clip000)" d="M1987.4 46.5287 L2009.24 46.5287 L2009.24 53.1722 L1987.4 53.1722 L1987.4 46.5287 Z" fill="#000000" fill-rule="nonzero" fill-opacity="1" /><path clip-path="url(#clip000)" d="M2029.61 18.8205 L2029.61 41.5461 L2039.9 41.5461 Q2045.62 41.5461 2048.73 38.5889 Q2051.85 35.6318 2051.85 30.163 Q2051.85 24.7348 2048.73 21.7777 Q2045.62 18.8205 2039.9 18.8205 L2029.61 18.8205 M2021.43 12.096 L2039.9 12.096 Q2050.07 12.096 2055.26 16.714 Q2060.48 21.2916 2060.48 30.163 Q2060.48 39.1155 2055.26 43.6931 Q2050.07 48.2706 2039.9 48.2706 L2029.61 48.2706 L2029.61 72.576 L2021.43 72.576 L2021.43 12.096 Z" fill="#000000" fill-rule="nonzero" fill-opacity="1" /><path clip-path="url(#clip000)" d="M2085.76 32.4315 Q2079.76 32.4315 2076.28 37.1306 Q2072.8 41.7891 2072.8 49.9314 Q2072.8 58.0738 2076.24 62.7728 Q2079.72 67.4314 2085.76 67.4314 Q2091.71 67.4314 2095.2 62.7323 Q2098.68 58.0333 2098.68 49.9314 Q2098.68 41.8701 2095.2 37.1711 Q2091.71 32.4315 2085.76 32.4315 M2085.76 26.1121 Q2095.48 26.1121 2101.03 32.4315 Q2106.58 38.7509 2106.58 49.9314 Q2106.58 61.0714 2101.03 67.4314 Q2095.48 73.7508 2085.76 73.7508 Q2076 73.7508 2070.45 67.4314 Q2064.94 61.0714 2064.94 49.9314 Q2064.94 38.7509 2070.45 32.4315 Q2076 26.1121 2085.76 26.1121 Z" fill="#000000" fill-rule="nonzero" fill-opacity="1" /><path clip-path="url(#clip000)" d="M2136.52 32.4315 Q2130.52 32.4315 2127.04 37.1306 Q2123.55 41.7891 2123.55 49.9314 Q2123.55 58.0738 2127 62.7728 Q2130.48 67.4314 2136.52 67.4314 Q2142.47 67.4314 2145.96 62.7323 Q2149.44 58.0333 2149.44 49.9314 Q2149.44 41.8701 2145.96 37.1711 Q2142.47 32.4315 2136.52 32.4315 M2136.52 26.1121 Q2146.24 26.1121 2151.79 32.4315 Q2157.34 38.7509 2157.34 49.9314 Q2157.34 61.0714 2151.79 67.4314 Q2146.24 73.7508 2136.52 73.7508 Q2126.76 73.7508 2121.21 67.4314 Q2115.7 61.0714 2115.7 49.9314 Q2115.7 38.7509 2121.21 32.4315 Q2126.76 26.1121 2136.52 26.1121 Z" fill="#000000" fill-rule="nonzero" fill-opacity="1" /><path clip-path="url(#clip000)" d="M2195.99 34.1734 Q2194.73 33.4443 2193.23 33.1202 Q2191.77 32.7556 2189.99 32.7556 Q2183.67 32.7556 2180.27 36.8875 Q2176.91 40.9789 2176.91 48.6757 L2176.91 72.576 L2169.41 72.576 L2169.41 27.2059 L2176.91 27.2059 L2176.91 34.2544 Q2179.25 30.1225 2183.02 28.1376 Q2186.79 26.1121 2192.18 26.1121 Q2192.95 26.1121 2193.88 26.2337 Q2194.81 26.3147 2195.94 26.5172 L2195.99 34.1734 Z" fill="#000000" fill-rule="nonzero" fill-opacity="1" /><path clip-path="url(#clip000)" d="M2202.63 9.62495 L2209.11 9.62495 Q2215.19 19.1851 2218.18 28.3401 Q2221.22 37.4952 2221.22 46.5287 Q2221.22 55.6027 2218.18 64.7983 Q2215.19 73.9938 2209.11 83.5134 L2202.63 83.5134 Q2208.02 74.2369 2210.65 65.0818 Q2213.32 55.8863 2213.32 46.5287 Q2213.32 37.1711 2210.65 28.0566 Q2208.02 18.942 2202.63 9.62495 Z" fill="#000000" fill-rule="nonzero" fill-opacity="1" /><polyline clip-path="url(#clip001)" style="stroke:#009af9; stroke-linecap:round; stroke-linejoin:round; stroke-width:4; stroke-opacity:1; fill:none" points="1101.49,1365.6 1498.72,1367.2 1895.95,1341.1 2293.17,1343.28 "/>
<polyline clip-path="url(#clip001)" style="stroke:#e26f46; stroke-linecap:round; stroke-linejoin:round; stroke-width:4; stroke-opacity:1; fill:none" points="1101.49,1381.6 1498.72,1386.4 1895.95,1308.19 2293.17,1315.48 "/>
<path clip-path="url(#clip000)" d="M1544.55 322.316 L2282.58 322.316 L2282.58 166.796 L1544.55 166.796  Z" fill="#ffffff" fill-rule="evenodd" fill-opacity="1"/>
<polyline clip-path="url(#clip000)" style="stroke:#000000; stroke-linecap:round; stroke-linejoin:round; stroke-width:4; stroke-opacity:1; fill:none" points="1544.55,322.316 2282.58,322.316 2282.58,166.796 1544.55,166.796 1544.55,322.316 "/>
<polyline clip-path="url(#clip000)" style="stroke:#009af9; stroke-linecap:round; stroke-linejoin:round; stroke-width:4; stroke-opacity:1; fill:none" points="1567.94,218.636 1708.3,218.636 "/>
<path clip-path="url(#clip000)" d="M1731.69 201.356 L1737.99 201.356 L1753.31 230.268 L1753.31 201.356 L1757.85 201.356 L1757.85 235.916 L1751.55 235.916 L1736.23 207.004 L1736.23 235.916 L1731.69 235.916 L1731.69 201.356 Z" fill="#000000" fill-rule="nonzero" fill-opacity="1" /><path clip-path="url(#clip000)" d="M1767.15 201.356 L1771.83 201.356 L1771.83 215.522 L1788.82 215.522 L1788.82 201.356 L1793.5 201.356 L1793.5 235.916 L1788.82 235.916 L1788.82 219.457 L1771.83 219.457 L1771.83 235.916 L1767.15 235.916 L1767.15 201.356 Z" fill="#000000" fill-rule="nonzero" fill-opacity="1" /><path clip-path="url(#clip000)" d="M1816.06 205.43 L1804.26 223.879 L1816.06 223.879 L1816.06 205.43 M1814.84 201.356 L1820.72 201.356 L1820.72 223.879 L1825.65 223.879 L1825.65 227.768 L1820.72 227.768 L1820.72 235.916 L1816.06 235.916 L1816.06 227.768 L1800.46 227.768 L1800.46 223.254 L1814.84 201.356 Z" fill="#000000" fill-rule="nonzero" fill-opacity="1" /><path clip-path="url(#clip000)" d="M1850.12 206.194 L1850.12 219.087 L1863.01 219.087 L1863.01 223.022 L1850.12 223.022 L1850.12 235.916 L1846.23 235.916 L1846.23 223.022 L1833.33 223.022 L1833.33 219.087 L1846.23 219.087 L1846.23 206.194 L1850.12 206.194 Z" fill="#000000" fill-rule="nonzero" fill-opacity="1" /><path clip-path="url(#clip000)" d="M1895.14 201.356 L1899.07 201.356 L1887.04 240.314 L1883.1 240.314 L1895.14 201.356 Z" fill="#000000" fill-rule="nonzero" fill-opacity="1" /><path clip-path="url(#clip000)" d="M1928.84 199.944 Q1925.74 205.268 1924.24 210.476 Q1922.73 215.684 1922.73 221.032 Q1922.73 226.379 1924.24 231.633 Q1925.76 236.865 1928.84 242.166 L1925.14 242.166 Q1921.67 236.726 1919.93 231.471 Q1918.22 226.217 1918.22 221.032 Q1918.22 215.87 1919.93 210.638 Q1921.64 205.407 1925.14 199.944 L1928.84 199.944 Z" fill="#000000" fill-rule="nonzero" fill-opacity="1" /><path clip-path="url(#clip000)" d="M1937.29 201.356 L1943.59 201.356 L1958.91 230.268 L1958.91 201.356 L1963.45 201.356 L1963.45 235.916 L1957.15 235.916 L1941.83 207.004 L1941.83 235.916 L1937.29 235.916 L1937.29 201.356 Z" fill="#000000" fill-rule="nonzero" fill-opacity="1" /><path clip-path="url(#clip000)" d="M1972.75 201.356 L1977.43 201.356 L1977.43 215.522 L1994.42 215.522 L1994.42 201.356 L1999.1 201.356 L1999.1 235.916 L1994.42 235.916 L1994.42 219.457 L1977.43 219.457 L1977.43 235.916 L1972.75 235.916 L1972.75 201.356 Z" fill="#000000" fill-rule="nonzero" fill-opacity="1" /><path clip-path="url(#clip000)" d="M2021.67 205.43 L2009.86 223.879 L2021.67 223.879 L2021.67 205.43 M2020.44 201.356 L2026.32 201.356 L2026.32 223.879 L2031.25 223.879 L2031.25 227.768 L2026.32 227.768 L2026.32 235.916 L2021.67 235.916 L2021.67 227.768 L2006.06 227.768 L2006.06 223.254 L2020.44 201.356 Z" fill="#000000" fill-rule="nonzero" fill-opacity="1" /><path clip-path="url(#clip000)" d="M2055.72 206.194 L2055.72 219.087 L2068.61 219.087 L2068.61 223.022 L2055.72 223.022 L2055.72 235.916 L2051.83 235.916 L2051.83 223.022 L2038.93 223.022 L2038.93 219.087 L2051.83 219.087 L2051.83 206.194 L2055.72 206.194 Z" fill="#000000" fill-rule="nonzero" fill-opacity="1" /><path clip-path="url(#clip000)" d="M2110.51 206.194 L2110.51 219.087 L2123.4 219.087 L2123.4 223.022 L2110.51 223.022 L2110.51 235.916 L2106.62 235.916 L2106.62 223.022 L2093.73 223.022 L2093.73 219.087 L2106.62 219.087 L2106.62 206.194 L2110.51 206.194 Z" fill="#000000" fill-rule="nonzero" fill-opacity="1" /><path clip-path="url(#clip000)" d="M2148.15 201.356 L2154.44 201.356 L2169.77 230.268 L2169.77 201.356 L2174.3 201.356 L2174.3 235.916 L2168.01 235.916 L2152.68 207.004 L2152.68 235.916 L2148.15 235.916 L2148.15 201.356 Z" fill="#000000" fill-rule="nonzero" fill-opacity="1" /><path clip-path="url(#clip000)" d="M2183.61 201.356 L2188.28 201.356 L2188.28 215.522 L2205.28 215.522 L2205.28 201.356 L2209.95 201.356 L2209.95 235.916 L2205.28 235.916 L2205.28 219.457 L2188.28 219.457 L2188.28 235.916 L2183.61 235.916 L2183.61 201.356 Z" fill="#000000" fill-rule="nonzero" fill-opacity="1" /><path clip-path="url(#clip000)" d="M2233.84 217.282 Q2237.2 217.999 2239.07 220.268 Q2240.97 222.536 2240.97 225.869 Q2240.97 230.985 2237.45 233.786 Q2233.93 236.587 2227.45 236.587 Q2225.28 236.587 2222.96 236.147 Q2220.67 235.731 2218.22 234.874 L2218.22 230.36 Q2220.16 231.494 2222.47 232.073 Q2224.79 232.652 2227.31 232.652 Q2231.71 232.652 2234 230.916 Q2236.32 229.18 2236.32 225.869 Q2236.32 222.814 2234.16 221.101 Q2232.03 219.365 2228.22 219.365 L2224.19 219.365 L2224.19 215.522 L2228.4 215.522 Q2231.85 215.522 2233.68 214.157 Q2235.51 212.768 2235.51 210.175 Q2235.51 207.513 2233.61 206.101 Q2231.73 204.666 2228.22 204.666 Q2226.29 204.666 2224.09 205.083 Q2221.9 205.499 2219.26 206.379 L2219.26 202.212 Q2221.92 201.471 2224.23 201.101 Q2226.57 200.731 2228.63 200.731 Q2233.96 200.731 2237.06 203.161 Q2240.16 205.569 2240.16 209.689 Q2240.16 212.559 2238.52 214.55 Q2236.87 216.518 2233.84 217.282 Z" fill="#000000" fill-rule="nonzero" fill-opacity="1" /><path clip-path="url(#clip000)" d="M2248.56 199.944 L2252.27 199.944 Q2255.74 205.407 2257.45 210.638 Q2259.19 215.87 2259.19 221.032 Q2259.19 226.217 2257.45 231.471 Q2255.74 236.726 2252.27 242.166 L2248.56 242.166 Q2251.64 236.865 2253.15 231.633 Q2254.67 226.379 2254.67 221.032 Q2254.67 215.684 2253.15 210.476 Q2251.64 205.268 2248.56 199.944 Z" fill="#000000" fill-rule="nonzero" fill-opacity="1" /><polyline clip-path="url(#clip000)" style="stroke:#e26f46; stroke-linecap:round; stroke-linejoin:round; stroke-width:4; stroke-opacity:1; fill:none" points="1567.94,270.476 1708.3,270.476 "/>
<path clip-path="url(#clip000)" d="M1731.69 253.196 L1737.99 253.196 L1753.31 282.108 L1753.31 253.196 L1757.85 253.196 L1757.85 287.756 L1751.55 287.756 L1736.23 258.844 L1736.23 287.756 L1731.69 287.756 L1731.69 253.196 Z" fill="#000000" fill-rule="nonzero" fill-opacity="1" /><path clip-path="url(#clip000)" d="M1781.18 256.367 Q1776.09 256.367 1773.08 260.163 Q1770.09 263.96 1770.09 270.51 Q1770.09 277.038 1773.08 280.834 Q1776.09 284.631 1781.18 284.631 Q1786.27 284.631 1789.24 280.834 Q1792.22 277.038 1792.22 270.51 Q1792.22 263.96 1789.24 260.163 Q1786.27 256.367 1781.18 256.367 M1781.18 252.571 Q1788.45 252.571 1792.8 257.455 Q1797.15 262.316 1797.15 270.51 Q1797.15 278.682 1792.8 283.566 Q1788.45 288.427 1781.18 288.427 Q1773.89 288.427 1769.51 283.566 Q1765.16 278.705 1765.16 270.51 Q1765.16 262.316 1769.51 257.455 Q1773.89 252.571 1781.18 252.571 Z" fill="#000000" fill-rule="nonzero" fill-opacity="1" /><path clip-path="url(#clip000)" d="M1819.05 269.122 Q1822.41 269.839 1824.28 272.108 Q1826.18 274.376 1826.18 277.709 Q1826.18 282.825 1822.66 285.626 Q1819.14 288.427 1812.66 288.427 Q1810.49 288.427 1808.17 287.987 Q1805.88 287.571 1803.43 286.714 L1803.43 282.2 Q1805.37 283.334 1807.68 283.913 Q1810 284.492 1812.52 284.492 Q1816.92 284.492 1819.21 282.756 Q1821.53 281.02 1821.53 277.709 Q1821.53 274.654 1819.37 272.941 Q1817.25 271.205 1813.43 271.205 L1809.4 271.205 L1809.4 267.362 L1813.61 267.362 Q1817.06 267.362 1818.89 265.997 Q1820.72 264.608 1820.72 262.015 Q1820.72 259.353 1818.82 257.941 Q1816.94 256.506 1813.43 256.506 Q1811.5 256.506 1809.31 256.923 Q1807.11 257.339 1804.47 258.219 L1804.47 254.052 Q1807.13 253.311 1809.44 252.941 Q1811.78 252.571 1813.84 252.571 Q1819.17 252.571 1822.27 255.001 Q1825.37 257.409 1825.37 261.529 Q1825.37 264.399 1823.73 266.39 Q1822.08 268.358 1819.05 269.122 Z" fill="#000000" fill-rule="nonzero" fill-opacity="1" /><path clip-path="url(#clip000)" d="M1832.29 272.872 L1844.77 272.872 L1844.77 276.668 L1832.29 276.668 L1832.29 272.872 Z" fill="#000000" fill-rule="nonzero" fill-opacity="1" /><path clip-path="url(#clip000)" d="M1874.19 253.196 L1878.12 253.196 L1866.09 292.154 L1862.15 292.154 L1874.19 253.196 Z" fill="#000000" fill-rule="nonzero" fill-opacity="1" /><path clip-path="url(#clip000)" d="M1907.89 251.784 Q1904.79 257.108 1903.29 262.316 Q1901.78 267.524 1901.78 272.872 Q1901.78 278.219 1903.29 283.473 Q1904.81 288.705 1907.89 294.006 L1904.19 294.006 Q1900.72 288.566 1898.98 283.311 Q1897.27 278.057 1897.27 272.872 Q1897.27 267.71 1898.98 262.478 Q1900.69 257.247 1904.19 251.784 L1907.89 251.784 Z" fill="#000000" fill-rule="nonzero" fill-opacity="1" /><path clip-path="url(#clip000)" d="M1916.34 253.196 L1922.64 253.196 L1937.96 282.108 L1937.96 253.196 L1942.5 253.196 L1942.5 287.756 L1936.2 287.756 L1920.88 258.844 L1920.88 287.756 L1916.34 287.756 L1916.34 253.196 Z" fill="#000000" fill-rule="nonzero" fill-opacity="1" /><path clip-path="url(#clip000)" d="M1965.83 256.367 Q1960.74 256.367 1957.73 260.163 Q1954.74 263.96 1954.74 270.51 Q1954.74 277.038 1957.73 280.834 Q1960.74 284.631 1965.83 284.631 Q1970.92 284.631 1973.89 280.834 Q1976.87 277.038 1976.87 270.51 Q1976.87 263.96 1973.89 260.163 Q1970.92 256.367 1965.83 256.367 M1965.83 252.571 Q1973.1 252.571 1977.45 257.455 Q1981.8 262.316 1981.8 270.51 Q1981.8 278.682 1977.45 283.566 Q1973.1 288.427 1965.83 288.427 Q1958.54 288.427 1954.17 283.566 Q1949.81 278.705 1949.81 270.51 Q1949.81 262.316 1954.17 257.455 Q1958.54 252.571 1965.83 252.571 Z" fill="#000000" fill-rule="nonzero" fill-opacity="1" /><path clip-path="url(#clip000)" d="M2003.7 269.122 Q2007.06 269.839 2008.93 272.108 Q2010.83 274.376 2010.83 277.709 Q2010.83 282.825 2007.31 285.626 Q2003.79 288.427 1997.31 288.427 Q1995.14 288.427 1992.82 287.987 Q1990.53 287.571 1988.08 286.714 L1988.08 282.2 Q1990.02 283.334 1992.34 283.913 Q1994.65 284.492 1997.17 284.492 Q2001.57 284.492 2003.86 282.756 Q2006.18 281.02 2006.18 277.709 Q2006.18 274.654 2004.03 272.941 Q2001.9 271.205 1998.08 271.205 L1994.05 271.205 L1994.05 267.362 L1998.26 267.362 Q2001.71 267.362 2003.54 265.997 Q2005.37 264.608 2005.37 262.015 Q2005.37 259.353 2003.47 257.941 Q2001.6 256.506 1998.08 256.506 Q1996.16 256.506 1993.96 256.923 Q1991.76 257.339 1989.12 258.219 L1989.12 254.052 Q1991.78 253.311 1994.1 252.941 Q1996.43 252.571 1998.49 252.571 Q2003.82 252.571 2006.92 255.001 Q2010.02 257.409 2010.02 261.529 Q2010.02 264.399 2008.38 266.39 Q2006.73 268.358 2003.7 269.122 Z" fill="#000000" fill-rule="nonzero" fill-opacity="1" /><path clip-path="url(#clip000)" d="M2016.94 272.872 L2029.42 272.872 L2029.42 276.668 L2016.94 276.668 L2016.94 272.872 Z" fill="#000000" fill-rule="nonzero" fill-opacity="1" /><path clip-path="url(#clip000)" d="M2068.61 258.034 L2068.61 270.927 L2081.5 270.927 L2081.5 274.862 L2068.61 274.862 L2068.61 287.756 L2064.72 287.756 L2064.72 274.862 L2051.83 274.862 L2051.83 270.927 L2064.72 270.927 L2064.72 258.034 L2068.61 258.034 Z" fill="#000000" fill-rule="nonzero" fill-opacity="1" /><path clip-path="url(#clip000)" d="M2106.25 253.196 L2110.92 253.196 L2110.92 267.362 L2127.91 267.362 L2127.91 253.196 L2132.59 253.196 L2132.59 287.756 L2127.91 287.756 L2127.91 271.297 L2110.92 271.297 L2110.92 287.756 L2106.25 287.756 L2106.25 253.196 Z" fill="#000000" fill-rule="nonzero" fill-opacity="1" /><path clip-path="url(#clip000)" d="M2141.9 253.196 L2148.19 253.196 L2163.52 282.108 L2163.52 253.196 L2168.05 253.196 L2168.05 287.756 L2161.76 287.756 L2146.43 258.844 L2146.43 287.756 L2141.9 287.756 L2141.9 253.196 Z" fill="#000000" fill-rule="nonzero" fill-opacity="1" /><path clip-path="url(#clip000)" d="M2191.39 256.367 Q2186.29 256.367 2183.28 260.163 Q2180.3 263.96 2180.3 270.51 Q2180.3 277.038 2183.28 280.834 Q2186.29 284.631 2191.39 284.631 Q2196.48 284.631 2199.44 280.834 Q2202.43 277.038 2202.43 270.51 Q2202.43 263.96 2199.44 260.163 Q2196.48 256.367 2191.39 256.367 M2191.39 252.571 Q2198.66 252.571 2203.01 257.455 Q2207.36 262.316 2207.36 270.51 Q2207.36 278.682 2203.01 283.566 Q2198.66 288.427 2191.39 288.427 Q2184.09 288.427 2179.72 283.566 Q2175.37 278.705 2175.37 270.51 Q2175.37 262.316 2179.72 257.455 Q2184.09 252.571 2191.39 252.571 Z" fill="#000000" fill-rule="nonzero" fill-opacity="1" /><path clip-path="url(#clip000)" d="M2229.26 269.122 Q2232.61 269.839 2234.49 272.108 Q2236.39 274.376 2236.39 277.709 Q2236.39 282.825 2232.87 285.626 Q2229.35 288.427 2222.87 288.427 Q2220.69 288.427 2218.38 287.987 Q2216.09 287.571 2213.63 286.714 L2213.63 282.2 Q2215.58 283.334 2217.89 283.913 Q2220.21 284.492 2222.73 284.492 Q2227.13 284.492 2229.42 282.756 Q2231.73 281.02 2231.73 277.709 Q2231.73 274.654 2229.58 272.941 Q2227.45 271.205 2223.63 271.205 L2219.6 271.205 L2219.6 267.362 L2223.82 267.362 Q2227.27 267.362 2229.09 265.997 Q2230.92 264.608 2230.92 262.015 Q2230.92 259.353 2229.03 257.941 Q2227.15 256.506 2223.63 256.506 Q2221.71 256.506 2219.51 256.923 Q2217.31 257.339 2214.67 258.219 L2214.67 254.052 Q2217.34 253.311 2219.65 252.941 Q2221.99 252.571 2224.05 252.571 Q2229.37 252.571 2232.47 255.001 Q2235.58 257.409 2235.58 261.529 Q2235.58 264.399 2233.93 266.39 Q2232.29 268.358 2229.26 269.122 Z" fill="#000000" fill-rule="nonzero" fill-opacity="1" /><path clip-path="url(#clip000)" d="M2243.98 251.784 L2247.68 251.784 Q2251.15 257.247 2252.87 262.478 Q2254.6 267.71 2254.6 272.872 Q2254.6 278.057 2252.87 283.311 Q2251.15 288.566 2247.68 294.006 L2243.98 294.006 Q2247.06 288.705 2248.56 283.473 Q2250.09 278.219 2250.09 272.872 Q2250.09 267.524 2248.56 262.316 Q2247.06 257.108 2243.98 251.784 Z" fill="#000000" fill-rule="nonzero" fill-opacity="1" /></svg>
